<?xml version="1.0" encoding="utf-8"?>
<!-- Generator: Adobe Illustrator 15.0.0, SVG Export Plug-In . SVG Version: 6.00 Build 0)  -->
<!DOCTYPE svg PUBLIC "-//W3C//DTD SVG 1.1//EN" "http://www.w3.org/Graphics/SVG/1.1/DTD/svg11.dtd">
<svg version="1.1" id="Layer_1" xmlns="http://www.w3.org/2000/svg" xmlns:xlink="http://www.w3.org/1999/xlink" x="0px" y="0px"
	 width="64px" height="64px" viewBox="0 0 64 64" enable-background="new 0 0 64 64" xml:space="preserve">
<g>
	<g>
		<path d="M59.043,49.124l-8.886-8.891c-0.692-0.69-1.657-1.07-2.715-1.07c-1.113,0-2.189,0.434-2.949,1.193l-4.802,4.804
			l-1.298-0.72c-2.856-1.583-6.765-3.754-10.896-7.889c-4.146-4.142-6.318-8.062-7.907-10.928l-0.71-1.261l4.812-4.81
			c1.592-1.597,1.646-4.137,0.12-5.666l-8.887-8.886c-0.692-0.69-1.655-1.072-2.712-1.072c-1.115,0-2.189,0.436-2.949,1.197
			L7.082,7.321L6.877,7.656c-0.811,1.042-1.476,2.213-1.975,3.489c-0.461,1.216-0.75,2.372-0.881,3.531
			C2.875,24.199,7.267,32.942,19.18,44.854C33.302,58.973,45.101,60.07,48.382,60.07c0.561,0,0.9-0.03,0.997-0.04
			c1.212-0.147,2.372-0.438,3.542-0.893c1.263-0.492,2.43-1.152,3.468-1.965l0.497-0.391l2.042-2.004
			C60.518,53.188,60.569,50.651,59.043,49.124z"/>
	</g>
	<g>
		<path d="M43.243,27.227h-5.747v-0.039l1.022-0.946c2.697-2.598,4.411-4.507,4.411-6.869c0-1.831-1.162-3.72-3.918-3.72
			c-1.478,0-2.737,0.552-3.622,1.3l0.552,1.22c0.59-0.492,1.555-1.082,2.715-1.082c1.91,0,2.539,1.2,2.539,2.499
			c-0.02,1.93-1.496,3.584-4.764,6.693l-1.357,1.319v1.063h8.169V27.227z"/>
	</g>
	<g>
		<path d="M50.531,28.665h1.633V25.18h1.792v-1.357h-1.792V15.87h-1.868l-5.709,8.169v1.141h5.944V28.665z M46.338,23.823v-0.04
			l3.131-4.35c0.354-0.59,0.67-1.141,1.063-1.89h0.06c-0.039,0.67-0.06,1.338-0.06,2.008v4.271H46.338z"/>
	</g>
</g>
</svg>
