<?xml version="1.0" encoding="utf-8"?>
<!-- Generator: Adobe Illustrator 15.0.0, SVG Export Plug-In . SVG Version: 6.00 Build 0)  -->
<!DOCTYPE svg PUBLIC "-//W3C//DTD SVG 1.1//EN" "http://www.w3.org/Graphics/SVG/1.1/DTD/svg11.dtd">
<svg version="1.1" id="Layer_1" xmlns="http://www.w3.org/2000/svg" xmlns:xlink="http://www.w3.org/1999/xlink" x="0px" y="0px"
	 width="64px" height="64px" viewBox="0 0 64 64" enable-background="new 0 0 64 64" xml:space="preserve">
<g>
	<g>
		<path d="M58.756,39.45v-14.9c0.372-1.001,2.282-6.602-0.157-10.199c-2.258-3.331-7.388-3.822-15.246-1.391
			c-1.148-0.679-5.142-2.704-12.016-2.704c-6.601,0-9.733,1.888-10.758,2.682c-7.823-2.408-12.928-1.908-15.18,1.414
			C2.961,17.95,4.871,23.548,5.244,24.55v14.9c-0.373,1.001-2.282,6.6,0.157,10.198c2.25,3.32,7.356,3.818,15.178,1.414
			c1.024,0.794,4.157,2.68,10.758,2.68c6.875,0,10.868-2.022,12.016-2.703c3.283,1.017,6.115,1.53,8.423,1.53
			c3.215,0,5.511-0.981,6.826-2.921C61.039,46.05,59.129,40.451,58.756,39.45z M51.928,46.268H11.75V17.713h40.178V46.268z"/>
	</g>
	<g>
		<path d="M23.967,33.066h6.804v6.806c0,0.592,0.477,1.067,1.068,1.067c0.589,0,1.067-0.476,1.067-1.067v-6.806h6.805
			c0.589,0,1.066-0.477,1.066-1.067c0-0.588-0.478-1.066-1.066-1.066h-6.805v-6.806c0-0.589-0.478-1.066-1.067-1.066
			c-0.592,0-1.068,0.477-1.068,1.066v6.806h-6.804c-0.592,0-1.068,0.478-1.068,1.066C22.899,32.59,23.375,33.066,23.967,33.066z"/>
	</g>
</g>
</svg>
