<?xml version="1.0" encoding="utf-8"?>
<!-- Generator: Adobe Illustrator 15.0.0, SVG Export Plug-In . SVG Version: 6.00 Build 0)  -->
<!DOCTYPE svg PUBLIC "-//W3C//DTD SVG 1.1//EN" "http://www.w3.org/Graphics/SVG/1.1/DTD/svg11.dtd">
<svg version="1.1" id="Layer_1" xmlns="http://www.w3.org/2000/svg" xmlns:xlink="http://www.w3.org/1999/xlink" x="0px" y="0px"
	 width="64px" height="64px" viewBox="0 0 64 64" enable-background="new 0 0 64 64" xml:space="preserve">
<g>
	<g>
		<path d="M59.477,49.398l-9.026-9.033c-0.705-0.702-1.684-1.088-2.759-1.088c-1.132,0-2.223,0.441-2.994,1.213l-4.883,4.881
			l-1.318-0.731c-2.899-1.608-6.873-3.813-11.07-8.015c-4.211-4.208-6.419-8.191-8.032-11.103l-0.721-1.281l4.887-4.887
			c1.619-1.622,1.674-4.203,0.124-5.756l-9.031-9.028c-0.702-0.702-1.681-1.089-2.755-1.089c-1.13,0-2.223,0.443-2.997,1.216
			L6.683,6.925l-0.205,0.34C5.65,8.324,4.976,9.515,4.471,10.811C4,12.047,3.708,13.221,3.572,14.398
			c-1.163,9.676,3.299,18.56,15.403,30.663c14.349,14.345,26.337,15.46,29.669,15.46c0.571,0,0.918-0.031,1.013-0.041
			c1.234-0.149,2.41-0.446,3.599-0.907c1.283-0.499,2.471-1.17,3.525-1.996l0.505-0.397l2.075-2.035
			C60.975,53.528,61.027,50.95,59.477,49.398z"/>
	</g>
	<g>
		<polygon fill="#020202" points="43.159,20.388 43.159,9.215 38.795,9.215 38.797,20.388 27.625,20.388 27.625,24.752 
			38.795,24.752 38.795,35.925 43.159,35.925 43.159,24.752 54.334,24.752 54.334,20.388 		"/>
	</g>
</g>
</svg>
