<?xml version="1.0" encoding="utf-8"?>
<!-- Generator: Adobe Illustrator 15.0.0, SVG Export Plug-In . SVG Version: 6.00 Build 0)  -->
<!DOCTYPE svg PUBLIC "-//W3C//DTD SVG 1.1//EN" "http://www.w3.org/Graphics/SVG/1.1/DTD/svg11.dtd">
<svg version="1.1" id="Layer_1" xmlns="http://www.w3.org/2000/svg" xmlns:xlink="http://www.w3.org/1999/xlink" x="0px" y="0px"
	 width="64px" height="64px" viewBox="0 0 64 64" enable-background="new 0 0 64 64" xml:space="preserve">
<g>
	<g>
		<path d="M56.117,8.383c0-1.013-0.826-1.838-1.839-1.838h-3.757c-0.069,0-0.141,0.006-0.212,0.016V2.974H7.93v49.104
			c-0.047,0.455-0.396,4.543,1.869,7.07c1.116,1.246,2.658,1.879,4.581,1.879h34.091c1.013,0,1.839-0.826,1.839-1.839v-4.057
			l-36.104-0.028v1.627h34.478v2.458c0,0.119-0.094,0.212-0.212,0.212H14.379c-1.439,0-2.574-0.448-3.368-1.333
			c-1.561-1.739-1.527-4.727-1.474-5.634H50.31v-4.568c0.071,0.01,0.143,0.016,0.212,0.016h3.757c1.013,0,1.839-0.825,1.839-1.838
			V35.183c0-0.474-0.184-0.922-0.505-1.262c0.321-0.337,0.505-0.788,0.505-1.259V21.803c0-0.483-0.19-0.941-0.523-1.281
			c0.333-0.339,0.523-0.798,0.523-1.284V8.383z M35.396,34.229c-1.35,0-2.596-0.907-2.493-2.963H32.77
			c-1.181,1.988-2.729,2.963-4.749,2.963c-1.954,0-3.636-1.583-3.636-4.241c0-4.175,3.3-7.98,7.98-7.98
			c1.449,0,2.729,0.302,3.605,0.708l-1.146,6.091c-0.505,2.562-0.1,3.739,1.01,3.773c1.72,0.034,3.636-2.256,3.636-6.163
			c0-4.883-2.929-8.385-8.148-8.385c-5.487,0-10.102,4.347-10.102,11.18c0,5.624,3.671,9.092,8.653,9.092
			c1.919,0,3.705-0.404,5.085-1.178l0.539,1.449c-1.851,0.976-3.736,1.346-5.992,1.346c-5.524,0-10.205-4.041-10.205-10.506
			c0-6.936,4.814-12.931,12.29-12.931c5.861,0,9.8,4.11,9.8,9.734C41.389,31.266,38.563,34.229,35.396,34.229z M54.49,46.042
			c0,0.115-0.093,0.212-0.212,0.212h-3.757c-0.119,0-0.212-0.097-0.212-0.212V35.183c0-0.118,0.093-0.212,0.212-0.212h3.757
			c0.119,0,0.212,0.094,0.212,0.212V46.042z M54.49,32.662c0,0.115-0.093,0.212-0.212,0.212h-3.757
			c-0.119,0-0.212-0.097-0.212-0.212V21.803c0-0.119,0.093-0.212,0.212-0.212h3.757c0.119,0,0.212,0.093,0.212,0.212V32.662z
			 M54.49,19.239c0,0.118-0.093,0.215-0.212,0.215h-3.757c-0.119,0-0.212-0.097-0.212-0.215V8.383c0-0.118,0.093-0.212,0.212-0.212
			h3.757c0.119,0,0.212,0.094,0.212,0.212V19.239z"/>
	</g>
	<g>
		<path d="M26.606,29.854c0,1.48,0.741,2.559,2.222,2.559c1.954,0,3.739-2.493,4.11-4.581l0.708-3.805
			c-0.337-0.103-0.91-0.237-1.686-0.237C28.996,23.791,26.606,26.586,26.606,29.854z"/>
	</g>
</g>
</svg>
