<?xml version="1.0" encoding="utf-8"?>
<!-- Generator: Adobe Illustrator 15.0.0, SVG Export Plug-In . SVG Version: 6.00 Build 0)  -->
<!DOCTYPE svg PUBLIC "-//W3C//DTD SVG 1.1//EN" "http://www.w3.org/Graphics/SVG/1.1/DTD/svg11.dtd">
<svg version="1.1" id="Layer_1" xmlns="http://www.w3.org/2000/svg" xmlns:xlink="http://www.w3.org/1999/xlink" x="0px" y="0px"
	 width="64px" height="64px" viewBox="0 0 64 64" enable-background="new 0 0 64 64" xml:space="preserve">
<g>
	<g>
		<g>
			<path fill="#020202" d="M6.066,21.566c0.068,0,0.134-0.008,0.2-0.021c0.298-0.069,0.54-0.287,0.64-0.577
				c0.019-0.047,1.736-4.949,5.012-8.223c3.255-3.258,7.747-4.593,7.791-4.606c0.3-0.087,0.535-0.33,0.611-0.632
				c0.079-0.303-0.008-0.627-0.232-0.848c-1.957-1.957-4.557-3.034-7.325-3.034c-2.769,0-5.368,1.077-7.325,3.034
				c-4.038,4.038-4.038,10.609,0,14.65C5.608,21.474,5.834,21.566,6.066,21.566z"/>
		</g>
	</g>
	<g>
		<g>
			<path fill="#020202" d="M44.284,8.138c0.045,0.013,4.525,1.338,7.791,4.606c3.277,3.274,4.997,8.176,5.013,8.223
				c0.101,0.29,0.343,0.508,0.64,0.577c0.066,0.013,0.132,0.021,0.2,0.021c0.232,0,0.459-0.092,0.627-0.258
				c1.957-1.957,3.034-4.559,3.034-7.328c0-2.766-1.077-5.365-3.034-7.322s-4.557-3.034-7.324-3.034
				c-2.769,0-5.368,1.077-7.325,3.034c-0.222,0.221-0.311,0.545-0.231,0.848C43.75,7.812,43.984,8.051,44.284,8.138z"/>
		</g>
	</g>
	<g>
		<g>
			<path fill="#020202" d="M49.497,51.315c5.356-4.883,8.407-11.751,8.407-19.011c0-14.193-11.546-25.739-25.738-25.739
				c-14.194,0-25.741,11.546-25.741,25.739c0,7.599,3.29,14.675,9.066,19.588l-5.24,5.24c-0.36,0.356-0.559,0.834-0.56,1.341
				c-0.001,0.51,0.196,0.989,0.557,1.349c0.715,0.716,1.974,0.716,2.687,0l5.655-5.656c4.077,2.54,8.754,3.88,13.577,3.88
				c5.136,0,10.068-1.509,14.319-4.367l6.142,6.144c0.357,0.358,0.835,0.554,1.345,0.554c0.509,0,0.985-0.195,1.343-0.554
				c0.36-0.359,0.558-0.839,0.557-1.349c-0.001-0.507-0.2-0.984-0.557-1.338L49.497,51.315z M32.166,10.364
				c12.098,0,21.94,9.843,21.94,21.94c0,12.099-9.843,21.943-21.94,21.943c-12.099,0-21.943-9.844-21.943-21.943
				C10.223,20.207,20.067,10.364,32.166,10.364z"/>
		</g>
		<g>
			<path fill="#020202" d="M16.976,34.206H32.4c1.047,0,1.899-0.853,1.899-1.899V15.142c0-1.047-0.853-1.899-1.899-1.899
				c-1.048,0-1.902,0.852-1.902,1.899v15.264H16.976c-1.047,0-1.899,0.854-1.899,1.901C15.077,33.354,15.929,34.206,16.976,34.206z"
				/>
		</g>
	</g>
</g>
</svg>
