<?xml version="1.0" encoding="utf-8"?>
<!-- Generator: Adobe Illustrator 15.0.0, SVG Export Plug-In . SVG Version: 6.00 Build 0)  -->
<!DOCTYPE svg PUBLIC "-//W3C//DTD SVG 1.1//EN" "http://www.w3.org/Graphics/SVG/1.1/DTD/svg11.dtd">
<svg version="1.1" id="Layer_1" xmlns="http://www.w3.org/2000/svg" xmlns:xlink="http://www.w3.org/1999/xlink" x="0px" y="0px"
	 width="64px" height="64px" viewBox="0 0 64 64" enable-background="new 0 0 64 64" xml:space="preserve">
<g>
	<g>
		<path fill="#231F20" d="M16.727,28.351h-0.038c-0.188,0.52-0.392,1.055-0.638,1.587l-1.24,2.541h3.812l-1.24-2.527
			C17.104,29.377,16.915,28.857,16.727,28.351z"/>
	</g>
	<g>
		<path fill="#231F20" d="M2.833,14.144v35.713h58.334V14.144H2.833z M20.313,36.125l-1.352-2.761h-4.488l-1.313,2.761h-1.689
			l4.3-8.779h1.97l4.319,8.779H20.313z M33.427,36.125l-0.319-3.854c-0.096-1.227-0.21-2.697-0.191-3.79h-0.054
			c-0.434,1.026-0.957,2.123-1.597,3.334l-2.234,4.258h-1.24l-2.046-4.182c-0.599-1.237-1.106-2.372-1.463-3.411h-0.039
			c-0.038,1.093-0.13,2.563-0.245,3.879l-0.335,3.765h-1.562l0.883-8.779h2.084l2.158,4.246c0.529,1.081,0.959,2.047,1.278,2.955
			h0.058c0.318-0.883,0.768-1.849,1.332-2.955l2.254-4.246h2.084l0.788,8.779H33.427z M50.896,36.125l-1.615-1.941
			c-0.657-0.743-1.071-1.225-1.467-1.731h-0.035c-0.356,0.506-0.714,0.975-1.37,1.744l-1.523,1.929H43.25v-0.277l-0.242,0.277
			h-6.872v-8.779h6.834v0.95h-5.202v2.776h4.918v0.938h-4.918v3.165h5.482v0.673l3.628-4.163l-3.717-4.338h1.896l1.67,2.059
			c0.469,0.571,0.826,1.014,1.164,1.485h0.057c0.354-0.522,0.676-0.927,1.145-1.485l1.728-2.059h1.878l-3.848,4.271l3.939,4.507
			H50.896z"/>
	</g>
</g>
</svg>
