<?xml version="1.0" encoding="utf-8"?>
<!-- Generator: Adobe Illustrator 15.0.0, SVG Export Plug-In . SVG Version: 6.00 Build 0)  -->
<!DOCTYPE svg PUBLIC "-//W3C//DTD SVG 1.1//EN" "http://www.w3.org/Graphics/SVG/1.1/DTD/svg11.dtd">
<svg version="1.1" id="Layer_1" xmlns="http://www.w3.org/2000/svg" xmlns:xlink="http://www.w3.org/1999/xlink" x="0px" y="0px"
	 width="64px" height="64px" viewBox="0 0 64 64" enable-background="new 0 0 64 64" xml:space="preserve">
<g>
	<path d="M53.065,42.124c-0.345-0.436-0.841-0.711-1.388-0.775l-4.249-0.512l-0.29-0.021c-0.791,0-1.502,0.451-1.857,1.179
		c-0.389,0.804-0.227,1.764,0.401,2.391c1.574,1.575,1.533,2.563,1.365,3.166c-0.792,2.852-6.881,5.862-12.958,7.756V30.66h5.434
		V26.48H34.09v-7.54c3.299-0.921,5.613-3.907,5.613-7.397c0-4.248-3.455-7.703-7.703-7.703c-4.248,0-7.704,3.456-7.704,7.703
		c0,3.49,2.314,6.476,5.614,7.397v7.54h-5.434v4.179h5.434v24.647c-6.078-1.894-12.167-4.904-12.958-7.753
		c-0.167-0.605-0.209-1.594,1.36-3.163c0.634-0.63,0.798-1.595,0.408-2.392c-0.35-0.728-1.069-1.18-1.876-1.18l-4.512,0.529
		c-0.557,0.063-1.053,0.342-1.399,0.78s-0.5,0.985-0.434,1.546c0.128,1.05,1.009,1.841,2.049,1.841l0.328-0.026
		c-0.263,1.054-0.247,2.119,0.049,3.187c1.937,6.962,15.815,10.74,18.625,11.437c0.148,0.031,0.299,0.048,0.444,0.048
		c0.157,0,0.319-0.018,0.517-0.062c2.762-0.687,16.631-4.465,18.567-11.427c0.297-1.063,0.312-2.129,0.05-3.182l0.322,0.025
		c1.043,0,1.926-0.794,2.054-1.844C53.568,43.123,53.417,42.577,53.065,42.124z M29.91,11.543v2.827
		c-0.882-0.646-1.434-1.683-1.434-2.827C28.476,9.6,30.057,8.02,32,8.02s3.525,1.581,3.525,3.524c0,1.143-0.553,2.179-1.436,2.826
		v-2.826c0-1.151-0.938-2.089-2.09-2.089C30.847,9.455,29.91,10.392,29.91,11.543z"/>
</g>
</svg>
