<?xml version="1.0" encoding="utf-8"?>
<!-- Generator: Adobe Illustrator 15.0.0, SVG Export Plug-In . SVG Version: 6.00 Build 0)  -->
<!DOCTYPE svg PUBLIC "-//W3C//DTD SVG 1.1//EN" "http://www.w3.org/Graphics/SVG/1.1/DTD/svg11.dtd">
<svg version="1.1" id="Layer_1" xmlns="http://www.w3.org/2000/svg" xmlns:xlink="http://www.w3.org/1999/xlink" x="0px" y="0px"
	 width="64px" height="64px" viewBox="0 0 64 64" enable-background="new 0 0 64 64" xml:space="preserve">
<g>
	<path d="M53.844,52.344L34.524,33.025v-3.552h-3.554L11.655,10.158V3.456H3.456v8.199h6.704l12.507,12.508
		c-3.888-2.125-8.086-3.541-12.504-4.211l-0.226-0.034l-0.319,2.093l0.228,0.034c7.53,1.145,14.314,4.535,19.628,9.808v2.672h2.425
		c0.072,0.086,0.147,0.167,0.219,0.25c0.122,0.139,0.246,0.275,0.358,0.424c5.481,7.084,7.776,15.744,6.463,24.389l-0.036,0.228
		L41,60.131l0.033-0.225c1.106-7.296-0.172-14.547-3.703-21.08l15.014,15.015v6.703h8.2v-8.2H53.844z"/>
</g>
</svg>
