<?xml version="1.0" encoding="utf-8"?>
<!-- Generator: Adobe Illustrator 15.0.0, SVG Export Plug-In . SVG Version: 6.00 Build 0)  -->
<!DOCTYPE svg PUBLIC "-//W3C//DTD SVG 1.1//EN" "http://www.w3.org/Graphics/SVG/1.1/DTD/svg11.dtd">
<svg version="1.1" id="Layer_1" xmlns="http://www.w3.org/2000/svg" xmlns:xlink="http://www.w3.org/1999/xlink" x="0px" y="0px"
	 width="64px" height="64px" viewBox="0 0 64 64" enable-background="new 0 0 64 64" xml:space="preserve">
<g>
	<g>
		<polygon points="30.314,11.039 30.314,28.187 33.687,28.187 33.687,11.039 40.718,18.069 43.103,15.684 32,4.583 20.898,15.683 
			23.28,18.07 		"/>
	</g>
	<g>
		<polygon points="28.188,33.687 28.188,30.313 11.064,30.313 18.095,23.283 15.709,20.897 4.606,32 15.709,43.104 18.095,40.718 
			11.063,33.687 		"/>
	</g>
	<g>
		<polygon points="33.687,52.961 33.687,35.813 30.314,35.813 30.314,52.96 23.283,45.929 20.897,48.314 32,59.417 43.103,48.315 
			40.72,45.928 		"/>
	</g>
	<g>
		<polygon points="48.291,20.897 45.906,23.279 52.937,30.313 35.813,30.313 35.813,33.687 52.937,33.687 45.906,40.716 
			48.289,43.104 59.395,32 		"/>
	</g>
</g>
</svg>
