<?xml version="1.0" encoding="utf-8"?>
<!-- Generator: Adobe Illustrator 15.0.0, SVG Export Plug-In . SVG Version: 6.00 Build 0)  -->
<!DOCTYPE svg PUBLIC "-//W3C//DTD SVG 1.1//EN" "http://www.w3.org/Graphics/SVG/1.1/DTD/svg11.dtd">
<svg version="1.1" id="Layer_1" xmlns="http://www.w3.org/2000/svg" xmlns:xlink="http://www.w3.org/1999/xlink" x="0px" y="0px"
	 width="64px" height="64px" viewBox="0 0 64 64" enable-background="new 0 0 64 64" xml:space="preserve">
<g>
	<path d="M51.091,24.6L34.592,4.664c-0.208-0.245-1.327-1.469-3.043-1.469c-0.685,0-1.707,0.205-2.686,1.183
		c-2.021,2.024-15.121,19.407-16.082,20.684c-0.657,0.674-1.936,2.282-1.225,4.005c0.503,1.22,1.689,1.839,3.522,1.839h1.735
		l0,26.654c-0.008,0.301,0.031,1.35,0.884,2.231c0.45,0.462,1.269,1.013,2.623,1.013h22.833c1.783,0,2.713-0.722,3.178-1.325
		c0.662-0.857,0.656-1.793,0.602-2.247v-26.92h2.446c2.096,0,2.836-1.083,3.091-1.724C53.172,26.825,51.668,25.155,51.091,24.6z
		 M42.92,26.3v30.494L20.826,56.79V26.896h-4.41c5.101-6.755,13.338-17.553,15.18-19.56L47.296,26.3H42.92z"/>
</g>
</svg>
