<?xml version="1.0" encoding="utf-8"?>
<!-- Generator: Adobe Illustrator 15.0.0, SVG Export Plug-In . SVG Version: 6.00 Build 0)  -->
<!DOCTYPE svg PUBLIC "-//W3C//DTD SVG 1.1//EN" "http://www.w3.org/Graphics/SVG/1.1/DTD/svg11.dtd">
<svg version="1.1" id="Layer_1" xmlns="http://www.w3.org/2000/svg" xmlns:xlink="http://www.w3.org/1999/xlink" x="0px" y="0px"
	 width="64px" height="64px" viewBox="0 0 64 64" enable-background="new 0 0 64 64" xml:space="preserve">
<g>
	<g>
		<g>
			<path d="M36.49,51.974c-0.453,0-1.505-0.205-1.505-2.114v-8.763H5.983c-0.08,0.013-0.188,0.024-0.315,0.024
				c-0.516,0-0.992-0.195-1.341-0.553c-0.454-0.464-0.684-1.173-0.684-2.106v-13.47c0-1.863,1.321-2.355,2.02-2.355h28.711v-8.031
				c0-2.245,1.068-2.58,1.706-2.58c1.022,0,2.04,0.971,2.233,1.167c0.698,0.515,19.166,14.438,21.196,16.465
				c0.736,0.738,0.866,1.48,0.846,1.972c-0.049,1.183-0.961,1.988-1.063,2.077L38.75,50.706
				C38.525,50.95,37.482,51.974,36.49,51.974z"/>
		</g>
	</g>
</g>
</svg>
