<?xml version="1.0" encoding="utf-8"?>
<!-- Generator: Adobe Illustrator 15.0.0, SVG Export Plug-In . SVG Version: 6.00 Build 0)  -->
<!DOCTYPE svg PUBLIC "-//W3C//DTD SVG 1.1//EN" "http://www.w3.org/Graphics/SVG/1.1/DTD/svg11.dtd">
<svg version="1.1" id="Layer_1" xmlns="http://www.w3.org/2000/svg" xmlns:xlink="http://www.w3.org/1999/xlink" x="0px" y="0px"
	 width="64px" height="64px" viewBox="0 0 64 64" enable-background="new 0 0 64 64" xml:space="preserve">
<g>
	<g>
		<path d="M8.732,32.229c0-5.288,4.302-9.589,9.59-9.589h34.143l-8.618,8.618l2.631,2.63L59.587,20.78L46.479,7.673l-2.629,2.631
			l8.616,8.617H18.323c-7.338,0-13.309,5.971-13.309,13.309v1.364h3.719V32.229z"/>
	</g>
	<g>
		<path d="M55.268,34.44c0,5.288-4.303,9.589-9.591,9.589H11.533l8.619-8.618l-2.632-2.629L4.413,45.89l13.108,13.107l2.629-2.631
			l-8.618-8.617h34.144c7.339,0,13.31-5.97,13.31-13.309v-1.364h-3.719V34.44z"/>
	</g>
</g>
</svg>
