<?xml version="1.0" encoding="utf-8"?>
<!-- Generator: Adobe Illustrator 15.0.0, SVG Export Plug-In . SVG Version: 6.00 Build 0)  -->
<!DOCTYPE svg PUBLIC "-//W3C//DTD SVG 1.1//EN" "http://www.w3.org/Graphics/SVG/1.1/DTD/svg11.dtd">
<svg version="1.1" id="Layer_1" xmlns="http://www.w3.org/2000/svg" xmlns:xlink="http://www.w3.org/1999/xlink" x="0px" y="0px"
	 width="64px" height="64px" viewBox="0 0 64 64" enable-background="new 0 0 64 64" xml:space="preserve">
<g>
	<g>
		<g>
			<path d="M52.032,27.499c0,0.453-0.206,1.508-2.12,1.508h-8.788v29.087c0.012,0.078,0.024,0.188,0.024,0.315
				c0,0.517-0.197,0.994-0.556,1.345c-0.465,0.455-1.175,0.687-2.112,0.687H24.972c-1.869,0-2.362-1.326-2.362-2.026V29.619h-8.056
				c-2.251,0-2.586-1.072-2.586-1.711c0-1.023,0.975-2.045,1.17-2.24c0.517-0.7,14.48-19.222,16.512-21.259
				c0.741-0.737,1.485-0.868,1.978-0.847c1.186,0.049,1.995,0.962,2.083,1.067l17.05,20.601
				C51.007,25.455,52.032,26.502,52.032,27.499z"/>
		</g>
	</g>
</g>
</svg>
