<?xml version="1.0" encoding="utf-8"?>
<!-- Generator: Adobe Illustrator 15.0.0, SVG Export Plug-In . SVG Version: 6.00 Build 0)  -->
<!DOCTYPE svg PUBLIC "-//W3C//DTD SVG 1.1//EN" "http://www.w3.org/Graphics/SVG/1.1/DTD/svg11.dtd">
<svg version="1.1" id="Layer_1" xmlns="http://www.w3.org/2000/svg" xmlns:xlink="http://www.w3.org/1999/xlink" x="0px" y="0px"
	 width="64px" height="64px" viewBox="0 0 64 64" enable-background="new 0 0 64 64" xml:space="preserve">
<g>
	<g>
		<polygon fill="#231F20" points="43.61,37.313 32,25.704 20.391,37.313 22.747,39.67 30.333,32.083 30.333,54.693 33.667,54.693 
			33.667,32.084 41.252,39.668 		"/>
	</g>
	<g>
		<path fill="#231F20" d="M49.792,20.551c-0.552,0-1.109,0.036-1.664,0.108c-2.82-4.128-7.955-6.349-12.971-5.426
			c-2.362-3.675-6.443-5.926-10.842-5.926c-6.651,0-12.121,5.001-12.82,11.541C5.567,22.119,1.354,27.285,1.354,33.45
			c0,7.113,5.787,12.899,12.899,12.899h12.882v-3.306H14.253c-5.29,0-9.594-4.304-9.594-9.594c0-4.927,3.691-9.028,8.584-9.539
			l1.479-0.335v-1.371c0-5.29,4.303-9.593,9.593-9.593c3.625,0,6.9,2.015,8.549,5.259l0.619,1.22l1.314-0.381
			c4.345-1.259,8.942,0.733,11.065,4.567l0.598,1.078l1.205-0.265c0.705-0.156,1.418-0.235,2.123-0.235
			c5.268,0,9.552,4.304,9.552,9.593c0,5.29-4.304,9.594-9.594,9.594H36.776v3.306h12.971c7.112,0,12.899-5.786,12.899-12.899
			C62.646,26.338,56.88,20.551,49.792,20.551z"/>
	</g>
</g>
</svg>
