<?xml version="1.0" encoding="utf-8"?>
<!-- Generator: Adobe Illustrator 15.0.0, SVG Export Plug-In . SVG Version: 6.00 Build 0)  -->
<!DOCTYPE svg PUBLIC "-//W3C//DTD SVG 1.1//EN" "http://www.w3.org/Graphics/SVG/1.1/DTD/svg11.dtd">
<svg version="1.1" id="Layer_1" xmlns="http://www.w3.org/2000/svg" xmlns:xlink="http://www.w3.org/1999/xlink" x="0px" y="0px"
	 width="64px" height="64px" viewBox="0 0 64 64" enable-background="new 0 0 64 64" xml:space="preserve">
<g>
	<polygon points="55.141,37.322 55.141,51.694 35.445,32 55.116,12.33 55.116,26.699 59.988,26.699 59.99,4.01 37.301,4.011 
		37.3,8.882 51.669,8.884 31.999,28.553 12.305,8.86 26.674,8.86 26.674,3.985 3.985,3.985 3.985,26.673 8.86,26.678 8.86,12.305 
		28.554,32 8.884,51.67 8.884,37.301 4.01,37.301 4.01,59.992 26.697,59.988 26.7,55.117 12.33,55.117 32,35.447 51.694,55.141 
		37.325,55.141 37.325,60.015 60.015,60.015 60.015,37.327 	"/>
</g>
</svg>
