<?xml version="1.0" encoding="utf-8"?>
<!-- Generator: Adobe Illustrator 15.0.0, SVG Export Plug-In . SVG Version: 6.00 Build 0)  -->
<!DOCTYPE svg PUBLIC "-//W3C//DTD SVG 1.1//EN" "http://www.w3.org/Graphics/SVG/1.1/DTD/svg11.dtd">
<svg version="1.1" id="Layer_1" xmlns="http://www.w3.org/2000/svg" xmlns:xlink="http://www.w3.org/1999/xlink" x="0px" y="0px"
	 width="64px" height="64px" viewBox="0 0 64 64" enable-background="new 0 0 64 64" xml:space="preserve">
<g>
	<g>
		<polygon points="17.137,29.977 27.194,19.924 24.333,17.059 9.392,32.001 24.331,46.94 27.194,44.08 17.136,34.022 52.627,34.022 
			52.627,29.977 		"/>
	</g>
	<g>
		<path d="M32,3.5C16.285,3.5,3.5,16.285,3.5,32.001C3.5,47.716,16.285,60.5,32,60.5s28.499-12.784,28.499-28.499
			C60.499,16.285,47.715,3.5,32,3.5z M32,56.644c-13.588,0-24.643-11.055-24.643-24.642C7.357,18.412,18.412,7.357,32,7.357
			c13.588,0,24.642,11.055,24.642,24.645C56.642,45.589,45.588,56.644,32,56.644z"/>
	</g>
</g>
</svg>
