<?xml version="1.0" encoding="utf-8"?>
<!-- Generator: Adobe Illustrator 15.0.0, SVG Export Plug-In . SVG Version: 6.00 Build 0)  -->
<!DOCTYPE svg PUBLIC "-//W3C//DTD SVG 1.1//EN" "http://www.w3.org/Graphics/SVG/1.1/DTD/svg11.dtd">
<svg version="1.1" id="Layer_1" xmlns="http://www.w3.org/2000/svg" xmlns:xlink="http://www.w3.org/1999/xlink" x="0px" y="0px"
	 width="64px" height="64px" viewBox="0 0 64 64" enable-background="new 0 0 64 64" xml:space="preserve">
<g>
	<g>
		<polygon points="39.69,17.017 36.82,19.884 46.908,29.971 11.314,29.971 11.314,34.027 46.908,34.027 36.821,44.114 39.69,46.985 
			54.676,32 		"/>
	</g>
	<g>
		<path d="M32,3.417C16.239,3.417,3.416,16.238,3.416,32S16.239,60.583,32,60.583c15.761,0,28.584-12.822,28.584-28.583
			S47.761,3.417,32,3.417z M32,56.715C18.372,56.715,7.284,45.627,7.284,32C7.284,18.372,18.372,7.285,32,7.285
			c13.627,0,24.716,11.087,24.716,24.715C56.716,45.627,45.627,56.715,32,56.715z"/>
	</g>
</g>
</svg>
