<?xml version="1.0" encoding="utf-8"?>
<!-- Generator: Adobe Illustrator 15.0.0, SVG Export Plug-In . SVG Version: 6.00 Build 0)  -->
<!DOCTYPE svg PUBLIC "-//W3C//DTD SVG 1.1//EN" "http://www.w3.org/Graphics/SVG/1.1/DTD/svg11.dtd">
<svg version="1.1" id="Layer_1" xmlns="http://www.w3.org/2000/svg" xmlns:xlink="http://www.w3.org/1999/xlink" x="0px" y="0px"
	 width="64px" height="64px" viewBox="0 0 64 64" enable-background="new 0 0 64 64" xml:space="preserve">
<g>
	<g>
		<polygon points="55.502,30.104 55.507,25.465 41.818,25.461 60.532,6.748 57.248,3.469 38.537,22.182 38.538,8.497 33.893,8.497 
			33.895,30.107 		"/>
	</g>
	<g>
		<polygon points="8.506,33.893 8.487,38.535 22.182,38.535 3.471,57.246 6.748,60.532 25.461,41.818 25.461,55.501 30.105,55.501 
			30.104,33.893 		"/>
	</g>
	<g>
		<polygon points="55.501,38.542 55.501,33.896 33.892,33.896 33.893,55.507 38.534,55.507 38.535,41.821 57.248,60.531 
			60.531,57.252 41.818,38.538 		"/>
	</g>
	<g>
		<polygon points="25.463,22.185 6.748,3.468 3.468,6.754 22.18,25.465 8.5,25.465 8.495,30.107 30.105,30.107 30.105,8.502 
			25.463,8.493 		"/>
	</g>
</g>
</svg>
