<?xml version="1.0" encoding="utf-8"?>
<!-- Generator: Adobe Illustrator 15.0.0, SVG Export Plug-In . SVG Version: 6.00 Build 0)  -->
<!DOCTYPE svg PUBLIC "-//W3C//DTD SVG 1.1//EN" "http://www.w3.org/Graphics/SVG/1.1/DTD/svg11.dtd">
<svg version="1.1" id="Layer_1" xmlns="http://www.w3.org/2000/svg" xmlns:xlink="http://www.w3.org/1999/xlink" x="0px" y="0px"
	 width="64px" height="64px" viewBox="0 0 64 64" enable-background="new 0 0 64 64" xml:space="preserve">
<g>
	<g>
		<polygon fill="#231F20" points="21.464,46.559 32.001,57.096 42.537,46.559 40.398,44.42 33.514,51.305 33.514,30.786 
			30.488,30.786 30.488,51.305 23.604,44.42 		"/>
	</g>
	<g>
		<path fill="#231F20" d="M48.147,17.109c-0.501,0-1.007,0.033-1.511,0.098c-2.56-3.747-7.22-5.762-11.771-4.924
			c-2.144-3.335-5.848-5.378-9.84-5.378c-6.036,0-11,4.539-11.635,10.474c-5.38,1.154-9.204,5.843-9.204,11.438
			c0,6.455,5.252,11.707,11.707,11.707h11.691v-3H15.894c-4.801,0-8.707-3.906-8.707-8.707c0-4.472,3.35-8.194,7.791-8.658
			l1.342-0.304v-1.245c0-4.8,3.905-8.706,8.706-8.706c3.29,0,6.263,1.829,7.759,4.773l0.563,1.107l1.192-0.346
			c3.943-1.143,8.116,0.665,10.043,4.145l0.542,0.979l1.094-0.24c0.64-0.141,1.287-0.213,1.927-0.213
			c4.78,0,8.669,3.906,8.669,8.707c0,4.8-3.906,8.707-8.707,8.707H36.335v3h11.771c6.455,0,11.707-5.252,11.707-11.707
			C59.813,22.361,54.58,17.109,48.147,17.109z"/>
	</g>
</g>
</svg>
