<?xml version="1.0" encoding="utf-8"?>
<!-- Generator: Adobe Illustrator 15.0.0, SVG Export Plug-In . SVG Version: 6.00 Build 0)  -->
<!DOCTYPE svg PUBLIC "-//W3C//DTD SVG 1.1//EN" "http://www.w3.org/Graphics/SVG/1.1/DTD/svg11.dtd">
<svg version="1.1" id="Layer_1" xmlns="http://www.w3.org/2000/svg" xmlns:xlink="http://www.w3.org/1999/xlink" x="0px" y="0px"
	 width="64px" height="64px" viewBox="0 0 64 64" enable-background="new 0 0 64 64" xml:space="preserve">
<g>
	<g>
		<g>
			<path d="M28.016,51.504c-0.998,0-1.992-0.948-2.181-1.139C25.153,49.862,7.119,36.267,5.137,34.288
				c-0.719-0.722-0.846-1.446-0.825-1.928c0.047-1.153,0.938-1.941,1.039-2.027l20.058-16.6c0.22-0.24,1.239-1.238,2.208-1.238
				c0.442,0,1.469,0.202,1.469,2.064v8.558h28.318c0.079-0.013,0.184-0.025,0.309-0.025c0.33,0,1.978,0.126,1.978,2.598v13.152
				c0,1.819-1.289,2.301-1.971,2.301H29.682v7.844C29.682,51.178,28.638,51.504,28.016,51.504z M28.016,49.919v0.792V49.919
				L28.016,49.919z"/>
		</g>
	</g>
</g>
</svg>
