<?xml version="1.0" encoding="utf-8"?>
<!-- Generator: Adobe Illustrator 15.0.0, SVG Export Plug-In . SVG Version: 6.00 Build 0)  -->
<!DOCTYPE svg PUBLIC "-//W3C//DTD SVG 1.1//EN" "http://www.w3.org/Graphics/SVG/1.1/DTD/svg11.dtd">
<svg version="1.1" id="Layer_1" xmlns="http://www.w3.org/2000/svg" xmlns:xlink="http://www.w3.org/1999/xlink" x="0px" y="0px"
	 width="64px" height="64px" viewBox="0 0 64 64" enable-background="new 0 0 64 64" xml:space="preserve">
<g>
	<g>
		<g>
			<path d="M32.467,60.464c-1.237,0-2.087-0.96-2.181-1.07l-17.063-20.62c-0.452-0.418-1.615-1.683-1.175-2.788
				c0.261-0.656,0.942-0.989,2.025-0.989h8.795V5.884c-0.043-0.275-0.078-0.902,0.358-1.468c0.45-0.583,1.219-0.879,2.286-0.879
				h13.52c0.958,0,1.51,0.362,1.806,0.667c0.553,0.57,0.562,1.26,0.559,1.393v28.788h8.062c0.497,0,2.012,0,2.476,1.122
				c0.482,1.171-0.688,2.462-1.059,2.829c-0.517,0.702-14.492,19.24-16.526,21.276C33.646,60.314,32.938,60.464,32.467,60.464z"/>
		</g>
	</g>
</g>
</svg>
