<?xml version="1.0" encoding="utf-8"?>
<!-- Generator: Adobe Illustrator 15.0.0, SVG Export Plug-In . SVG Version: 6.00 Build 0)  -->
<!DOCTYPE svg PUBLIC "-//W3C//DTD SVG 1.1//EN" "http://www.w3.org/Graphics/SVG/1.1/DTD/svg11.dtd">
<svg version="1.1" id="Layer_1" xmlns="http://www.w3.org/2000/svg" xmlns:xlink="http://www.w3.org/1999/xlink" x="0px" y="0px"
	 width="64px" height="64px" viewBox="0 0 64 64" enable-background="new 0 0 64 64" xml:space="preserve">
<g>
	<g>
		<path fill="#231F20" d="M17.399,17.323c-0.691,0-1.387,0.439-1.555,0.979L4.942,53.585c-0.167,0.54,0.258,0.979,0.947,0.979
			h20.436l11.508-37.242H17.399z M16.812,50.534h-4.006l3.636-11.765h4.005L16.812,50.534z"/>
	</g>
	<g>
		<path fill="#231F20" d="M2.833,9.436v11.429h9.137l1.268-4.104c0.4-1.293,2.066-2.344,3.718-2.344h33.375
			c1.649,0,2.667,1.051,2.269,2.344l-1.269,4.104h9.836V9.436H2.833z"/>
	</g>
	<g>
		<path fill="#231F20" d="M48.093,17.323h-5.754L30.831,54.564h5.754c0.688,0,1.387-0.439,1.552-0.979L49.04,18.301
			C49.207,17.762,48.782,17.323,48.093,17.323z"/>
	</g>
</g>
</svg>
