<?xml version="1.0" encoding="utf-8"?>
<!-- Generator: Adobe Illustrator 15.0.0, SVG Export Plug-In . SVG Version: 6.00 Build 0)  -->
<!DOCTYPE svg PUBLIC "-//W3C//DTD SVG 1.1//EN" "http://www.w3.org/Graphics/SVG/1.1/DTD/svg11.dtd">
<svg version="1.1" id="Layer_1" xmlns="http://www.w3.org/2000/svg" xmlns:xlink="http://www.w3.org/1999/xlink" x="0px" y="0px"
	 width="64px" height="64px" viewBox="0 0 64 64" enable-background="new 0 0 64 64" xml:space="preserve">
<g>
	<path fill="#231F20" d="M57.353,18.089l3.205-3.206c0.761-0.764,0.761-2.002,0-2.759l-2.476-2.476c-0.736-0.736-2.02-0.736-2.76,0
		l-8.44,8.44H17.34L8.9,9.649c-0.74-0.736-2.02-0.736-2.763,0l-2.471,2.472c-0.761,0.761-0.762,1.999-0.001,2.763l3.207,3.206H2.042
		v9.481h4.226l5.828,27.334h38.131l7.493-27.334h4.239v-9.481H57.353z M19.788,46.924c0,0.553-0.448,0.999-0.999,0.999
		c-0.552,0-1-0.446-1-0.999V31.45c0-0.553,0.448-1,1-1c0.551,0,0.999,0.446,0.999,1V46.924z M28.616,46.924
		c0,0.553-0.446,0.999-0.999,0.999c-0.55,0-1-0.446-1-0.999V31.45c0-0.553,0.45-1,1-1c0.553,0,0.999,0.446,0.999,1V46.924z
		 M37.343,46.924c0,0.553-0.45,0.999-1,0.999c-0.553,0-0.999-0.446-0.999-0.999V31.45c0-0.553,0.446-1,0.999-1c0.55,0,1,0.446,1,1
		V46.924z M45.963,46.924c0,0.553-0.446,0.999-1,0.999c-0.55,0-0.999-0.446-0.999-0.999V31.45c0-0.553,0.449-1,0.999-1
		c0.554,0,1,0.446,1,1V46.924z M59.959,25.572H4.04v-5.484h7.657l-6.618-6.552l2.408-2.473l9.026,9.025h31.195l8.962-9.025
		l2.473,2.407l-6.618,6.618h7.434V25.572z"/>
</g>
</svg>
