<?xml version="1.0" encoding="utf-8"?>
<!-- Generator: Adobe Illustrator 15.0.0, SVG Export Plug-In . SVG Version: 6.00 Build 0)  -->
<!DOCTYPE svg PUBLIC "-//W3C//DTD SVG 1.1//EN" "http://www.w3.org/Graphics/SVG/1.1/DTD/svg11.dtd">
<svg version="1.1" id="Layer_1" xmlns="http://www.w3.org/2000/svg" xmlns:xlink="http://www.w3.org/1999/xlink" x="0px" y="0px"
	 width="64px" height="64px" viewBox="0 0 64 64" enable-background="new 0 0 64 64" xml:space="preserve">
<g>
	<g>
		<path d="M40.004,22.699c-0.077-0.175-0.248-0.284-0.436-0.284h-5.344l9.172-10.359c0.123-0.141,0.154-0.342,0.077-0.511
			c-0.076-0.173-0.248-0.282-0.436-0.282H31.934c-0.144,0-0.276,0.064-0.367,0.173L18.002,27.638
			c-0.118,0.141-0.145,0.339-0.067,0.505c0.078,0.17,0.247,0.28,0.432,0.28h9.794L11.786,51.985
			c-0.142,0.206-0.102,0.487,0.094,0.645c0.088,0.07,0.194,0.105,0.299,0.105c0.127,0,0.255-0.052,0.348-0.151l27.389-29.369
			C40.045,23.078,40.079,22.872,40.004,22.699z"/>
	</g>
	<g>
		<g>
			<path fill="#231F20" d="M17.889,30.928c-1.011,0-1.936-0.595-2.358-1.516c-0.42-0.89-0.278-1.979,0.372-2.752l9.222-11.014H1.893
				v26.549h13.906l7.829-11.267H17.889z"/>
		</g>
		<g>
			<path fill="#231F20" d="M56.999,22.319l-0.015-6.674H44.125l-4.458,5.035h0.634c1.031,0,1.965,0.609,2.378,1.552
				c0.418,0.968,0.223,2.072-0.493,2.827L26.207,42.194h30.778v-6.311h0.015v-2.449h5.108V22.319H56.999z M60.896,32.224h-3.897
				v-8.693h3.897V32.224z"/>
		</g>
	</g>
</g>
</svg>
