<?xml version="1.0" encoding="utf-8"?>
<!-- Generator: Adobe Illustrator 15.0.0, SVG Export Plug-In . SVG Version: 6.00 Build 0)  -->
<!DOCTYPE svg PUBLIC "-//W3C//DTD SVG 1.1//EN" "http://www.w3.org/Graphics/SVG/1.1/DTD/svg11.dtd">
<svg version="1.1" id="Layer_1" xmlns="http://www.w3.org/2000/svg" xmlns:xlink="http://www.w3.org/1999/xlink" x="0px" y="0px"
	 width="64px" height="64px" viewBox="0 0 64 64" enable-background="new 0 0 64 64" xml:space="preserve">
<g>
	<path d="M59.93,49.074c-1.279-1.333-2.475-2.31-3.531-3.171c-2.395-1.956-3.716-3.035-3.716-6.222V28.448
		c-0.044-8.924-5.854-16.908-14.044-19.663c-0.033-0.014-0.058-0.039-0.092-0.05c-0.123-0.038-0.243-0.065-0.364-0.1
		c-0.167-0.051-0.327-0.115-0.494-0.162c-0.433-1.941-1.972-4.599-5.69-4.599c-3.741,0-5.263,2.552-5.689,4.449
		c-0.271,0.07-0.445,0.123-0.481,0.135c-0.075,0.024-0.133,0.074-0.199,0.112c-8.29,2.662-14.201,10.773-14.248,19.881v10.873
		c0,3.287-1.494,4.561-3.966,6.669c-1.007,0.857-2.146,1.829-3.344,3.08c-0.324,0.339-0.414,0.835-0.23,1.264
		c0.182,0.43,0.605,0.708,1.07,0.708H23.47c1.113,5.372,4.631,9.078,8.698,9.078c4.064,0,7.582-3.706,8.694-9.078h18.227
		c0.466,0,0.888-0.278,1.07-0.708C60.344,49.909,60.251,49.412,59.93,49.074z M32.168,57.793c-2.685,0-5.158-2.591-6.201-6.328
		h12.398C37.322,55.202,34.851,57.793,32.168,57.793z"/>
</g>
</svg>
