<?xml version="1.0" encoding="utf-8"?>
<!-- Generator: Adobe Illustrator 15.0.0, SVG Export Plug-In . SVG Version: 6.00 Build 0)  -->
<!DOCTYPE svg PUBLIC "-//W3C//DTD SVG 1.1//EN" "http://www.w3.org/Graphics/SVG/1.1/DTD/svg11.dtd">
<svg version="1.1" id="Layer_1" xmlns="http://www.w3.org/2000/svg" xmlns:xlink="http://www.w3.org/1999/xlink" x="0px" y="0px"
	 width="64px" height="64px" viewBox="0 0 64 64" enable-background="new 0 0 64 64" xml:space="preserve">
<g>
	<path d="M55.887,11.684H36.225c-1.261,0-2.879,0.369-4.126,1.347c-1.125-0.978-2.583-1.347-3.721-1.347H8.115
		c-1.559,0-2.828,1.212-2.828,2.701v33.988c0,1.489,1.269,2.7,2.828,2.7h19.966l2.122,1.05c0.556,0.275,1.226,0.229,1.798,0.027
		c0.31,0.109,0.641,0.165,0.975,0.165c0.26,0,0.508-0.052,0.738-0.152l2.508-1.09h19.665c1.56,0,2.825-1.211,2.825-2.7V14.385
		C58.712,12.896,57.446,11.684,55.887,11.684z M35.1,47.523l-1.247,0.541V17.285c0-0.809,0.267-1.265,0.92-1.575
		c0.6-0.285,1.271-0.334,1.479-0.321h18.757l0.011,31.981H35.836C35.58,47.37,35.324,47.425,35.1,47.523z M56.025,14.386
		L56.025,14.386c0-0.001,0.006,0.001,0.006,0H56.025z M28.398,15.389c0.798,0,1.75,0.33,1.75,1.896v30.678l-0.806-0.399
		c-0.253-0.127-0.539-0.193-0.827-0.193H8.129l-0.157,0.034l0.143-33.039v1.023H28.398z M7.974,48.371L7.974,48.371
		c0,0.002-0.005,0-0.005,0H7.974z"/>
</g>
</svg>
