<?xml version="1.0" encoding="utf-8"?>
<!-- Generator: Adobe Illustrator 15.0.0, SVG Export Plug-In . SVG Version: 6.00 Build 0)  -->
<!DOCTYPE svg PUBLIC "-//W3C//DTD SVG 1.1//EN" "http://www.w3.org/Graphics/SVG/1.1/DTD/svg11.dtd">
<svg version="1.1" id="Layer_1" xmlns="http://www.w3.org/2000/svg" xmlns:xlink="http://www.w3.org/1999/xlink" x="0px" y="0px"
	 width="64px" height="64px" viewBox="0 0 64 64" enable-background="new 0 0 64 64" xml:space="preserve">
<g>
	<g>
		<path d="M43.836,13.285c0.129-1.083,1.442-1.529,2.762-1.702C46.782,9.008,46.253,7,45.017,5.611
			c-1.861-2.097-5.114-2.536-7.512-2.536c-1.807,0-3.449,0.242-4.443,0.428v54.02l-0.058,0.153c-0.004,0.013-0.01,0.023-0.013,0.035
			c0.984,2.15,2.478,3.214,4.563,3.214c3.02,0,6.44-2.155,8.163-3.397c-2.323-1.217-6.734-3.882-6.982-6.688l1.811-0.16
			c0.161,1.828,4.11,4.34,6.837,5.651c5.673-3.341,8.606-6.553,8.474-9.299c-0.142-2.958-3.833-4.668-3.869-4.684l-1.874-0.853
			l0.116-0.052c-2.398-1.119-6.08-2.428-8.184-1.558c-0.774,0.322-1.274,0.932-1.529,1.871l-1.752-0.475
			c0.403-1.499,1.274-2.533,2.591-3.076c3.565-1.47,9.406,1.418,11.035,2.291c2.011-0.967,3.298-2.409,3.904-4.413
			c1.991-6.568-3.997-16.7-5.102-18.486C44.885,15.635,43.693,14.488,43.836,13.285z M45.488,28.165
			c-0.304-0.208-7.406-5.131-6.751-10.245l1.804,0.232c-0.429,3.329,4.166,7.273,5.973,8.512L45.488,28.165z"/>
	</g>
	<g>
		<path d="M30.941,57.522V3.503c-0.997-0.186-2.636-0.428-4.443-0.428c-2.397,0-5.65,0.439-7.512,2.536
			C17.75,7,17.221,9.008,17.405,11.583c1.32,0.173,2.633,0.62,2.762,1.702c0.142,1.204-1.049,2.351-7.357,4.314
			c-1.107,1.786-7.096,11.918-5.105,18.486c0.61,2.004,1.894,3.446,3.908,4.414c1.629-0.874,7.473-3.764,11.036-2.292
			c1.313,0.543,2.188,1.577,2.591,3.076l-1.755,0.475c-0.251-0.939-0.755-1.551-1.529-1.871c-2.107-0.87-5.786,0.438-8.18,1.558
			l0.125,0.056l-1.884,0.849c-0.039,0.016-3.727,1.726-3.869,4.684c-0.135,2.767,2.84,6.003,8.593,9.372
			c2.729-1.291,6.828-3.861,6.992-5.725l1.811,0.16c-0.255,2.87-4.87,5.594-7.145,6.77c1.759,1.254,5.095,3.313,8.051,3.315
			c2.085,0,3.576-1.062,4.563-3.214c-0.006-0.012-0.01-0.022-0.016-0.035L30.941,57.522z M18.515,28.165l-1.026-1.5
			c1.807-1.239,6.398-5.184,5.973-8.512l1.801-0.232C25.921,23.034,18.819,27.957,18.515,28.165z"/>
	</g>
</g>
</svg>
