<?xml version="1.0" encoding="utf-8"?>
<!-- Generator: Adobe Illustrator 15.0.0, SVG Export Plug-In . SVG Version: 6.00 Build 0)  -->
<!DOCTYPE svg PUBLIC "-//W3C//DTD SVG 1.1//EN" "http://www.w3.org/Graphics/SVG/1.1/DTD/svg11.dtd">
<svg version="1.1" id="Layer_1" xmlns="http://www.w3.org/2000/svg" xmlns:xlink="http://www.w3.org/1999/xlink" x="0px" y="0px"
	 width="64px" height="64px" viewBox="0 0 64 64" enable-background="new 0 0 64 64" xml:space="preserve">
<g>
	<g>
		<path d="M32,2.755c-10.908,0-19.782,8.755-19.782,19.517c0,5.424,2.271,11.36,6.042,15.833c0.047,0.068,0.095,0.137,0.145,0.197
			c1.329,1.64,4.072,5.831,4.072,8.313c0,0.584,0.164,1.123,0.431,1.598v7.971c0,1.722,1.4,3.122,3.123,3.122h1.562l0.746,0.858
			c0.591,0.688,1.451,1.081,2.36,1.081h2.604c0.905,0,1.764-0.393,2.356-1.076l0.749-0.863h1.565c1.72,0,3.115-1.4,3.115-3.122
			v-7.84c0.315-0.51,0.495-1.104,0.495-1.729c0-2.265,2.382-6.225,4.073-8.316c0.117-0.146,0.222-0.303,0.313-0.472
			c3.642-4.467,5.813-10.274,5.813-15.555C51.782,11.51,42.907,2.755,32,2.755z M37.973,57.302h-2.479l-1.349,1.555
			c-0.213,0.245-0.52,0.388-0.843,0.388h-2.604c-0.326,0-0.631-0.14-0.844-0.388l-1.348-1.555H26.03c-0.619,0-1.12-0.502-1.12-1.118
			v-6.395c0.28,0.077,0.568,0.133,0.872,0.133h12.497c0.275,0,0.545-0.046,0.808-0.114v6.376
			C39.087,56.8,38.589,57.302,37.973,57.302z M30.267,47.918L25.4,21.196l6.6,5.66l6.55-5.618l-5.243,26.68H30.267z"/>
	</g>
</g>
</svg>
