<?xml version="1.0" encoding="utf-8"?>
<!-- Generator: Adobe Illustrator 15.0.0, SVG Export Plug-In . SVG Version: 6.00 Build 0)  -->
<!DOCTYPE svg PUBLIC "-//W3C//DTD SVG 1.1//EN" "http://www.w3.org/Graphics/SVG/1.1/DTD/svg11.dtd">
<svg version="1.1" id="Layer_1" xmlns="http://www.w3.org/2000/svg" xmlns:xlink="http://www.w3.org/1999/xlink" x="0px" y="0px"
	 width="64px" height="64px" viewBox="0 0 64 64" enable-background="new 0 0 64 64" xml:space="preserve">
<g>
	<g>
		<path d="M10.088,4.806c-3.003,0-5.445,2.442-5.445,5.447c0,3.002,2.442,5.445,5.445,5.445c3.002,0,5.445-2.442,5.445-5.445
			C15.533,7.249,13.091,4.806,10.088,4.806z"/>
	</g>
	<g>
		<path d="M10.088,26.339c-3.003,0-5.445,2.442-5.445,5.445c0,3.001,2.442,5.441,5.445,5.441c3.002,0,5.445-2.44,5.445-5.441
			C15.533,28.782,13.091,26.339,10.088,26.339z"/>
	</g>
	<g>
		<path d="M10.088,48.304c-3.003,0-5.445,2.442-5.445,5.445s2.442,5.445,5.445,5.445c3.002,0,5.445-2.442,5.445-5.445
			S13.091,48.304,10.088,48.304z"/>
	</g>
	<g>
		<g>
			<rect x="24.745" y="9.339" width="32.832" height="1.825"/>
		</g>
		<g>
			<rect x="22.963" y="7.558" width="36.394" height="5.388"/>
		</g>
	</g>
	<g>
		<g>
			<rect x="24.745" y="31.732" width="32.832" height="1.827"/>
		</g>
		<g>
			<rect x="22.963" y="29.953" width="36.394" height="5.387"/>
		</g>
	</g>
	<g>
		<g>
			<rect x="24.745" y="52.518" width="32.832" height="1.823"/>
		</g>
		<g>
			<rect x="22.963" y="50.736" width="36.394" height="5.386"/>
		</g>
	</g>
</g>
</svg>
