<?xml version="1.0" encoding="utf-8"?>
<!-- Generator: Adobe Illustrator 15.0.0, SVG Export Plug-In . SVG Version: 6.00 Build 0)  -->
<!DOCTYPE svg PUBLIC "-//W3C//DTD SVG 1.1//EN" "http://www.w3.org/Graphics/SVG/1.1/DTD/svg11.dtd">
<svg version="1.1" id="Layer_1" xmlns="http://www.w3.org/2000/svg" xmlns:xlink="http://www.w3.org/1999/xlink" x="0px" y="0px"
	 width="64px" height="64px" viewBox="0 0 64 64" enable-background="new 0 0 64 64" xml:space="preserve">
<g>
	<g>
		<path fill="#231F20" d="M52.406,51.442l-2.672,2.674L36.566,40.947l13.17-13.17l2.67,2.676l-8.603,8.604h17.04V7.719h-7.182V2.668
			h-2.113v5.051h-7.609V2.668h-2.114v5.051h-8.492V2.668h-2.114v5.051h-8.816V2.668h-2.114v5.051h-8.454V2.668H9.721v5.051H3.156
			v53.613h57.688v-4.663v-5.304v-8.528H43.803L52.406,51.442z M5.075,9.635h4.646v4.484h2.114V9.635h8.454v4.484h2.114V9.635h8.816
			v4.484h2.114V9.635h8.492v4.484h2.114V9.635h7.609v4.484h2.113V9.635h5.264v10.01H5.075V9.635z"/>
	</g>
</g>
</svg>
