<?xml version="1.0" encoding="utf-8"?>
<!-- Generator: Adobe Illustrator 15.0.0, SVG Export Plug-In . SVG Version: 6.00 Build 0)  -->
<!DOCTYPE svg PUBLIC "-//W3C//DTD SVG 1.1//EN" "http://www.w3.org/Graphics/SVG/1.1/DTD/svg11.dtd">
<svg version="1.1" id="Layer_1" xmlns="http://www.w3.org/2000/svg" xmlns:xlink="http://www.w3.org/1999/xlink" x="0px" y="0px"
	 width="64px" height="64px" viewBox="0 0 64 64" enable-background="new 0 0 64 64" xml:space="preserve">
<g>
	<g>
		<path fill="#231F20" d="M53.889,7.794V2.791h-2.104v5.003h-7.581V2.791h-2.106v5.003h-8.461V2.791H31.53v5.003h-8.785V2.791H20.64
			v5.003h-8.422V2.791h-2.106v5.003H3.265v32.221h15.182L9.875,31.44l2.662-2.664l13.12,13.12L12.535,55.019l-2.66-2.666l8.57-8.572
			H3.265v4.365v13.063h57.471V7.794H53.889z M58.826,19.677H5.176V9.703h4.936V14.2h2.106V9.703h8.422V14.2h2.104V9.703h8.785V14.2
			h2.106V9.703h8.461V14.2h2.106V9.703h7.581V14.2h2.104V9.703h4.938V19.677z"/>
	</g>
</g>
</svg>
