<?xml version="1.0" encoding="utf-8"?>
<!-- Generator: Adobe Illustrator 15.0.0, SVG Export Plug-In . SVG Version: 6.00 Build 0)  -->
<!DOCTYPE svg PUBLIC "-//W3C//DTD SVG 1.1//EN" "http://www.w3.org/Graphics/SVG/1.1/DTD/svg11.dtd">
<svg version="1.1" id="Layer_1" xmlns="http://www.w3.org/2000/svg" xmlns:xlink="http://www.w3.org/1999/xlink" x="0px" y="0px"
	 width="64px" height="64px" viewBox="0 0 64 64" enable-background="new 0 0 64 64" xml:space="preserve">
<g>
	<path d="M53.912,8.302V3.783h-2.047v4.519h-7.37V3.783h-2.047v4.519h-8.222V3.783h-2.047v4.519h-8.536V3.783h-2.047v4.519h-8.188
		V3.783h-2.047v4.519H4.07v51.915h55.86V8.302H53.912z M30.027,46.115l-11.332-11.5l2.562-2.533l8.926,9.059l15.144-13.584
		l2.405,2.681L30.027,46.115z M58.073,19.851H5.93v-9.692h5.433v4.709h2.047v-4.709h8.188v4.709h2.047v-4.709h8.536v4.709h2.047
		v-4.709h8.222v4.709h2.047v-4.709h7.37v4.709h2.047v-4.709h4.161V19.851z"/>
</g>
</svg>
