<?xml version="1.0" encoding="utf-8"?>
<!-- Generator: Adobe Illustrator 15.0.0, SVG Export Plug-In . SVG Version: 6.00 Build 0)  -->
<!DOCTYPE svg PUBLIC "-//W3C//DTD SVG 1.1//EN" "http://www.w3.org/Graphics/SVG/1.1/DTD/svg11.dtd">
<svg version="1.1" id="Layer_1" xmlns="http://www.w3.org/2000/svg" xmlns:xlink="http://www.w3.org/1999/xlink" x="0px" y="0px"
	 width="64px" height="64px" viewBox="0 0 64 64" enable-background="new 0 0 64 64" xml:space="preserve">
<g>
	<g>
		<path fill="#020202" d="M59.139,8.96l-2.505-2.49l-0.068,0.068C55.5,5.705,54.27,5.005,52.944,4.487
			c-1.26-0.479-2.465-0.779-3.667-0.916C39.603,2.407,30.76,6.826,18.768,18.82C2.187,35.403,3.439,48.769,3.5,49.342
			c0.151,1.257,0.45,2.46,0.925,3.684c0.511,1.313,1.209,2.538,2.044,3.604l-0.05,0.055l2.473,2.521
			c1.825,1.823,4.736,1.877,6.496,0.121l8.839-8.836c1.753-1.76,1.699-4.674-0.122-6.496l-4.452-4.452
			c0.155-0.281,0.316-0.574,0.489-0.878c1.559-2.81,3.693-6.657,7.745-10.708c4.06-4.062,7.915-6.198,10.729-7.758
			c0.298-0.166,0.583-0.324,0.856-0.479l2.983,2.987l1.469,1.467c1.828,1.823,4.739,1.877,6.499,0.121l8.836-8.839
			C61.018,13.699,60.963,10.785,59.139,8.96z"/>
	</g>
</g>
</svg>
