<?xml version="1.0" encoding="utf-8"?>
<!-- Generator: Adobe Illustrator 15.0.0, SVG Export Plug-In . SVG Version: 6.00 Build 0)  -->
<!DOCTYPE svg PUBLIC "-//W3C//DTD SVG 1.1//EN" "http://www.w3.org/Graphics/SVG/1.1/DTD/svg11.dtd">
<svg version="1.1" id="Layer_1" xmlns="http://www.w3.org/2000/svg" xmlns:xlink="http://www.w3.org/1999/xlink" x="0px" y="0px"
	 width="64px" height="64px" viewBox="0 0 64 64" enable-background="new 0 0 64 64" xml:space="preserve">
<g>
	<g>
		<path fill="#010101" d="M41.526,43.966c-0.57-0.567-1.36-0.879-2.229-0.879c-0.915,0-1.797,0.356-2.42,0.98l-3.941,3.941
			l-1.065-0.591c-2.342-1.299-5.552-3.08-8.941-6.474c-3.402-3.398-5.185-6.615-6.488-8.967l-0.582-1.035l3.947-3.947
			c1.306-1.31,1.351-3.395,0.099-4.649l-7.293-7.292c-0.567-0.567-1.358-0.88-2.226-0.88c-0.914,0-1.795,0.358-2.42,0.982
			l-1.791,1.801L6.01,17.233c-0.667,0.855-1.213,1.816-1.621,2.863c-0.379,0.998-0.615,1.946-0.725,2.897
			c-0.94,7.815,2.663,14.989,12.44,24.764c11.587,11.585,21.27,12.486,23.962,12.486c0.462,0,0.74-0.025,0.818-0.033
			c0.995-0.121,1.946-0.36,2.906-0.732c1.036-0.403,1.995-0.945,2.848-1.612l0.407-0.321l1.676-1.644
			c1.304-1.305,1.346-3.387,0.094-4.64L41.526,43.966z"/>
	</g>
	<g>
		<g>
			<path fill="#020202" d="M33.806,30.479c-1.587-1.586-3.58-2.727-5.758-3.297l-1.002-0.265l-0.287,0.989
				c-0.108,0.367-0.235,0.714-0.379,1.026l-0.543,1.157l1.244,0.321c1.646,0.416,3.146,1.264,4.337,2.457
				c1.138,1.136,1.97,2.561,2.406,4.117l0.21,0.75l1.566,0.089c0.159,0.019,0.317,0.037,0.468,0.05l1.473,0.139l-0.342-1.44
				C36.65,34.257,35.478,32.15,33.806,30.479z"/>
		</g>
		<g>
			<path fill="#020202" d="M38.925,25.359c-2.947-2.947-6.712-4.87-10.884-5.559l-1.451-0.244l0.228,1.451
				c0.067,0.43,0.126,0.858,0.175,1.291l0.093,0.763l0.768,0.152c3.325,0.614,6.327,2.184,8.681,4.536
				c2.702,2.703,4.353,6.152,4.771,9.977l0.089,0.81l1.228,0.177c0.197,0.016,0.397,0.013,0.679,0.016l1.479,0.05l-0.117-1.207
				C44.204,32.876,42.218,28.654,38.925,25.359z"/>
		</g>
		<g>
			<path fill="#020202" d="M44.484,19.8c-4.834-4.833-11.273-7.712-18.131-8.104l-1.332-0.083l0.222,1.312
				c0.068,0.427,0.151,0.864,0.239,1.319l0.162,0.796l0.805,0.05c5.918,0.405,11.475,2.926,15.647,7.098
				c4.106,4.106,6.615,9.599,7.064,15.46l0.077,1.043l1.042-0.061c0.247-0.013,0.49-0.034,0.846-0.065l1.491-0.118l-0.082-1.057
				C52.024,30.728,49.166,24.481,44.484,19.8z"/>
		</g>
		<g>
			<path fill="#020202" d="M60.392,36.642c-0.681-8.457-4.354-16.416-10.343-22.406C43.658,7.845,35.151,4.139,26.101,3.799
				l-1.026-0.043l-0.078,1.031c-0.018,0.288-0.03,0.573-0.041,0.859l-0.063,1.497l1.064,0.038
				c8.207,0.304,15.914,3.659,21.701,9.446c5.421,5.421,8.747,12.629,9.368,20.293l0.087,1.076l1.083-0.105
				c0.367-0.039,0.739-0.068,1.114-0.097l1.168-0.09L60.392,36.642z"/>
		</g>
	</g>
</g>
</svg>
