<?xml version="1.0" encoding="utf-8"?>
<!-- Generator: Adobe Illustrator 15.0.0, SVG Export Plug-In . SVG Version: 6.00 Build 0)  -->
<!DOCTYPE svg PUBLIC "-//W3C//DTD SVG 1.1//EN" "http://www.w3.org/Graphics/SVG/1.1/DTD/svg11.dtd">
<svg version="1.1" id="Layer_1" xmlns="http://www.w3.org/2000/svg" xmlns:xlink="http://www.w3.org/1999/xlink" x="0px" y="0px"
	 width="64px" height="64px" viewBox="0 0 64 64" enable-background="new 0 0 64 64" xml:space="preserve">
<g>
	<g>
		<path d="M60.119,49.805l-9.237-9.244c-0.722-0.718-1.724-1.113-2.823-1.113c-1.16,0-2.276,0.452-3.066,1.242l-4.995,4.994
			l-1.35-0.748c-2.968-1.646-7.034-3.903-11.329-8.203c-4.311-4.306-6.569-8.382-8.221-11.362l-0.737-1.312l5.001-5.001
			c1.655-1.66,1.711-4.301,0.125-5.891l-9.241-9.239c-0.718-0.718-1.721-1.115-2.819-1.115c-1.158,0-2.275,0.453-3.066,1.245
			l-2.27,2.282L5.879,6.688c-0.845,1.083-1.537,2.302-2.053,3.628c-0.48,1.265-0.78,2.466-0.918,3.671
			C1.716,23.889,6.283,32.98,18.671,45.365c14.682,14.681,26.951,15.822,30.362,15.822c0.585,0,0.938-0.032,1.036-0.042
			c1.262-0.153,2.467-0.457,3.684-0.929c1.313-0.512,2.528-1.198,3.607-2.043l0.517-0.406L60,55.685
			C61.652,54.031,61.705,51.393,60.119,49.805z"/>
	</g>
	<g>
		<polygon fill="#020202" points="44.917,23.931 53.841,15.009 50.338,11.501 41.412,20.426 32.49,11.502 28.984,15.008 
			37.906,23.931 28.982,32.855 32.492,36.357 41.412,27.437 50.333,36.357 53.843,32.855 		"/>
	</g>
</g>
</svg>
