<?xml version="1.0" encoding="utf-8"?>
<!-- Generator: Adobe Illustrator 15.0.0, SVG Export Plug-In . SVG Version: 6.00 Build 0)  -->
<!DOCTYPE svg PUBLIC "-//W3C//DTD SVG 1.1//EN" "http://www.w3.org/Graphics/SVG/1.1/DTD/svg11.dtd">
<svg version="1.1" id="Layer_1" xmlns="http://www.w3.org/2000/svg" xmlns:xlink="http://www.w3.org/1999/xlink" x="0px" y="0px"
	 width="64px" height="64px" viewBox="0 0 64 64" enable-background="new 0 0 64 64" xml:space="preserve">
<g>
	<g>
		<path fill="#020202" d="M59.035,48.433l-8.742-8.743c-1.741-1.734-4.625-1.681-6.427,0.121l-4.404,4.404
			c-0.278-0.154-0.566-0.314-0.869-0.484c-2.781-1.541-6.588-3.653-10.594-7.662c-4.017-4.017-6.132-7.83-7.677-10.613
			c-0.164-0.295-0.32-0.579-0.474-0.849l2.956-2.952l1.453-1.455c1.805-1.805,1.855-4.688,0.117-6.427l-8.742-8.744
			C13.895,3.292,11.01,3.345,9.205,5.15L6.741,7.628l0.068,0.067c-0.826,1.054-1.517,2.27-2.03,3.581
			c-0.474,1.248-0.769,2.439-0.904,3.632c-1.154,9.57,3.219,18.316,15.087,30.185c16.405,16.404,29.626,15.165,30.196,15.104
			c1.243-0.148,2.433-0.445,3.643-0.915c1.3-0.508,2.515-1.197,3.568-2.021l0.054,0.047l2.496-2.444
			C60.72,53.059,60.772,50.176,59.035,48.433z"/>
	</g>
</g>
</svg>
