<?xml version="1.0" encoding="utf-8"?>
<!-- Generator: Adobe Illustrator 15.0.0, SVG Export Plug-In . SVG Version: 6.00 Build 0)  -->
<!DOCTYPE svg PUBLIC "-//W3C//DTD SVG 1.1//EN" "http://www.w3.org/Graphics/SVG/1.1/DTD/svg11.dtd">
<svg version="1.1" id="Layer_1" xmlns="http://www.w3.org/2000/svg" xmlns:xlink="http://www.w3.org/1999/xlink" x="0px" y="0px"
	 width="64px" height="64px" viewBox="0 0 64 64" enable-background="new 0 0 64 64" xml:space="preserve">
<g>
	<g>
		<path d="M23.021,14.177c-2.87,0-5.209,2.336-5.209,5.21c0,2.873,2.339,5.21,5.209,5.21c2.875,0,5.211-2.338,5.211-5.21
			C28.233,16.513,25.896,14.177,23.021,14.177z"/>
	</g>
	<g>
		<path d="M23.021,9.179c-5.095,0-9.239,4.146-9.239,9.239v36.403h18.48V18.418C32.263,13.325,28.119,9.179,23.021,9.179z
			 M28.96,52.31H17.085v-2.187H28.96V52.31z M17.085,32v-2.513h2.512V32H17.085z M23.021,26.055c-3.674,0-6.667-2.992-6.667-6.668
			c0-3.677,2.992-6.667,6.667-6.667c3.677,0,6.666,2.991,6.666,6.667C29.688,23.063,26.698,26.055,23.021,26.055z"/>
	</g>
	<g>
		<path d="M33.574,22.447v18.937h27.433V22.447H33.574z"/>
	</g>
	<g>
		<path d="M9.017,26.64H7.99c-1.901,0-3.446,1.545-3.446,3.446v0.426c-0.86,0.025-1.55,0.727-1.55,1.593v6.081
			c0,0.867,0.69,1.566,1.55,1.592v0.007c0,1.898,1.545,3.443,3.446,3.443h1.027c1.901,0,3.446-1.545,3.446-3.443v-9.698
			C12.463,28.185,10.918,26.64,9.017,26.64z M11.385,39.784c0,1.305-1.06,2.366-2.368,2.366H7.99c-1.306,0-2.371-1.062-2.371-2.366
			V39.4c0.345-0.293,0.571-0.725,0.571-1.215v-6.081c0-0.49-0.226-0.921-0.571-1.215v-0.804c0-1.308,1.065-2.371,2.371-2.371h1.027
			c1.309,0,2.368,1.063,2.368,2.371V39.784z"/>
	</g>
</g>
</svg>
