<?xml version="1.0" encoding="utf-8"?>
<!-- Generator: Adobe Illustrator 15.0.0, SVG Export Plug-In . SVG Version: 6.00 Build 0)  -->
<!DOCTYPE svg PUBLIC "-//W3C//DTD SVG 1.1//EN" "http://www.w3.org/Graphics/SVG/1.1/DTD/svg11.dtd">
<svg version="1.1" id="Layer_1" xmlns="http://www.w3.org/2000/svg" xmlns:xlink="http://www.w3.org/1999/xlink" x="0px" y="0px"
	 width="64px" height="64px" viewBox="0 0 64 64" enable-background="new 0 0 64 64" xml:space="preserve">
<g>
	<g>
		<path d="M59.08,25.795c-0.173-0.13-0.396-0.171-0.607-0.112l-8.252,2.365c-0.298,0.085-0.504,0.357-0.504,0.665v0.254h-4.821
			v-5.635v-0.203v-2.032h4.339v1.337h5.197c2.277,0,4.127-1.548,4.127-3.45s-1.85-3.45-4.127-3.45h-5.197v1.337h-4.687
			c-0.799-2.181-2.885-3.745-5.338-3.745H21.704c-3.037,0-6.433,2.432-6.433,5.687v1.536H7.429c-1.535,0-2.783,1.247-2.783,2.781
			v22.032c0,1.534,1.248,2.782,2.783,2.782h1.583v2.932H19.62v-2.932h12.657v2.932h7.724v-2.932h2.114
			c1.532,0,2.78-1.248,2.78-2.782v-3.895h4.821v0.253c0,0.299,0.19,0.562,0.473,0.657l8.255,2.762
			c0.071,0.024,0.146,0.035,0.219,0.035c0.143,0,0.285-0.045,0.404-0.13c0.183-0.13,0.287-0.34,0.287-0.562V26.348
			C59.354,26.132,59.253,25.927,59.08,25.795z M50.617,16.916h3.814c1.515,0,2.745,0.928,2.745,2.067c0,1.14-1.23,2.068-2.745,2.068
			h-3.814V16.916z M18.235,49.491h-7.84v-1.548h7.84V49.491z M22.912,44.664h-13.9v-8.177h13.9V44.664z M38.618,49.491h-4.956
			v-1.548h4.956V49.491z M43.513,20.738c-0.411-0.241-0.887-0.39-1.397-0.39H21.288v-0.076c0-1.343,1.723-2.424,3.151-2.424h11.716
			c1.464,0,2.651,1.087,2.651,2.424h1.385c0-2.101-1.81-3.808-4.036-3.808H24.439c-2.14,0-4.537,1.629-4.537,3.808v0.076h-3.248
			v-1.536c0-2.423,2.714-4.303,5.05-4.303H39.21c2.372,0,4.303,1.93,4.303,4.303V20.738z M49.717,39.884h-4.821v-9.533h4.821V39.884
			z"/>
	</g>
	<g>
		<polyline points="10.395,37.87 10.395,43.282 21.529,43.282 21.529,37.87 		"/>
	</g>
</g>
</svg>
