<?xml version="1.0" encoding="utf-8"?>
<!-- Generator: Adobe Illustrator 15.0.0, SVG Export Plug-In . SVG Version: 6.00 Build 0)  -->
<!DOCTYPE svg PUBLIC "-//W3C//DTD SVG 1.1//EN" "http://www.w3.org/Graphics/SVG/1.1/DTD/svg11.dtd">
<svg version="1.1" id="Layer_1" xmlns="http://www.w3.org/2000/svg" xmlns:xlink="http://www.w3.org/1999/xlink" x="0px" y="0px"
	 width="64px" height="64px" viewBox="0 0 64 64" enable-background="new 0 0 64 64" xml:space="preserve">
<g>
	<g>
		<path d="M32.001,24.667c-5.693,0-10.325,4.629-10.325,10.323c0,5.693,4.632,10.325,10.325,10.325
			c5.692,0,10.323-4.632,10.323-10.325C42.324,29.295,37.693,24.667,32.001,24.667z"/>
	</g>
	<g>
		<path d="M42.186,15.556l-4.779-4.779H26.699l-4.141,4.779H3.093v37.667h57.813V15.556H42.186z M14.233,23.202H8.819v-2.231h5.414
			V23.202z M32.001,47.733c-7.027,0-12.744-5.718-12.744-12.744c0-7.025,5.717-12.743,12.744-12.743
			c7.024,0,12.742,5.718,12.742,12.743C44.743,42.016,39.025,47.733,32.001,47.733z"/>
	</g>
</g>
</svg>
