<?xml version="1.0" encoding="utf-8"?>
<!-- Generator: Adobe Illustrator 15.0.0, SVG Export Plug-In . SVG Version: 6.00 Build 0)  -->
<!DOCTYPE svg PUBLIC "-//W3C//DTD SVG 1.1//EN" "http://www.w3.org/Graphics/SVG/1.1/DTD/svg11.dtd">
<svg version="1.1" id="Layer_1" xmlns="http://www.w3.org/2000/svg" xmlns:xlink="http://www.w3.org/1999/xlink" x="0px" y="0px"
	 width="64px" height="64px" viewBox="0 0 64 64" enable-background="new 0 0 64 64" xml:space="preserve">
<g>
	<path d="M41.726,16.301l-4.563-4.563H26.938l-3.954,4.563H4.402v35.961h55.196V16.301H41.726z M43.684,33.704
		c-0.044,2.951-1.217,5.727-3.303,7.813c-2.13,2.128-4.963,3.3-7.98,3.3s-5.852-1.172-7.979-3.3c-4.4-4.4-4.4-11.559,0-15.959
		c2.126-2.126,4.96-3.299,7.976-3.299c2.167,0,4.279,0.623,6.082,1.775l-0.525-2.655l1.971-0.517l1.068,5.435l0.106,0.613
		l-0.51,0.238l-5.6,1.329l-0.41-1.983l2.835-0.729c-1.483-0.954-3.226-1.472-5.013-1.472c-2.473,0-4.797,0.962-6.541,2.705
		c-3.607,3.606-3.607,9.476,0,13.081c1.743,1.745,4.066,2.705,6.541,2.705c2.473,0,4.796-0.96,6.541-2.705
		c1.711-1.71,2.673-3.985,2.708-6.403l0.008-0.581l2.035,0.029L43.684,33.704z"/>
</g>
</svg>
