<?xml version="1.0" encoding="utf-8"?>
<!-- Generator: Adobe Illustrator 15.0.0, SVG Export Plug-In . SVG Version: 6.00 Build 0)  -->
<!DOCTYPE svg PUBLIC "-//W3C//DTD SVG 1.1//EN" "http://www.w3.org/Graphics/SVG/1.1/DTD/svg11.dtd">
<svg version="1.1" id="Layer_1" xmlns="http://www.w3.org/2000/svg" xmlns:xlink="http://www.w3.org/1999/xlink" x="0px" y="0px"
	 width="64px" height="64px" viewBox="0 0 64 64" enable-background="new 0 0 64 64" xml:space="preserve">
<g>
	<g>
		<path d="M32.034,13.807c-6.222,0-11.285,5.062-11.285,11.284s5.063,11.285,11.285,11.285c6.225,0,11.284-5.063,11.284-11.285
			S38.259,13.807,32.034,13.807z M31.956,33.565c-4.7,0-8.522-3.824-8.522-8.522c0-4.699,3.822-8.521,8.522-8.521
			c4.698,0,8.519,3.822,8.519,8.521C40.475,29.742,36.654,33.565,31.956,33.565z"/>
	</g>
	<g>
		<path d="M32.033,21.147c-2.178,0-3.942,1.766-3.942,3.943c0,2.179,1.765,3.943,3.942,3.943c2.181,0,3.942-1.765,3.942-3.943
			C35.976,22.914,34.214,21.147,32.033,21.147z"/>
	</g>
	<g>
		<path d="M53.534,44.697V39.75h-4.158c0.112-0.41,0.17-0.834,0.17-1.269V13.216c0-2.689-2.189-4.878-4.88-4.878h-1.628
			C42.674,5.204,37.979,2.8,32.033,2.8c-5.943,0-10.639,2.404-11.004,5.537H19.4c-2.69,0-4.877,2.189-4.877,4.878v25.266
			c0,0.435,0.055,0.858,0.168,1.269h-4.226v4.947h20.872v6.285l-7.049,9.479l0.993,0.738l6.183-8.316v5.312h1.236v-5.139
			l6.057,8.144l0.99-0.738l-7.047-9.479v-6.285H53.534z M32.033,4.038c5.039,0,9.328,1.932,9.76,4.3h-19.52
			C22.705,5.969,26.995,4.038,32.033,4.038z M32.034,37.527c-6.857,0-12.437-5.581-12.437-12.437c0-6.857,5.58-12.437,12.437-12.437
			c6.857,0,12.438,5.58,12.438,12.437C44.472,31.947,38.892,37.527,32.034,37.527z"/>
	</g>
</g>
</svg>
