<?xml version="1.0" encoding="utf-8"?>
<!-- Generator: Adobe Illustrator 15.0.0, SVG Export Plug-In . SVG Version: 6.00 Build 0)  -->
<!DOCTYPE svg PUBLIC "-//W3C//DTD SVG 1.1//EN" "http://www.w3.org/Graphics/SVG/1.1/DTD/svg11.dtd">
<svg version="1.1" id="Layer_1" xmlns="http://www.w3.org/2000/svg" xmlns:xlink="http://www.w3.org/1999/xlink" x="0px" y="0px"
	 width="64px" height="64px" viewBox="0 0 64 64" enable-background="new 0 0 64 64" xml:space="preserve">
<g>
	<path d="M41.834,16.125l-4.613-4.614H26.882l-3.998,4.614H4.093v36.363h55.814V16.125H41.834z M43.219,34.534
		c0,5.977-4.862,10.839-10.84,10.839c-5.004,0-9.224-3.337-10.467-8.012l-1.368,2.727l-1.84-0.922l2.93-5.81l0.34-0.528l5.97,4.319
		l-1.216,1.656l-2.843-2.045c1,3.772,4.492,6.557,8.494,6.557c4.843,0,8.783-3.938,8.783-8.781v-0.596h2.058V34.534z M42.15,32.824
		l-0.719-0.499l-0.016,0.029l-0.004-0.043l-5.363-3.729l1.222-1.667l2.844,2.045c-1-3.771-4.491-6.556-8.495-6.556
		c-4.842,0-8.781,3.939-8.781,8.782v0.595H20.78v-0.595c0-5.978,4.863-10.84,10.839-10.84c4.918,0,9.205,3.403,10.464,8.023
		l1.372-2.737l1.84,0.924L42.15,32.824z"/>
</g>
</svg>
