<?xml version="1.0" encoding="utf-8"?>
<!-- Generator: Adobe Illustrator 16.0.4, SVG Export Plug-In . SVG Version: 6.00 Build 0)  -->
<!DOCTYPE svg PUBLIC "-//W3C//DTD SVG 1.1//EN" "http://www.w3.org/Graphics/SVG/1.1/DTD/svg11.dtd">
<svg version="1.1" id="Layer_1" xmlns="http://www.w3.org/2000/svg" xmlns:xlink="http://www.w3.org/1999/xlink" x="0px" y="0px"
	 width="64px" height="64px" viewBox="0 0 64 64" enable-background="new 0 0 64 64" xml:space="preserve">
<g>
	<g>
		<path fill="#020202" d="M21.152,23.998l-0.654-1.163l4.435-4.434c1.467-1.472,1.518-3.813,0.111-5.223l-8.192-8.191
			c-0.638-0.637-1.526-0.989-2.5-0.989c-1.028,0-2.018,0.402-2.719,1.104L9.621,7.125L9.432,7.434
			c-0.748,0.96-1.361,2.041-1.82,3.217c-0.426,1.121-0.691,2.187-0.813,3.255c-1.032,8.568,2.823,16.46,13.217,27.041l7.674-7.674
			C24.369,29.753,22.513,26.454,21.152,23.998z"/>
	</g>
	<g>
		<path fill="#020202" d="M57.521,45.661l-8.191-8.196c-0.639-0.637-1.527-0.986-2.502-0.986c-1.027,0-2.02,0.4-2.719,1.102
			l-4.428,4.428l-1.197-0.662c-1.74-0.966-3.922-2.207-6.292-4.017L24.43,45.09c11.357,9.79,20.526,10.663,23.263,10.663
			c0.518,0,0.83-0.028,0.918-0.037c1.117-0.136,2.188-0.403,3.267-0.821c1.164-0.455,2.239-1.063,3.197-1.812l0.458-0.359
			l1.882-1.849C58.88,49.408,58.928,47.068,57.521,45.661z"/>
	</g>
</g>
<path fill="#020202" d="M51.439,16.155L7.593,60.001l-2.139-2.14L49.3,14.016L51.439,16.155z"/>
</svg>
