<?xml version="1.0" encoding="utf-8"?>
<!-- Generator: Adobe Illustrator 15.0.0, SVG Export Plug-In . SVG Version: 6.00 Build 0)  -->
<!DOCTYPE svg PUBLIC "-//W3C//DTD SVG 1.1//EN" "http://www.w3.org/Graphics/SVG/1.1/DTD/svg11.dtd">
<svg version="1.1" id="Layer_1" xmlns="http://www.w3.org/2000/svg" xmlns:xlink="http://www.w3.org/1999/xlink" x="0px" y="0px"
	 width="64px" height="64px" viewBox="0 0 64 64" enable-background="new 0 0 64 64" xml:space="preserve">
<g>
	<path d="M59.322,51.121L35.079,9.132c-0.631-1.103-1.815-1.786-3.085-1.786c-1.269,0-2.45,0.684-3.085,1.783L4.556,51.312
		c-0.634,1.098-0.634,2.461,0,3.559c0.635,1.101,1.816,1.784,3.085,1.784h48.721c1.962,0,3.559-1.599,3.559-3.562
		C59.92,52.359,59.703,51.653,59.322,51.121z M33.675,23.13l-0.561,19.172h-3.065L29.49,23.13H33.675z M31.582,50.31
		c-1.456,0-2.514-1.106-2.514-2.633c0-1.522,1.058-2.628,2.514-2.628c1.482,0,2.518,1.081,2.518,2.628
		C34.1,49.229,33.063,50.31,31.582,50.31z"/>
</g>
</svg>
