<?xml version="1.0" encoding="utf-8"?>
<!-- Generator: Adobe Illustrator 15.0.0, SVG Export Plug-In . SVG Version: 6.00 Build 0)  -->
<!DOCTYPE svg PUBLIC "-//W3C//DTD SVG 1.1//EN" "http://www.w3.org/Graphics/SVG/1.1/DTD/svg11.dtd">
<svg version="1.1" id="Layer_1" xmlns="http://www.w3.org/2000/svg" xmlns:xlink="http://www.w3.org/1999/xlink" x="0px" y="0px"
	 width="64px" height="64px" viewBox="0 0 64 64" enable-background="new 0 0 64 64" xml:space="preserve">
<g>
	<g>
		<path d="M60.934,4.28l-1.028-1.03l-0.157,0.157c-1.682,1.682-2.952,1.876-3.761,1.876c-0.52,0-1.007-0.09-1.48-0.176
			c-0.411-0.075-0.837-0.152-1.26-0.152c-0.707,0-1.257,0.217-1.726,0.686c-1.379,1.378-1.82,3.417-1.144,5.233l-1.636,1.499v-0.129
			h-0.797v-0.798h-2.04v2.04h0.797v0.76l-0.332,0.304h-0.732v-0.797H43.6v2.04h0.797v0.569L34.396,25.54l-0.885-0.885
			c-1.238-1.238-3.137-2.007-4.958-2.007c-1.495,0-2.779,0.493-3.717,1.425l-8.673,7.129l3.11,3.11
			c0.191,0.194,0.3,0.453,0.298,0.728c0,0.277-0.108,0.536-0.303,0.732l-2.724,2.722c-0.386,0.388-1.065,0.391-1.456,0l-3.054-3.055
			l-6.067,6.064c-4.061,4.064-3.375,8.389-0.894,10.87l6.737,6.739c1.04,1.042,2.726,1.638,4.621,1.638
			c2.361,0,4.639-0.924,6.249-2.534l6.064-6.067l-3.052-3.054c-0.194-0.194-0.3-0.45-0.303-0.726c0-0.277,0.109-0.538,0.305-0.734
			l2.722-2.722c0.388-0.388,1.067-0.388,1.455,0l3.121,3.121l6.919-8.839c2.229-2.257,2.221-5.919-0.022-8.162l-1.534-1.532
			l9.356-9.909v0.314h0.797v0.797h2.04v-2.039h-0.797v-0.796h-0.411l0.679-0.721V17.6h0.795v0.799h2.04v-2.041h-0.797v-0.797h-0.541
			l1.693-1.791c0.587,0.233,1.202,0.351,1.832,0.351c1.317,0,2.561-0.518,3.501-1.46c0.912-0.91,0.714-2.01,0.535-2.985
			c-0.268-1.472-0.547-2.992,1.698-5.24L60.934,4.28z M57.644,9.94c0.176,0.959,0.211,1.353-0.129,1.692
			c-0.666,0.666-1.544,1.031-2.475,1.031c-0.573,0-1.146-0.143-1.658-0.418l-0.49-0.261L28.983,37.301l-2.509-2.511l25.554-23.453
			l0.125-0.114l-0.25-0.492c-0.684-1.354-0.422-2.986,0.649-4.059c0.347-0.346,0.825-0.29,1.696-0.13
			c0.513,0.094,1.093,0.2,1.744,0.2c0.599,0,1.169-0.092,1.73-0.278C57.263,7.844,57.473,8.996,57.644,9.94z M16.542,49.649
			l-6.466,5.544l-1.287-1.286l5.776-6.235L16.542,49.649z"/>
	</g>
</g>
</svg>
