<?xml version="1.0" encoding="utf-8"?>
<!-- Generator: Adobe Illustrator 15.0.0, SVG Export Plug-In . SVG Version: 6.00 Build 0)  -->
<!DOCTYPE svg PUBLIC "-//W3C//DTD SVG 1.1//EN" "http://www.w3.org/Graphics/SVG/1.1/DTD/svg11.dtd">
<svg version="1.1" id="Layer_1" xmlns="http://www.w3.org/2000/svg" xmlns:xlink="http://www.w3.org/1999/xlink" x="0px" y="0px"
	 width="64px" height="64px" viewBox="0 0 64 64" enable-background="new 0 0 64 64" xml:space="preserve">
<g>
	<path fill="#231F20" d="M40.738,11.385c-1.371,0-2.731,0.154-4.051,0.416c-1.336-0.271-2.721-0.416-4.133-0.416
		c-1.519,0-3.023,0.165-4.473,0.488l0.024,0.113c-1.557-0.378-3.175-0.601-4.844-0.601c-11.369,0-20.617,9.249-20.617,20.617
		c0,11.364,9.249,20.613,20.617,20.613c1.59,0,3.133-0.199,4.621-0.539c1.522,0.354,3.092,0.539,4.672,0.539
		c1.426,0,2.82-0.147,4.168-0.423c1.318,0.262,2.666,0.423,4.016,0.423c11.368,0,20.617-9.249,20.617-20.613
		C61.355,20.633,52.106,11.385,40.738,11.385z M23.066,41.607v3.264h-1.979v-3.137c-1.817-0.034-3.673-0.601-4.769-1.384l0.752-2.1
		c1.096,0.722,2.731,1.347,4.49,1.347c2.226,0,3.535-1.285,3.532-3.078c0-1.725-1.024-2.793-3.346-3.734
		c-3.199-1.257-5.178-2.731-5.178-5.463c0-2.604,1.849-4.58,4.707-5.054v-3.14h1.979v3.051c1.852,0.059,3.14,0.563,4.081,1.096
		l-0.783,2.072c-0.663-0.375-1.948-1.1-3.958-1.1c-2.419,0-3.126,1.446-3.126,2.731c0,1.601,0.958,2.415,3.693,3.576
		c3.233,1.323,4.865,2.924,4.865,5.717C28.027,38.78,26.302,41.106,23.066,41.607z M36.644,50.162
		c-0.09-0.017-0.179-0.023-0.269-0.045l-0.027,0.124c-1.227,0.254-2.494,0.389-3.793,0.389c-0.158,0-0.313-0.021-0.467-0.028
		c6.958-3.314,11.788-10.393,11.788-18.6c0-8.211-4.834-15.292-11.794-18.604c0.158-0.003,0.316-0.027,0.474-0.027
		c10.272,0,18.628,8.359,18.628,18.631C51.183,40.865,44.954,48.293,36.644,50.162z M41.392,50.595
		c6.95-3.314,11.776-10.393,11.776-18.593c0-8.205-4.826-15.282-11.776-18.597c9.97,0.347,17.979,8.544,17.979,18.597
		S51.361,50.252,41.392,50.595z"/>
</g>
</svg>
