<?xml version="1.0" encoding="utf-8"?>
<!-- Generator: Adobe Illustrator 15.0.0, SVG Export Plug-In . SVG Version: 6.00 Build 0)  -->
<!DOCTYPE svg PUBLIC "-//W3C//DTD SVG 1.1//EN" "http://www.w3.org/Graphics/SVG/1.1/DTD/svg11.dtd">
<svg version="1.1" id="Layer_1" xmlns="http://www.w3.org/2000/svg" xmlns:xlink="http://www.w3.org/1999/xlink" x="0px" y="0px"
	 width="64px" height="64px" viewBox="0 0 64 64" enable-background="new 0 0 64 64" xml:space="preserve">
<g>
	<g>
		<path d="M47.23,3.349H16.771c-2.024,0-3.67,1.647-3.67,3.672v40.25c0,2.022,1.646,3.668,3.67,3.668h10.592l0.64-2.04H16.771
			c-0.899,0-1.63-0.73-1.63-1.628V7.021c0-0.9,0.731-1.632,1.63-1.632H47.23c0.897,0,1.629,0.732,1.629,1.632v40.25
			c0,0.897-0.731,1.628-1.629,1.628h-0.703l0.77,2.04c1.992-0.035,3.603-1.668,3.603-3.668V7.021
			C50.899,4.996,49.254,3.349,47.23,3.349z"/>
	</g>
	<g>
		<path d="M43.767,47.389l0.204-0.188c0.866-0.866,1.256-2.068,1.069-3.292l-0.01-0.069l0.027-0.063
			c0.188-0.438,0.344-0.926,0.465-1.456l0.015-0.069l0.053-0.049c0.727-0.725,1.129-1.691,1.129-2.723
			c0-1.386-0.727-2.629-1.948-3.324l-0.058-0.035l-0.034-0.062c-0.056-0.101-0.118-0.197-0.182-0.293l-0.057-0.088l-0.024-0.113
			c0.005-1.024-0.394-1.99-1.122-2.718c-0.671-0.673-1.576-1.068-2.546-1.109l-0.133-0.007l-0.067-0.113
			c-0.706-1.176-1.935-1.879-3.286-1.879c-1.365,0-2.598,0.707-3.298,1.894l-0.102,0.173l-0.189-0.066
			c-1.352-0.463-2.958-0.092-3.96,0.907c-0.98,0.981-1.346,2.432-0.952,3.785l0.026,0.09l-0.171,0.365l-0.06,0.044
			c-1.009,0.735-1.588,1.865-1.588,3.1c0,1.101,0.464,2.118,1.307,2.862l0.053,0.046l0.02,0.068
			c0.077,0.254,0.168,0.508,0.279,0.772l0.025,0.062l-0.01,0.067c-0.182,1.23,0.207,2.43,1.071,3.294
			c0.232,0.232,0.492,0.429,0.798,0.604l0.169,0.099l-2.422,7.741c-0.032,0.101,0.004,0.21,0.089,0.271
			c0.084,0.061,0.196,0.065,0.285,0.006l3.085-2.092l1.325,3.876c0.034,0.101,0.128,0.166,0.233,0.166h0.002
			c0.105,0,0.2-0.07,0.231-0.171l2.435-7.754l0.222,0.055c0.752,0.182,1.525,0.129,2.245-0.153l0.231-0.092l4.085,10.735
			c0.036,0.097,0.127,0.16,0.229,0.16c0.004,0,0.006,0,0.008,0c0.105-0.005,0.197-0.075,0.228-0.176l1.23-4.049l2.921,1.694
			c0.09,0.05,0.202,0.041,0.28-0.026c0.079-0.065,0.107-0.176,0.072-0.273L43.767,47.389z M36.84,47.006
			c-3.838,0-6.958-3.124-6.958-6.96c0-3.839,3.121-6.962,6.958-6.962s6.962,3.123,6.962,6.962
			C43.802,43.882,40.678,47.006,36.84,47.006z"/>
	</g>
	<g>
		<g>
			<rect x="20.945" y="10.576" width="22.132" height="3.223"/>
		</g>
		<g>
			<rect x="20.945" y="17.973" width="22.132" height="3.224"/>
		</g>
	</g>
</g>
</svg>
