<?xml version="1.0" encoding="utf-8"?>
<!-- Generator: Adobe Illustrator 15.0.0, SVG Export Plug-In . SVG Version: 6.00 Build 0)  -->
<!DOCTYPE svg PUBLIC "-//W3C//DTD SVG 1.1//EN" "http://www.w3.org/Graphics/SVG/1.1/DTD/svg11.dtd">
<svg version="1.1" id="Layer_1" xmlns="http://www.w3.org/2000/svg" xmlns:xlink="http://www.w3.org/1999/xlink" x="0px" y="0px"
	 width="64px" height="64px" viewBox="0 0 64 64" enable-background="new 0 0 64 64" xml:space="preserve">
<g>
	<g>
		<g>
			<path d="M57.063,21.617c0-9.606-8.609-17.42-19.193-17.42c-7.751,0-14.427,4.198-17.455,10.214
				c2.386-0.967,5.02-1.516,7.797-1.516c10.584,0,19.193,7.813,19.193,17.42c0,2.561-0.646,4.999-1.77,7.202
				C52.346,34.781,57.063,28.637,57.063,21.617z"/>
		</g>
	</g>
	<g>
		<path d="M26.13,15.232c-10.583,0-19.194,7.814-19.194,17.42c0,5.712,3.086,11.06,8.258,14.318
			c0.189,5.74-1.743,10.86-1.825,11.076l-0.688,1.758l13.98-9.745c10.294-0.256,18.663-8.056,18.663-17.407
			C45.323,23.046,36.714,15.232,26.13,15.232z"/>
	</g>
</g>
</svg>
