<?xml version="1.0" encoding="utf-8"?>
<!-- Generator: Adobe Illustrator 15.0.0, SVG Export Plug-In . SVG Version: 6.00 Build 0)  -->
<!DOCTYPE svg PUBLIC "-//W3C//DTD SVG 1.1//EN" "http://www.w3.org/Graphics/SVG/1.1/DTD/svg11.dtd">
<svg version="1.1" id="Layer_1" xmlns="http://www.w3.org/2000/svg" xmlns:xlink="http://www.w3.org/1999/xlink" x="0px" y="0px"
	 width="64px" height="64px" viewBox="0 0 64 64" enable-background="new 0 0 64 64" xml:space="preserve">
<g>
	<g>
		<path fill="#020202" d="M50.289,19.372l0.792-0.793l0.945,0.946l2.565-2.565l-4.56-4.56l-2.565,2.565l1.049,1.049l-0.842,0.841
			c-4.41-3.66-9.939-5.666-15.672-5.666c-13.554,0-24.581,11.026-24.581,24.58c0,13.555,11.026,24.581,24.581,24.581
			c13.552,0,24.578-11.026,24.578-24.581C56.579,29.68,54.352,23.894,50.289,19.372z M33.936,56.629v-4.114h-3.871v4.114
			c-10.005-0.927-18.063-9.031-18.935-19.044h3.372v-3.63h-3.372c0.874-10.07,8.987-18.181,19.059-19.055v3.587h3.626V14.9
			c10.07,0.874,18.182,8.985,19.056,19.055h-3.127v3.63h3.127C51.996,47.598,43.939,55.702,33.936,56.629z"/>
	</g>
	<g>
		<path fill="#020202" d="M32.97,33.015V20.15c0-0.551-0.354-0.993-0.792-0.993c-0.44,0-0.795,0.442-0.795,0.993v12.754
			c-1.323,0.284-2.316,1.459-2.316,2.864c0,1.409,0.994,2.583,2.316,2.867v1.278c0,0.551,0.355,0.996,0.795,0.996
			c0.438,0,0.792-0.445,0.792-0.996v-1.389c1.14-0.402,1.962-1.479,1.962-2.757C34.932,34.491,34.109,33.415,32.97,33.015z"/>
	</g>
	<g>
		<rect x="29.548" y="3.651" fill="#020202" width="4.214" height="6.449"/>
	</g>
</g>
</svg>
