<?xml version="1.0" encoding="utf-8"?>
<!-- Generator: Adobe Illustrator 15.0.0, SVG Export Plug-In . SVG Version: 6.00 Build 0)  -->
<!DOCTYPE svg PUBLIC "-//W3C//DTD SVG 1.1//EN" "http://www.w3.org/Graphics/SVG/1.1/DTD/svg11.dtd">
<svg version="1.1" id="Layer_1" xmlns="http://www.w3.org/2000/svg" xmlns:xlink="http://www.w3.org/1999/xlink" x="0px" y="0px"
	 width="64px" height="64px" viewBox="0 0 64 64" enable-background="new 0 0 64 64" xml:space="preserve">
<g>
	<g>
		<g>
			<path d="M2.631,51.343h50.135v-9.978H2.631V51.343z"/>
		</g>
	</g>
	<g>
		<g>
			<path d="M53.999,51.343h6.171v-9.978h-6.171V51.343z"/>
		</g>
	</g>
	<g>
		<g>
			<path d="M54.696,28.743c1.631,1.373,2.418,2.766,2.341,4.141c-0.118,2.125-2.271,3.587-2.293,3.602l0.568,0.856
				c0.106-0.07,2.6-1.752,2.752-4.393c0.099-1.719-0.812-3.397-2.704-4.992c-1.631-1.374-2.418-2.767-2.341-4.138
				c0.12-2.118,2.271-3.573,2.293-3.587l-0.568-0.858c-0.104,0.07-2.597,1.744-2.749,4.378
				C51.894,25.468,52.804,27.148,54.696,28.743z"/>
		</g>
	</g>
	<g>
		<g>
			<path d="M56.863,23.467c0.379,2.215,2.493,3.384,2.581,3.434l0.491-0.905c-0.017-0.009-1.762-0.974-2.058-2.701
				c-0.2-1.187,0.328-2.485,1.574-3.858c1.583-1.743,2.188-3.279,1.805-4.568c-0.499-1.666-2.45-2.19-2.533-2.211l-0.259,0.996
				c0.016,0.004,1.479,0.411,1.807,1.511c0.27,0.906-0.277,2.145-1.58,3.582C57.221,20.366,56.607,21.954,56.863,23.467z"/>
		</g>
	</g>
</g>
</svg>
