<?xml version="1.0" encoding="utf-8"?>
<!-- Generator: Adobe Illustrator 15.0.0, SVG Export Plug-In . SVG Version: 6.00 Build 0)  -->
<!DOCTYPE svg PUBLIC "-//W3C//DTD SVG 1.1//EN" "http://www.w3.org/Graphics/SVG/1.1/DTD/svg11.dtd">
<svg version="1.1" id="Layer_1" xmlns="http://www.w3.org/2000/svg" xmlns:xlink="http://www.w3.org/1999/xlink" x="0px" y="0px"
	 width="64px" height="64px" viewBox="0 0 64 64" enable-background="new 0 0 64 64" xml:space="preserve">
<g>
	<path d="M48.38,26.175c-0.649,0-1.308,0.058-1.96,0.174c-1.989-3.251-5.574-5.267-9.385-5.267c-0.852,0-1.709,0.103-2.554,0.306
		c-1.953-3.435-5.605-5.564-9.556-5.564c-5.887,0-10.689,4.597-10.982,10.486C8.559,27.15,4.663,31.7,4.663,37.176
		c0,6.065,4.935,11,11,11h32.675c6.066,0,11-4.935,11-11C59.338,31.11,54.422,26.175,48.38,26.175z M36.864,35.958h-4.751v4.75
		c0,0.759-0.617,1.377-1.377,1.377c-0.759,0-1.375-0.618-1.375-1.377v-4.75h-4.75c-0.76,0-1.377-0.619-1.377-1.378
		s0.617-1.376,1.377-1.376h4.75v-4.751c0-0.759,0.616-1.376,1.375-1.376c0.76,0,1.377,0.617,1.377,1.376v4.751h4.751
		c0.759,0,1.375,0.617,1.375,1.376S37.623,35.958,36.864,35.958z"/>
</g>
</svg>
