<?xml version="1.0" encoding="utf-8"?>
<!-- Generator: Adobe Illustrator 15.0.0, SVG Export Plug-In . SVG Version: 6.00 Build 0)  -->
<!DOCTYPE svg PUBLIC "-//W3C//DTD SVG 1.1//EN" "http://www.w3.org/Graphics/SVG/1.1/DTD/svg11.dtd">
<svg version="1.1" id="Layer_1" xmlns="http://www.w3.org/2000/svg" xmlns:xlink="http://www.w3.org/1999/xlink" x="0px" y="0px"
	 width="64px" height="64px" viewBox="0 0 64 64" enable-background="new 0 0 64 64" xml:space="preserve">
<g>
	<g>
		<path d="M49.128,25.803c-2.382-4.253-7.072-6.693-12.103-5.89c-1.976-4.145-6.105-6.777-10.75-6.777
			c-6.574,0-11.924,5.35-11.924,11.926c0,0.271,0.011,0.551,0.035,0.841C8.712,27.197,4.55,32.32,4.55,38.219
			c0,6.973,5.672,12.645,12.645,12.645h9.368h0.626h2.339V36.84l-1.767,1.767c-0.927,0.927-2.544,0.927-3.471,0
			c-0.463-0.463-0.72-1.081-0.72-1.736c0-0.656,0.256-1.271,0.721-1.734l5.958-5.96c0.455-0.456,1.088-0.717,1.734-0.717
			l0.238,0.008c0.576,0.046,1.112,0.293,1.528,0.706l5.962,5.964c0.464,0.463,0.72,1.078,0.72,1.734
			c0,0.655-0.256,1.273-0.721,1.736c-0.924,0.927-2.544,0.927-3.471,0l-1.802-1.805v14.062h12.368
			c6.973,0,12.645-5.672,12.645-12.645C59.45,32.151,55.049,26.907,49.128,25.803z"/>
	</g>
</g>
</svg>
