<?xml version="1.0" encoding="utf-8"?>
<!-- Generator: Adobe Illustrator 15.0.0, SVG Export Plug-In . SVG Version: 6.00 Build 0)  -->
<!DOCTYPE svg PUBLIC "-//W3C//DTD SVG 1.1//EN" "http://www.w3.org/Graphics/SVG/1.1/DTD/svg11.dtd">
<svg version="1.1" id="Layer_1" xmlns="http://www.w3.org/2000/svg" xmlns:xlink="http://www.w3.org/1999/xlink" x="0px" y="0px"
	 width="64px" height="64px" viewBox="0 0 64 64" enable-background="new 0 0 64 64" xml:space="preserve">
<g>
	<g>
		<path d="M55.548,4.239H8.453c-2.324,0-4.213,1.889-4.213,4.213v47.093c0,2.324,1.889,4.215,4.213,4.215h47.095
			c2.323,0,4.213-1.891,4.213-4.215V8.453C59.761,6.128,57.871,4.239,55.548,4.239z M50.431,8.206h3.155v3.155h-3.155V8.206z
			 M43.125,8.206h3.154v3.155h-3.154V8.206z M57.103,55.546c0,0.858-0.696,1.559-1.555,1.559H8.453c-0.859,0-1.559-0.7-1.559-1.559
			V16.093h50.208V55.546z"/>
	</g>
	<g>
		<polygon points="24.137,41.634 13.397,36.248 13.397,36.192 24.137,30.811 24.137,28.914 11.394,35.479 11.394,36.963 
			24.137,43.53 		"/>
	</g>
	<g>
		<polygon points="37.194,24.711 35.325,24.711 25.668,48.612 27.509,48.612 		"/>
	</g>
	<g>
		<polygon points="51.944,35.451 39.194,28.914 39.194,30.811 50.018,36.192 50.018,36.248 39.194,41.634 39.194,43.53 
			51.944,36.989 		"/>
	</g>
</g>
</svg>
