<?xml version="1.0" encoding="utf-8"?>
<!-- Generator: Adobe Illustrator 15.0.0, SVG Export Plug-In . SVG Version: 6.00 Build 0)  -->
<!DOCTYPE svg PUBLIC "-//W3C//DTD SVG 1.1//EN" "http://www.w3.org/Graphics/SVG/1.1/DTD/svg11.dtd">
<svg version="1.1" id="Layer_1" xmlns="http://www.w3.org/2000/svg" xmlns:xlink="http://www.w3.org/1999/xlink" x="0px" y="0px"
	 width="64px" height="64px" viewBox="0 0 64 64" enable-background="new 0 0 64 64" xml:space="preserve">
<g>
	<path fill="#020202" d="M2.833,2.833v58.334h58.334V2.833H2.833z M6.474,13.691V6.474h7.669v7.218H6.474z M6.474,57.526V17.332
		h7.669v40.194H6.474z M17.783,13.691V6.474h6.887v7.218H17.783z M17.783,57.526V17.332h6.887v40.194H17.783z M28.311,13.691V6.474
		h7.592v7.218H28.311z M28.311,57.526V17.332h7.592v40.194H28.311z M39.544,13.691V6.474h7.317v7.218H39.544z M39.544,57.526V17.332
		h7.317v40.194H39.544z M50.502,13.691V6.474h7.024v7.218H50.502z M50.502,57.526V17.332h7.024v40.194H50.502z"/>
</g>
</svg>
