<?xml version="1.0" encoding="utf-8"?>
<!-- Generator: Adobe Illustrator 15.0.0, SVG Export Plug-In . SVG Version: 6.00 Build 0)  -->
<!DOCTYPE svg PUBLIC "-//W3C//DTD SVG 1.1//EN" "http://www.w3.org/Graphics/SVG/1.1/DTD/svg11.dtd">
<svg version="1.1" id="Layer_1" xmlns="http://www.w3.org/2000/svg" xmlns:xlink="http://www.w3.org/1999/xlink" x="0px" y="0px"
	 width="64px" height="64px" viewBox="0 0 64 64" enable-background="new 0 0 64 64" xml:space="preserve">
<g>
	<g>
		<path d="M32,25.255c-3.72,0-6.744,3.024-6.744,6.745c0,3.719,3.024,6.745,6.744,6.745c3.718,0,6.744-3.026,6.744-6.745
			C38.744,28.28,35.718,25.255,32,25.255z"/>
	</g>
	<g>
		<path d="M32,4.028C16.577,4.028,4.028,16.574,4.028,32c0,15.423,12.549,27.972,27.972,27.972S59.972,47.423,59.972,32
			C59.972,16.574,47.423,4.028,32,4.028z M19.124,50.408l7.938-6.91l0.1,10.449C22.36,53.947,19.124,50.408,19.124,50.408z
			 M32,42.014c-5.523,0-10.017-4.493-10.017-10.014c0-5.523,4.493-10.014,10.017-10.014c5.521,0,10.014,4.49,10.014,10.014
			C42.014,37.521,37.521,42.014,32,42.014z"/>
	</g>
</g>
</svg>
