<?xml version="1.0" encoding="utf-8"?>
<!-- Generator: Adobe Illustrator 15.0.0, SVG Export Plug-In . SVG Version: 6.00 Build 0)  -->
<!DOCTYPE svg PUBLIC "-//W3C//DTD SVG 1.1//EN" "http://www.w3.org/Graphics/SVG/1.1/DTD/svg11.dtd">
<svg version="1.1" id="Layer_1" xmlns="http://www.w3.org/2000/svg" xmlns:xlink="http://www.w3.org/1999/xlink" x="0px" y="0px"
	 width="64px" height="64px" viewBox="0 0 64 64" enable-background="new 0 0 64 64" xml:space="preserve">
<g>
	<g>
		<path fill="#020202" d="M4,11.649v36.205h56V11.649H4z M37.997,30.347l-8.864,7.314c-0.137,0.111-0.305,0.17-0.475,0.17
			c-0.108,0-0.217-0.022-0.318-0.069c-0.261-0.124-0.429-0.388-0.429-0.677V22.46c0-0.289,0.168-0.553,0.429-0.674
			c0.261-0.124,0.568-0.085,0.793,0.098l8.864,7.313c0.173,0.14,0.271,0.352,0.271,0.574C38.268,29.996,38.17,30.208,37.997,30.347z
			"/>
	</g>
	<g>
		<polygon fill="#020202" points="21.438,52.351 31.569,52.351 41.922,52.351 41.922,49.626 21.438,49.626 		"/>
	</g>
</g>
</svg>
