<?xml version="1.0" encoding="utf-8"?>
<!-- Generator: Adobe Illustrator 15.0.0, SVG Export Plug-In . SVG Version: 6.00 Build 0)  -->
<!DOCTYPE svg PUBLIC "-//W3C//DTD SVG 1.1//EN" "http://www.w3.org/Graphics/SVG/1.1/DTD/svg11.dtd">
<svg version="1.1" id="Layer_1" xmlns="http://www.w3.org/2000/svg" xmlns:xlink="http://www.w3.org/1999/xlink" x="0px" y="0px"
	 width="64px" height="64px" viewBox="0 0 64 64" enable-background="new 0 0 64 64" xml:space="preserve">
<g>
	<g>
		<path d="M32.856,6.909V3.941h-1.709v2.968H8.398v34.626h47.203V6.909H32.856z M53.965,39.664H9.904V8.151h44.061V39.664z"/>
	</g>
	<g>
		<path d="M52.432,9.684H11.437v28.448h40.995V9.684z M47.424,19.154c-0.937,0-1.735-0.582-2.068-1.402l-6.752,1.286
			c0.006,0.043,0.015,0.085,0.015,0.129c0,1.23-1,2.23-2.23,2.23c-0.47,0-0.906-0.148-1.266-0.398l-4.52,4.938
			c0.254,0.364,0.407,0.802,0.407,1.277c0,1.23-1,2.23-2.23,2.23c-1.23,0-2.23-1-2.23-2.23c0-0.146,0.015-0.289,0.042-0.427
			l-7.088-2.771c-0.401,0.594-1.081,0.986-1.85,0.986c-1.23,0-2.23-1-2.23-2.23c0-1.229,1-2.23,2.23-2.23
			c1.228,0,2.23,1.001,2.23,2.23c0,0.157-0.018,0.308-0.048,0.455l7.079,2.769c0.398-0.607,1.086-1.013,1.865-1.013
			c0.446,0,0.859,0.135,1.209,0.362l4.535-4.958c-0.23-0.352-0.365-0.769-0.365-1.22c0-1.23,1-2.231,2.229-2.231
			c0.887,0,1.644,0.524,2.006,1.273l6.801-1.296c0.006-1.224,1.003-2.22,2.229-2.22c1.23,0,2.23,1,2.23,2.232
			C49.654,18.153,48.654,19.154,47.424,19.154z"/>
	</g>
	<g>
		<polygon points="32.56,43.365 30.851,43.365 30.851,51.082 22.452,58.78 23.607,60.041 31.725,52.601 40.417,60.059 41.53,58.763 
			32.56,51.067 		"/>
	</g>
</g>
</svg>
