<?xml version="1.0" encoding="utf-8"?>
<!-- Generator: Adobe Illustrator 15.0.0, SVG Export Plug-In . SVG Version: 6.00 Build 0)  -->
<!DOCTYPE svg PUBLIC "-//W3C//DTD SVG 1.1//EN" "http://www.w3.org/Graphics/SVG/1.1/DTD/svg11.dtd">
<svg version="1.1" id="Layer_1" xmlns="http://www.w3.org/2000/svg" xmlns:xlink="http://www.w3.org/1999/xlink" x="0px" y="0px"
	 width="64px" height="64px" viewBox="0 0 64 64" enable-background="new 0 0 64 64" xml:space="preserve">
<g>
	<g>
		<path fill="#010101" d="M2.939,52.159h9.166V33.984H2.939V52.159z M4.767,35.811h5.51v14.52h-5.51V35.811z"/>
	</g>
	<g>
		<path fill="#010101" d="M60.81,45.214c-0.33-0.703-3.528-7.131-7.284-6.465c-1.039,0.193-1.941,1.141-3.189,2.453
			c-2.131,2.238-5.052,5.309-9.709,5.309c-2.838,0-6.049-1.153-9.562-3.435l7.29-0.003c0,0,0.073,0.006,0.195,0.006
			c1.909,0,3.145-1.039,3.145-2.647v-3.024l-0.019-0.181c-0.214-1.07-1.172-3.095-3.26-3.095H13.741v17.492l0.639,0.201
			c0.661,0.208,16.25,5.077,21.95,5.077l0,0c0,0,0.165,0.006,0.471,0.006c2.456,0,15.138-0.514,23.875-10.713l0.385-0.449
			L60.81,45.214z"/>
	</g>
	<g>
		<g>
			<path fill="#010101" d="M26.771,26.677c0,0.423,0.345,0.766,0.768,0.766h27.607c0.422,0,0.768-0.343,0.768-0.766V14.148H26.771
				V26.677z M43.557,20.744h9.204v2.454h-9.204V20.744z"/>
		</g>
		<g>
			<path fill="#010101" d="M55.146,7.091H27.539c-0.422,0-0.768,0.342-0.768,0.768v3.527h29.143V7.859
				C55.914,7.434,55.568,7.091,55.146,7.091z"/>
		</g>
	</g>
</g>
</svg>
