<?xml version="1.0" encoding="utf-8"?>
<!-- Generator: Adobe Illustrator 15.0.0, SVG Export Plug-In . SVG Version: 6.00 Build 0)  -->
<!DOCTYPE svg PUBLIC "-//W3C//DTD SVG 1.1//EN" "http://www.w3.org/Graphics/SVG/1.1/DTD/svg11.dtd">
<svg version="1.1" id="Layer_1" xmlns="http://www.w3.org/2000/svg" xmlns:xlink="http://www.w3.org/1999/xlink" x="0px" y="0px"
	 width="64px" height="64px" viewBox="0 0 64 64" enable-background="new 0 0 64 64" xml:space="preserve">
<g>
	<g>
		<path d="M13.268,44.638c-1.694,0-3.07,1.375-3.07,3.065c0,1.693,1.376,3.071,3.07,3.071c1.695,0,3.074-1.378,3.074-3.071
			C16.341,46.013,14.962,44.638,13.268,44.638z M13.268,49.226c-0.839,0-1.522-0.684-1.522-1.522c0-0.836,0.683-1.517,1.522-1.517
			c0.841,0,1.524,0.681,1.524,1.517C14.792,48.542,14.109,49.226,13.268,49.226z"/>
	</g>
	<g>
		<path d="M45.56,44.9c-1.692,0-3.069,1.374-3.069,3.065c0,1.693,1.377,3.068,3.069,3.068c1.694,0,3.072-1.375,3.072-3.068
			C48.632,46.274,47.254,44.9,45.56,44.9z M45.56,49.488c-0.839,0-1.521-0.684-1.521-1.522c0-0.836,0.682-1.517,1.521-1.517
			c0.84,0,1.523,0.681,1.523,1.517C47.083,48.805,46.399,49.488,45.56,49.488z"/>
	</g>
	<g>
		<path d="M47.343,37.472c-7.878,0-14.29-6.41-14.29-14.291c0-1.163,0.158-2.361,0.471-3.559l0.252-0.97h-8.492l-0.008,6.957h-7.273
			c-3.465,0-6.555,3.969-9.282,7.471c-0.853,1.093-1.656,2.128-2.385,2.918l-0.078,0.1c-3.758,5.716-2.243,11.724-2.176,11.976
			l0.151,0.578h3.11c0.456,2.862,2.936,5.06,5.925,5.06c2.99,0,5.472-2.197,5.927-5.06h6.059h0.959h13.379
			c0.343,2.991,2.887,5.322,5.967,5.322c3.083,0,5.626-2.331,5.969-5.322h5.226v-6.484h1.696v-9.851l-1.307,1.235
			C54.468,36.078,50.987,37.472,47.343,37.472z M17.764,27.214h6.879v7.744H9.502C11.962,31.563,15.774,27.214,17.764,27.214z
			 M13.268,52.165c-2.259,0-4.111-1.696-4.4-3.878v-0.41c0-2.497,2.031-4.525,4.529-4.525c0.914,0,1.761,0.275,2.474,0.742
			c1.121,0.812,1.859,2.122,1.859,3.609C17.729,50.163,15.728,52.165,13.268,52.165z M45.56,52.425
			c-2.459,0-4.458-2.002-4.458-4.459c0-2.46,1.999-4.462,4.458-4.462c2.435,0,4.413,1.962,4.455,4.387v0.15
			C49.973,50.463,47.994,52.425,45.56,52.425z"/>
	</g>
	<g>
		<path d="M47.16,36.258c7.232,0,13.116-5.884,13.116-13.117c0-7.229-5.884-13.114-13.116-13.114
			c-7.23,0-13.114,5.885-13.114,13.114C34.046,30.374,39.93,36.258,47.16,36.258z M47.16,11.787c6.26,0,11.357,5.091,11.357,11.354
			c0,6.263-5.098,11.356-11.357,11.356c-6.262,0-11.354-5.094-11.354-11.356C35.806,16.878,40.898,11.787,47.16,11.787z"/>
	</g>
	<g>
		<path d="M46.447,24.864c0.196,0.198,0.456,0.295,0.713,0.295c0.258,0,0.515-0.097,0.715-0.295l0,0l6.058-6.059
			c0.394-0.394,0.394-1.032,0-1.426c-0.395-0.394-1.031-0.394-1.425,0l-5.348,5.346l-5.346-5.346c-0.394-0.394-1.031-0.394-1.429,0
			c-0.394,0.394-0.394,1.032,0,1.426L46.447,24.864z"/>
	</g>
</g>
</svg>
