<?xml version="1.0" encoding="utf-8"?>
<!-- Generator: Adobe Illustrator 15.0.0, SVG Export Plug-In . SVG Version: 6.00 Build 0)  -->
<!DOCTYPE svg PUBLIC "-//W3C//DTD SVG 1.1//EN" "http://www.w3.org/Graphics/SVG/1.1/DTD/svg11.dtd">
<svg version="1.1" id="Layer_1" xmlns="http://www.w3.org/2000/svg" xmlns:xlink="http://www.w3.org/1999/xlink" x="0px" y="0px"
	 width="64px" height="64px" viewBox="0 0 64 64" enable-background="new 0 0 64 64" xml:space="preserve">
<g>
	<g>
		<polygon fill="#020202" points="49.604,48.312 52.89,51.597 56.172,48.312 		"/>
	</g>
	<g>
		<rect x="48.739" y="38.417" fill="#020202" width="8.285" height="8.063"/>
	</g>
	<g>
		<rect x="48.739" y="27.667" fill="#020202" width="8.285" height="8.918"/>
	</g>
	<g>
		<rect x="48.739" y="6.976" fill="#020202" width="8.285" height="8.468"/>
	</g>
	<g>
		<rect x="48.739" y="17.276" fill="#020202" width="8.285" height="8.563"/>
	</g>
	<g>
		<rect x="38.345" y="27.667" fill="#020202" width="8.563" height="8.918"/>
	</g>
	<g>
		<polygon fill="#020202" points="48.739,50.035 48.739,55.747 51.596,52.89 		"/>
	</g>
	<g>
		<rect x="38.345" y="17.276" fill="#020202" width="8.563" height="8.563"/>
	</g>
	<g>
		<rect x="38.345" y="6.976" fill="#020202" width="8.563" height="8.468"/>
	</g>
	<g>
		<polygon fill="#020202" points="18.568,17.276 21.771,20.476 24.97,17.276 		"/>
	</g>
	<g>
		<polygon fill="#020202" points="38.345,39.64 38.345,45.78 41.414,42.71 		"/>
	</g>
	<g>
		<polygon fill="#020202" points="36.513,35.221 36.513,29.397 33.602,32.309 		"/>
	</g>
	<g>
		<polygon fill="#020202" points="24.543,25.839 21.771,23.064 18.998,25.839 		"/>
	</g>
	<g>
		<polygon fill="#020202" points="25.828,24.534 25.828,19.005 23.064,21.771 		"/>
	</g>
	<g>
		<polygon fill="#020202" points="35.29,36.586 32.309,33.604 29.328,36.586 		"/>
	</g>
	<g>
		<polygon fill="#020202" points="46.908,45.615 46.908,39.805 44.004,42.71 		"/>
	</g>
	<g>
		<polygon fill="#020202" points="45.185,46.48 42.71,44.006 40.235,46.48 		"/>
	</g>
	<g>
		<polygon fill="#020202" points="28.963,27.667 32.309,31.016 35.653,27.667 		"/>
	</g>
	<g>
		<polygon fill="#020202" points="39.71,38.417 42.71,41.414 45.707,38.417 		"/>
	</g>
	<g>
		<polygon fill="#020202" points="50.051,57.024 55.729,57.024 52.89,54.186 		"/>
	</g>
	<g>
		<polygon fill="#020202" points="57.024,55.729 57.024,50.051 54.186,52.89 		"/>
	</g>
	<g>
		<polygon fill="#020202" points="14.146,6.976 8.271,6.976 11.208,9.916 		"/>
	</g>
	<g>
		<rect x="17.704" y="48.312" fill="#020202" width="8.125" height="8.713"/>
	</g>
	<g>
		<polygon fill="#020202" points="8.271,15.444 14.149,15.444 11.208,12.504 		"/>
	</g>
	<g>
		<polygon fill="#020202" points="15.872,14.577 15.872,7.841 12.504,11.208 		"/>
	</g>
	<g>
		<polygon fill="#020202" points="6.976,8.271 6.976,14.149 9.915,11.208 		"/>
	</g>
	<g>
		<rect x="6.976" y="38.417" fill="#020202" width="8.896" height="8.063"/>
	</g>
	<g>
		<rect x="6.976" y="17.276" fill="#020202" width="8.896" height="8.563"/>
	</g>
	<g>
		<rect x="6.976" y="48.312" fill="#020202" width="8.896" height="8.713"/>
	</g>
	<g>
		<rect x="6.976" y="27.667" fill="#020202" width="8.896" height="8.918"/>
	</g>
	<g>
		<polygon fill="#020202" points="46.908,48.312 38.404,48.312 38.345,48.368 38.345,57.024 46.908,57.024 		"/>
	</g>
	<g>
		<rect x="27.658" y="17.276" fill="#020202" width="8.854" height="8.563"/>
	</g>
	<g>
		<rect x="17.704" y="38.417" fill="#020202" width="8.125" height="8.063"/>
	</g>
	<g>
		<rect x="27.658" y="6.976" fill="#020202" width="8.854" height="8.468"/>
	</g>
	<g>
		<rect x="27.658" y="38.417" fill="#020202" width="8.854" height="8.063"/>
	</g>
	<g>
		<polygon fill="#020202" points="27.658,28.954 27.658,35.664 31.013,32.309 		"/>
	</g>
	<g>
		<rect x="17.704" y="27.667" fill="#020202" width="8.125" height="8.918"/>
	</g>
	<g>
		<polygon fill="#020202" points="17.704,18.999 17.704,24.543 20.476,21.771 		"/>
	</g>
	<g>
		<rect x="17.704" y="6.976" fill="#020202" width="8.125" height="8.468"/>
	</g>
	<g>
		<rect x="27.658" y="48.312" fill="#020202" width="8.854" height="8.713"/>
	</g>
	<g>
		<path fill="#020202" d="M2.833,2.833v58.333h58.333V2.833H2.833z M59.544,59.544H4.456V4.456h55.088V59.544z"/>
	</g>
</g>
</svg>
