<?xml version="1.0" encoding="utf-8"?>
<!-- Generator: Adobe Illustrator 15.0.0, SVG Export Plug-In . SVG Version: 6.00 Build 0)  -->
<!DOCTYPE svg PUBLIC "-//W3C//DTD SVG 1.1//EN" "http://www.w3.org/Graphics/SVG/1.1/DTD/svg11.dtd">
<svg version="1.1" id="Layer_1" xmlns="http://www.w3.org/2000/svg" xmlns:xlink="http://www.w3.org/1999/xlink" x="0px" y="0px"
	 width="64px" height="64px" viewBox="0 0 64 64" enable-background="new 0 0 64 64" xml:space="preserve">
<g>
	<g>
		<path d="M32.35,27.012c1.377,0,2.494,1.118,2.494,2.494c0,1.377-1.116,2.494-2.494,2.494s-2.494-1.117-2.494-2.494
			C29.856,28.129,30.973,27.012,32.35,27.012z"/>
	</g>
	<g>
		<path d="M19.439,32.767c-1.635,0-3.993,5.211-5.422,10.403h11.175c-0.545-2.134-2.06-7.076-4.965-9.981
			C19.948,32.908,19.682,32.767,19.439,32.767z"/>
	</g>
	<g>
		<path d="M30.895,37.481c-0.076,0-0.153,0.011-0.233,0.031c-1.468,0.374-2.738,3.335-3.385,5.657h7.269
			C33.604,40.746,32.261,37.481,30.895,37.481z"/>
	</g>
	<g>
		<path d="M52.629,16.37c-0.321-1.373-1.218-2.308-2.287-2.308h-5.187c-1.063,0-1.952,0.923-2.279,2.28h-7.34l-3.554-4.102H19.83
			l-4.377,4.102h-3.446c-3.971,0-7.199,3.229-7.199,7.198v21.02c0,3.97,3.229,7.2,7.199,7.2h39.987c3.97,0,7.198-3.23,7.198-7.2
			V23.54C59.192,19.786,56.303,16.691,52.629,16.37z M50.649,25.897c0.902,0,1.634,0.732,1.634,1.636
			c0,0.901-0.731,1.634-1.634,1.634c-0.903,0-1.637-0.732-1.637-1.634C49.013,26.629,49.746,25.897,50.649,25.897z M45.645,25.897
			c0.901,0,1.635,0.732,1.635,1.636c0,0.901-0.733,1.634-1.635,1.634c-0.904,0-1.636-0.732-1.636-1.634
			C44.009,26.629,44.74,25.897,45.645,25.897z M39.413,44.15H10.638V24.328h28.775V44.15z M48.461,44.15
			c-3.366,0-6.104-2.737-6.104-6.104s2.738-6.105,6.104-6.105c3.365,0,6.103,2.739,6.103,6.105S51.826,44.15,48.461,44.15z"/>
	</g>
	<g>
		<path d="M45.229,39.264l-1.216-1.217l1.216-1.217V39.264z M48.509,42.478l-1.217-1.215h2.434L48.509,42.478z M47.292,34.704
			l1.217-1.217l1.217,1.217H47.292z M51.788,39.264V36.83l1.217,1.217L51.788,39.264z"/>
	</g>
</g>
</svg>
