<?xml version="1.0" encoding="utf-8"?>
<!-- Generator: Adobe Illustrator 15.0.0, SVG Export Plug-In . SVG Version: 6.00 Build 0)  -->
<!DOCTYPE svg PUBLIC "-//W3C//DTD SVG 1.1//EN" "http://www.w3.org/Graphics/SVG/1.1/DTD/svg11.dtd">
<svg version="1.1" id="Layer_1" xmlns="http://www.w3.org/2000/svg" xmlns:xlink="http://www.w3.org/1999/xlink" x="0px" y="0px"
	 width="64px" height="64px" viewBox="0 0 64 64" enable-background="new 0 0 64 64" xml:space="preserve">
<g>
	<g>
		<path fill="#231F20" d="M59.227,12.075c0-4.844-7.52-8.642-17.116-8.642c-9.565,0-17.063,3.773-17.111,8.595
			c3.398,0.096,6.498,0.668,9.055,1.596l0.921-0.309c-0.937-0.374-1.619-0.826-1.814-1.224l-0.089-0.181l2.084-0.331l0.049,0.083
			c0.257,0.422,0.964,0.857,1.891,1.169c0.695,0.235,1.476,0.358,2.25,0.358c0.664,0,1.285-0.092,1.799-0.263
			c0.582-0.196,0.729-0.376,0.75-0.496c0.027-0.174-0.156-0.422-0.554-0.741c-0.802-0.618-1.126-1.083-1.056-1.509
			c0.067-0.401,0.474-0.716,1.278-0.985c0.854-0.288,1.922-0.44,3.085-0.44c1.034,0,2.097,0.122,3.069,0.355l1.974-0.667
			l1.702,0.572l-1.935,0.651c0.737,0.303,1.246,0.627,1.546,0.989l0.165,0.202l-2.13,0.321l-0.055-0.064
			c-0.159-0.196-0.487-0.603-1.721-1.019c-0.646-0.217-1.307-0.328-1.964-0.328c-0.731,0-1.279,0.135-1.613,0.245
			c-0.376,0.128-0.581,0.257-0.605,0.385c-0.04,0.224,0.395,0.615,0.729,0.894c0.676,0.542,0.961,0.985,0.89,1.39
			c-0.076,0.435-0.544,0.78-1.472,1.089c-1.674,0.566-4.339,0.615-6.487,0.095l-1.154,0.387c3.4,1.57,5.515,3.832,5.515,6.393v0.035
			c0.337,0.011,0.667,0.037,1.01,0.037c6.797,0,12.838-1.946,15.573-4.988v2.277c0,2.659,0,8.896-15.457,8.896
			c-0.388,0-0.759-0.008-1.126-0.016c-0.003,0.25-0.006,0.526-0.024,0.843h0.024v0.684c0.38,0.007,0.734,0.03,1.126,0.03
			c7.871,0,13.067-1.634,15.457-4.859v1.649c0,2.663,0,8.896-15.457,8.896c-0.388,0-0.759-0.008-1.126-0.016
			c-0.003,0.251-0.006,0.528-0.024,0.847h0.024v0.684c0.38,0.008,0.734,0.03,1.126,0.03c7.871,0,13.067-1.634,15.457-4.859v1.649
			c0,2.663,0,8.896-15.457,8.896c-0.388,0-0.759-0.008-1.129-0.016c-0.003,0.404-0.012,0.872-0.073,1.412h0.076v0.118
			c0.38,0.008,0.734,0.03,1.126,0.03c7.871,0,13.067-1.634,15.457-4.859v2.219c0,2.751,0,9.189-15.457,9.189
			c-0.388,0-0.759-0.008-1.129-0.015c-0.009,0.454-0.036,0.978-0.119,1.542c0.407,0.009,0.82,0.019,1.248,0.019
			c17,0,17-7.801,17-10.735v-6.077h-0.077c0.077-0.677,0.077-1.276,0.077-1.723v-6.075h-0.024c0.024-0.453,0.024-0.857,0.024-1.157
			V19.16h-0.024c0.024-0.453,0.024-0.854,0.024-1.154V12.075z"/>
	</g>
	<g>
		<path fill="#231F20" d="M21.89,12.999c-9.597,0-17.116,3.798-17.116,8.642v5.931c0,0.349,0.003,0.726,0.034,1.154H4.774V34.8
			c0,0.35,0.003,0.729,0.034,1.157H4.774v6.074c0,0.44,0,1.034,0.089,1.723H4.774v6.078c0,2.653,0,10.735,17.232,10.735
			c16.999,0,16.999-7.801,16.999-10.735v-6.078h-0.077c0.077-0.676,0.077-1.275,0.077-1.723v-6.074H38.98
			c0.024-0.453,0.024-0.857,0.024-1.157v-6.074H38.98c0.024-0.453,0.024-0.854,0.024-1.154v-5.931
			C39.005,16.797,31.486,12.999,21.89,12.999z M12.938,21.657l-0.088-0.181l2.084-0.331l0.049,0.083
			c0.257,0.422,0.964,0.857,1.891,1.169c0.695,0.236,1.475,0.358,2.25,0.358c0.664,0,1.285-0.092,1.799-0.263
			c0.582-0.196,0.728-0.376,0.75-0.496c0.028-0.174-0.156-0.422-0.554-0.74c-0.802-0.618-1.126-1.083-1.056-1.509
			c0.067-0.401,0.474-0.716,1.279-0.985c0.854-0.288,1.922-0.441,3.085-0.441c1.034,0,2.096,0.123,3.069,0.355l1.974-0.667
			l1.702,0.572l-1.934,0.652c0.737,0.303,1.246,0.627,1.545,0.988l0.165,0.202l-2.13,0.321l-0.055-0.064
			c-0.159-0.196-0.487-0.603-1.72-1.019c-0.646-0.217-1.307-0.327-1.964-0.327c-0.731,0-1.279,0.135-1.613,0.245
			c-0.376,0.128-0.582,0.257-0.606,0.386c-0.04,0.223,0.395,0.615,0.729,0.894c0.676,0.542,0.96,0.985,0.89,1.389
			c-0.076,0.435-0.544,0.78-1.472,1.089c-1.674,0.566-4.339,0.615-6.488,0.095l-2.053,0.688l-1.699-0.572l1.986-0.667
			C13.817,22.507,13.135,22.054,12.938,21.657z M37.462,49.832c0,2.751,0,9.189-15.456,9.189c-15.687,0-15.687-6.678-15.687-9.189
			v-2.359c2.436,3.317,7.709,5,15.687,5c7.871,0,13.066-1.634,15.456-4.859V49.832z M37.462,42.031c0,2.662,0,8.896-15.456,8.896
			c-15.687,0-15.687-6.464-15.687-8.896v-1.787c2.436,3.317,7.709,4.997,15.687,4.997c7.871,0,13.066-1.634,15.456-4.859V42.031z
			 M37.462,34.8c0,2.663,0,8.896-15.456,8.896c-15.687,0-15.687-6.463-15.687-8.896v-1.787c2.436,3.317,7.709,4.997,15.687,4.997
			c7.871,0,13.066-1.634,15.456-4.859V34.8z M37.462,27.572c0,2.66,0,8.896-15.456,8.896c-15.687,0-15.687-6.463-15.687-8.896
			v-2.277c2.733,3.042,8.774,4.988,15.57,4.988c6.797,0,12.837-1.946,15.572-4.988V27.572z"/>
	</g>
</g>
</svg>
