<?xml version="1.0" encoding="utf-8"?>
<!-- Generator: Adobe Illustrator 15.0.0, SVG Export Plug-In . SVG Version: 6.00 Build 0)  -->
<!DOCTYPE svg PUBLIC "-//W3C//DTD SVG 1.1//EN" "http://www.w3.org/Graphics/SVG/1.1/DTD/svg11.dtd">
<svg version="1.1" id="Layer_1" xmlns="http://www.w3.org/2000/svg" xmlns:xlink="http://www.w3.org/1999/xlink" x="0px" y="0px"
	 width="64px" height="64px" viewBox="0 0 64 64" enable-background="new 0 0 64 64" xml:space="preserve">
<g>
	<path fill="#231F20" d="M32,2.222c-16.417,0-29.781,13.359-29.781,29.781c0,16.417,13.364,29.776,29.781,29.776
		c16.422,0,29.781-13.359,29.781-29.776C61.781,15.581,48.422,2.222,32,2.222z M33.29,45.879v4.714h-2.858v-4.53
		c-2.625-0.05-5.306-0.869-6.889-2.001l1.087-3.031c1.583,1.042,3.945,1.944,6.486,1.944c3.215,0,5.107-1.855,5.101-4.446
		c0.006-2.491-1.474-4.034-4.833-5.395c-4.621-1.816-7.479-3.945-7.479-7.891c0-3.762,2.669-6.615,6.799-7.3v-4.536h2.857v4.407
		c2.675,0.085,4.532,0.814,5.892,1.583l-1.132,2.993c-0.953-0.541-2.809-1.588-5.712-1.588c-3.494,0-4.516,2.089-4.516,3.945
		c0,2.313,1.385,3.489,5.334,5.166c4.67,1.911,7.027,4.224,7.027,8.259C40.456,41.793,37.961,45.153,33.29,45.879z"/>
</g>
</svg>
