<?xml version="1.0" encoding="utf-8"?>
<!-- Generator: Adobe Illustrator 15.0.0, SVG Export Plug-In . SVG Version: 6.00 Build 0)  -->
<!DOCTYPE svg PUBLIC "-//W3C//DTD SVG 1.1//EN" "http://www.w3.org/Graphics/SVG/1.1/DTD/svg11.dtd">
<svg version="1.1" id="Layer_1" xmlns="http://www.w3.org/2000/svg" xmlns:xlink="http://www.w3.org/1999/xlink" x="0px" y="0px"
	 width="64px" height="64px" viewBox="0 0 64 64" enable-background="new 0 0 64 64" xml:space="preserve">
<g>
	<path fill="#231F20" d="M49.476,28.057c-2.636-3.909-6.35-6.519-10.796-7.642c0.554,0.006,1.11-0.006,1.648-0.029
		c2.187-0.083,6.977-1.203,8.457,0.926c0.283,0.408,1.808-0.273,1.687-0.449c-1.095-1.576-3.529-1.369-5.217-1.331
		c-2.12,0.051-4.59,0.487-6.814,0.172c0.854-0.086,1.703-0.226,2.56-0.461c2.463-0.671,4.052-3.135,6.775-3.125
		c0.627,0.003,1.796-0.945,0.656-0.952c-1.592-0.003-2.878,0.36-4.252,1.155c-0.793,0.458-1.516,1.057-2.282,1.557
		c-1.579,1.019-3.571,1.06-5.456,1.021c3.355-4.663,6.245-11.636,5.144-14.224c-0.531-1.238-1.84-1.543-3.552-0.583
		c-1.833,1.028-3.899,1.168-5.675,1.168c-0.745,0-1.493-0.029-2.231-0.054c-0.745-0.029-1.486-0.057-2.212-0.057
		c-2.387,0-5.108,0.28-7.193,2.368c-1.629,1.693-2.113,3.896-1.327,6.035c0.866,2.346,3.476,4.975,8.323,6.63
		c-11.392,1.693-14.769,9.323-16.484,16.802c-1.4,6.095-0.121,12.203,3.507,16.758c3.457,4.341,8.59,6.731,14.453,6.731
		c13.76,0,20.79-2.088,23.515-13.96C54.177,40.129,52.967,33.231,49.476,28.057z M27.915,6.894c0.703,0,1.423,0.025,2.148,0.051
		c0.761,0.032,1.528,0.057,2.295,0.057c1.146,0,2.495-0.061,3.87-0.382c-0.869,0.516-1.726,1.098-2.563,1.677
		c-4.051,2.779-7.253,4.975-11.222,0.029C24.003,7.088,25.983,6.894,27.915,6.894z M32.692,49.188l-0.003,3.147h-1.907v-3.026
		c-1.754-0.032-3.54-0.576-4.599-1.331l0.729-2.027c1.057,0.697,2.629,1.302,4.325,1.302c2.145,0,3.409-1.241,3.406-2.966
		c0-1.662-0.986-2.689-3.228-3.601c-3.081-1.209-4.987-2.629-4.987-5.261c0-2.512,1.782-4.415,4.535-4.873v-3.027h1.907
		l-0.004,2.938c1.789,0.061,3.027,0.547,3.935,1.06l-0.758,1.996c-0.634-0.363-1.871-1.057-3.81-1.057
		c-2.33,0-3.011,1.391-3.011,2.632c0,1.54,0.923,2.326,3.555,3.443c3.116,1.273,4.688,2.817,4.688,5.507
		C37.467,46.466,35.806,48.703,32.692,49.188z"/>
</g>
</svg>
