<?xml version="1.0" encoding="utf-8"?>
<!-- Generator: Adobe Illustrator 15.0.0, SVG Export Plug-In . SVG Version: 6.00 Build 0)  -->
<!DOCTYPE svg PUBLIC "-//W3C//DTD SVG 1.1//EN" "http://www.w3.org/Graphics/SVG/1.1/DTD/svg11.dtd">
<svg version="1.1" id="Layer_1" xmlns="http://www.w3.org/2000/svg" xmlns:xlink="http://www.w3.org/1999/xlink" x="0px" y="0px"
	 width="64px" height="64px" viewBox="0 0 64 64" enable-background="new 0 0 64 64" xml:space="preserve">
<g>
	<g>
		<path d="M2.073,25.775l1.937,6.507c1.69,0.629,3.563,0.256,4.878-0.899v-7.195c-0.125-0.114-0.25-0.229-0.389-0.328L2.073,25.775z
			"/>
	</g>
	<g>
		<path d="M10.672,46.152v6.701h6.762c0.593-0.818,0.923-1.791,0.923-2.819c0-1.294-0.503-2.505-1.414-3.419
			C15.234,44.907,12.561,44.763,10.672,46.152z"/>
	</g>
	<g>
		<path d="M53.534,19c-0.723,0.735-1.595,1.282-2.559,1.569c-1.478,0.441-3.124,0.318-4.584-0.473
			c-1.415-0.766-2.448-2.035-2.906-3.579c-0.301-1.01-0.308-2.051-0.076-3.051l-33.55,9.991c0.086,0.083,0.153,0.185,0.233,0.274
			h44.853L53.534,19z"/>
	</g>
	<g>
		<path d="M46.958,19.049c2.144,1.161,4.77,0.513,6.177-1.396l-1.939-6.507l-6.426,1.915c-0.387,0.995-0.455,2.076-0.144,3.116
			C44.994,17.416,45.821,18.435,46.958,19.049z"/>
	</g>
	<g>
		<path d="M4.411,33.632l3.155,10.59c0.394-0.393,0.848-0.694,1.322-0.954V32.842c-0.465,0.293-0.953,0.546-1.477,0.701
			C6.449,33.83,5.418,33.849,4.411,33.632z"/>
	</g>
	<g>
		<path d="M7.962,45.556l0.925,3.101v-3.99C8.548,44.92,8.228,45.204,7.962,45.556z"/>
	</g>
	<g>
		<path d="M10.672,32.304c1.893,1.43,4.594,1.3,6.317-0.423c0.914-0.914,1.414-2.127,1.414-3.418c0-1.084-0.372-2.103-1.027-2.946
			h-6.705V32.304z"/>
	</g>
	<g>
		<path d="M55.222,25.516c-0.654,0.843-1.028,1.862-1.028,2.946c0,1.291,0.504,2.504,1.415,3.418
			c1.725,1.724,4.425,1.854,6.318,0.423v-6.788H55.222z"/>
	</g>
	<g>
		<path d="M55.562,46.615c-0.914,0.914-1.416,2.125-1.416,3.419c0,1.028,0.332,2.001,0.924,2.819h6.857v-6.624
			C60.033,44.763,57.301,44.877,55.562,46.615z"/>
	</g>
	<g>
		<path d="M54.769,32.721c-1.139-1.136-1.764-2.649-1.764-4.258c-0.002-1.053,0.292-2.054,0.797-2.946H18.796
			c0.506,0.893,0.8,1.893,0.8,2.946c0,1.609-0.627,3.122-1.765,4.258c-1.175,1.174-2.716,1.764-4.26,1.764
			c-1.003,0-1.997-0.274-2.898-0.775v11.05c2.282-1.229,5.187-0.907,7.111,1.014c1.138,1.14,1.763,2.652,1.763,4.259
			c0.002,1.006-0.269,1.961-0.729,2.822h34.868c-0.46-0.861-0.73-1.816-0.73-2.822c0-1.606,0.627-3.119,1.766-4.259
			c1.95-1.949,4.91-2.255,7.206-0.964v-11.1c-0.901,0.501-1.896,0.775-2.899,0.775C57.484,34.484,55.941,33.895,54.769,32.721z
			 M36.301,47.399c-4.531,0-8.218-3.685-8.218-8.215s3.688-8.218,8.218-8.218c4.53,0,8.216,3.688,8.216,8.218
			S40.831,47.399,36.301,47.399z"/>
	</g>
	<g>
		<path d="M36.718,43.672v1.529h-0.924l-0.002-1.468c-0.851-0.019-1.715-0.28-2.229-0.648l0.353-0.981
			c0.513,0.34,1.276,0.63,2.099,0.63c1.04,0,1.651-0.6,1.651-1.437c0-0.806-0.479-1.306-1.565-1.744
			c-1.495-0.59-2.418-1.279-2.418-2.555c0-1.217,0.863-2.143,2.199-2.362v-1.467h0.925l-0.002,1.424
			c0.868,0.027,1.469,0.263,1.908,0.513l-0.367,0.967c-0.308-0.174-0.908-0.513-1.849-0.513c-1.128,0-1.46,0.676-1.46,1.278
			c0.001,0.747,0.449,1.127,1.726,1.671c1.511,0.617,2.273,1.364,2.273,2.671C39.035,42.354,38.228,43.438,36.718,43.672z"/>
	</g>
</g>
</svg>
