<?xml version="1.0" encoding="utf-8"?>
<!-- Generator: Adobe Illustrator 15.0.0, SVG Export Plug-In . SVG Version: 6.00 Build 0)  -->
<!DOCTYPE svg PUBLIC "-//W3C//DTD SVG 1.1//EN" "http://www.w3.org/Graphics/SVG/1.1/DTD/svg11.dtd">
<svg version="1.1" id="Layer_1" xmlns="http://www.w3.org/2000/svg" xmlns:xlink="http://www.w3.org/1999/xlink" x="0px" y="0px"
	 width="64px" height="64px" viewBox="0 0 64 64" enable-background="new 0 0 64 64" xml:space="preserve">
<g>
	<g>
		<path d="M47.304,33.19c-1.428,0-2.589,1.161-2.589,2.588c0,1.426,1.161,2.587,2.589,2.587h6.924v14.121H9.773V38.365H17.2
			c1.429,0,2.59-1.161,2.59-2.587c0-1.427-1.161-2.588-2.59-2.588H4.6v24.471H59.4V33.19H47.304z"/>
	</g>
	<g>
		<path d="M30.007,46.819c0.524,0.529,1.224,0.818,1.972,0.818c0.006,0,0.014,0,0.02-0.001c0.006,0.001,0.014,0.001,0.02,0.001
			c0.733,0,1.45-0.295,1.969-0.814l6.763-6.762c0.526-0.528,0.816-1.226,0.816-1.971c0-0.744-0.29-1.445-0.818-1.971
			c-1.052-1.052-2.883-1.052-3.938,0.001l-2.006,2.006V9.125c0-1.537-1.25-2.787-2.786-2.787s-2.787,1.25-2.787,2.787v29.042
			l-2.047-2.048c-1.052-1.052-2.885-1.052-3.937,0c-0.527,0.525-0.818,1.227-0.818,1.971c0,0.745,0.291,1.442,0.817,1.971
			L30.007,46.819z"/>
	</g>
</g>
</svg>
