<?xml version="1.0" encoding="utf-8"?>
<!-- Generator: Adobe Illustrator 15.0.0, SVG Export Plug-In . SVG Version: 6.00 Build 0)  -->
<!DOCTYPE svg PUBLIC "-//W3C//DTD SVG 1.1//EN" "http://www.w3.org/Graphics/SVG/1.1/DTD/svg11.dtd">
<svg version="1.1" id="Layer_1" xmlns="http://www.w3.org/2000/svg" xmlns:xlink="http://www.w3.org/1999/xlink" x="0px" y="0px"
	 width="64px" height="64px" viewBox="0 0 64 64" enable-background="new 0 0 64 64" xml:space="preserve">
<g>
	<g>
		<g>
			<path fill="#010101" d="M22.369,18.345c2.969-0.417,6.111-0.628,9.333-0.628c3.386,0,6.651,0.227,9.706,0.674l0.148,0.021
				l1.549-1.551l-0.57-0.092c-3.42-0.554-7.064-0.836-10.833-0.836c-3.623,0-7.145,0.264-10.462,0.779l-0.577,0.091l1.562,1.56
				L22.369,18.345z"/>
		</g>
	</g>
	<g>
		<g>
			<path fill="#010101" d="M46.748,17.633l-0.164-0.042l-1.479,1.472l0.521,0.124c6.327,1.497,10.417,4.001,10.417,6.382
				c0,1.472-1.636,3.066-4.503,4.407v-0.321h-1.784v1.059c-2.426,0.901-5.429,1.617-8.719,2.079v-0.298h-1.784v0.528
				c-2.419,0.262-4.959,0.396-7.552,0.396c-0.858,0-1.762-0.019-2.753-0.056v-0.869h-1.784v0.774
				c-3.833-0.238-7.33-0.771-10.407-1.583V30.65h-1.784v0.524c-4.707-1.506-7.611-3.637-7.611-5.604
				c0-2.432,4.222-4.966,10.759-6.457l0.525-0.119l-1.481-1.483l-0.164,0.04c-6.302,1.546-10.37,4.035-11.234,6.854H5.58v25.869
				c0,2.956,3.419,5.676,9.395,7.475v0.92h1.784v-0.438c3.108,0.781,6.608,1.297,10.407,1.529v0.989h1.784v-0.895
				c0.997,0.036,1.901,0.055,2.753,0.055c2.586,0,5.123-0.133,7.552-0.392v0.432h1.784v-0.657c3.562-0.482,6.691-1.219,9.309-2.187
				h1.194v-0.479c3.249-1.383,5.317-3.087,6.012-4.944h0.271V25.813l-0.013-0.108c0.01-0.046,0.013-0.091,0.013-0.136
				C57.824,22.314,53.787,19.42,46.748,17.633z M27.166,35.054v22.922c-3.833-0.237-7.33-0.771-10.407-1.582V33.526
				C19.866,34.307,23.366,34.822,27.166,35.054z M49.757,32.619V55.42c-2.426,0.901-5.429,1.617-8.719,2.08V34.588
				C44.35,34.139,47.278,33.477,49.757,32.619z"/>
		</g>
	</g>
	<g>
		<g>
			<path fill="#010101" d="M36.354,22.798c-0.396,0.394-0.611,0.917-0.611,1.472s0.216,1.077,0.611,1.472
				c0.392,0.392,0.916,0.608,1.472,0.608s1.077-0.216,1.469-0.608c0.568-0.568,0.75-1.415,0.485-2.167L58.843,4.512L57.584,3.25
				L38.52,22.315C37.764,22.051,36.908,22.243,36.354,22.798z"/>
		</g>
	</g>
	<g>
		<g>
			<path fill="#010101" d="M24.706,25.817c0.392,0.393,0.914,0.609,1.472,0.609c0.556,0,1.077-0.216,1.469-0.609
				c0.395-0.395,0.611-0.917,0.611-1.472c0-0.556-0.216-1.077-0.611-1.471c-0.556-0.557-1.414-0.747-2.164-0.484L6.417,3.324
				L5.157,4.586L24.221,23.65C23.956,24.403,24.138,25.249,24.706,25.817z"/>
		</g>
	</g>
</g>
</svg>
