<?xml version="1.0" encoding="utf-8"?>
<!-- Generator: Adobe Illustrator 15.0.0, SVG Export Plug-In . SVG Version: 6.00 Build 0)  -->
<!DOCTYPE svg PUBLIC "-//W3C//DTD SVG 1.1//EN" "http://www.w3.org/Graphics/SVG/1.1/DTD/svg11.dtd">
<svg version="1.1" id="Layer_1" xmlns="http://www.w3.org/2000/svg" xmlns:xlink="http://www.w3.org/1999/xlink" x="0px" y="0px"
	 width="64px" height="64px" viewBox="0 0 64 64" enable-background="new 0 0 64 64" xml:space="preserve">
<g>
	<g>
		<path fill="#010101" d="M60.618,31.4c-0.521-0.61-12.956-14.912-28.617-14.912c-15.664,0-28.099,14.302-28.62,14.912l-0.515,0.601
			l0.515,0.601c0.524,0.607,12.956,14.909,28.62,14.909c15.661,0,28.095-14.302,28.617-14.909l0.515-0.601L60.618,31.4z
			 M32.001,36.838c-2.672,0-4.84-2.167-4.84-4.839c0-2.669,2.167-4.837,4.84-4.837s4.836,2.167,4.836,4.837
			C36.838,34.671,34.674,36.838,32.001,36.838z"/>
	</g>
</g>
</svg>
