<?xml version="1.0" encoding="utf-8"?>
<!-- Generator: Adobe Illustrator 15.0.0, SVG Export Plug-In . SVG Version: 6.00 Build 0)  -->
<!DOCTYPE svg PUBLIC "-//W3C//DTD SVG 1.1//EN" "http://www.w3.org/Graphics/SVG/1.1/DTD/svg11.dtd">
<svg version="1.1" id="Layer_1" xmlns="http://www.w3.org/2000/svg" xmlns:xlink="http://www.w3.org/1999/xlink" x="0px" y="0px"
	 width="64px" height="64px" viewBox="0 0 64 64" enable-background="new 0 0 64 64" xml:space="preserve">
<g>
	<path fill="#010101" d="M31.999,27.95c-2.232,0-4.047,1.818-4.047,4.05c0,2.231,1.815,4.051,4.047,4.051s4.05-1.819,4.05-4.051
		C36.049,29.768,34.23,27.95,31.999,27.95z"/>
</g>
<g>
	<path fill="#010101" d="M31.999,15.958c-16.2,0-29.06,14.792-29.599,15.421L1.867,32l0.532,0.622
		c0.539,0.631,13.399,15.421,29.599,15.421c16.201,0,29.06-14.79,29.602-15.421L62.133,32l-0.532-0.622
		C61.062,30.75,48.199,15.958,31.999,15.958z M31.999,37.958c-3.287,0-5.958-2.672-5.958-5.958c0-3.287,2.672-5.958,5.958-5.958
		S37.96,28.713,37.96,32C37.96,35.286,35.285,37.958,31.999,37.958z"/>
</g>
</svg>
