<?xml version="1.0" encoding="utf-8"?>
<!-- Generator: Adobe Illustrator 15.0.0, SVG Export Plug-In . SVG Version: 6.00 Build 0)  -->
<!DOCTYPE svg PUBLIC "-//W3C//DTD SVG 1.1//EN" "http://www.w3.org/Graphics/SVG/1.1/DTD/svg11.dtd">
<svg version="1.1" id="Layer_1" xmlns="http://www.w3.org/2000/svg" xmlns:xlink="http://www.w3.org/1999/xlink" x="0px" y="0px"
	 width="64px" height="64px" viewBox="0 0 64 64" enable-background="new 0 0 64 64" xml:space="preserve">
<g>
	<path d="M55.405,13.432l3.583-3.583c0.646-0.648,1.003-1.511,1.003-2.426c0-0.918-0.359-1.78-1.003-2.423
		c-1.297-1.298-3.553-1.303-4.855-0.002l-3.58,3.58l-3.585-3.583c-1.297-1.293-3.553-1.292-4.847,0
		c-0.65,0.648-1.01,1.51-1.01,2.428s0.359,1.781,1.007,2.428l3.579,3.581l-6.274,6.277c-3.802-2.777-8.4-4.287-13.161-4.287
		c-5.95,0-11.538,2.312-15.733,6.508c-4.204,4.205-6.52,9.803-6.52,15.762c0,5.962,2.316,11.56,6.52,15.762
		c4.204,4.206,9.802,6.521,15.763,6.521c5.959,0,11.558-2.314,15.761-6.521c7.823-7.82,8.64-20.127,2.223-28.892l6.277-6.276
		l3.583,3.583c0.646,0.646,1.508,1.002,2.425,1.001c0.917,0.001,1.777-0.357,2.422-1.003c1.342-1.337,1.342-3.514,0.006-4.855
		L55.405,13.432z M26.292,53.129c-4.132,0.002-8.01-1.603-10.922-4.516c-6.022-6.021-6.023-15.82,0-21.843
		c2.912-2.911,6.791-4.516,10.922-4.516c4.13,0,8.008,1.605,10.92,4.516c6.025,6.023,6.022,15.821,0,21.843
		C34.3,51.526,30.422,53.131,26.292,53.129z"/>
</g>
</svg>
