<?xml version="1.0" encoding="utf-8"?>
<!-- Generator: Adobe Illustrator 15.0.0, SVG Export Plug-In . SVG Version: 6.00 Build 0)  -->
<!DOCTYPE svg PUBLIC "-//W3C//DTD SVG 1.1//EN" "http://www.w3.org/Graphics/SVG/1.1/DTD/svg11.dtd">
<svg version="1.1" id="Layer_1" xmlns="http://www.w3.org/2000/svg" xmlns:xlink="http://www.w3.org/1999/xlink" x="0px" y="0px"
	 width="64px" height="64px" viewBox="0 0 64 64" enable-background="new 0 0 64 64" xml:space="preserve">
<g>
	<g>
		<path d="M58.224,44.823l-0.057,0.209c-0.474,1.758-1.895,3.194-4,4.04c-1.193,0.479-2.507,0.733-3.798,0.733
			c-1.468,0-2.829-0.336-3.832-0.941c-3.176-1.983-3.825-5.394-4.295-9.316c-0.102-0.935-0.19-1.9-0.281-2.883
			c-0.703-7.625-1.502-16.267-8.979-20.668l-0.191-0.111l-0.022,0.039c-3.004-2.021-6.498-3.088-10.124-3.088
			c-10.03,0-18.189,8.159-18.189,18.189c0,10.03,8.159,18.188,18.189,18.188c8.615,0,15.993-6.066,17.773-14.35
			c0.06,0.592,0.114,1.18,0.166,1.756l0.032,0.338c0.086,0.933,0.172,1.85,0.27,2.755c0.397,3.301,0.939,7.82,4.935,10.316
			c1.214,0.732,2.834,1.136,4.561,1.136c1.463,0,2.949-0.285,4.295-0.823c2.514-1.01,4.222-2.768,4.81-4.953l0.059-0.211
			L58.224,44.823z M22.645,15.494c2.913,0,5.282,2.37,5.282,5.284c0,2.913-2.369,5.284-5.282,5.284s-5.284-2.371-5.284-5.284
			C17.36,17.864,19.731,15.494,22.645,15.494z M12.396,36.307c-2.913,0-5.282-2.369-5.282-5.282c0-2.914,2.369-5.284,5.282-5.284
			c2.916,0,5.286,2.37,5.286,5.284C17.683,33.938,15.312,36.307,12.396,36.307z M22.645,46.555c-2.913,0-5.284-2.371-5.284-5.284
			s2.371-5.282,5.284-5.282s5.282,2.369,5.282,5.282S25.558,46.555,22.645,46.555z M32.891,36.307c-2.913,0-5.282-2.369-5.282-5.282
			c0-2.914,2.369-5.284,5.282-5.284s5.284,2.37,5.284,5.284C38.175,33.938,35.804,36.307,32.891,36.307z"/>
	</g>
</g>
</svg>
