<?xml version="1.0" encoding="utf-8"?>
<!-- Generator: Adobe Illustrator 15.0.0, SVG Export Plug-In . SVG Version: 6.00 Build 0)  -->
<!DOCTYPE svg PUBLIC "-//W3C//DTD SVG 1.1//EN" "http://www.w3.org/Graphics/SVG/1.1/DTD/svg11.dtd">
<svg version="1.1" id="Layer_1" xmlns="http://www.w3.org/2000/svg" xmlns:xlink="http://www.w3.org/1999/xlink" x="0px" y="0px"
	 width="64px" height="64px" viewBox="0 0 64 64" enable-background="new 0 0 64 64" xml:space="preserve">
<g>
	<path d="M49.487,3.25v0.898v0.898v2.099H14.525V4.148h-0.004V3.25H4.827v57.5h9.678v-0.896h0.02v-3.255h34.962v3.255H49.5v0.896
		h9.673V3.25H49.487z M10.78,51.069H8.235V46.13h2.545V51.069z M10.78,41.863H8.235V36.92h2.545V41.863z M10.78,31.783H8.235v-4.939
		h2.545V31.783z M10.78,21.144H8.235v-4.941h2.545V21.144z M10.78,11.935H8.235V6.993h2.545V11.935z M49.487,54.802H14.525V32.683
		h34.962V54.802z M49.487,30.884H14.525V8.942h34.962V30.884z M55.664,51.069H53.12V46.13h2.544V51.069z M55.664,41.863H53.12V36.92
		h2.544V41.863z M55.664,31.783H53.12v-4.939h2.544V31.783z M55.664,21.144H53.12v-4.941h2.544V21.144z M55.664,11.935H53.12V6.993
		h2.544V11.935z"/>
</g>
</svg>
