<?xml version="1.0" encoding="utf-8"?>
<!-- Generator: Adobe Illustrator 15.0.0, SVG Export Plug-In . SVG Version: 6.00 Build 0)  -->
<!DOCTYPE svg PUBLIC "-//W3C//DTD SVG 1.1//EN" "http://www.w3.org/Graphics/SVG/1.1/DTD/svg11.dtd">
<svg version="1.1" id="Layer_1" xmlns="http://www.w3.org/2000/svg" xmlns:xlink="http://www.w3.org/1999/xlink" x="0px" y="0px"
	 width="64px" height="64px" viewBox="0 0 64 64" enable-background="new 0 0 64 64" xml:space="preserve">
<g>
	<path d="M59.142,20.66c-1.722-2.585-3.964-5.268-6.671-7.973c-4.588-4.588-8.865-7.621-9.046-7.749l-0.857-0.605l-9.479,15.46
		l0.166,0.166l-28.96,30.35l9.357,9.359l30.35-28.96l0.267,0.268l15.438-9.465L59.142,20.66z M34.294,36.131l-1.354-1.428
		l4.283-4.073l1.354,1.428L34.294,36.131z M44.632,28.442l-9.012-9.011l7.517-12.259c1.472,1.108,4.652,3.62,7.941,6.908
		c2.32,2.319,4.28,4.61,5.845,6.827L44.632,28.442z"/>
</g>
</svg>
