<?xml version="1.0" encoding="utf-8"?>
<!-- Generator: Adobe Illustrator 15.0.0, SVG Export Plug-In . SVG Version: 6.00 Build 0)  -->
<!DOCTYPE svg PUBLIC "-//W3C//DTD SVG 1.1//EN" "http://www.w3.org/Graphics/SVG/1.1/DTD/svg11.dtd">
<svg version="1.1" id="Layer_1" xmlns="http://www.w3.org/2000/svg" xmlns:xlink="http://www.w3.org/1999/xlink" x="0px" y="0px"
	 width="64px" height="64px" viewBox="0 0 64 64" enable-background="new 0 0 64 64" xml:space="preserve">
<g>
	<g>
		<path d="M31.992,20.058c-0.254,0-0.507,0.03-0.755,0.088c-1.768,0.417-2.865,2.191-2.449,3.958
			c0.351,1.492,1.668,2.534,3.202,2.534c0.254,0,0.507-0.028,0.755-0.087c0.856-0.203,1.58-0.726,2.044-1.474
			c0.462-0.749,0.607-1.631,0.405-2.485C34.844,21.102,33.526,20.058,31.992,20.058z"/>
	</g>
	<g>
		<path d="M51.418,25.66c-1.773-3.251-6.295-4.553-8.701-5.191c1.839-2.097,5.539-6.498,4.71-10.375
			c-0.394-1.834-1.722-3.278-3.948-4.289c-0.202-0.093-0.85-0.445-1.442-0.769c-1.984-1.078-2.88-1.543-3.284-1.645
			c-1.175-0.291-2.304-0.318-3.321-0.075c-4.128,0.972-5.725,5.947-6.5,8.417c-1.804-1.482-5.316-4.285-8.751-4.285
			c-0.451,0-0.89,0.049-1.306,0.147c-1.602,0.378-2.922,1.456-3.928,3.207c-0.04,0.073-0.214,0.361-0.445,0.744l-0.054,0.09
			c-1.098,1.817-1.602,2.666-1.702,2.883c-1.055,2.325-1.171,4.433-0.348,6.263c1.531,3.397,5.827,4.839,8.145,5.555
			c-1.673,2.047-4.972,6.297-4.077,10.101c0.445,1.88,1.831,3.353,4.123,4.38c0.134,0.06,0.827,0.452,1.385,0.766l0.12,0.068
			c1.745,0.986,2.372,1.328,2.654,1.418c1.451,0.458,2.833,0.543,4.074,0.251c3.654-0.861,5.368-4.839,6.124-6.889
			c2.101,3.67,5.759,12.369,1.634,23.481l-0.098,0.257l1.83,0.678l0.095-0.258c3.825-10.307,1.319-18.759-0.847-23.337
			c2.234,1.34,4.259,2.018,6.029,2.018c0.499,0,0.983-0.054,1.442-0.162c1.947-0.459,3.467-1.861,4.516-4.168
			c0.06-0.134,0.615-1.101,0.824-1.467c0.954-1.666,1.285-2.262,1.368-2.51C52.373,28.997,52.268,27.212,51.418,25.66z
			 M36.403,26.078c-0.73,1.182-1.873,2.005-3.223,2.323c-0.391,0.093-0.792,0.138-1.188,0.138h-0.003c-2.417,0-4.496-1.645-5.052-4
			c-0.655-2.785,1.078-5.586,3.863-6.243c0.391-0.091,0.792-0.138,1.192-0.138c2.418,0,4.496,1.645,5.052,4
			C37.36,23.505,37.136,24.897,36.403,26.078z"/>
	</g>
</g>
</svg>
