<?xml version="1.0" encoding="utf-8"?>
<!-- Generator: Adobe Illustrator 15.0.0, SVG Export Plug-In . SVG Version: 6.00 Build 0)  -->
<!DOCTYPE svg PUBLIC "-//W3C//DTD SVG 1.1//EN" "http://www.w3.org/Graphics/SVG/1.1/DTD/svg11.dtd">
<svg version="1.1" id="Layer_1" xmlns="http://www.w3.org/2000/svg" xmlns:xlink="http://www.w3.org/1999/xlink" x="0px" y="0px"
	 width="64px" height="64px" viewBox="0 0 64 64" enable-background="new 0 0 64 64" xml:space="preserve">
<g>
	<g>
		<path d="M26.448,44.785c5.659,0,8.943-1.665,9.889-2.225c2.702,0.837,5.033,1.259,6.934,1.259c2.644,0,4.534-0.809,5.616-2.403
			c2.005-2.962,0.435-7.569,0.125-8.393V20.76c0.309-0.824,1.88-5.432-0.127-8.394c-1.857-2.741-6.079-3.145-12.548-1.145
			c-0.945-0.559-4.23-2.225-9.889-2.225c-5.432,0-8.01,1.554-8.852,2.207c-6.437-1.981-10.64-1.57-12.494,1.164
			c-2.005,2.961-0.434,7.568-0.126,8.392v12.263c-0.306,0.823-1.877,5.431,0.129,8.394c1.852,2.731,6.055,3.141,12.492,1.161
			C18.438,43.231,21.017,44.785,26.448,44.785z M10.33,38.633v-23.5h33.065v23.5H10.33z"/>
	</g>
	<g>
		<path d="M59.022,43.241V30.978c0.309-0.824,1.88-5.432-0.128-8.394c-1.472-2.173-4.453-2.852-8.838-2.054
			c-0.137,0.481-0.264,0.848-0.331,1.027v3.794h3.681v23.5H20.341v-4.38c-1.018-0.404-2.331-0.826-2.678-1.096
			c-1.32,0.405-1.875,0.686-3.006,0.892c-0.491,1.731-1.111,5.05,0.459,7.368c1.852,2.731,6.054,3.141,12.492,1.161
			c0.841,0.653,3.421,2.207,8.851,2.207c5.659,0,8.944-1.665,9.89-2.225c2.702,0.837,5.033,1.259,6.933,1.259
			c2.645,0,4.534-0.809,5.617-2.403C60.902,48.672,59.332,44.064,59.022,43.241z"/>
	</g>
</g>
</svg>
