<?xml version="1.0" encoding="utf-8"?>
<!-- Generator: Adobe Illustrator 15.0.0, SVG Export Plug-In . SVG Version: 6.00 Build 0)  -->
<!DOCTYPE svg PUBLIC "-//W3C//DTD SVG 1.1//EN" "http://www.w3.org/Graphics/SVG/1.1/DTD/svg11.dtd">
<svg version="1.1" id="Layer_1" xmlns="http://www.w3.org/2000/svg" xmlns:xlink="http://www.w3.org/1999/xlink" x="0px" y="0px"
	 width="64px" height="64px" viewBox="0 0 64 64" enable-background="new 0 0 64 64" xml:space="preserve">
<g>
	<g>
		<path d="M57.474,39.093V24.907c0.355-0.954,2.174-6.285-0.149-9.71c-2.148-3.171-7.032-3.639-14.516-1.324
			c-1.093-0.646-4.895-2.574-11.44-2.574c-6.284,0-9.267,1.797-10.242,2.553c-7.447-2.292-12.308-1.816-14.453,1.346
			c-2.321,3.425-0.502,8.755-0.146,9.709v14.186c-0.354,0.953-2.172,6.284,0.149,9.71c2.143,3.161,7.004,3.636,14.451,1.346
			c0.975,0.756,3.958,2.553,10.242,2.553c6.546,0,10.348-1.927,11.44-2.574c3.127,0.968,5.823,1.457,8.021,1.457
			c3.06,0,5.246-0.935,6.498-2.781C59.647,45.377,57.83,40.046,57.474,39.093z M50.974,45.584H12.721V18.397h38.252V45.584z"/>
	</g>
	<g>
		<path d="M36.974,39.832c0.066,0.067,0.224,0.224,4.257,1.858c0.159,0.063,0.34,0.024,0.458-0.099
			c0.116-0.123,0.147-0.306,0.077-0.46c-1.781-3.878-1.938-4.035-1.996-4.093L25.236,22.505c-0.325-0.325-0.853-0.325-1.177,0
			l-1.618,1.618c-0.324,0.325-0.324,0.852,0,1.176L36.974,39.832z M40.567,40.521c-1.04-0.426-2.034-0.845-2.596-1.096l1.405-1.405
			C39.646,38.559,40.101,39.515,40.567,40.521z M24.647,23.094l1.817,1.816l-1.618,1.618l-1.818-1.817L24.647,23.094z"/>
	</g>
</g>
</svg>
