<?xml version="1.0" encoding="utf-8"?>
<!-- Generator: Adobe Illustrator 15.0.0, SVG Export Plug-In . SVG Version: 6.00 Build 0)  -->
<!DOCTYPE svg PUBLIC "-//W3C//DTD SVG 1.1//EN" "http://www.w3.org/Graphics/SVG/1.1/DTD/svg11.dtd">
<svg version="1.1" id="Layer_1" xmlns="http://www.w3.org/2000/svg" xmlns:xlink="http://www.w3.org/1999/xlink" x="0px" y="0px"
	 width="64px" height="64px" viewBox="0 0 64 64" enable-background="new 0 0 64 64" xml:space="preserve">
<g>
	<g>
		<path d="M59.397,39.629V24.371c0.381-1.025,2.336-6.76-0.161-10.443c-2.312-3.41-7.565-3.914-15.613-1.424
			c-1.176-0.695-5.265-2.768-12.303-2.768c-6.758,0-9.966,1.933-11.017,2.746c-8.009-2.465-13.237-1.954-15.542,1.447
			c-2.497,3.684-0.541,9.417-0.159,10.442v15.258c-0.382,1.025-2.337,6.758,0.161,10.442c2.306,3.4,7.534,3.91,15.541,1.448
			c1.051,0.813,4.259,2.744,11.017,2.744c7.038,0,11.127-2.071,12.303-2.768c3.363,1.041,6.264,1.566,8.625,1.566
			c3.291,0,5.645-1.005,6.991-2.991C61.735,46.387,59.778,40.654,59.397,39.629z M52.406,46.609H11.263V17.371h41.143V46.609z"/>
	</g>
	<g>
		<path d="M25.363,38.474c0.427,0.427,1.119,0.427,1.546,0l4.927-4.928l4.928,4.925c0.427,0.43,1.118,0.43,1.546,0.003
			c0.424-0.428,0.424-1.118-0.003-1.546L33.382,32l4.928-4.927c0.427-0.427,0.427-1.118-0.003-1.545
			c-0.428-0.428-1.116-0.428-1.543-0.001l-4.931,4.928l-4.924-4.927c-0.429-0.428-1.119-0.427-1.546-0.001
			c-0.427,0.427-0.427,1.119,0.001,1.546L30.29,32l-4.927,4.928C24.936,37.355,24.936,38.046,25.363,38.474z"/>
	</g>
</g>
</svg>
