<?xml version="1.0" encoding="utf-8"?>
<!-- Generator: Adobe Illustrator 15.0.0, SVG Export Plug-In . SVG Version: 6.00 Build 0)  -->
<!DOCTYPE svg PUBLIC "-//W3C//DTD SVG 1.1//EN" "http://www.w3.org/Graphics/SVG/1.1/DTD/svg11.dtd">
<svg version="1.1" id="Layer_1" xmlns="http://www.w3.org/2000/svg" xmlns:xlink="http://www.w3.org/1999/xlink" x="0px" y="0px"
	 width="64px" height="64px" viewBox="0 0 64 64" enable-background="new 0 0 64 64" xml:space="preserve">
<g>
	<g>
		<path d="M16.207,18.135c-3.604-0.561-6.416-1.187-8.224-1.635c-2.659,4.106-4.276,8.93-4.526,14.114h11.958
			C15.362,26.021,15.693,21.813,16.207,18.135z"/>
	</g>
	<g>
		<path d="M15.488,33.277H3.451c0.221,4.946,1.693,9.562,4.122,13.547c3.125-0.852,6.23-1.497,9.277-1.965
			C16.073,40.824,15.649,36.942,15.488,33.277z"/>
	</g>
	<g>
		<path d="M20.052,47.133c0.926,3.997,2.224,8.129,3.995,12.333c2.117,0.614,4.336,0.973,6.623,1.078V46.503
			C27.286,46.519,23.721,46.702,20.052,47.133z"/>
	</g>
	<g>
		<path d="M9.151,49.15c2.982,3.963,6.945,7.141,11.554,9.13c-1.415-3.67-2.504-7.284-3.304-10.795
			C14.682,47.891,11.922,48.437,9.151,49.15z"/>
	</g>
	<g>
		<path d="M48.381,30.614h12.164c-0.253-5.188-1.871-10.015-4.534-14.123c-2.828,0.755-5.638,1.342-8.403,1.781
			C48.109,21.917,48.431,26.079,48.381,30.614z"/>
	</g>
	<g>
		<path d="M18.663,6.704c-3.485,1.845-6.539,4.388-8.987,7.443c1.722,0.392,4.073,0.872,6.952,1.313
			C17.252,11.85,18.015,8.88,18.663,6.704z"/>
	</g>
	<g>
		<path d="M54.346,14.174c-2.507-3.136-5.656-5.727-9.249-7.586c0.664,2.219,1.456,5.289,2.099,9.042
			C49.556,15.26,51.944,14.778,54.346,14.174z"/>
	</g>
	<g>
		<path d="M30.669,16.69V3.453c-3.07,0.142-6.01,0.764-8.754,1.802c-0.675,1.958-1.798,5.635-2.66,10.577
			C22.601,16.262,26.466,16.6,30.669,16.69z"/>
	</g>
	<g>
		<path d="M44.566,16c-0.876-5.098-2.039-8.875-2.716-10.831c-2.679-0.986-5.538-1.578-8.518-1.716v13.258
			C36.905,16.695,40.682,16.486,44.566,16z"/>
	</g>
	<g>
		<path d="M33.333,43.812c4.006,0.081,7.697,0.39,10.95,0.789c0.773-3.944,1.2-7.742,1.365-11.323H33.333V43.812z"/>
	</g>
	<g>
		<path d="M18.07,30.614h12.599V19.4c-4.375-0.087-8.373-0.438-11.835-0.892C18.337,22.071,18.016,26.152,18.07,30.614z"/>
	</g>
	<g>
		<path d="M33.333,19.419v11.194h12.391c0.053-4.397-0.256-8.429-0.742-11.954C40.94,19.18,37.027,19.396,33.333,19.419z"/>
	</g>
	<g>
		<path d="M48.306,33.277c-0.162,3.696-0.593,7.612-1.378,11.682c4.328,0.64,7.611,1.395,9.495,1.874
			c2.432-3.988,3.906-8.606,4.125-13.556H48.306z"/>
	</g>
	<g>
		<path d="M19.489,44.495c3.874-0.475,7.628-0.681,11.18-0.699V33.277H18.146C18.309,36.827,18.728,40.588,19.489,44.495z"/>
	</g>
	<g>
		<path d="M33.333,46.527v14.021c2.203-0.104,4.343-0.446,6.392-1.023c1.765-4.179,3.059-8.282,3.988-12.261
			C40.613,46.896,37.111,46.612,33.333,46.527z"/>
	</g>
	<g>
		<path d="M43.045,58.39c4.699-1.974,8.74-5.183,11.771-9.195c-1.918-0.452-4.817-1.058-8.453-1.581
			C45.559,51.118,44.464,54.726,43.045,58.39z"/>
	</g>
</g>
</svg>
