<?xml version="1.0" encoding="utf-8"?>
<!-- Generator: Adobe Illustrator 15.0.0, SVG Export Plug-In . SVG Version: 6.00 Build 0)  -->
<!DOCTYPE svg PUBLIC "-//W3C//DTD SVG 1.1//EN" "http://www.w3.org/Graphics/SVG/1.1/DTD/svg11.dtd">
<svg version="1.1" id="Layer_1" xmlns="http://www.w3.org/2000/svg" xmlns:xlink="http://www.w3.org/1999/xlink" x="0px" y="0px"
	 width="64px" height="64px" viewBox="0 0 64 64" enable-background="new 0 0 64 64" xml:space="preserve">
<g>
	<g>
		<path d="M57.851,40.752V25.25l1.363-0.461l-1.363-0.459l-0.536-0.181L31.81,15.555L4.403,24.79l10.094,3.402l-0.003,0.008
			l1.025,0.336l2.351,0.812l0.001-0.004L32,33.809l13.993-4.527l0.002,0.009l3.106-1.053l-0.012-0.035l7.479-2.521v14.85
			l-2.037,3.677l2.609,4.236l2.458-4.257L57.851,40.752z M57.135,45.881l-0.985-1.882l0.941-1.977l1.015,1.996L57.135,45.881z"/>
	</g>
	<g>
		<path d="M31.906,35.699l-12.832-4.057l-0.67,2.931c-0.144,0.241-0.216,0.484-0.216,0.73c0,2.303,10.127,8.056,13.261,8.056
			c3.23,0,14.361-5.813,14.361-8.056c0-0.17-0.034-0.32-0.088-0.546c-0.032-0.131-0.074-0.298-0.118-0.521l-0.664-2.695
			l-12.938,4.187L31.906,35.699z"/>
	</g>
</g>
</svg>
