<?xml version="1.0" encoding="utf-8"?>
<!-- Generator: Adobe Illustrator 15.0.0, SVG Export Plug-In . SVG Version: 6.00 Build 0)  -->
<!DOCTYPE svg PUBLIC "-//W3C//DTD SVG 1.1//EN" "http://www.w3.org/Graphics/SVG/1.1/DTD/svg11.dtd">
<svg version="1.1" id="Layer_1" xmlns="http://www.w3.org/2000/svg" xmlns:xlink="http://www.w3.org/1999/xlink" x="0px" y="0px"
	 width="64px" height="64px" viewBox="0 0 64 64" enable-background="new 0 0 64 64" xml:space="preserve">
<g>
	<g>
		<path fill="#010101" d="M58.899,14.546l0.034-0.047l-0.304-0.417c-0.933-1.288-1.967-2.329-3.169-3.181
			c-1.238-0.853-2.813-1.724-5.122-1.724h-0.002c-1.202,0.036-2.465,0.481-3.463,1.213c-0.894,0.642-1.659,1.507-2.271,2.574
			c-0.173,0.3-0.333,0.613-0.481,0.948h-4.897v5.401h3.649c3.065,11.894,2.64,20.492-1.263,25.561
			c-3.322,4.315-8.113,4.534-9.041,4.534l-0.265-0.003c-4.604,0-8.033-1.506-10.192-4.476c-5.534-7.613-1.496-22.684-0.636-25.616
			h3.179v-5.401h-4.772c-0.146-0.329-0.304-0.644-0.479-0.952c-0.617-1.066-1.379-1.931-2.266-2.567
			c-1.005-0.735-2.271-1.18-3.495-1.218c-2.288,0-3.861,0.873-5.107,1.73c-1.194,0.848-2.229,1.888-3.162,3.176l-0.311,0.444
			l0.026,0.037c-0.226,0.447-0.342,0.935-0.342,1.435c0,1.785,1.45,3.237,3.237,3.237c1.785,0,3.237-1.452,3.237-3.237
			c0-0.945-0.417-1.816-1.088-2.417c1.188-0.439,2.093-0.59,2.984-0.433c0.865,0.127,1.617,0.784,2.018,1.77
			c0.376,0.878,0.583,1.966,0.648,3.423c0.097,2.549-0.274,5.126-0.692,7.538c-0.383,2.292-0.813,5.012-1.104,7.818
			c-0.229,2.535-0.391,5.268-0.044,8.048c0.362,3.145,1.607,5.864,3.504,7.649c1.535,1.481,3.222,2.591,5.318,3.487
			c0.187,0.08,4.648,1.942,10.083,1.942c3.225,0,6.117-0.66,8.621-1.981c3.79-2.186,5.036-3.404,5.075-3.443
			c1.901-1.787,3.149-4.507,3.514-7.649c0.345-2.798,0.18-5.522-0.051-8.06c-0.253-2.499-0.622-4.929-1.098-7.816
			c-0.418-2.417-0.789-5.003-0.697-7.528c0.068-1.458,0.274-2.547,0.655-3.438c0.398-0.975,1.151-1.632,2.03-1.763
			c0.813-0.145,1.783,0,2.963,0.435c-0.673,0.6-1.09,1.473-1.09,2.418c0,1.785,1.452,3.237,3.236,3.237
			c1.787,0,3.237-1.452,3.237-3.237C59.249,15.493,59.13,15,58.899,14.546z M7.988,17.791c-0.991,0-1.794-0.804-1.794-1.793
			c0-0.376,0.124-0.741,0.357-1.059l0.224-0.313c0.163-0.214,0.325-0.417,0.495-0.612l1.095,0.233
			c0.821,0.174,1.416,0.911,1.416,1.751C9.78,16.987,8.977,17.791,7.988,17.791z M56.012,17.791c-0.988,0-1.792-0.804-1.792-1.793
			c0-0.841,0.595-1.579,1.418-1.753l1.103-0.23c0.139,0.163,0.277,0.33,0.413,0.504l-0.005,0.006l0.304,0.418
			c0.23,0.318,0.354,0.684,0.354,1.056C57.807,16.987,57,17.791,56.012,17.791z"/>
	</g>
	<g>
		<path fill="#010101" d="M36.621,9.662H26.468v3.763h10.153V9.662z M28.459,12.121c-0.321,0-0.578-0.259-0.578-0.577
			c0-0.318,0.257-0.578,0.578-0.578c0.318,0,0.576,0.26,0.576,0.578C29.035,11.862,28.777,12.121,28.459,12.121z M34.618,12.121
			c-0.318,0-0.576-0.259-0.576-0.577c0-0.318,0.258-0.578,0.576-0.578c0.317,0,0.577,0.26,0.577,0.578
			C35.195,11.862,34.936,12.121,34.618,12.121z"/>
	</g>
	<g>
		<path fill="#010101" d="M38.292,14.803H25.261v3.76h13.031V14.803z M27.282,17.26c-0.321,0-0.578-0.259-0.578-0.577
			c0-0.319,0.257-0.577,0.578-0.577c0.318,0,0.575,0.257,0.575,0.577C27.857,17.001,27.6,17.26,27.282,17.26z M36.388,17.26
			c-0.317,0-0.577-0.259-0.577-0.577c0-0.319,0.26-0.577,0.577-0.577c0.318,0,0.578,0.257,0.578,0.577
			C36.966,17.001,36.706,17.26,36.388,17.26z"/>
	</g>
	<g>
		<path fill="#010101" d="M24.139,23.832h15.272v-3.759H24.139V23.832z M37.48,21.375c0.318,0,0.578,0.259,0.578,0.577
			c0,0.318-0.26,0.578-0.578,0.578c-0.317,0-0.575-0.26-0.575-0.578C36.905,21.634,37.163,21.375,37.48,21.375z M26.072,21.375
			c0.318,0,0.578,0.259,0.578,0.577c0,0.318-0.26,0.578-0.578,0.578c-0.318,0-0.578-0.26-0.578-0.578
			C25.494,21.634,25.754,21.375,26.072,21.375z"/>
	</g>
	<g>
		<path fill="#010101" d="M23.384,29.298h17.268v-3.76H23.384V29.298z M38.227,26.84c0.318,0,0.578,0.259,0.578,0.578
			c0,0.318-0.26,0.575-0.578,0.575s-0.578-0.257-0.578-0.575C37.648,27.099,37.908,26.84,38.227,26.84z M25.494,26.84
			c0.318,0,0.578,0.259,0.578,0.578c0,0.318-0.26,0.575-0.578,0.575c-0.318,0-0.575-0.257-0.575-0.575
			C24.919,27.099,25.176,26.84,25.494,26.84z"/>
	</g>
	<g>
		<path fill="#010101" d="M22.568,34.832h19.177v-3.761H22.568V34.832z M39.645,32.374c0.318,0,0.578,0.258,0.578,0.577
			c0,0.317-0.26,0.577-0.578,0.577s-0.575-0.26-0.575-0.577C39.069,32.632,39.326,32.374,39.645,32.374z M24.518,32.374
			c0.318,0,0.576,0.258,0.576,0.577c0,0.317-0.257,0.577-0.576,0.577c-0.318,0-0.578-0.26-0.578-0.577
			C23.94,32.632,24.2,32.374,24.518,32.374z"/>
	</g>
	<g>
		<path fill="#010101" d="M21.475,40.102h21.773V36.34H21.475V40.102z M40.995,37.644c0.317,0,0.577,0.26,0.577,0.578
			s-0.26,0.575-0.577,0.575c-0.318,0-0.578-0.257-0.578-0.575S40.677,37.644,40.995,37.644z M23.27,37.644
			c0.318,0,0.575,0.26,0.575,0.578s-0.257,0.575-0.575,0.575c-0.318,0-0.578-0.257-0.578-0.575S22.952,37.644,23.27,37.644z"/>
	</g>
</g>
</svg>
