<?xml version="1.0" encoding="utf-8"?>
<!-- Generator: Adobe Illustrator 15.0.0, SVG Export Plug-In . SVG Version: 6.00 Build 0)  -->
<!DOCTYPE svg PUBLIC "-//W3C//DTD SVG 1.1//EN" "http://www.w3.org/Graphics/SVG/1.1/DTD/svg11.dtd">
<svg version="1.1" id="Layer_1" xmlns="http://www.w3.org/2000/svg" xmlns:xlink="http://www.w3.org/1999/xlink" x="0px" y="0px"
	 width="64px" height="64px" viewBox="0 0 64 64" enable-background="new 0 0 64 64" xml:space="preserve">
<g>
	<path fill="#231F20" d="M56.271,36.374C55.655,21.246,44.827,9.155,31.604,9.155C18.253,9.155,7.35,21.484,6.93,36.82
		c-1.104,0.801-1.789,2.083-1.789,3.497v10.172c0,2.402,1.955,4.355,4.355,4.355c2.403,0,4.357-1.953,4.357-4.355V40.317
		c0-1.974-1.328-3.626-3.133-4.157c0.691-12.96,9.78-23.262,20.883-23.262c11.196,0,20.343,10.472,20.899,23.581
		c-1.406,0.73-2.355,2.186-2.355,3.838v10.172c0,2.402,1.954,4.355,4.356,4.355c2.401,0,4.354-1.953,4.354-4.355V40.317
		C58.858,38.571,57.803,37.057,56.271,36.374z"/>
</g>
</svg>
