<?xml version="1.0" encoding="utf-8"?>
<!-- Generator: Adobe Illustrator 15.0.0, SVG Export Plug-In . SVG Version: 6.00 Build 0)  -->
<!DOCTYPE svg PUBLIC "-//W3C//DTD SVG 1.1//EN" "http://www.w3.org/Graphics/SVG/1.1/DTD/svg11.dtd">
<svg version="1.1" id="Layer_1" xmlns="http://www.w3.org/2000/svg" xmlns:xlink="http://www.w3.org/1999/xlink" x="0px" y="0px"
	 width="64px" height="64px" viewBox="0 0 64 64" enable-background="new 0 0 64 64" xml:space="preserve">
<g>
	<g>
		<path fill="#010101" d="M53.617,23.312h-0.882C51.796,11.881,42.759,2.881,31.77,2.881c-10.992,0-20.029,9-20.969,20.431h-0.419
			c-2.261,0-4.103,1.839-4.103,4.1v16.103c0,2.265,1.842,4.104,4.103,4.104h4.458c2.264,0,4.103-1.839,4.103-4.104V27.412
			c0-2.261-1.839-4.1-4.103-4.1h-1.784C13.981,13.124,22.021,5.135,31.77,5.135c9.75,0,17.789,7.988,18.711,18.176H49.16
			c-2.265,0-4.104,1.839-4.104,4.1v16.103c0,1.944,1.383,3.633,3.286,4.021l1.999,0.055c0.062,1.338-0.082,3.939-1.808,6.013
			c-1.44,1.727-3.716,2.769-6.76,3.137c-0.504-0.783-1.383-1.301-2.38-1.301H35.09c-1.566,0-2.839,1.27-2.839,2.84
			c0,1.569,1.273,2.84,2.839,2.84h4.305c1.331,0,2.441-0.919,2.748-2.159c3.596-0.449,6.337-1.757,8.142-3.933
			c2.139-2.585,2.384-5.68,2.318-7.409h1.015c2.265,0,4.104-1.839,4.104-4.104V27.412C57.721,25.15,55.882,23.312,53.617,23.312z"/>
	</g>
</g>
</svg>
