<?xml version="1.0" encoding="utf-8"?>
<!-- Generator: Adobe Illustrator 15.0.0, SVG Export Plug-In . SVG Version: 6.00 Build 0)  -->
<!DOCTYPE svg PUBLIC "-//W3C//DTD SVG 1.1//EN" "http://www.w3.org/Graphics/SVG/1.1/DTD/svg11.dtd">
<svg version="1.1" id="Layer_1" xmlns="http://www.w3.org/2000/svg" xmlns:xlink="http://www.w3.org/1999/xlink" x="0px" y="0px"
	 width="64px" height="64px" viewBox="0 0 64 64" enable-background="new 0 0 64 64" xml:space="preserve">
<g>
	<g>
		<path d="M58.297,12.1c-2.486-3.267-6.398-5.144-11.966-5.741c-0.451-0.046-0.926-0.074-1.416-0.074
			c-4.936,0-9.854,2.316-12.915,5.995c-3.063-3.679-7.979-5.995-12.913-5.995c-0.489,0-0.962,0.028-1.422,0.074
			c-5.559,0.597-9.47,2.475-11.958,5.74c-2.467,3.237-3.271,7.625-2.388,13.042C4.608,33,14.785,42.57,22.961,50.262l0.187,0.176
			c2.277,2.145,4.244,3.996,5.525,5.374c0.173,0.194,1.734,1.903,3.443,1.903c1.72,0,3.247-1.734,3.385-1.901
			c1.362-1.476,3.572-3.569,5.754-5.632c8.085-7.67,18.147-17.215,19.423-25.044C61.565,19.725,60.766,15.339,58.297,12.1z"/>
	</g>
</g>
</svg>
