<?xml version="1.0" encoding="utf-8"?>
<!-- Generator: Adobe Illustrator 15.0.0, SVG Export Plug-In . SVG Version: 6.00 Build 0)  -->
<!DOCTYPE svg PUBLIC "-//W3C//DTD SVG 1.1//EN" "http://www.w3.org/Graphics/SVG/1.1/DTD/svg11.dtd">
<svg version="1.1" id="Layer_1" xmlns="http://www.w3.org/2000/svg" xmlns:xlink="http://www.w3.org/1999/xlink" x="0px" y="0px"
	 width="64px" height="64px" viewBox="0 0 64 64" enable-background="new 0 0 64 64" xml:space="preserve">
<g>
	<path d="M32,4.646C16.916,4.646,4.645,16.917,4.645,32c0,15.084,12.271,27.354,27.355,27.354c15.084,0,27.355-12.27,27.355-27.354
		C59.355,16.917,47.084,4.646,32,4.646z M30.619,50.195c-1.844,0-3.184-1.402-3.184-3.337c0-1.994,1.333-3.386,3.236-3.386
		c1.875,0,3.188,1.392,3.188,3.386C33.858,48.824,32.525,50.195,30.619,50.195z M35.668,31.264c-2.127,2.51-2.967,4.669-2.815,7.222
		l0.056,1.557h-4.351l-0.12-1.532c-0.324-2.938,0.741-5.919,3.167-8.83c2.199-2.589,3.469-4.521,3.469-6.749
		c0-2.6-1.621-4.057-4.567-4.104c-1.466,0-3.078,0.411-4.292,1.098l-0.905,0.511l-1.35-3.553l0.633-0.386
		c1.754-1.066,4.372-1.729,6.834-1.729c5.95,0,8.615,3.821,8.615,7.608C40.041,25.805,38.229,28.223,35.668,31.264z"/>
</g>
</svg>
