<?xml version="1.0" encoding="utf-8"?>
<!-- Generator: Adobe Illustrator 15.0.0, SVG Export Plug-In . SVG Version: 6.00 Build 0)  -->
<!DOCTYPE svg PUBLIC "-//W3C//DTD SVG 1.1//EN" "http://www.w3.org/Graphics/SVG/1.1/DTD/svg11.dtd">
<svg version="1.1" id="Layer_1" xmlns="http://www.w3.org/2000/svg" xmlns:xlink="http://www.w3.org/1999/xlink" x="0px" y="0px"
	 width="64px" height="64px" viewBox="0 0 64 64" enable-background="new 0 0 64 64" xml:space="preserve">
<g>
	<path d="M52.604,15.172V3.25H40.68v3.49H29.978v23.425h-2.935v-6.422H11.396v15.648h15.647v-6.423h2.935v23.428H40.68v4.354h11.925
		V48.825H40.68v4.768h-7.9V32.969h7.9v4.56h11.925V25.606H40.68v4.56h-7.9V9.543h7.9v5.629H52.604z M49.802,6.053v6.316h-6.318
		V6.053H49.802z M49.802,28.409v6.315h-6.318v-6.315H49.802z M49.802,51.629v6.318h-6.318v-6.318H49.802z M14.199,36.588V26.549
		H24.24v10.039H14.199z"/>
</g>
</svg>
