<?xml version="1.0" encoding="utf-8"?>
<!-- Generator: Adobe Illustrator 15.0.0, SVG Export Plug-In . SVG Version: 6.00 Build 0)  -->
<!DOCTYPE svg PUBLIC "-//W3C//DTD SVG 1.1//EN" "http://www.w3.org/Graphics/SVG/1.1/DTD/svg11.dtd">
<svg version="1.1" id="Layer_1" xmlns="http://www.w3.org/2000/svg" xmlns:xlink="http://www.w3.org/1999/xlink" x="0px" y="0px"
	 width="64px" height="64px" viewBox="0 0 64 64" enable-background="new 0 0 64 64" xml:space="preserve">
<g>
	<g>
		<path fill="#231F20" d="M5.788,18.687V45.17h8.544l19.331,14.604V4.226l-19.141,14.46H5.788z M7.365,43.593V20.264h6.633v23.329
			H7.365z"/>
	</g>
	<g>
		<g>
			<path d="M41.723,26.131l-0.668-1.156l-1.161,0.641c-0.321,0.174-0.636,0.319-0.923,0.427l-1.55,0.553l0.84,1.429
				c0.819,1.371,1.253,2.935,1.253,4.521c0,1.514-0.395,3.016-1.14,4.342l-0.49,0.87l1.2,1.344c0.086,0.11,0.176,0.22,0.26,0.32
				l1.211,1.462l1-1.617c1.251-2.029,1.913-4.352,1.914-6.721C43.469,30.295,42.863,28.075,41.723,26.131z"/>
		</g>
		<g>
			<path d="M46.798,21.003l-1.097-1.537l-1.118,1.527c-0.248,0.342-0.502,0.677-0.754,0.994l-0.615,0.777l0.561,0.843
				c1.834,2.666,2.804,5.755,2.804,8.937c0,3.658-1.218,7.106-3.522,9.98l-0.651,0.819l0.888,1.188
				c0.132,0.154,0.272,0.296,0.416,0.438c0.079,0.077,0.154,0.153,0.233,0.24l1.064,1.145l0.986-1.209
				c2.972-3.618,4.544-7.977,4.544-12.601C50.536,28.407,49.243,24.415,46.798,21.003z"/>
		</g>
		<g>
			<path d="M51.208,14.215l-1.145-1.292l-0.982,1.401c-0.25,0.347-0.498,0.707-0.754,1.084l-0.582,0.875l0.691,0.774
				c3.755,4.307,5.821,9.807,5.82,15.487c0,5.591-2.03,11.038-5.722,15.341l-0.869,1.022l0.997,0.882
				c0.184,0.165,0.371,0.323,0.635,0.545l1.362,1.16l0.887-1.034c4.298-5.011,6.665-11.372,6.665-17.915
				C58.212,25.793,55.724,19.283,51.208,14.215z"/>
		</g>
	</g>
</g>
</svg>
