<?xml version="1.0" encoding="utf-8"?>
<!-- Generator: Adobe Illustrator 15.0.0, SVG Export Plug-In . SVG Version: 6.00 Build 0)  -->
<!DOCTYPE svg PUBLIC "-//W3C//DTD SVG 1.1//EN" "http://www.w3.org/Graphics/SVG/1.1/DTD/svg11.dtd">
<svg version="1.1" id="Layer_1" xmlns="http://www.w3.org/2000/svg" xmlns:xlink="http://www.w3.org/1999/xlink" x="0px" y="0px"
	 width="64px" height="64px" viewBox="0 0 64 64" enable-background="new 0 0 64 64" xml:space="preserve">
<g>
	<g>
		<g>
			<g>
				<g>
					<path d="M14.013,54.271c-0.764,0-1.237-0.326-1.501-0.599c-0.596-0.62-0.593-1.443-0.588-1.603V33.81l-5.921,1.336
						c-0.44,0.1-0.891-0.113-1.096-0.514C4.7,34.229,4.794,33.739,5.135,33.44l26.64-23.466c0.379-0.332,0.943-0.329,1.317,0.009
						l25.784,23.353c0.335,0.304,0.423,0.793,0.213,1.191s-0.658,0.609-1.102,0.504l-6.499-1.521v18.264
						c0.006,0.068,0.027,1.052-0.661,1.77c-0.296,0.311-0.836,0.681-1.716,0.681H36.174c-0.26,0-0.515-0.104-0.7-0.29
						c-0.186-0.188-0.288-0.438-0.288-0.7l0.025-10.796c0.003-0.053,0.006-0.388-0.183-0.581c-0.172-0.178-0.504-0.216-0.75-0.216
						h-5.484c-0.141,0-0.332,0.021-0.42,0.116c-0.13,0.144-0.155,0.467-0.144,0.595l-0.017,10.918c0,0.545-0.44,0.987-0.988,0.987
						C27.226,54.258,15.437,54.271,14.013,54.271z"/>
				</g>
			</g>
		</g>
	</g>
	<g>
		<g>
			<g>
				<g>
					<path d="M53.01,28.658h-1.976V16.342H47.85l0.017,7.953L45.891,24.3l-0.02-8.944c-0.002-0.263,0.103-0.515,0.288-0.701
						s0.438-0.29,0.7-0.29h5.163c0.545,0,0.987,0.442,0.987,0.989V28.658z"/>
				</g>
			</g>
		</g>
	</g>
</g>
</svg>
