<?xml version="1.0" encoding="utf-8"?>
<!-- Generator: Adobe Illustrator 15.0.0, SVG Export Plug-In . SVG Version: 6.00 Build 0)  -->
<!DOCTYPE svg PUBLIC "-//W3C//DTD SVG 1.1//EN" "http://www.w3.org/Graphics/SVG/1.1/DTD/svg11.dtd">
<svg version="1.1" id="Layer_1" xmlns="http://www.w3.org/2000/svg" xmlns:xlink="http://www.w3.org/1999/xlink" x="0px" y="0px"
	 width="64px" height="64px" viewBox="0 0 64 64" enable-background="new 0 0 64 64" xml:space="preserve">
<g>
	<g>
		<path fill="#231F20" d="M58.299,13.731H5.701c-1.022,0-1.852,0.832-1.852,1.854v31.75c0,1.022,0.83,1.852,1.852,1.852h7.106
			c0.376,0.644,1.214,1.083,2.211,1.083h1.651c0.992,0,1.827-0.435,2.206-1.083H44.03c0.377,0.644,1.215,1.083,2.212,1.083h1.65
			c0.992,0,1.827-0.435,2.206-1.083h8.2c1.02,0,1.852-0.829,1.852-1.852v-31.75C60.15,14.563,59.318,13.731,58.299,13.731z
			 M34.218,26.735h13.705v1.588H34.218V26.735z M28.202,40.504c-3.146,1.397-7.895,1.65-8.096,1.661l-0.651,0.033l-0.008-0.033
			c-0.046-0.002-0.093-0.002-0.143-0.002c-0.22-0.012-4.967-0.264-8.112-1.659c-0.291-0.116-0.909-0.52-0.934-1.821
			c0.006-0.231,0.182-4.665,1.615-6.794c0.072-0.096,0.566-0.744,1.651-1.156c1.236-0.379,2.439-0.917,2.761-1.217
			c-0.492-0.698-0.86-1.514-1.027-2.379c-0.179-0.255-0.3-0.56-0.354-0.909c-0.22-0.774-0.206-1.404,0.058-1.854
			c-0.228-1.64-0.027-2.437,0.077-2.714c0.618-1.906,2.541-2.794,2.92-2.953c0.14-0.052,0.502-0.176,0.86-0.176l0.195,0.011
			c0.044-0.033,0.135-0.044,0.226-0.044c0.173,0.002,0.862,0.096,1.849,0.398l0.604,0.209c1.354,0.398,2.055,1.181,2.239,1.409
			c1.096,1.25,0.97,2.958,0.73,4.038c0.17,0.429,0.157,1.011-0.046,1.758c-0.047,0.289-0.168,0.588-0.352,0.843
			c-0.178,0.841-0.571,1.687-1.109,2.417c0.085,0.061,0.258,0.176,0.607,0.349c0.083,0.036,0.203,0.085,0.341,0.132
			c0.014,0.006,0.796,0.256,1.631,0.646l0.094,0.025c0.049,0.017,1.261,0.497,1.681,1.179l0.011-0.006
			c1.434,2.126,1.607,6.563,1.615,6.75C29.111,39.974,28.493,40.383,28.202,40.504z M47.923,38.654H34.218v-1.587h13.705V38.654z
			 M53.431,33.487H34.218v-1.585h19.213V33.487z M53.431,22.906H34.218v-1.588h19.213V22.906z"/>
	</g>
</g>
</svg>
