<?xml version="1.0" encoding="utf-8"?>
<!-- Generator: Adobe Illustrator 15.0.0, SVG Export Plug-In . SVG Version: 6.00 Build 0)  -->
<!DOCTYPE svg PUBLIC "-//W3C//DTD SVG 1.1//EN" "http://www.w3.org/Graphics/SVG/1.1/DTD/svg11.dtd">
<svg version="1.1" id="Layer_1" xmlns="http://www.w3.org/2000/svg" xmlns:xlink="http://www.w3.org/1999/xlink" x="0px" y="0px"
	 width="64px" height="64px" viewBox="0 0 64 64" enable-background="new 0 0 64 64" xml:space="preserve">
<g>
	<g>
		<path d="M59.043,49.669l-8.886-8.891c-0.692-0.69-1.657-1.07-2.715-1.07c-1.113,0-2.189,0.434-2.949,1.193l-4.802,4.804
			l-1.298-0.72c-2.856-1.583-6.765-3.754-10.896-7.889c-4.146-4.142-6.318-8.062-7.907-10.927l-0.71-1.262l4.812-4.81
			c1.592-1.597,1.646-4.137,0.12-5.666l-8.887-8.886c-0.692-0.69-1.655-1.072-2.712-1.072c-1.115,0-2.189,0.436-2.949,1.197
			L7.082,7.866L6.877,8.201c-0.811,1.042-1.476,2.213-1.975,3.489c-0.461,1.216-0.75,2.372-0.881,3.531
			C2.875,24.744,7.267,33.487,19.18,45.399c14.122,14.118,25.921,15.216,29.202,15.216c0.561,0,0.9-0.03,0.997-0.04
			c1.212-0.147,2.372-0.438,3.542-0.893c1.263-0.492,2.43-1.152,3.468-1.965l0.497-0.391l2.042-2.004
			C60.518,53.733,60.569,51.196,59.043,49.669z"/>
	</g>
	<g>
		<path d="M35.617,29.013c1.574-0.002,14.134-1.765,14.604-1.835c0.15,0,0.923-0.018,1.317-0.414
			c0.247-0.247,0.532-0.793-0.337-1.662l-3.115-3.114L59.22,10.856c0.272-0.272,0.593-0.975-0.13-1.697l-5.224-5.223
			c-0.362-0.362-0.725-0.548-1.082-0.552c-0.273-0.003-0.533,0.104-0.735,0.305c-0.048,0.051-0.085,0.096-0.112,0.131L40.691,15.065
			l-3.397-3.396c-0.74-0.739-1.228-0.412-1.402-0.235c-0.385,0.385-0.393,1.186-0.385,1.367l-1.374,14.556
			c-0.006,0.074-0.048,0.742,0.394,1.218C34.709,28.775,35.047,29.013,35.617,29.013z"/>
	</g>
</g>
</svg>
