<?xml version="1.0" encoding="utf-8"?>
<!-- Generator: Adobe Illustrator 15.0.0, SVG Export Plug-In . SVG Version: 6.00 Build 0)  -->
<!DOCTYPE svg PUBLIC "-//W3C//DTD SVG 1.1//EN" "http://www.w3.org/Graphics/SVG/1.1/DTD/svg11.dtd">
<svg version="1.1" id="Layer_1" xmlns="http://www.w3.org/2000/svg" xmlns:xlink="http://www.w3.org/1999/xlink" x="0px" y="0px"
	 width="64px" height="64px" viewBox="0 0 64 64" enable-background="new 0 0 64 64" xml:space="preserve">
<g>
	<path d="M32,3.734C16.414,3.734,3.734,16.414,3.734,32S16.414,60.266,32,60.266S60.266,47.586,60.266,32S47.586,3.734,32,3.734z
		 M35.689,47.554c0,1.615-1.313,2.927-2.926,2.927c-1.612,0-2.922-1.312-2.922-2.927V26.07c0-1.61,1.31-2.922,2.922-2.922
		c1.613,0,2.926,1.312,2.926,2.922V47.554z M32.883,20.185c-1.837,0-3.333-1.495-3.333-3.333c0-1.838,1.495-3.333,3.333-3.333
		c1.838,0,3.333,1.495,3.333,3.333C36.216,18.69,34.721,20.185,32.883,20.185z"/>
</g>
</svg>
