<?xml version="1.0" encoding="utf-8"?>
<!-- Generator: Adobe Illustrator 15.0.0, SVG Export Plug-In . SVG Version: 6.00 Build 0)  -->
<!DOCTYPE svg PUBLIC "-//W3C//DTD SVG 1.1//EN" "http://www.w3.org/Graphics/SVG/1.1/DTD/svg11.dtd">
<svg version="1.1" id="Layer_1" xmlns="http://www.w3.org/2000/svg" xmlns:xlink="http://www.w3.org/1999/xlink" x="0px" y="0px"
	 width="64px" height="64px" viewBox="0 0 64 64" enable-background="new 0 0 64 64" xml:space="preserve">
<g>
	<g>
		<path fill="#231F20" d="M46.044,31.756v-0.03c1.169-0.431,1.878-1.369,1.878-2.444c0-0.874-0.341-1.537-0.922-1.965
			c-0.694-0.562-1.616-0.806-3.052-0.806c-1.009,0-1.998,0.097-2.628,0.229v10.943c0.479,0.067,1.24,0.135,2.23,0.135
			c1.814,0,3.07-0.334,3.847-1.042c0.559-0.544,0.94-1.274,0.94-2.23C48.338,32.899,47.101,32.022,46.044,31.756z M42.756,27.715
			c0.236-0.049,0.611-0.097,1.274-0.097c1.451,0,2.44,0.51,2.44,1.814c0,1.072-0.889,1.863-2.41,1.863h-1.305V27.715z
			 M43.963,36.693c-0.51,0-0.922-0.015-1.207-0.067v-4.24h1.192c1.566,0,2.868,0.626,2.868,2.144
			C46.816,36.15,45.447,36.693,43.963,36.693z"/>
	</g>
	<g>
		<path fill="#231F20" d="M7.692,11.598l-0.225,0.022c-2.373,0.469-4.18,2.306-4.611,4.683L2.833,52.421h52.481
			c3.052,0,5.583-2.377,5.83-5.376l0.022-35.465L7.692,11.598z M24.757,40.795c0,1.853-1.511,3.359-3.363,3.359h-8.053V23.516
			c0-1.856,1.511-3.363,3.363-3.363h8.053V40.795z M37.563,40.795c0,1.853-1.507,3.359-3.363,3.359h-8.052V23.516
			c0-1.856,1.511-3.363,3.363-3.363h8.053V40.795z M50.595,40.795c0,1.853-1.511,3.359-3.362,3.359H39.18V23.516
			c0-1.856,1.511-3.363,3.362-3.363h8.053V40.795z"/>
	</g>
	<g>
		<path fill="#231F20" d="M36.461,27.145l-0.345,1.173c-0.547-0.266-1.319-0.461-2.245-0.461c-2.606,0-4.342,1.665-4.342,4.585
			c0,2.726,1.567,4.477,4.274,4.477c0.877,0,1.766-0.184,2.343-0.465l0.3,1.14c-0.528,0.262-1.586,0.528-2.939,0.528
			c-3.134,0-5.496-1.983-5.496-5.627c0-3.482,2.362-5.844,5.811-5.844C35.205,26.65,36.083,26.946,36.461,27.145z"/>
	</g>
	<g>
		<path fill="#231F20" d="M19.479,26.594v7.326c0,2.178-0.757,2.759-2.047,2.759c-0.476,0-0.904-0.102-1.204-0.218l-0.214,1.174
			c0.364,0.146,1.005,0.263,1.534,0.263c1.916,0,3.366-0.907,3.366-3.861v-7.442H19.479z"/>
	</g>
</g>
</svg>
