<?xml version="1.0" encoding="utf-8"?>
<!-- Generator: Adobe Illustrator 15.0.0, SVG Export Plug-In . SVG Version: 6.00 Build 0)  -->
<!DOCTYPE svg PUBLIC "-//W3C//DTD SVG 1.1//EN" "http://www.w3.org/Graphics/SVG/1.1/DTD/svg11.dtd">
<svg version="1.1" id="Layer_1" xmlns="http://www.w3.org/2000/svg" xmlns:xlink="http://www.w3.org/1999/xlink" x="0px" y="0px"
	 width="64px" height="64px" viewBox="0 0 64 64" enable-background="new 0 0 64 64" xml:space="preserve">
<g>
	<g>
		<path d="M21.963,27.229c-1.765,0-3.2,1.433-3.2,3.194c0,1.763,1.435,3.195,3.2,3.195c1.762,0,3.193-1.432,3.193-3.195
			C25.157,28.662,23.725,27.229,21.963,27.229z"/>
	</g>
	<g>
		<path d="M42.405,17.914h-0.217L41.99,18.01c-3.495,1.729-6.338,2.529-9.155,2.593c-0.093-1.19-0.108-3.481,0.953-4.966
			c0.526-0.736,1.251-1.168,2.212-1.325c0.436-0.07,0.88-0.139,1.323-0.207c4.936-0.761,10.528-1.626,11.978-6.361l-1.794-0.548
			c-1.104,3.61-5.864,4.345-10.47,5.057c-0.45,0.068-0.896,0.139-1.335,0.209c-1.464,0.236-2.624,0.94-3.442,2.092
			c-1.335,1.875-1.406,4.487-1.312,5.983c-2.51-0.232-5.204-1.042-8.693-2.601l-0.181-0.083h-0.202
			c-9.87,0-17.017,17.438-17.017,29.193c0,2.81,0.412,5.075,1.224,6.733c0.967,1.979,2.499,3.025,4.421,3.025
			c4.383,0,7.068-2.563,9.663-5.044c2.986-2.85,6.071-5.798,12.117-5.798c4.977,0,8.807,3.03,12.506,5.958
			c3.083,2.443,5.996,4.748,9.21,4.748c1.771,0,3.167-0.888,4.047-2.569c0.73-1.396,1.102-3.333,1.102-5.758
			C59.145,38.059,51.565,17.914,42.405,17.914z M21.963,35.493c-2.799,0-5.076-2.276-5.076-5.071c0-2.795,2.276-5.068,5.076-5.068
			c2.793,0,5.069,2.273,5.069,5.068C27.033,33.217,24.756,35.493,21.963,35.493z M42.061,23.083
			c1.085-0.688,2.616-0.342,3.299,0.732c0.343,0.536,0.455,1.176,0.318,1.798c-0.139,0.624-0.512,1.156-1.051,1.499
			c-0.384,0.244-0.827,0.373-1.279,0.373c-0.821,0-1.575-0.412-2.018-1.104C40.625,25.27,40.953,23.791,42.061,23.083z
			 M37.252,30.656c-0.707-1.113-0.38-2.592,0.728-3.297c1.083-0.691,2.615-0.346,3.298,0.73c0.343,0.538,0.457,1.178,0.318,1.802
			c-0.138,0.622-0.51,1.154-1.048,1.496c-0.386,0.244-0.828,0.374-1.281,0.374C38.447,31.76,37.693,31.347,37.252,30.656z
			 M43.689,36.358c-0.383,0.243-0.827,0.374-1.281,0.374c-0.823,0-1.577-0.415-2.017-1.107c-0.343-0.536-0.456-1.175-0.318-1.799
			c0.138-0.622,0.51-1.154,1.048-1.498c1.082-0.689,2.612-0.345,3.3,0.731C45.127,34.173,44.798,35.651,43.689,36.358z
			 M48.818,30.584c-0.139,0.622-0.511,1.154-1.05,1.498c-0.383,0.244-0.827,0.375-1.281,0.375c-0.821,0-1.574-0.414-2.017-1.106
			c-0.344-0.538-0.456-1.176-0.318-1.8c0.139-0.622,0.511-1.155,1.051-1.499c1.082-0.687,2.608-0.344,3.297,0.732
			C48.844,29.322,48.956,29.962,48.818,30.584z"/>
	</g>
</g>
</svg>
