<?xml version="1.0" encoding="utf-8"?>
<!-- Generator: Adobe Illustrator 15.0.0, SVG Export Plug-In . SVG Version: 6.00 Build 0)  -->
<!DOCTYPE svg PUBLIC "-//W3C//DTD SVG 1.1//EN" "http://www.w3.org/Graphics/SVG/1.1/DTD/svg11.dtd">
<svg version="1.1" id="Layer_1" xmlns="http://www.w3.org/2000/svg" xmlns:xlink="http://www.w3.org/1999/xlink" x="0px" y="0px"
	 width="64px" height="64px" viewBox="0 0 64 64" enable-background="new 0 0 64 64" xml:space="preserve">
<g>
	<path fill="#020202" d="M58.854,25.946H33.34c-1.174-0.006-3.254-1.872-3.572-2.976l-0.028-0.086
		c-0.706-1.688,0.207-3.008,1.267-4.533c0.148-0.212,0.292-0.425,0.413-0.604c3.825-5.168,4.706-8.729-1.097-13.865l-1.045,1.18
		c4.596,4.065,4.775,6.479,0.851,11.779c-0.136,0.203-0.274,0.408-0.416,0.611c-1.094,1.575-2.449,3.532-1.442,5.999
		c0.244,0.795,0.937,1.723,1.803,2.495H5.143c-1.251,0-2.268,1.017-2.268,2.268v29.635c0,1.251,1.017,2.27,2.268,2.27h53.712
		c1.255,0,2.271-1.019,2.271-2.27V28.214C61.126,26.963,60.109,25.946,58.854,25.946z M33.3,32.251h4.99v4.989H33.3V32.251z
		 M33.25,40.535h4.99v4.991h-4.99V40.535z M25.846,32.251h4.991v4.989h-4.991V32.251z M25.797,40.535h4.991v4.991h-4.991V40.535z
		 M18.176,32.251h4.989v4.989h-4.989V32.251z M10.822,32.251h4.99v4.989h-4.99V32.251z M15.812,54.294h-4.99v-4.991h4.99V54.294z
		 M10.773,45.526v-4.991h7.354h0.444h4.548v4.991H18.57h-0.444H10.773z M38.327,54.294H18.259v-4.991h20.068V54.294z M40.604,40.535
		h4.992v4.991h-4.992V40.535z M45.646,54.294h-4.99v-4.991h4.99V54.294z M45.646,37.24h-4.99v-4.989h4.99V37.24z M48.041,40.535
		h4.989v4.991h-4.989V40.535z M53.082,54.294H48.09v-4.991h4.992V54.294z M53.082,37.24H48.09v-4.989h4.992V37.24z"/>
</g>
</svg>
