<?xml version="1.0" encoding="utf-8"?>
<!-- Generator: Adobe Illustrator 15.0.0, SVG Export Plug-In . SVG Version: 6.00 Build 0)  -->
<!DOCTYPE svg PUBLIC "-//W3C//DTD SVG 1.1//EN" "http://www.w3.org/Graphics/SVG/1.1/DTD/svg11.dtd">
<svg version="1.1" id="Layer_1" xmlns="http://www.w3.org/2000/svg" xmlns:xlink="http://www.w3.org/1999/xlink" x="0px" y="0px"
	 width="64px" height="64px" viewBox="0 0 64 64" enable-background="new 0 0 64 64" xml:space="preserve">
<g>
	<path fill="#020202" d="M60.059,56.407V55.41H59.92l-2.538-18.065V3.632H6.615v33.713L4.08,55.41H4.014v0.469l-0.11,0.797h0.11
		v3.692h56.044v-3.692h0.037L60.059,56.407z M30.717,5.75c0.443,0,0.805,0.358,0.805,0.803c0,0.445-0.362,0.807-0.805,0.807
		c-0.446,0-0.805-0.361-0.805-0.807C29.912,6.108,30.271,5.75,30.717,5.75z M8.102,9.591h47.792v22.303H8.102V9.591z M49.91,44.125
		l0.503,4.502h-5.353l-0.402-4.502H49.91z M44.526,42.639l-0.399-4.5h5.116l0.503,4.5H44.526z M43.167,44.125l0.399,4.502h-6.142
		l-0.151-4.502H43.167z M37.221,42.639l-0.148-4.5h5.563l0.396,4.5H37.221z M35.786,44.125l0.151,4.502h-6.793l0.154-4.502H35.786z
		 M29.346,42.639l0.151-4.5h6.088l0.151,4.5H29.346z M21.701,42.639l0.402-4.5h5.909l-0.154,4.5H21.701z M27.811,44.125
		l-0.154,4.502h-6.488l0.403-4.502H27.811z M14.678,42.639l0.5-4.5h5.431l-0.399,4.5H14.678z M20.078,44.125l-0.399,4.502h-5.667
		l0.5-4.502H20.078z M8.008,38.139h5.677l-1.337,11.976h39.729L50.74,38.139h5.252l2.394,17.052H37.435v-3.719H24.213v3.719H5.615
		L8.008,38.139z M35.947,52.957v2.233h-10.25v-2.233H35.947z"/>
</g>
</svg>
