<?xml version="1.0" encoding="utf-8"?>
<!-- Generator: Adobe Illustrator 15.0.0, SVG Export Plug-In . SVG Version: 6.00 Build 0)  -->
<!DOCTYPE svg PUBLIC "-//W3C//DTD SVG 1.1//EN" "http://www.w3.org/Graphics/SVG/1.1/DTD/svg11.dtd">
<svg version="1.1" id="Layer_1" xmlns="http://www.w3.org/2000/svg" xmlns:xlink="http://www.w3.org/1999/xlink" x="0px" y="0px"
	 width="64px" height="64px" viewBox="0 0 64 64" enable-background="new 0 0 64 64" xml:space="preserve">
<g>
	<g>
		<g>
			<path fill="#020202" d="M35.1,19.306c-0.013-1.35,0.614-2.406,1.221-3.428c0.804-1.355,1.636-2.758,1.058-4.687
				c-0.589-1.769-1.705-2.638-2.692-3.404c-1.327-1.033-2.286-1.779-1.786-4.607l0.043-0.242l-1.434-0.252l-0.043,0.241
				c-0.652,3.693,0.931,4.922,2.329,6.007c0.901,0.703,1.754,1.365,2.197,2.696c0.389,1.295-0.189,2.27-0.923,3.504
				c-0.681,1.147-1.446,2.44-1.432,4.17c-7.249,0.009-14.656,0.308-14.656,26.074c0,11.609,9.33,15.937,15.211,15.937
				c5.882,0,15.212-4.327,15.212-15.937C49.405,19.646,41.856,19.328,35.1,19.306z M34.922,40.918v-3.143
				c0.896-0.173,1.568-0.965,1.568-1.892v-9.495c0-0.929-0.673-1.719-1.568-1.892v-3.738c5.983,0.013,11.586,0.25,12.788,17.127
				C43.617,39.799,39.316,40.817,34.922,40.918z M35.036,35.884c0,0.264-0.216,0.479-0.479,0.479h-0.724
				c-0.267,0-0.479-0.216-0.479-0.479v-9.495c0-0.264,0.213-0.479,0.479-0.479h0.724c0.264,0,0.479,0.215,0.479,0.479V35.884z
				 M32.945,21.571v2.927c-0.827,0.167-1.446,0.9-1.446,1.759v9.713c0,0.857,0.619,1.59,1.446,1.757v2.379
				c-6.118-0.148-10.594-2.186-11.746-2.763C22.306,21.817,27.447,21.584,32.945,21.571z"/>
		</g>
	</g>
	<g>
		<g>
			<path fill="#020202" d="M27.051,18.387l0.239-0.053l-0.317-1.419l-0.238,0.055c-8.655,1.942-9.432,10.165-9.439,10.248
				l-0.02,0.245l1.451,0.11l0.021-0.241C18.751,27.259,19.444,20.095,27.051,18.387z"/>
		</g>
	</g>
	<g>
		<g>
			<path fill="#020202" d="M24.372,15.706l0.238-0.053l-0.32-1.419l-0.238,0.053c-8.655,1.943-9.432,10.165-9.437,10.249
				l-0.021,0.244l1.449,0.113l0.021-0.242C16.072,24.578,16.757,17.415,24.372,15.706z"/>
		</g>
	</g>
</g>
</svg>
