<?xml version="1.0" encoding="utf-8"?>
<!-- Generator: Adobe Illustrator 15.0.0, SVG Export Plug-In . SVG Version: 6.00 Build 0)  -->
<!DOCTYPE svg PUBLIC "-//W3C//DTD SVG 1.1//EN" "http://www.w3.org/Graphics/SVG/1.1/DTD/svg11.dtd">
<svg version="1.1" id="Layer_1" xmlns="http://www.w3.org/2000/svg" xmlns:xlink="http://www.w3.org/1999/xlink" x="0px" y="0px"
	 width="64px" height="64px" viewBox="0 0 64 64" enable-background="new 0 0 64 64" xml:space="preserve">
<g>
	<g>
		<path d="M54.229,4.229H9.773c-3.058,0-5.545,2.486-5.545,5.544v44.456c0,3.055,2.487,5.542,5.545,5.542h44.457
			c3.056,0,5.543-2.487,5.543-5.542V9.773C59.772,6.715,57.285,4.229,54.229,4.229z M32.001,52.132
			C20.901,52.132,11.87,43.098,11.87,32c0-11.099,9.031-20.131,20.131-20.131c11.1,0,20.131,9.032,20.131,20.131
			C52.133,43.098,43.102,52.132,32.001,52.132z"/>
	</g>
	<g>
		<path d="M32.001,17.017c-8.262,0-14.984,6.723-14.984,14.983c0,8.259,6.723,14.984,14.984,14.984
			c8.262,0,14.981-6.726,14.981-14.984C46.982,23.74,40.264,17.017,32.001,17.017z M31.896,38.938c-3.861,0-7.003-3.141-7.003-7.001
			c0-3.861,3.142-7.003,7.003-7.003s7,3.142,7,7.003C38.896,35.798,35.757,38.938,31.896,38.938z"/>
	</g>
</g>
</svg>
