<?xml version="1.0" encoding="utf-8"?>
<!-- Generator: Adobe Illustrator 15.0.0, SVG Export Plug-In . SVG Version: 6.00 Build 0)  -->
<!DOCTYPE svg PUBLIC "-//W3C//DTD SVG 1.1//EN" "http://www.w3.org/Graphics/SVG/1.1/DTD/svg11.dtd">
<svg version="1.1" id="Layer_1" xmlns="http://www.w3.org/2000/svg" xmlns:xlink="http://www.w3.org/1999/xlink" x="0px" y="0px"
	 width="64px" height="64px" viewBox="0 0 64 64" enable-background="new 0 0 64 64" xml:space="preserve">
<g>
	<path d="M32.001,3.672c-12.67,0-22.591,4.432-22.591,10.093v29.884h0.017c0.094,2.542,2.186,4.83,5.635,6.565v2.591h0.019
		c0.198,4.231,7.55,7.521,16.919,7.521c9.367,0,16.719-3.29,16.917-7.521h0.021v-2.591c3.453-1.735,5.54-4.023,5.634-6.565h0.018
		V13.766C54.59,8.104,44.668,3.672,32.001,3.672z M32.001,5.496c12.424,0,20.767,4.276,20.767,8.27c0,2.622-3.617,5.357-9.608,6.932
		c1.475-1.022,2.326-2.283,2.326-3.676c0-3.606-5.657-6.325-13.159-6.325c-7.502,0-13.162,2.719-13.162,6.325
		c0,1.518,1.016,2.876,2.735,3.943c-6.63-1.52-10.664-4.425-10.664-7.2C11.236,9.772,19.578,5.496,32.001,5.496z M11.236,29.798
		c3.425,3.593,11.333,6.048,20.765,6.048c9.434,0,17.341-2.455,20.767-6.048v3.986c0,3.992-8.343,8.27-20.767,8.27
		c-12.423,0-20.765-4.277-20.765-8.27V29.798z M32.001,58.502c-8.907,0-15.114-3.096-15.114-5.87v-1.604
		c3.976,1.586,9.25,2.535,15.114,2.535c5.862,0,11.138-0.949,15.112-2.535v1.604C47.113,55.406,40.909,58.502,32.001,58.502z"/>
</g>
</svg>
