<?xml version="1.0" encoding="utf-8"?>
<!-- Generator: Adobe Illustrator 15.0.0, SVG Export Plug-In . SVG Version: 6.00 Build 0)  -->
<!DOCTYPE svg PUBLIC "-//W3C//DTD SVG 1.1//EN" "http://www.w3.org/Graphics/SVG/1.1/DTD/svg11.dtd">
<svg version="1.1" id="Layer_1" xmlns="http://www.w3.org/2000/svg" xmlns:xlink="http://www.w3.org/1999/xlink" x="0px" y="0px"
	 width="64px" height="64px" viewBox="0 0 64 64" enable-background="new 0 0 64 64" xml:space="preserve">
<g>
	<path d="M32,3.452c-8.73,0-15.569,3.056-15.569,6.957v38.52h0.006c0.032,1.779,1.485,3.379,3.89,4.586v1.787h0.006
		c0.07,2.946,5.168,5.247,11.667,5.247c6.502,0,11.597-2.301,11.668-5.247h0.007v-1.785c2.404-1.209,3.856-2.809,3.89-4.588h0.005
		v-38.52C47.569,6.508,40.73,3.452,32,3.452z M32,59.289c-6.138,0-10.415-2.132-10.415-4.047v-1.164
		c2.74,1.091,6.375,1.746,10.415,1.746c4.042,0,7.676-0.655,10.416-1.746v1.164C42.415,57.157,38.138,59.289,32,59.289z
		 M46.313,24.208c0,2.752-5.751,5.697-14.313,5.697c-8.56,0-14.31-2.945-14.31-5.697v-2.748c2.36,2.476,7.81,4.17,14.31,4.17
		c6.502,0,11.954-1.694,14.313-4.17V24.208z M39.692,15.186c1.015-0.705,1.604-1.572,1.604-2.533c0-2.484-3.899-4.359-9.072-4.359
		c-5.172,0-9.071,1.875-9.071,4.359c0,1.047,0.698,1.982,1.885,2.717c-4.568-1.045-7.349-3.048-7.349-4.961
		c0-2.752,5.75-5.698,14.31-5.698c8.562,0,14.313,2.946,14.313,5.698C46.313,12.216,43.819,14.102,39.692,15.186z"/>
</g>
</svg>
