<?xml version="1.0" encoding="utf-8"?>
<!-- Generator: Adobe Illustrator 15.0.0, SVG Export Plug-In . SVG Version: 6.00 Build 0)  -->
<!DOCTYPE svg PUBLIC "-//W3C//DTD SVG 1.1//EN" "http://www.w3.org/Graphics/SVG/1.1/DTD/svg11.dtd">
<svg version="1.1" id="Layer_1" xmlns="http://www.w3.org/2000/svg" xmlns:xlink="http://www.w3.org/1999/xlink" x="0px" y="0px"
	 width="64px" height="64px" viewBox="0 0 64 64" enable-background="new 0 0 64 64" xml:space="preserve">
<g>
	<path d="M47.152,25.186h-2.903l1.729-6.608c1.528-5.839-1.978-11.833-7.818-13.362l-5.909-1.547
		c-5.841-1.529-11.837,1.978-13.366,7.817l2.517,0.659c1.164-4.452,5.736-7.126,10.187-5.96l5.912,1.546
		c4.45,1.166,7.126,5.737,5.962,10.19l-1.902,7.266H16.848c-2.149,0-3.901,1.75-3.901,3.901v27.705c0,2.149,1.751,3.898,3.901,3.898
		h30.305c2.149,0,3.9-1.749,3.9-3.898V29.086C51.053,26.935,49.302,25.186,47.152,25.186z M34.644,46.269v5.471
		c0,1.46-1.188,2.646-2.645,2.646c-1.458,0-2.642-1.186-2.642-2.646v-5.473c-1.404-0.899-2.261-2.439-2.261-4.106
		c0-2.703,2.2-4.903,4.903-4.903c2.706,0,4.906,2.2,4.906,4.903C36.904,43.827,36.048,45.367,34.644,46.269z"/>
</g>
</svg>
