<?xml version="1.0" encoding="utf-8"?>
<!-- Generator: Adobe Illustrator 15.0.0, SVG Export Plug-In . SVG Version: 6.00 Build 0)  -->
<!DOCTYPE svg PUBLIC "-//W3C//DTD SVG 1.1//EN" "http://www.w3.org/Graphics/SVG/1.1/DTD/svg11.dtd">
<svg version="1.1" id="Layer_1" xmlns="http://www.w3.org/2000/svg" xmlns:xlink="http://www.w3.org/1999/xlink" x="0px" y="0px"
	 width="64px" height="64px" viewBox="0 0 64 64" enable-background="new 0 0 64 64" xml:space="preserve">
<g>
	<path d="M59.769,4.053c-0.426-0.374-0.999-0.544-1.567-0.457l-8.74,1.325c-0.41,0.063-0.783,0.252-1.074,0.544l-22.629,22.63
		c-5.858-2.058-12.638-0.768-17.313,3.908c-6.495,6.493-6.495,17.061,0,23.553c6.493,6.493,17.06,6.493,23.552,0
		c4.264-4.264,5.709-10.28,4.371-15.751l9.313-9.315c0.486-0.484,0.678-1.197,0.504-1.858l-0.923-3.527l3.59,0.89
		c0.655,0.162,1.359-0.035,1.834-0.51l2.115-2.115c0.468-0.468,0.664-1.136,0.521-1.787l-0.386-1.733l2.446,0.135
		c0.519,0,1.004-0.2,1.369-0.565l2.895-2.895c0.355-0.354,0.557-0.825,0.567-1.328l0.211-9.644
		C60.44,4.981,60.202,4.435,59.769,4.053z M29.31,52.05c-4.786,4.785-12.572,4.785-17.358,0c-4.786-4.786-4.786-12.572,0-17.358
		l0.41-0.411L29.72,51.64L29.31,52.05z M56.363,14.337l-1.733,1.736l-4.135-0.231c-0.582,0-1.122,0.252-1.475,0.682
		c-0.39,0.458-0.543,1.082-0.413,1.672l0.71,3.189l-0.593,0.593l-5.69-1.411c-0.654-0.165-1.357,0.03-1.843,0.519
		c-0.477,0.483-0.666,1.191-0.494,1.848l1.466,5.604l-7.309,7.31c-0.747-1.381-1.693-2.681-2.859-3.845
		c-0.801-0.801-1.665-1.501-2.574-2.104L50.673,8.65l5.835-0.885L56.363,14.337z"/>
</g>
</svg>
