<?xml version="1.0" encoding="utf-8"?>
<!-- Generator: Adobe Illustrator 15.0.0, SVG Export Plug-In . SVG Version: 6.00 Build 0)  -->
<!DOCTYPE svg PUBLIC "-//W3C//DTD SVG 1.1//EN" "http://www.w3.org/Graphics/SVG/1.1/DTD/svg11.dtd">
<svg version="1.1" id="Layer_1" xmlns="http://www.w3.org/2000/svg" xmlns:xlink="http://www.w3.org/1999/xlink" x="0px" y="0px"
	 width="64px" height="64px" viewBox="0 0 64 64" enable-background="new 0 0 64 64" xml:space="preserve">
<g>
	<g>
		<path fill="#231F20" d="M4.366,19.454v24.958h8.052l18.218,13.762V5.827L12.597,19.454H4.366z M5.853,42.925V20.94h6.25v21.985
			H5.853z"/>
	</g>
	<g>
		<g>
			<path d="M36.857,27.608l-0.629-1.088l-1.097,0.602c-0.305,0.165-0.601,0.302-0.869,0.402L32.8,28.045l0.792,1.347
				c0.771,1.29,1.179,2.763,1.179,4.261c0,1.43-0.37,2.846-1.075,4.095l-0.458,0.819l0.807,0.862
				c0.097,0.116,0.189,0.232,0.283,0.352l1.426,1.729l0.943-1.523c1.179-1.914,1.801-4.104,1.801-6.333
				C38.498,31.534,37.93,29.442,36.857,27.608z"/>
		</g>
		<g>
			<path d="M41.638,22.777l-1.031-1.452l-1.056,1.439c-0.234,0.323-0.474,0.639-0.711,0.938l-0.579,0.732l0.528,0.795
				c1.728,2.51,2.64,5.422,2.64,8.421c0,3.445-1.146,6.697-3.315,9.403l-0.622,0.775l0.838,1.112
				c0.123,0.146,0.259,0.283,0.396,0.42c0.075,0.073,0.147,0.147,0.221,0.225l1.002,1.077l0.932-1.135
				c2.8-3.41,4.278-7.518,4.278-11.876C45.158,29.751,43.941,25.989,41.638,22.777z"/>
		</g>
		<g>
			<path d="M45.793,16.38l-1.075-1.219l-0.929,1.32c-0.235,0.326-0.468,0.665-0.712,1.024l-0.544,0.825l0.648,0.728
				c3.538,4.059,5.486,9.241,5.486,14.594c0,5.271-1.914,10.405-5.393,14.457l-0.82,0.964l0.937,0.829
				c0.199,0.178,0.397,0.345,0.603,0.517l1.288,1.096l0.83-0.978c4.049-4.722,6.28-10.718,6.28-16.883
				C52.393,27.287,50.048,21.151,45.793,16.38z"/>
		</g>
		<g>
			<path d="M50.767,11.079l-0.843-0.93l-0.953,0.826c-0.203,0.178-0.402,0.359-0.591,0.537l-1.249,1.143l0.884,0.947
				c5.09,5.482,7.89,12.603,7.89,20.052c0,6.981-2.498,13.764-7.04,19.103l-0.835,1l1.012,0.829
				c0.261,0.211,0.518,0.431,0.779,0.656l1.055,0.907l0.838-0.987c5.108-6.005,7.921-13.643,7.921-21.51
				C59.634,25.257,56.482,17.238,50.767,11.079z"/>
		</g>
	</g>
</g>
</svg>
