<?xml version="1.0" encoding="utf-8"?>
<!-- Generator: Adobe Illustrator 15.0.0, SVG Export Plug-In . SVG Version: 6.00 Build 0)  -->
<!DOCTYPE svg PUBLIC "-//W3C//DTD SVG 1.1//EN" "http://www.w3.org/Graphics/SVG/1.1/DTD/svg11.dtd">
<svg version="1.1" id="Layer_1" xmlns="http://www.w3.org/2000/svg" xmlns:xlink="http://www.w3.org/1999/xlink" x="0px" y="0px"
	 width="64px" height="64px" viewBox="0 0 64 64" enable-background="new 0 0 64 64" xml:space="preserve">
<g>
	<g>
		<path d="M47.915,9.091c-2.873-3.269-7.516-5.144-12.734-5.144c-2.558,0-5.135,0.437-7.664,1.298
			c-8.266,2.815-13.715,9.41-14.221,17.21l-0.095,1.456l5.35,0.346l0.093-1.456c0.432-6.689,5.758-10.835,10.598-12.483
			c1.99-0.678,4.001-1.021,5.974-1.021c3.65,0,6.812,1.214,8.676,3.332c3.29,3.743,2.868,10.39-1.184,18.726
			c-2.126,2.995-3.538,6.316-4.906,9.529c-3.204,7.532-5.745,13.506-16.038,13.792c-0.85-0.676-1.116-1.511-1.472-2.622
			c-0.553-1.729-1.583-4.946-6.292-4.946c-0.001,0-0.001,0-0.001,0h-1.477l0.044,3.914l0.153,1.476l1.475-0.033
			c0.389-0.001,0.548,0.04,0.548,0.033c0.112,0.145,0.294,0.714,0.435,1.156c1.679,5.775,4.523,6.399,5.668,6.399l0.222-0.008
			l0.554,0.005c0,0,0,0,0.001,0c13.886,0,17.527-8.605,20.74-16.197l0.372-0.88c1.279-3.006,2.603-6.115,4.525-8.778l0.161-0.28
			C54.035,20.458,51.34,12.989,47.915,9.091z"/>
	</g>
	<g>
		<path d="M27.889,34.983c-2.388-1.704-4.959-0.861-6.411,2.042c-1.039,2.077-1.507,5.187-0.406,6.653
			c1.634,1.906,3.315,2.305,4.438,2.305c1.751,0,3.534-0.953,5.019-2.685c2.119-2.471,3.257-5.979,2.822-8.801
			c-0.516-2.415-1.428-4.129-2.232-5.643c-1.162-2.183-2.005-3.767-1.396-6.719c0.573-1.433,1.76-1.993,4.191-1.993
			c0.433,0,0.855,0.017,1.254,0.032c0.385,0.014,0.747,0.027,1.077,0.027c0.668,0,2.697,0,2.918-1.776
			c0.046-0.362-0.015-0.92-0.55-1.527c-1.083-1.224-4.148-2.535-6.988-2.535c-2.234,0-3.987,0.789-5.066,2.283
			c-1.567,2.166-1.574,5.648-0.025,10.353c1.289,3.91,1.843,7.067,1.707,8.209C28.146,35.157,28.028,35.084,27.889,34.983z"/>
	</g>
</g>
</svg>
