<?xml version="1.0" encoding="utf-8"?>
<!-- Generator: Adobe Illustrator 15.0.0, SVG Export Plug-In . SVG Version: 6.00 Build 0)  -->
<!DOCTYPE svg PUBLIC "-//W3C//DTD SVG 1.1//EN" "http://www.w3.org/Graphics/SVG/1.1/DTD/svg11.dtd">
<svg version="1.1" id="Layer_1" xmlns="http://www.w3.org/2000/svg" xmlns:xlink="http://www.w3.org/1999/xlink" x="0px" y="0px"
	 width="64px" height="64px" viewBox="0 0 64 64" enable-background="new 0 0 64 64" xml:space="preserve">
<g>
	<g>
		<path d="M58.608,53.354L38.374,33.12c2.003-3.013,3.079-6.544,3.079-10.242c0-4.959-1.933-9.624-5.442-13.132
			c-3.506-3.507-8.168-5.439-13.13-5.439c-4.961,0-9.626,1.932-13.135,5.439c-3.507,3.509-5.438,8.173-5.438,13.132
			c0,4.96,1.931,9.624,5.439,13.133c3.509,3.507,8.172,5.439,13.132,5.439c3.7,0,7.231-1.076,10.243-3.076L53.35,58.603
			c0.701,0.703,1.635,1.091,2.629,1.091c0.992,0,1.925-0.385,2.631-1.088C60.054,57.156,60.054,54.801,58.608,53.354z
			 M31.412,31.411c-2.279,2.278-5.308,3.534-8.533,3.534c-3.222,0-6.252-1.256-8.532-3.534c-2.28-2.28-3.535-5.31-3.535-8.533
			c0-3.224,1.255-6.253,3.534-8.532c2.28-2.28,5.311-3.535,8.534-3.535c3.224,0,6.253,1.255,8.533,3.535
			c2.278,2.278,3.532,5.307,3.532,8.532C34.945,26.101,33.691,29.131,31.412,31.411z"/>
	</g>
	<g>
		<path d="M29.831,22.054h-5.599v-5.6c0-0.485-0.394-0.877-0.88-0.877c-0.483,0-0.878,0.393-0.878,0.877v5.6h-5.6
			c-0.485,0-0.877,0.393-0.877,0.878s0.392,0.879,0.877,0.879h5.6v5.599c0,0.485,0.395,0.879,0.878,0.879
			c0.486,0,0.88-0.394,0.88-0.879v-5.599h5.599c0.486,0,0.88-0.394,0.88-0.879S30.317,22.054,29.831,22.054z"/>
	</g>
</g>
</svg>
