<?xml version="1.0" encoding="utf-8"?>
<!-- Generator: Adobe Illustrator 15.0.0, SVG Export Plug-In . SVG Version: 6.00 Build 0)  -->
<!DOCTYPE svg PUBLIC "-//W3C//DTD SVG 1.1//EN" "http://www.w3.org/Graphics/SVG/1.1/DTD/svg11.dtd">
<svg version="1.1" id="Layer_1" xmlns="http://www.w3.org/2000/svg" xmlns:xlink="http://www.w3.org/1999/xlink" x="0px" y="0px"
	 width="64px" height="64px" viewBox="0 0 64 64" enable-background="new 0 0 64 64" xml:space="preserve">
<g>
	<path d="M55.182,6.801l-0.027-0.247H8.844L5.062,41.436l-0.03,0.306h0.098v15.704h53.739V41.741h0.101L55.182,6.801z M18.5,17.377
		l4.078-3.452l8.787,7.443l8.787-7.442l4.084,3.452l-8.792,7.442l8.789,7.444l-4.081,3.451l-8.787-7.443l-8.787,7.444l-4.081-3.457
		l8.792-7.44L18.5,17.377z M57.105,55.684H6.891V41.741h12.984C20.329,48.073,25.627,53.015,32,53.015
		c6.371,0,11.669-4.941,12.122-11.273h12.983V55.684z"/>
</g>
</svg>
