<?xml version="1.0" encoding="utf-8"?>
<!-- Generator: Adobe Illustrator 15.0.0, SVG Export Plug-In . SVG Version: 6.00 Build 0)  -->
<!DOCTYPE svg PUBLIC "-//W3C//DTD SVG 1.1//EN" "http://www.w3.org/Graphics/SVG/1.1/DTD/svg11.dtd">
<svg version="1.1" id="Layer_1" xmlns="http://www.w3.org/2000/svg" xmlns:xlink="http://www.w3.org/1999/xlink" x="0px" y="0px"
	 width="64px" height="64px" viewBox="0 0 64 64" enable-background="new 0 0 64 64" xml:space="preserve">
<g>
	<path d="M60,20.938V2.907H41.97v7.163l5.805,0l-8.013,8.011c-3.708-2.335-8.064-3.604-12.477-3.604
		c-6.227,0-12.073,2.419-16.465,6.811c-9.094,9.094-9.093,23.89,0,32.984c4.398,4.398,10.257,6.819,16.493,6.82
		c6.235,0,12.094-2.422,16.493-6.82c4.398-4.399,6.822-10.258,6.822-16.493c0-5.545-1.916-10.791-5.445-14.988l7.656-7.656v5.803H60
		z M27.313,53.932c-4.323,0-8.38-1.678-11.428-4.725c-6.299-6.301-6.299-16.553,0-22.854c3.047-3.046,7.105-4.726,11.428-4.725
		c4.323,0,8.382,1.679,11.428,4.725c6.3,6.301,6.3,16.553,0,22.854C35.692,52.254,31.635,53.932,27.313,53.932z"/>
</g>
</svg>
