<?xml version="1.0" encoding="utf-8"?>
<!-- Generator: Adobe Illustrator 15.0.0, SVG Export Plug-In . SVG Version: 6.00 Build 0)  -->
<!DOCTYPE svg PUBLIC "-//W3C//DTD SVG 1.1//EN" "http://www.w3.org/Graphics/SVG/1.1/DTD/svg11.dtd">
<svg version="1.1" id="Layer_1" xmlns="http://www.w3.org/2000/svg" xmlns:xlink="http://www.w3.org/1999/xlink" x="0px" y="0px"
	 width="64px" height="64px" viewBox="0 0 64 64" enable-background="new 0 0 64 64" xml:space="preserve">
<g>
	<g>
		<path d="M2.833,14.144v35.713h58.334V14.144H2.833z M37.407,40.377c-2.084,0-3.993-0.749-5.482-1.989
			c-1.47,1.208-3.35,1.932-5.4,1.932c-4.708,0-8.52-3.813-8.52-8.52c0-4.705,3.812-8.52,8.52-8.52c2.043,0,3.924,0.723,5.39,1.925
			c1.489-1.246,3.404-1.995,5.492-1.995c4.733,0,8.587,3.851,8.587,8.584S42.141,40.377,37.407,40.377z"/>
	</g>
	<g>
		<path d="M37.407,25.051c-1.587,0-3.044,0.555-4.197,1.476c1.144,1.45,1.836,3.28,1.836,5.272c0,1.989-0.688,3.815-1.83,5.262
			c1.154,0.918,2.607,1.473,4.191,1.473c3.72,0,6.745-3.024,6.745-6.741C44.152,28.073,41.127,25.051,37.407,25.051z"/>
	</g>
</g>
</svg>
