<?xml version="1.0" encoding="utf-8"?>
<!-- Generator: Adobe Illustrator 15.0.0, SVG Export Plug-In . SVG Version: 6.00 Build 0)  -->
<!DOCTYPE svg PUBLIC "-//W3C//DTD SVG 1.1//EN" "http://www.w3.org/Graphics/SVG/1.1/DTD/svg11.dtd">
<svg version="1.1" id="Layer_1" xmlns="http://www.w3.org/2000/svg" xmlns:xlink="http://www.w3.org/1999/xlink" x="0px" y="0px"
	 width="64px" height="64px" viewBox="0 0 64 64" enable-background="new 0 0 64 64" xml:space="preserve">
<g>
	<path d="M57.022,6.697V6.615H46.589v0.039h-0.381H5.402c2.11,3.691,7.075,13.476,6.309,22.476l0.074,20.782
		c-0.175,4.155,3.263,7.474,7.345,7.474h21.744c3.614,0,6.626-2.602,7.271-6.028h-9.292c-0.538,0-0.976-0.437-0.976-0.975
		c0-0.542,0.438-0.976,0.976-0.976h9.424v-3.371h-9.424c-0.538,0-0.976-0.437-0.976-0.975c0-0.539,0.438-0.973,0.976-0.973h9.424
		v-3.521h-9.424c-0.538,0-0.976-0.434-0.976-0.972c0-0.539,0.438-0.976,0.976-0.976h9.424v-2.633H34.418
		c-0.538,0-0.973-0.434-0.973-0.976c0-0.538,0.435-0.972,0.973-0.972h13.859v-3.818h-8.981c-0.538,0-0.975-0.434-0.975-0.972
		c0-0.538,0.437-0.975,0.975-0.975h8.981v-3.372h-8.981c-0.538,0-0.975-0.437-0.975-0.975c0-0.538,0.437-0.972,0.975-0.972h8.981
		v-3.522h-8.981c-0.538,0-0.975-0.434-0.975-0.972c0-0.538,0.437-0.975,0.975-0.975h8.981V13.23H34.418
		c-0.538,0-0.973-0.437-0.973-0.975s0.435-0.975,0.973-0.975h12.171v0.06h7.284v22.13h4.725V6.697H57.022z"/>
</g>
</svg>
