<?xml version="1.0" encoding="utf-8"?>
<!-- Generator: Adobe Illustrator 15.0.0, SVG Export Plug-In . SVG Version: 6.00 Build 0)  -->
<!DOCTYPE svg PUBLIC "-//W3C//DTD SVG 1.1//EN" "http://www.w3.org/Graphics/SVG/1.1/DTD/svg11.dtd">
<svg version="1.1" id="Layer_1" xmlns="http://www.w3.org/2000/svg" xmlns:xlink="http://www.w3.org/1999/xlink" x="0px" y="0px"
	 width="64px" height="64px" viewBox="0 0 64 64" enable-background="new 0 0 64 64" xml:space="preserve">
<g>
	<path d="M8.431,18.16v27.53h8.882l20.096,15.182V3.128L17.511,18.16H8.431z M16.966,44.052h-6.895V19.799h6.895V44.052z"/>
	<path d="M46.409,25.899l-0.697-1.202l-1.207,0.666c-0.333,0.181-0.659,0.332-0.958,0.443l-1.61,0.575l0.873,1.486
		c0.852,1.425,1.301,3.05,1.301,4.7c0,1.574-0.409,3.136-1.183,4.513l-0.511,0.905l1.247,1.396c0.091,0.115,0.182,0.229,0.27,0.334
		l1.261,1.519l1.038-1.681c1.301-2.108,1.989-4.523,1.989-6.986C48.222,30.227,47.594,27.92,46.409,25.899z"/>
	<path d="M51.685,20.568l-1.141-1.597l-1.164,1.587c-0.256,0.356-0.521,0.704-0.782,1.033l-0.641,0.808l0.582,0.877
		c1.909,2.771,2.916,5.983,2.916,9.29c0,3.802-1.266,7.387-3.661,10.375l-0.678,0.852l0.924,1.236
		c0.136,0.16,0.283,0.307,0.433,0.455c0.08,0.08,0.16,0.159,0.24,0.25l1.107,1.189l1.025-1.257
		c3.089-3.761,4.723-8.292,4.723-13.099C55.568,28.265,54.226,24.115,51.685,20.568z"/>
</g>
</svg>
