<?xml version="1.0" encoding="utf-8"?>
<!-- Generator: Adobe Illustrator 15.0.0, SVG Export Plug-In . SVG Version: 6.00 Build 0)  -->
<!DOCTYPE svg PUBLIC "-//W3C//DTD SVG 1.1//EN" "http://www.w3.org/Graphics/SVG/1.1/DTD/svg11.dtd">
<svg version="1.1" id="Layer_1" xmlns="http://www.w3.org/2000/svg" xmlns:xlink="http://www.w3.org/1999/xlink" x="0px" y="0px"
	 width="64px" height="64px" viewBox="0 0 64 64" enable-background="new 0 0 64 64" xml:space="preserve">
<g>
	<g>
		<path d="M3.251,3.25v57.5h57.497V3.25H3.251z M5.133,58.866V5.132h53.735v53.734H5.133z"/>
	</g>
	<g>
		<path d="M14.662,25.992c-3.314,0-6.01,2.693-6.01,6.008c0,3.313,2.696,6.008,6.01,6.008c3.314,0,6.01-2.694,6.01-6.008
			C20.672,28.685,17.977,25.992,14.662,25.992z"/>
	</g>
	<g>
		<path d="M32.977,25.992c-3.312,0-6.008,2.693-6.008,6.008c0,3.313,2.696,6.008,6.008,6.008c3.315,0,6.011-2.694,6.011-6.008
			C38.988,28.685,36.292,25.992,32.977,25.992z"/>
	</g>
	<g>
		<path d="M51.309,25.992c-3.313,0-6.01,2.693-6.01,6.008c0,3.313,2.697,6.008,6.01,6.008c3.313,0,6.01-2.694,6.01-6.008
			C57.318,28.685,54.622,25.992,51.309,25.992z"/>
	</g>
</g>
</svg>
