<?xml version="1.0" encoding="utf-8"?>
<!-- Generator: Adobe Illustrator 15.0.0, SVG Export Plug-In . SVG Version: 6.00 Build 0)  -->
<!DOCTYPE svg PUBLIC "-//W3C//DTD SVG 1.1//EN" "http://www.w3.org/Graphics/SVG/1.1/DTD/svg11.dtd">
<svg version="1.1" id="Layer_1" xmlns="http://www.w3.org/2000/svg" xmlns:xlink="http://www.w3.org/1999/xlink" x="0px" y="0px"
	 width="64px" height="64px" viewBox="0 0 64 64" enable-background="new 0 0 64 64" xml:space="preserve">
<g>
	<g>
		<g>
			<path fill="#020202" d="M34.847,5.757v3.036c0,1.569-1.279,2.846-2.847,2.846c-1.57,0-2.847-1.277-2.847-2.846V5.757
				c0-1.569,1.277-2.847,2.847-2.847C33.567,2.91,34.847,4.188,34.847,5.757z M24.219,24.974h4.173v-1.518h-4.173v-2.815h4.173
				v-1.518h-4.173v-2.827h4.173v-1.518h-4.173v-4.088c0-2.822,1.518-5.29,3.77-6.653c-0.229,0.527-0.354,1.109-0.354,1.721v3.036
				c0,2.406,1.958,4.363,4.365,4.363c2.406,0,4.362-1.957,4.362-4.363V5.757c0-0.612-0.126-1.194-0.354-1.721
				c2.254,1.363,3.77,3.832,3.77,6.653v3.948h-4.174v1.518h4.174v2.829h-4.174v1.518h4.174v2.814h-4.174v1.518h4.174v2.555
				c0,4.422-3.563,8.158-7.778,8.158c-4.218,0-7.781-3.736-7.781-8.158V24.974z"/>
		</g>
	</g>
	<g>
		<path d="M46.5,28.271V13.048h-2.86v15.223c0,5.827-4.363,10.707-10.149,11.35l-1.523,0.17l-1.54-0.184
			c-5.74-0.682-10.069-5.555-10.069-11.336V13.048H17.5v15.223c0,6.693,4.639,12.458,11.11,13.922v11.103h-4.137
			c-2.15,0-3.898,1.747-3.898,3.896c0,2.149,1.749,3.898,3.898,3.898h15.053c2.149,0,3.898-1.749,3.898-3.898
			c0-2.148-1.749-3.896-3.898-3.896h-4.239V42.222C41.817,40.798,46.5,35.02,46.5,28.271z"/>
	</g>
</g>
</svg>
