<?xml version="1.0" encoding="utf-8"?>
<!-- Generator: Adobe Illustrator 16.0.4, SVG Export Plug-In . SVG Version: 6.00 Build 0)  -->
<!DOCTYPE svg PUBLIC "-//W3C//DTD SVG 1.1//EN" "http://www.w3.org/Graphics/SVG/1.1/DTD/svg11.dtd">
<svg version="1.1" id="Layer_1" xmlns="http://www.w3.org/2000/svg" xmlns:xlink="http://www.w3.org/1999/xlink" x="0px" y="0px"
	 width="64px" height="64px" viewBox="0 0 64 64" enable-background="new 0 0 64 64" xml:space="preserve">
<path d="M40.424,32.271L34.895,37.8C37.559,37.033,39.656,34.934,40.424,32.271z"/>
<path d="M44.238,30.201v1c0,6.055-4.926,10.98-10.98,10.98h-2.516c-0.073,0-0.145-0.011-0.218-0.013l-2.869,2.87
	c0.887,0.197,1.804,0.314,2.744,0.337v11.576h-7.19v3.198H40.79v-3.198H33.6V45.377c7.664-0.182,13.84-6.473,13.84-14.275v-1h-2.201
	L44.238,30.201z"/>
<path d="M53.945,8.07l-13.2,13.2v-9.336c0-4.459-3.628-8.086-8.087-8.086h-1.497c-4.459,0-8.087,3.627-8.087,8.086v18.103
	c0,2.438,1.094,4.615,2.806,6.098l-2.841,2.841c-2.015-2.004-3.279-4.774-3.279-7.874v-1h-2.199l-1,0.1v1
	c0,3.926,1.626,7.466,4.216,10.036L8.069,53.945l1.984,1.984L55.93,10.054L53.945,8.07z M24.274,14.004v-2.07
	c0-3.797,3.089-6.887,6.887-6.887h1.497c3.798,0,6.887,3.09,6.887,6.887v2.07H24.274z"/>
</svg>
