<?xml version="1.0" encoding="utf-8"?>
<!-- Generator: Adobe Illustrator 15.0.0, SVG Export Plug-In . SVG Version: 6.00 Build 0)  -->
<!DOCTYPE svg PUBLIC "-//W3C//DTD SVG 1.1//EN" "http://www.w3.org/Graphics/SVG/1.1/DTD/svg11.dtd">
<svg version="1.1" id="Layer_1" xmlns="http://www.w3.org/2000/svg" xmlns:xlink="http://www.w3.org/1999/xlink" x="0px" y="0px"
	 width="64px" height="64px" viewBox="0 0 64 64" enable-background="new 0 0 64 64" xml:space="preserve">
<g>
	<g>
		<path fill="#231F20" d="M31.161,38.122h1.497c4.459,0,8.087-3.627,8.087-8.086V11.934c0-4.459-3.628-8.086-8.087-8.086h-1.497
			c-4.459,0-8.087,3.627-8.087,8.086v18.103C23.074,34.495,26.702,38.122,31.161,38.122z M31.161,5.047h1.497
			c3.798,0,6.887,3.09,6.887,6.887v2.07H24.274v-2.07C24.274,8.137,27.363,5.047,31.161,5.047z"/>
	</g>
	<g>
		<path fill="#231F20" d="M45.238,30.102l-1,0.1v1c0,6.055-4.926,10.98-10.98,10.98h-2.516c-6.056,0-10.982-4.926-10.982-11.08v-1
			h-2.199l-1,0.1v1c0,7.704,6.177,13.993,13.839,14.176v11.576h-7.19v3.199H40.79v-3.199H33.6V45.377
			c7.663-0.182,13.84-6.473,13.84-14.275v-1H45.238z"/>
	</g>
</g>
</svg>
