<?xml version="1.0" encoding="utf-8"?>
<!-- Generator: Adobe Illustrator 15.0.0, SVG Export Plug-In . SVG Version: 6.00 Build 0)  -->
<!DOCTYPE svg PUBLIC "-//W3C//DTD SVG 1.1//EN" "http://www.w3.org/Graphics/SVG/1.1/DTD/svg11.dtd">
<svg version="1.1" id="Layer_1" xmlns="http://www.w3.org/2000/svg" xmlns:xlink="http://www.w3.org/1999/xlink" x="0px" y="0px"
	 width="64px" height="64px" viewBox="0 0 64 64" enable-background="new 0 0 64 64" xml:space="preserve">
<g>
	<g>
		<path d="M57.702,9.183l-2.999-2.999c-1.646-1.645-3.833-2.55-6.162-2.55c-2.33,0-4.521,0.906-6.165,2.55l-6.504,6.503
			c-1.921,1.921-2.818,4.552-2.48,7.237c-0.792,0.384-1.507,0.89-2.128,1.51L9.405,43.294c-3.125,3.125-0.481,5.77,1.102,7.353
			l0.76,0.749l-7.519,7.517l1.457,1.454l7.514-7.514c0.156,0.158,0.312,0.317,0.465,0.468c1.215,1.215,2.19,2.039,3.295,2.389
			c1.411,0.446,2.741,0.024,4.055-1.287l21.858-21.859c0.61-0.61,1.11-1.309,1.486-2.083c0.396,0.054,0.793,0.081,1.188,0.081
			c2.312,0,4.488-0.903,6.133-2.548l6.504-6.503c1.645-1.645,2.55-3.832,2.55-6.165C60.252,13.015,59.347,10.828,57.702,9.183z
			 M57.721,17.807C49.922,14.883,46.898,8.003,46.2,6.114c0.749-0.282,1.537-0.422,2.343-0.422c1.782,0,3.451,0.69,4.706,1.945
			l2.999,3C58.115,12.502,58.69,15.356,57.721,17.807z M43.612,28.344c-4.381-2.327-7.63-7.412-8.089-8.159
			c-0.452-2.206,0.22-4.463,1.803-6.044l6.504-6.503c0.166-0.167,0.349-0.328,0.556-0.489c0.586,1.537,2.064,4.767,5.021,7.721
			c2.059,2.059,4.495,3.649,7.253,4.727c-0.135,0.167-0.271,0.32-0.411,0.459l-6.504,6.503
			C48.148,28.159,45.834,28.83,43.612,28.344z"/>
	</g>
</g>
</svg>
