<?xml version="1.0" encoding="utf-8"?>
<!-- Generator: Adobe Illustrator 15.0.0, SVG Export Plug-In . SVG Version: 6.00 Build 0)  -->
<!DOCTYPE svg PUBLIC "-//W3C//DTD SVG 1.1//EN" "http://www.w3.org/Graphics/SVG/1.1/DTD/svg11.dtd">
<svg version="1.1" id="Layer_1" xmlns="http://www.w3.org/2000/svg" xmlns:xlink="http://www.w3.org/1999/xlink" x="0px" y="0px"
	 width="64px" height="64px" viewBox="0 0 64 64" enable-background="new 0 0 64 64" xml:space="preserve">
<g>
	<g>
		<g>
			<path fill="#020202" d="M32.906,19.306c-0.015-1.352,0.612-2.406,1.22-3.431c0.805-1.355,1.637-2.757,1.059-4.684
				c-0.589-1.767-1.705-2.635-2.692-3.405c-1.33-1.031-2.289-1.777-1.789-4.605l0.043-0.242l-1.431-0.252l-0.043,0.241
				c-0.652,3.694,0.931,4.922,2.327,6.007c0.901,0.703,1.753,1.365,2.198,2.694c0.388,1.298-0.19,2.272-0.921,3.505
				c-0.68,1.146-1.449,2.438-1.431,4.17c-7.25,0.008-14.656,0.308-14.656,26.072c0,11.611,9.33,15.938,15.212,15.938
				c5.879,0,15.212-4.326,15.212-15.938C47.212,19.645,39.663,19.328,32.906,19.306z M32.726,20.76
				c5.983,0.013,11.586,0.25,12.791,17.127c-4.093,1.913-8.394,2.931-12.791,3.032v-3.144c0.896-0.173,1.57-0.965,1.57-1.891v-9.496
				c0-0.929-0.675-1.719-1.57-1.892V20.76z M31.637,25.908h0.726c0.264,0,0.479,0.217,0.479,0.481v9.496
				c0,0.264-0.215,0.477-0.479,0.477h-0.726c-0.264,0-0.479-0.213-0.479-0.477v-9.496C31.158,26.125,31.373,25.908,31.637,25.908z
				 M31.272,20.76v3.738c-0.896,0.172-1.568,0.964-1.568,1.892v9.496c0,0.926,0.672,1.718,1.568,1.891v3.144
				c-6.691-0.157-11.563-2.388-12.791-3.01C19.681,21.009,25.286,20.772,31.272,20.76z"/>
		</g>
	</g>
	<g>
		<g>
			<polygon fill="#020202" points="36.679,23.702 35.256,25.441 38.1,25.441 			"/>
		</g>
	</g>
	<g>
		<g>
			<polygon fill="#020202" points="36.729,38.6 38.15,36.861 35.309,36.861 			"/>
		</g>
	</g>
</g>
</svg>
