<?xml version="1.0" encoding="utf-8"?>
<!-- Generator: Adobe Illustrator 15.0.0, SVG Export Plug-In . SVG Version: 6.00 Build 0)  -->
<!DOCTYPE svg PUBLIC "-//W3C//DTD SVG 1.1//EN" "http://www.w3.org/Graphics/SVG/1.1/DTD/svg11.dtd">
<svg version="1.1" id="Layer_1" xmlns="http://www.w3.org/2000/svg" xmlns:xlink="http://www.w3.org/1999/xlink" x="0px" y="0px"
	 width="64px" height="64px" viewBox="0 0 64 64" enable-background="new 0 0 64 64" xml:space="preserve">
<g>
	<g>
		<path fill="#020202" d="M32.865,19.883c-0.015-1.289,0.586-2.296,1.165-3.273c0.769-1.294,1.563-2.633,1.011-4.472
			c-0.563-1.687-1.626-2.515-2.57-3.249c-1.267-0.986-2.182-1.698-1.708-4.397l0.042-0.231l-1.366-0.241l-0.041,0.23
			c-0.623,3.526,0.889,4.699,2.221,5.734c0.862,0.671,1.676,1.303,2.1,2.572c0.371,1.239-0.182,2.169-0.881,3.346
			c-0.649,1.095-1.383,2.329-1.366,3.98c-6.92,0.009-13.99,0.294-13.99,24.889c0,11.08,8.906,15.211,14.52,15.211
			s14.52-4.131,14.52-15.211C46.52,20.207,39.314,19.904,32.865,19.883z M32.695,40.512v-2.999c0.854-0.165,1.497-0.921,1.497-1.806
			v-9.063c0-0.886-0.643-1.641-1.497-1.806v-3.567c5.711,0.012,11.057,0.239,12.207,16.349
			C40.995,39.444,36.89,40.416,32.695,40.512z M32.804,35.707c0,0.252-0.206,0.458-0.458,0.458h-0.692
			c-0.252,0-0.458-0.206-0.458-0.458v-9.063c0-0.252,0.206-0.458,0.458-0.458h0.692c0.252,0,0.458,0.206,0.458,0.458V35.707z
			 M31.305,24.838c-0.855,0.165-1.497,0.92-1.497,1.806v9.063c0,0.885,0.642,1.641,1.497,1.806v3.001
			c-6.384-0.15-11.035-2.28-12.209-2.873c1.148-16.133,6.496-16.358,12.209-16.37V24.838z"/>
	</g>
</g>
</svg>
