<?xml version="1.0" encoding="utf-8"?>
<!-- Generator: Adobe Illustrator 15.0.0, SVG Export Plug-In . SVG Version: 6.00 Build 0)  -->
<!DOCTYPE svg PUBLIC "-//W3C//DTD SVG 1.1//EN" "http://www.w3.org/Graphics/SVG/1.1/DTD/svg11.dtd">
<svg version="1.1" id="Layer_1" xmlns="http://www.w3.org/2000/svg" xmlns:xlink="http://www.w3.org/1999/xlink" x="0px" y="0px"
	 width="64px" height="64px" viewBox="0 0 64 64" enable-background="new 0 0 64 64" xml:space="preserve">
<g>
	<g>
		<path fill="#020202" d="M4,11.648v36.207h56V11.648H4z M39.824,33.123c0.039,0.793-0.292,1.705-0.979,2.487
			c-0.719,0.813-1.666,1.299-2.531,1.299c-0.496,0-0.938-0.157-1.281-0.459c-0.966-0.853-0.809-2.56,0.361-3.885
			c0.943-1.066,2.31-1.503,3.283-1.142v-6.645l-9.67,0.359v9.858c0.09,0.826-0.243,1.808-0.976,2.637
			c-0.718,0.816-1.666,1.302-2.531,1.302c-0.496,0-0.938-0.157-1.281-0.46c-0.966-0.853-0.809-2.56,0.361-3.884
			c0.919-1.044,2.239-1.482,3.208-1.165c-0.003-0.827-0.003-1.656-0.003-2.479l-0.002-0.824c-0.005-1.808-0.008-5.447-0.008-7.25
			c0-0.388,0.246-0.723,0.615-0.839l0.122-0.021l10.258-0.563c0.248-0.057,0.512,0.002,0.716,0.152
			c0.219,0.16,0.354,0.426,0.354,0.705l0.002,10.816H39.824z"/>
	</g>
	<g>
		<polygon fill="#020202" points="21.438,52.352 31.567,52.352 41.924,52.352 41.924,49.627 21.438,49.627 		"/>
	</g>
</g>
</svg>
