<?xml version="1.0" encoding="utf-8"?>
<!-- Generator: Adobe Illustrator 15.0.0, SVG Export Plug-In . SVG Version: 6.00 Build 0)  -->
<!DOCTYPE svg PUBLIC "-//W3C//DTD SVG 1.1//EN" "http://www.w3.org/Graphics/SVG/1.1/DTD/svg11.dtd">
<svg version="1.1" id="Layer_1" xmlns="http://www.w3.org/2000/svg" xmlns:xlink="http://www.w3.org/1999/xlink" x="0px" y="0px"
	 width="64px" height="64px" viewBox="0 0 64 64" enable-background="new 0 0 64 64" xml:space="preserve">
<g>
	<g>
		<polygon points="28.709,30.683 33.543,30.683 38.015,25.614 24.172,25.624 		"/>
	</g>
	<g>
		<path d="M59.039,26.19c-0.122-0.222-2.146-3.713-9.842-6.081c-5.096-5.648-10.907-8.526-16.877-8.544c-0.021,0-0.042,0-0.061,0
			c-10.045,0-17.202,8.013-17.511,8.354l0.172,0.156c-7.791,2.368-9.839,5.894-9.96,6.116l-0.095,0.177v17.446
			c0,4.754,3.557,8.623,7.928,8.623h38.416c4.371,0,7.929-3.869,7.929-8.623V26.367L59.039,26.19z M32.259,13.132
			c0.019,0,0.037,0,0.056,0c4.842,0.016,9.659,2.104,13.954,6.205c-3.674-0.83-8.341-1.393-14.269-1.393
			c-5.997,0-10.701,0.576-14.393,1.422C20.263,17.072,25.591,13.132,32.259,13.132z M19.827,39.026c0,3.16-1.684,5.83-3.679,5.83
			H6.507c-0.045-0.342-0.077-0.688-0.077-1.044V30.109h9.718c1.995,0,3.679,2.669,3.679,5.831V39.026z M40.341,25.347l-5.854,6.639
			c-0.151,0.169-0.362,0.264-0.59,0.264h-5.537c-0.222,0-0.436-0.095-0.584-0.259l-5.944-6.625c-0.208-0.23-0.259-0.56-0.135-0.843
			c0.127-0.283,0.407-0.462,0.716-0.462l17.336-0.016c0.31,0,0.59,0.18,0.717,0.46C40.592,24.787,40.544,25.114,40.341,25.347z
			 M57.566,43.813c0,0.356-0.031,0.702-0.076,1.044h-9.606c-1.993,0-3.68-2.67-3.68-5.83v-3.087c0-3.161,1.687-5.831,3.68-5.831
			h9.683V43.813z"/>
	</g>
</g>
</svg>
