<?xml version="1.0" encoding="utf-8"?>
<!-- Generator: Adobe Illustrator 15.0.0, SVG Export Plug-In . SVG Version: 6.00 Build 0)  -->
<!DOCTYPE svg PUBLIC "-//W3C//DTD SVG 1.1//EN" "http://www.w3.org/Graphics/SVG/1.1/DTD/svg11.dtd">
<svg version="1.1" id="Layer_1" xmlns="http://www.w3.org/2000/svg" xmlns:xlink="http://www.w3.org/1999/xlink" x="0px" y="0px"
	 width="64px" height="64px" viewBox="0 0 64 64" enable-background="new 0 0 64 64" xml:space="preserve">
<g>
	<g>
		<path d="M20.899,7.372v39.457c-1.633-0.332-3.427-0.284-5.177,0.147c-5.235,1.312-8.649,5.742-7.629,9.793
			c0.5,3.175,4.17,5.564,8.543,5.564c0.958,0,1.914-0.116,2.832-0.35c4.092-1.014,7.177-3.999,7.718-7.324h0.082l0.116-33.882
			l22.327-4.082v24.595c-1.661-0.346-3.496-0.301-5.277,0.141c-5.28,1.322-8.725,5.794-7.684,9.972
			c0.829,3.321,4.242,5.554,8.488,5.554l0,0c0.99,0,1.993-0.127,2.986-0.37c4.849-1.226,7.861-4.581,7.861-8.762V1.667L20.899,7.372
			z"/>
	</g>
</g>
</svg>
