<?xml version="1.0" encoding="utf-8"?>
<!-- Generator: Adobe Illustrator 15.0.0, SVG Export Plug-In . SVG Version: 6.00 Build 0)  -->
<!DOCTYPE svg PUBLIC "-//W3C//DTD SVG 1.1//EN" "http://www.w3.org/Graphics/SVG/1.1/DTD/svg11.dtd">
<svg version="1.1" id="Layer_1" xmlns="http://www.w3.org/2000/svg" xmlns:xlink="http://www.w3.org/1999/xlink" x="0px" y="0px"
	 width="64px" height="64px" viewBox="0 0 64 64" enable-background="new 0 0 64 64" xml:space="preserve">
<g>
	<g>
		<path fill="#020202" d="M53.944,20.694c-3.166,0-5.74,2.576-5.74,5.741v19.762h3.64V26.435c0-1.157,0.942-2.098,2.101-2.098
			c1.045,0,1.913,0.767,2.072,1.767l-0.022,24.855c0,2.606-2.989,4.791-6.732,4.977c-3.317-0.149-5.917-2.008-5.917-4.229
			l0.021-47.305H4.314v46.558c0,4.764,4.929,8.64,10.987,8.64h33.35c1.064,0,1.416-0.048,1.416-0.048l0.405-0.07
			c5.255-0.688,9.165-4.292,9.165-8.521l0.048-24.524C59.686,23.27,57.11,20.694,53.944,20.694z M7.958,8.042h31.765l-0.018,43.665
			c0,1.535,0.545,2.996,1.562,4.249H15.301c-4.05,0-7.344-2.241-7.344-4.996V8.042z"/>
	</g>
	<g>
		<g>
			<rect x="9.275" y="25.699" fill="#020202" width="12.872" height="1.525"/>
		</g>
	</g>
	<g>
		<g>
			<rect x="10.515" y="11.76" fill="#020202" width="26.54" height="1.528"/>
		</g>
	</g>
	<g>
		<g>
			<rect x="15.958" y="16.247" fill="#020202" width="15.656" height="1.527"/>
		</g>
	</g>
	<g>
		<g>
			<rect x="9.275" y="29.508" fill="#020202" width="12.872" height="1.527"/>
		</g>
	</g>
	<g>
		<g>
			<rect x="9.275" y="33.268" fill="#020202" width="12.872" height="1.528"/>
		</g>
	</g>
	<g>
		<g>
			<rect x="9.275" y="37.085" fill="#020202" width="12.872" height="1.527"/>
		</g>
	</g>
	<g>
		<g>
			<rect x="9.275" y="41.305" fill="#020202" width="12.872" height="1.527"/>
		</g>
	</g>
	<g>
		<g>
			<rect x="24.853" y="25.928" fill="#020202" width="12.872" height="1.527"/>
		</g>
	</g>
	<g>
		<g>
			<rect x="24.853" y="29.736" fill="#020202" width="12.872" height="1.527"/>
		</g>
	</g>
	<g>
		<g>
			<rect x="24.853" y="33.496" fill="#020202" width="12.872" height="1.527"/>
		</g>
	</g>
	<g>
		<g>
			<rect x="24.853" y="37.313" fill="#020202" width="12.872" height="1.527"/>
		</g>
	</g>
	<g>
		<g>
			<rect x="24.853" y="41.532" fill="#020202" width="12.872" height="1.528"/>
		</g>
	</g>
</g>
</svg>
