<?xml version="1.0" encoding="utf-8"?>
<!-- Generator: Adobe Illustrator 16.0.4, SVG Export Plug-In . SVG Version: 6.00 Build 0)  -->
<!DOCTYPE svg PUBLIC "-//W3C//DTD SVG 1.1//EN" "http://www.w3.org/Graphics/SVG/1.1/DTD/svg11.dtd">
<svg version="1.1" id="Layer_1" xmlns="http://www.w3.org/2000/svg" xmlns:xlink="http://www.w3.org/1999/xlink" x="0px" y="0px"
	 width="64px" height="64px" viewBox="0 0 64 64" enable-background="new 0 0 64 64" xml:space="preserve">
<g>
	<g>
		<polygon points="24.566,34.604 22.568,32.607 3.483,32.607 3.483,42.294 32.255,42.294 30.257,40.296 		"/>
	</g>
</g>
<g>
	<g>
		<polygon points="38.729,40.296 40.729,42.294 52.167,42.294 52.167,32.607 31.04,32.607 33.038,34.604 		"/>
	</g>
</g>
<g>
	<g>
		<path d="M53.363,42.294h5.99v-9.687h-5.99V42.294z"/>
	</g>
</g>
<g>
	<g>
		<path d="M54.041,20.351c1.581,1.333,2.346,2.685,2.271,4.021c-0.115,2.062-2.207,3.483-2.229,3.496l0.553,0.832
			c0.104-0.069,2.526-1.702,2.672-4.266c0.096-1.667-0.789-3.298-2.625-4.846c-1.584-1.335-2.35-2.687-2.273-4.02
			c0.117-2.055,2.206-3.469,2.227-3.482l-0.55-0.833c-0.104,0.067-2.522,1.694-2.672,4.251C51.316,17.17,52.2,18.801,54.041,20.351z
			"/>
	</g>
</g>
<g>
	<g>
		<path d="M56.146,15.228c0.365,2.15,2.418,3.286,2.506,3.333l0.475-0.877c-0.016-0.009-1.711-0.946-1.996-2.623
			c-0.197-1.152,0.316-2.413,1.526-3.748c1.536-1.692,2.125-3.184,1.752-4.435c-0.484-1.618-2.38-2.126-2.459-2.147L57.7,5.699
			c0.013,0.004,1.433,0.399,1.752,1.465c0.262,0.881-0.271,2.084-1.534,3.479C56.492,12.215,55.895,13.759,56.146,15.228z"/>
	</g>
</g>
<path d="M53.78,57.856l-1.411,1.411L9.298,16.197l1.412-1.412L53.78,57.856z"/>
</svg>
