<?xml version="1.0" encoding="utf-8"?>
<!-- Generator: Adobe Illustrator 16.0.4, SVG Export Plug-In . SVG Version: 6.00 Build 0)  -->
<!DOCTYPE svg PUBLIC "-//W3C//DTD SVG 1.1//EN" "http://www.w3.org/Graphics/SVG/1.1/DTD/svg11.dtd">
<svg version="1.1" id="Layer_1" xmlns="http://www.w3.org/2000/svg" xmlns:xlink="http://www.w3.org/1999/xlink" x="0px" y="0px"
	 width="64px" height="64px" viewBox="0 0 64 64" enable-background="new 0 0 64 64" xml:space="preserve">
<path fill="#010101" d="M8.383,60.205l-4.585-4.584l8.875-8.875l4.585,4.585L8.383,60.205z M29.226,28.195l0.955-0.955l0.5,0.5
	l1.052-1.051l-0.501-0.501l3.852-3.854l0.502,0.501l1.053-1.051l-0.5-0.501l4.034-4.035l0.502,0.5l1.05-1.051l-0.502-0.502
	l0.756-0.753l3.345-3.345l0.502,0.501l1.05-1.052l-0.502-0.502l0.659-0.659L45.67,9.022l-0.66,0.66V9.68l-1.053,1.051l0,0
	l-3.021,3.025l-1.076,1.076v-0.001l-1.041,1.04l0,0l-0.006,0.005l-0.006,0.006l0,0l-2.025,2.028l-2.01,2.008l0,0l-1.049,1.051l0,0
	l-4.612,4.61l-0.296,0.295l0,0L27.86,26.83L29.226,28.195z M55.617,3.796l-8.237,8.241l0.812,0.811
	c0.914-0.799,1.766-1.224,2.02-0.97c0.298,0.297-0.334,1.415-1.415,2.496c-1.078,1.079-2.196,1.71-2.496,1.413
	c-0.245-0.248,0.151-1.053,0.904-1.937l-0.821-0.821l-4.201,4.204l0.816,0.817c0.896-0.777,1.727-1.186,1.977-0.938
	c0.297,0.3-0.334,1.416-1.416,2.496c-1.076,1.08-2.194,1.716-2.492,1.416c-0.252-0.251,0.158-1.079,0.936-1.977l-0.816-0.818
	l-4.074,4.073l0.818,0.818c0.897-0.774,1.725-1.187,1.977-0.938c0.297,0.3-0.334,1.417-1.415,2.499
	c-1.078,1.079-2.196,1.71-2.496,1.413c-0.248-0.251,0.161-1.079,0.938-1.977L36.111,23.3l-3.926,3.928l0.819,0.82
	c0.885-0.762,1.703-1.161,1.947-0.913c0.301,0.297-0.331,1.415-1.411,2.495c-1.081,1.08-2.199,1.712-2.498,1.413
	c-0.252-0.252,0.17-1.093,0.96-2.004l-0.814-0.814L13.669,45.746l4.584,4.583L60.204,8.382L55.617,3.796z"/>
</svg>
