<?xml version="1.0" encoding="utf-8"?>
<!-- Generator: Adobe Illustrator 15.0.0, SVG Export Plug-In . SVG Version: 6.00 Build 0)  -->
<!DOCTYPE svg PUBLIC "-//W3C//DTD SVG 1.1//EN" "http://www.w3.org/Graphics/SVG/1.1/DTD/svg11.dtd">
<svg version="1.1" id="Layer_1" xmlns="http://www.w3.org/2000/svg" xmlns:xlink="http://www.w3.org/1999/xlink" x="0px" y="0px"
	 width="64px" height="64px" viewBox="0 0 64 64" enable-background="new 0 0 64 64" xml:space="preserve">
<g>
	<g>
		<path fill="#231F20" d="M38.723,31.568c-1.756,0-2.713,2.074-2.713,4.694c-0.032,2.648,0.989,4.659,2.713,4.659
			c1.853,0,2.681-1.979,2.681-4.723C41.403,33.675,40.67,31.568,38.723,31.568z"/>
	</g>
	<g>
		<path fill="#231F20" d="M27.868,27.61c0-2.524-0.735-4.631-2.682-4.631c-1.754,0-2.682,2.075-2.682,4.694
			c-0.064,2.648,0.927,4.66,2.682,4.66C27.038,32.333,27.868,30.354,27.868,27.61z"/>
	</g>
	<g>
		<path fill="#231F20" d="M61.271,33.876L56.5,28.451l2.897-5.864l-5.829-2.875l0.456-7.082l-7.23-0.465l-2.188-6.463l-6.253,2.119
			l-4.478-5.093l-5.283,4.646L22.206,4.22l-3.051,6.176l-6.524-0.417L12.2,16.682l-6.88,2.33l2.307,6.808l-4.898,4.306l4.28,4.867
			l-3.171,6.422l6.572,3.244l-0.432,6.715l6.444,0.415l2.207,6.511l6.842-2.316l4.653,5.29l5.006-4.404l5.898,2.913l3.072-6.225
			l7.271,0.469l0.446-6.971l6.097-2.064l-2.13-6.288L61.271,33.876z M20.27,27.769c0-4.149,2.266-6.482,5.012-6.482
			c2.905,0,4.82,2.237,4.82,6.196c0,4.373-2.298,6.543-4.979,6.543C22.536,34.025,20.302,31.951,20.27,27.769z M26.717,42.742H24.93
			l12.196-21.456h1.788L26.717,42.742z M38.659,42.614c-2.586,0-4.822-2.074-4.853-6.224c0-4.185,2.267-6.515,5.012-6.515
			c2.907,0,4.79,2.234,4.79,6.192C43.608,40.444,41.311,42.614,38.659,42.614z"/>
	</g>
</g>
</svg>
