<?xml version="1.0" encoding="utf-8"?>
<!-- Generator: Adobe Illustrator 15.0.0, SVG Export Plug-In . SVG Version: 6.00 Build 0)  -->
<!DOCTYPE svg PUBLIC "-//W3C//DTD SVG 1.1//EN" "http://www.w3.org/Graphics/SVG/1.1/DTD/svg11.dtd">
<svg version="1.1" id="Layer_1" xmlns="http://www.w3.org/2000/svg" xmlns:xlink="http://www.w3.org/1999/xlink" x="0px" y="0px"
	 width="64px" height="64px" viewBox="0 0 64 64" enable-background="new 0 0 64 64" xml:space="preserve">
<g>
	<path fill="#231F20" d="M53.474,14.733l0.021-0.019h-0.037l-0.032-0.043l-0.056,0.043H43.268l1.354-3.77L32.276,8.268l-1.43-4.388
		l-17.07,4.808l2.381,9.014L6.063,25.724v0.433l-2.807,8.563l2.807-2.047V60.12H40.46v-0.083l13.009-11.57v-16.75l7.275-7.337
		L53.474,14.733z M15.354,9.589L30,5.463l0.811,2.486l-4.47-0.97l-6.732,18.716L15.354,9.589z M16.574,19.276l1.703,6.448H8.539
		L16.574,19.276z M29.269,32.848H17.72v-1.294h11.549V32.848z M20.976,25.724l6.201-17.237l15.729,3.412l-4.974,13.825H20.976z
		 M39.561,25.724h-0.253l3.494-9.715h7.363L39.561,25.724z M52.175,47.886L40.46,58.305V28.432l6.904,9.44l4.811-4.849V47.886z"/>
</g>
</svg>
