<?xml version="1.0" encoding="utf-8"?>
<!-- Generator: Adobe Illustrator 15.0.0, SVG Export Plug-In . SVG Version: 6.00 Build 0)  -->
<!DOCTYPE svg PUBLIC "-//W3C//DTD SVG 1.1//EN" "http://www.w3.org/Graphics/SVG/1.1/DTD/svg11.dtd">
<svg version="1.1" id="Layer_1" xmlns="http://www.w3.org/2000/svg" xmlns:xlink="http://www.w3.org/1999/xlink" x="0px" y="0px"
	 width="64px" height="64px" viewBox="0 0 64 64" enable-background="new 0 0 64 64" xml:space="preserve">
<g>
	<g>
		<path d="M59.334,49.858l-8.981-8.985c-0.699-0.698-1.675-1.082-2.744-1.082c-1.126,0-2.213,0.438-2.98,1.206l-4.854,4.855
			l-1.313-0.728c-2.887-1.601-6.838-3.794-11.013-7.974c-4.191-4.186-6.386-8.148-7.991-11.045l-0.718-1.275l4.863-4.862
			c1.609-1.613,1.664-4.181,0.122-5.727l-8.983-8.981c-0.7-0.698-1.673-1.083-2.741-1.083c-1.127,0-2.213,0.44-2.98,1.21
			L6.814,7.606L6.606,7.945c-0.82,1.053-1.492,2.237-1.996,3.526c-0.467,1.23-0.758,2.398-0.891,3.569
			C2.562,24.667,7,33.503,19.042,45.543c14.274,14.271,26.201,15.381,29.516,15.381c0.567,0,0.911-0.031,1.008-0.041
			c1.225-0.148,2.397-0.443,3.58-0.902c1.277-0.497,2.456-1.165,3.506-1.986l0.502-0.395l2.064-2.025
			C60.824,53.967,60.877,51.402,59.334,49.858z"/>
	</g>
	<g>
		<path d="M39.877,28.423c0.365,0.366,0.733,0.554,1.093,0.558c0.279,0.003,0.541-0.105,0.744-0.308
			c0.05-0.052,0.086-0.097,0.113-0.133l11.367-11.366l3.435,3.433c0.747,0.747,1.239,0.417,1.416,0.238
			c0.389-0.389,0.398-1.199,0.389-1.382l1.39-14.713C59.828,4.675,59.87,4,59.425,3.519C59.24,3.316,58.9,3.077,58.321,3.077
			c-1.589,0.001-14.284,1.784-14.76,1.855c-0.151,0-0.933,0.018-1.333,0.418c-0.249,0.25-0.538,0.802,0.342,1.68l3.147,3.148
			l-11.252,11.25c-0.274,0.275-0.598,0.985,0.131,1.716L39.877,28.423z"/>
	</g>
</g>
</svg>
