<?xml version="1.0" encoding="utf-8"?>
<!-- Generator: Adobe Illustrator 15.0.0, SVG Export Plug-In . SVG Version: 6.00 Build 0)  -->
<!DOCTYPE svg PUBLIC "-//W3C//DTD SVG 1.1//EN" "http://www.w3.org/Graphics/SVG/1.1/DTD/svg11.dtd">
<svg version="1.1" id="Layer_1" xmlns="http://www.w3.org/2000/svg" xmlns:xlink="http://www.w3.org/1999/xlink" x="0px" y="0px"
	 width="64px" height="64px" viewBox="0 0 64 64" enable-background="new 0 0 64 64" xml:space="preserve">
<g>
	<path d="M48.192,23.149h-1.229v-8.541c0-6.451-5.246-11.7-11.697-11.7h-6.531c-6.451,0-11.698,5.249-11.698,11.7v8.541h-1.23
		c-2.297,0-4.168,1.87-4.168,4.168v29.607c0,2.297,1.872,4.167,4.168,4.167h32.385c2.298,0,4.169-1.87,4.169-4.167V27.317
		C52.361,25.019,50.49,23.149,48.192,23.149z M34.825,45.68v5.847c0,1.56-1.266,2.827-2.827,2.827c-1.554,0-2.823-1.268-2.823-2.827
		v-5.849c-1.5-0.961-2.416-2.607-2.416-4.389c0-2.889,2.351-5.239,5.239-5.239c2.893,0,5.243,2.351,5.243,5.239
		C37.241,43.07,36.325,44.717,34.825,45.68z M44.183,23.149H19.817v-8.541c0-4.919,4-8.919,8.918-8.919h6.531
		c4.918,0,8.917,4,8.917,8.919V23.149z"/>
</g>
</svg>
