<?xml version="1.0" encoding="utf-8"?>
<!-- Generator: Adobe Illustrator 15.0.0, SVG Export Plug-In . SVG Version: 6.00 Build 0)  -->
<!DOCTYPE svg PUBLIC "-//W3C//DTD SVG 1.1//EN" "http://www.w3.org/Graphics/SVG/1.1/DTD/svg11.dtd">
<svg version="1.1" id="Layer_1" xmlns="http://www.w3.org/2000/svg" xmlns:xlink="http://www.w3.org/1999/xlink" x="0px" y="0px"
	 width="64px" height="64px" viewBox="0 0 64 64" enable-background="new 0 0 64 64" xml:space="preserve">
<g>
	<g>
		<path d="M61.115,17.407c0.02-0.029,0.037-0.06,0.048-0.094c0.004-0.014,0.004-0.029,0.008-0.045
			c0.006-0.03,0.012-0.063,0.009-0.094c0-0.005,0.004-0.01,0.003-0.015c-0.003-0.017-0.01-0.03-0.014-0.047
			c-0.003-0.018-0.003-0.039-0.011-0.057c-0.002-0.007-0.007-0.012-0.011-0.018c-0.01-0.021-0.021-0.037-0.032-0.054
			c-0.015-0.021-0.029-0.043-0.047-0.063c-0.014-0.012-0.027-0.021-0.042-0.034c-0.021-0.017-0.046-0.031-0.071-0.043
			c-0.016-0.009-0.032-0.013-0.051-0.017c-0.026-0.01-0.054-0.014-0.083-0.017c0,0-0.017-0.005-0.024-0.005h-0.015L3.193,18.72
			c-0.187,0.006-0.343,0.145-0.372,0.33c-0.029,0.183,0.079,0.363,0.255,0.426l12.819,4.52l3.72,22.873
			c0.008,0.05,0.025,0.096,0.05,0.136c0.004,0.007,0.008,0.01,0.012,0.015c0.032,0.049,0.077,0.088,0.126,0.117
			c0.007,0.003,0.01,0.013,0.017,0.016c0.007,0.005,0.013,0.002,0.018,0.005c0.049,0.022,0.102,0.038,0.159,0.038H20l0,0l0,0
			c0.019,0,0.041-0.001,0.061-0.005c0.06-0.01,0.112-0.033,0.158-0.067c0.003-0.002,0.007,0,0.009-0.002l39.222-28.69l1.541-0.9
			c0.011-0.006,0.017-0.015,0.025-0.021c0.031-0.022,0.06-0.044,0.083-0.074C61.105,17.427,61.109,17.417,61.115,17.407z
			 M19.778,25.177c-0.005,0.006-0.011,0.008-0.016,0.015c-0.047,0.054-0.077,0.121-0.088,0.193
			c-0.001,0.007-0.008,0.012-0.008,0.018c0,0.004,0.002,0.008,0.001,0.013c0,0.01-0.004,0.02-0.004,0.03L19.623,42.07l-2.935-18.038
			l29.013-4.239l-25.727,5.274C19.896,25.083,19.831,25.125,19.778,25.177z M58.581,18.038L35.007,31.821L21.303,25.59
			L58.581,18.038z M53.878,17.812l-37.597,5.495L5.28,19.427L53.878,17.812z"/>
	</g>
</g>
</svg>
