<?xml version="1.0" encoding="utf-8"?>
<!-- Generator: Adobe Illustrator 15.0.0, SVG Export Plug-In . SVG Version: 6.00 Build 0)  -->
<!DOCTYPE svg PUBLIC "-//W3C//DTD SVG 1.1//EN" "http://www.w3.org/Graphics/SVG/1.1/DTD/svg11.dtd">
<svg version="1.1" id="Layer_1" xmlns="http://www.w3.org/2000/svg" xmlns:xlink="http://www.w3.org/1999/xlink" x="0px" y="0px"
	 width="64px" height="64px" viewBox="0 0 64 64" enable-background="new 0 0 64 64" xml:space="preserve">
<g>
	<g>
		<path d="M38.783,26.178c-4.446,0-8.064,3.617-8.064,8.063c0,4.445,3.618,8.063,8.064,8.063c4.445,0,8.061-3.618,8.061-8.063
			C46.844,29.794,43.229,26.178,38.783,26.178z"/>
	</g>
	<g>
		<path d="M51.994,16.342h-3.447L44.17,12.24H32.018l-3.554,4.102h-7.338c-0.328-1.355-1.217-2.28-2.281-2.28h-5.187
			c-1.069,0-1.965,0.936-2.286,2.308c-3.674,0.322-6.564,3.416-6.564,7.171V44.56c0,3.97,3.229,7.2,7.2,7.2h39.986
			c3.97,0,7.198-3.23,7.198-7.2V23.541C59.192,19.572,55.964,16.342,51.994,16.342z M11.32,42.679c0,0.751-0.611,1.359-1.362,1.359
			s-1.36-0.608-1.36-1.359v-14.35c0-0.751,0.609-1.36,1.36-1.36s1.362,0.609,1.362,1.36V42.679z M19.504,21.656
			c0,0.792-0.645,1.435-1.436,1.435h-3.689c-0.792,0-1.436-0.643-1.436-1.435v-0.844c0-0.793,0.644-1.436,1.436-1.436h3.689
			c0.792,0,1.436,0.643,1.436,1.436V21.656z M38.783,45.744c-6.343,0-11.504-5.161-11.504-11.504
			c0-6.341,5.161-11.502,11.504-11.502c6.342,0,11.5,5.161,11.5,11.502C50.283,40.583,45.125,45.744,38.783,45.744z"/>
	</g>
</g>
</svg>
