<?xml version="1.0" encoding="utf-8"?>
<!-- Generator: Adobe Illustrator 15.0.0, SVG Export Plug-In . SVG Version: 6.00 Build 0)  -->
<!DOCTYPE svg PUBLIC "-//W3C//DTD SVG 1.1//EN" "http://www.w3.org/Graphics/SVG/1.1/DTD/svg11.dtd">
<svg version="1.1" id="Layer_1" xmlns="http://www.w3.org/2000/svg" xmlns:xlink="http://www.w3.org/1999/xlink" x="0px" y="0px"
	 width="64px" height="64px" viewBox="0 0 64 64" enable-background="new 0 0 64 64" xml:space="preserve">
<g>
	<g>
		<circle cx="38.323" cy="30.938" r="4.293"/>
	</g>
	<g>
		<path d="M38.326,19.64c-6.232,0-11.299,5.07-11.299,11.298c0,6.228,5.067,11.296,11.299,11.296
			c6.228,0,11.295-5.068,11.295-11.296C49.621,24.709,44.554,19.64,38.326,19.64z M38.245,39.422c-4.705,0-8.532-3.827-8.532-8.531
			c0-4.705,3.827-8.531,8.532-8.531c4.704,0,8.532,3.826,8.532,8.531C46.777,35.595,42.949,39.422,38.245,39.422z"/>
	</g>
	<g>
		<path d="M58.969,21.313h-1.672v-0.417c0-3.706-3.015-6.722-6.723-6.722h-3.217l-4.087-3.83H31.924l-3.319,3.83h-6.854
			c-0.304-1.266-1.136-2.129-2.128-2.129h-4.842c-0.999,0-1.835,0.874-2.135,2.155c-3.43,0.3-6.128,3.19-6.128,6.695v0.417H5.032
			c-0.583,0-1.053,0.472-1.053,1.053c0,0.58,0.471,1.052,1.053,1.052h1.486v23.516c0,3.706,3.014,6.721,6.721,6.721h37.336
			c3.708,0,6.723-3.015,6.723-6.721V23.418h1.672c0.58,0,1.053-0.472,1.053-1.052C60.021,21.785,59.549,21.313,58.969,21.313z
			 M20.239,19.136c0,0.739-0.602,1.34-1.343,1.34h-3.442c-0.742,0-1.341-0.601-1.341-1.34v-0.788c0-0.741,0.599-1.341,1.341-1.341
			h3.442c0.742,0,1.343,0.6,1.343,1.341V19.136z M38.326,44.479c-7.467,0-13.544-6.076-13.544-13.541
			c0-7.466,6.077-13.542,13.544-13.542c7.465,0,13.539,6.077,13.539,13.542C51.865,38.402,45.791,44.479,38.326,44.479z"/>
	</g>
</g>
</svg>
