<?xml version="1.0" encoding="utf-8"?>
<!-- Generator: Adobe Illustrator 15.0.0, SVG Export Plug-In . SVG Version: 6.00 Build 0)  -->
<!DOCTYPE svg PUBLIC "-//W3C//DTD SVG 1.1//EN" "http://www.w3.org/Graphics/SVG/1.1/DTD/svg11.dtd">
<svg version="1.1" id="Layer_1" xmlns="http://www.w3.org/2000/svg" xmlns:xlink="http://www.w3.org/1999/xlink" x="0px" y="0px"
	 width="64px" height="64px" viewBox="0 0 64 64" enable-background="new 0 0 64 64" xml:space="preserve">
<g>
	<g>
		<path d="M57.21,7.961H6.796c-1.234,0-2.238,0.999-2.238,2.226v43.624c0,1.23,1.004,2.229,2.238,2.229H57.21
			c1.23,0,2.231-0.998,2.231-2.229V10.187C59.441,8.959,58.44,7.961,57.21,7.961z M39.04,17.126c0.62-1.036,1.745-1.69,2.946-1.69
			h0.69c0.501,0,0.993,0.109,1.444,0.315c0.768-0.209,1.578-0.315,2.418-0.315c3.646,0,6.503,2.027,6.503,4.614
			c0,2.59-2.856,4.62-6.503,4.62c-1.018,0-2.025-0.164-2.922-0.476c-0.674,0.106-1.363,0.16-2.052,0.16
			c-3.342,0-6.714-1.156-6.714-3.736C34.852,18.933,36.411,17.64,39.04,17.126z M49.404,41.396H38.847
			c0.924-3.366,2.774-7.721,4.914-8.27c0.115-0.029,0.226-0.044,0.336-0.044C46.087,33.083,48.043,37.888,49.404,41.396z
			 M27.566,26.281c0.351,0,0.735,0.205,1.137,0.608c4.238,4.238,6.426,11.483,7.192,14.507h-16.18
			C21.775,33.872,25.199,26.281,27.566,26.281z M17.646,14.776c2.931,0,5.315,2.384,5.315,5.314c0,2.929-2.385,5.313-5.315,5.313
			c-2.932,0-5.318-2.384-5.318-5.313C12.328,17.16,14.714,14.776,17.646,14.776z M57.112,53.711H6.889V43.707
			c0.068,0.012,0.139,0.018,0.21,0.018h50.013V53.711z"/>
	</g>
</g>
</svg>
