<?xml version="1.0" encoding="utf-8"?>
<!-- Generator: Adobe Illustrator 15.0.0, SVG Export Plug-In . SVG Version: 6.00 Build 0)  -->
<!DOCTYPE svg PUBLIC "-//W3C//DTD SVG 1.1//EN" "http://www.w3.org/Graphics/SVG/1.1/DTD/svg11.dtd">
<svg version="1.1" id="Layer_1" xmlns="http://www.w3.org/2000/svg" xmlns:xlink="http://www.w3.org/1999/xlink" x="0px" y="0px"
	 width="64px" height="64px" viewBox="0 0 64 64" enable-background="new 0 0 64 64" xml:space="preserve">
<g>
	<g>
		<path d="M40.818,3.792H6.116v34.705h34.703V3.792z M11.467,31.402c1.25-4.409,4.078-12.125,6.585-12.125
			c0.374,0,0.76,0.2,1.153,0.591c3.335,3.337,5.125,8.913,5.82,11.535H11.467z M37.859,31.402h-0.653c0,0-1.239,0.05-1.26,0h-8.938
			c0.469-1.585,1.954-6.001,4.111-6.553c0.119-0.031,0.236-0.046,0.353-0.046c1.708,0,3.201,3.341,4.474,6.599h1.26
			c-0.16-0.44-0.563-1.61-0.642-1.803c-1.292-3.15-2.827-6.037-5.092-6.037c-0.214,0-0.438,0.027-0.657,0.084
			c-2.145,0.549-3.605,3.432-4.456,5.753l-0.329,0.903l-0.286-0.918c-0.977-3.134-2.751-7.482-5.663-10.396
			c-0.631-0.631-1.315-0.953-2.03-0.953c-3.812,0-6.834,9.602-7.873,13.367H9.075V6.006h28.785V31.402z"/>
	</g>
	<g>
		<path d="M31.072,17.777c2.233,0,4.05-1.819,4.05-4.055c0-2.233-1.816-4.05-4.05-4.05c-2.235,0-4.053,1.817-4.053,4.05
			C27.02,15.958,28.837,17.777,31.072,17.777z M31.072,10.892c1.56,0,2.83,1.27,2.83,2.831c0,1.563-1.27,2.835-2.83,2.835
			c-1.562,0-2.833-1.272-2.833-2.835C28.239,12.162,29.51,10.892,31.072,10.892z"/>
	</g>
	<g>
		<path d="M41.431,40.634c-0.044-0.303-0.094-0.601-0.144-0.9h-1.263c0.142,0.811,0.261,1.658,0.368,2.499l1.221,0.308
			C41.565,42.073,41.46,40.842,41.431,40.634z"/>
	</g>
	<g>
		<path d="M51.83,16.636l-10.14-2.541v2.283l6.732,1.687l-6.175,24.634l-0.635-0.159c0,0-1.213-0.253-1.221-0.308l-8.669-2.17
			c0.057-0.098,0.124-0.21,0.197-0.329H10.266l-0.534,2.13L43.395,50.3L51.83,16.636z"/>
	</g>
	<g>
		<path d="M43.891,24.884c0.478-1.906-0.487-3.837-2.2-4.646v1.423c0.861,0.667,1.299,1.803,1.018,2.926
			c-0.159,0.64-0.533,1.164-1.018,1.539v1.415C42.745,27.039,43.585,26.104,43.891,24.884z"/>
	</g>
	<g>
		<path d="M50.613,24.726l-0.53,2.149l4.388,1.119l-6.274,24.61l-0.634-0.162c0,0-1.213-0.257-1.22-0.312l-2.362-0.604
			l-26.587-6.599l-1.709,6.706l33.628,8.575l8.573-33.63L50.613,24.726z"/>
	</g>
	<g>
		<path d="M47.388,50.535c-0.318-2.261-0.783-4.414-1.709-5.77l-0.449,1.822c0.547,1.458,0.863,3.521,1.113,5.542l1.22,0.312
			C47.517,51.975,47.416,50.74,47.388,50.535z"/>
	</g>
	<g>
		<path d="M47.857,35.917l-0.404,1.644c1.174-0.46,2.124-1.453,2.458-2.766c0.341-1.339-0.033-2.691-0.876-3.661l-0.408,1.656
			c0.202,0.527,0.252,1.116,0.103,1.702C48.583,35.066,48.271,35.552,47.857,35.917z"/>
	</g>
</g>
</svg>
