<?xml version="1.0" encoding="utf-8"?>
<!-- Generator: Adobe Illustrator 15.0.0, SVG Export Plug-In . SVG Version: 6.00 Build 0)  -->
<!DOCTYPE svg PUBLIC "-//W3C//DTD SVG 1.1//EN" "http://www.w3.org/Graphics/SVG/1.1/DTD/svg11.dtd">
<svg version="1.1" id="Layer_1" xmlns="http://www.w3.org/2000/svg" xmlns:xlink="http://www.w3.org/1999/xlink" x="0px" y="0px"
	 width="64px" height="64px" viewBox="0 0 64 64" enable-background="new 0 0 64 64" xml:space="preserve">
<g>
	<path fill="#231F20" d="M58.291,31.047h-1.104c-1.023-2.56-3.597-6.795-9.489-7.194l1.057-2.222l0.012-0.198
		c0-1.017-0.779-1.952-1.806-2.175c-0.035-0.007-0.221-0.047-0.555-0.047c-1.083,0-3.25,0.453-5.685,3.473
		c-1.47-1.261-3.187-2.269-5.102-2.993c0.463-0.807,0.708-1.7,0.708-2.595c0-2.897-2.357-5.254-5.254-5.254
		s-5.255,2.357-5.255,5.254c0,0.572,0.104,1.15,0.31,1.729c-8.125,1.489-14.005,8.342-14.005,16.35c0,0.094,0.005,0.188,0.007,0.282
		c-0.205,0.002-0.413,0.005-0.621,0.005c-0.514,0-0.913-0.016-1.281-0.05c-0.171-1.643-1.299-3.575-3.105-4
		c-0.88-0.205-1.583,0.01-1.961,0.594c-0.366,0.569-0.369,1.425-0.005,2.237c0.551,1.231,1.585,2.016,3.156,2.395
		c-0.054,0.245-0.252,0.52-1.014,0.52c-0.534,0-1.185-0.134-1.759-0.25c-0.443-0.092-0.826-0.171-1.108-0.173
		c-0.574,0-0.881,0.294-0.928,0.589c-0.047,0.284,0.131,0.665,0.767,0.878c0.888,0.299,1.89,0.47,2.753,0.47
		c1.185,0,2.674-0.312,3.107-1.781c0.431,0.027,0.896,0.037,1.492,0.037c0.213,0,0.421,0,0.626-0.002l0.064,0.668
		c0.173,1.133,0.455,1.486,0.849,1.974c0.23,0.287,0.492,0.614,0.794,1.186l-0.418,8.022c0,2.244,0.849,3.382,2.523,3.382h2.479
		c2.383,0,3.028-4.394,3.132-5.234l0.255,0.062c1.771,0.529,5.069,1.517,8.228,1.517c2.798,0,6.687-0.918,8.465-1.344
		c0.237,1.599,1.568,5,3.34,5h2.385c1.863,0,3.38-1.517,3.38-3.382v-0.144l-1.631-3.53c0.392,0.03,0.772,0.045,1.136,0.045
		c3.248,0,5.688-1.121,7.896-3.627h3.164c1.22,0,2.212-0.994,2.212-2.214v-6.044C60.503,32.042,59.511,31.047,58.291,31.047z
		 M7.715,34.583c-0.287-0.208-0.557-0.597-0.804-1.144c-0.055-0.133-0.099-0.267-0.134-0.408c0.018,0.011,0.037,0.021,0.055,0.03
		c0.546,0.284,1.002,0.92,1.271,1.764C7.96,34.746,7.831,34.667,7.715,34.583z M31.074,13.035c2.241,0,4.062,1.821,4.062,4.062
		c0,2.239-1.821,4.062-4.062,4.062c-2.239,0-4.063-1.823-4.063-4.062C27.011,14.856,28.834,13.035,31.074,13.035z M35.383,24.576
		c-0.155,0.24-0.423,0.381-0.712,0.381c-0.161,0-0.319-0.045-0.455-0.131c-0.011-0.007-0.965-0.633-2.809-0.633
		c-1.138,0-2.362,0.243-3.639,0.715c-0.104,0.037-0.201,0.055-0.297,0.055c-0.352,0-0.668-0.223-0.792-0.552
		c-0.077-0.21-0.069-0.44,0.025-0.646c0.094-0.206,0.262-0.361,0.475-0.44c1.457-0.542,2.877-0.816,4.215-0.816
		c2.402,0,3.738,0.896,3.753,0.905C35.529,23.668,35.636,24.188,35.383,24.576z M52.097,32.388c-0.599,0-1.084-0.734-1.084-1.635
		c0-0.917,0.476-1.638,1.084-1.638c0.611,0,1.089,0.72,1.089,1.638C53.186,31.654,52.698,32.388,52.097,32.388z"/>
</g>
</svg>
