<?xml version="1.0" encoding="utf-8"?>
<!-- Generator: Adobe Illustrator 15.0.0, SVG Export Plug-In . SVG Version: 6.00 Build 0)  -->
<!DOCTYPE svg PUBLIC "-//W3C//DTD SVG 1.1//EN" "http://www.w3.org/Graphics/SVG/1.1/DTD/svg11.dtd">
<svg version="1.1" id="Layer_1" xmlns="http://www.w3.org/2000/svg" xmlns:xlink="http://www.w3.org/1999/xlink" x="0px" y="0px"
	 width="64px" height="64px" viewBox="0 0 64 64" enable-background="new 0 0 64 64" xml:space="preserve">
<g>
	<g>
		<g>
			<path fill="#010101" d="M55.191,18.001H54.37V6.84c0-1.991-1.619-3.607-3.607-3.607h-1.59l-0.175,0.013
				C36.924,5.24,8.782,13.635,8.506,13.717c-3.305,0.966-3.305,3.384-3.305,4.833v3.059v31.224v4.327
				c0,1.987,1.62,3.607,3.607,3.607h46.383c1.991,0,3.608-1.62,3.608-3.607v-8.632V34.141V21.609
				C58.8,19.618,57.183,18.001,55.191,18.001z M9.117,15.784c0.279-0.085,28.158-8.405,40.144-10.399h1.502
				c0.802,0,1.456,0.654,1.456,1.455v11.162H8.808c-0.519,0-1.009,0.115-1.452,0.312C7.359,17.091,7.461,16.267,9.117,15.784z
				 M56.647,46.38H42.489c-0.802,0-1.455-0.657-1.455-1.459v-7.173c0-0.802,0.653-1.455,1.455-1.455h14.158V46.38z"/>
		</g>
	</g>
	<g>
		<g>
			<circle fill="#010101" cx="44.74" cy="41.282" r="1.582"/>
		</g>
	</g>
</g>
</svg>
