<?xml version="1.0" encoding="utf-8"?>
<!-- Generator: Adobe Illustrator 15.0.0, SVG Export Plug-In . SVG Version: 6.00 Build 0)  -->
<!DOCTYPE svg PUBLIC "-//W3C//DTD SVG 1.1//EN" "http://www.w3.org/Graphics/SVG/1.1/DTD/svg11.dtd">
<svg version="1.1" id="Layer_1" xmlns="http://www.w3.org/2000/svg" xmlns:xlink="http://www.w3.org/1999/xlink" x="0px" y="0px"
	 width="64px" height="64px" viewBox="0 0 64 64" enable-background="new 0 0 64 64" xml:space="preserve">
<g>
	<g>
		<path d="M15.737,32.462c-2.353,0-4.265,1.911-4.265,4.262c0,2.353,1.912,4.268,4.265,4.268c2.35,0,4.265-1.915,4.265-4.268
			C20.001,34.373,18.087,32.462,15.737,32.462z"/>
	</g>
	<g>
		<path d="M15.737,47.366c-0.836,0-1.517,0.681-1.517,1.517s0.681,1.517,1.517,1.517c0.833,0,1.514-0.681,1.514-1.517
			S16.57,47.366,15.737,47.366z"/>
	</g>
	<g>
		<path d="M47.918,48.733c-2.203,0-4.288-1.058-6.202-3.153c-1.619-1.774-3.238-2.613-4.747-2.496
			c-1.716,0.128-3.005,1.443-3.516,2.061c1.54,3.724,5.211,6.354,9.484,6.354c2.929,0,5.565-1.239,7.436-3.213
			c-0.698,0.255-1.467,0.427-2.297,0.447C48.023,48.733,47.971,48.733,47.918,48.733z"/>
	</g>
	<g>
		<path d="M15.938,21.039l32.29-12.256c0.455,0.371,1.034,0.602,1.669,0.602c1.47,0,2.662-1.192,2.662-2.666
			c0-1.47-1.192-2.666-2.662-2.666c-1.474,0-2.666,1.196-2.666,2.666c0,0.105,0.021,0.202,0.032,0.304L10.341,21.039H2.864v38.907
			h58.271V21.039H15.938z M15.737,52.388c-1.932,0-3.504-1.573-3.504-3.505s1.572-3.502,3.504-3.502s3.501,1.57,3.501,3.502
			S17.669,52.388,15.737,52.388z M15.737,42.976c-3.446,0-6.252-2.803-6.252-6.252c0-3.443,2.806-6.25,6.252-6.25
			s6.249,2.806,6.249,6.25C21.986,40.173,19.183,42.976,15.737,42.976z M42.938,53.486c-6.755,0-12.25-5.498-12.25-12.253
			s5.495-12.25,12.25-12.25s12.25,5.495,12.25,12.25S49.692,53.486,42.938,53.486z"/>
	</g>
	<g>
		<path d="M47.658,41.833c-2.175,0-4.232-1.062-6.118-3.16c-1.587-1.769-3.139-2.607-4.639-2.49c-2.188,0.164-3.68,2.351-3.697,2.37
			l-0.138-0.09c-0.251,0.883-0.391,1.812-0.391,2.771c0,0.582,0.059,1.146,0.152,1.701c0.909-0.815,2.269-1.701,3.993-1.833
			c2.147-0.178,4.308,0.892,6.363,3.137c1.549,1.698,3.156,2.546,4.834,2.508c2.355-0.047,4.203-1.836,4.677-2.338
			c0.324-1,0.506-2.066,0.506-3.175c0-0.564-0.059-1.113-0.146-1.654c-1.049,0.924-2.911,2.201-5.243,2.254
			C47.758,41.833,47.708,41.833,47.658,41.833z"/>
	</g>
	<g>
		<path d="M42.938,30.971c-3.11,0-5.896,1.394-7.777,3.586c0.487-0.185,1.017-0.313,1.59-0.356c2.143-0.158,4.25,0.895,6.27,3.145
			c1.52,1.692,3.09,2.549,4.732,2.502c2.636-0.052,4.624-2.373,4.694-2.458C50.923,33.631,47.237,30.971,42.938,30.971z"/>
	</g>
</g>
</svg>
