<?xml version="1.0" encoding="utf-8"?>
<!-- Generator: Adobe Illustrator 15.0.0, SVG Export Plug-In . SVG Version: 6.00 Build 0)  -->
<!DOCTYPE svg PUBLIC "-//W3C//DTD SVG 1.1//EN" "http://www.w3.org/Graphics/SVG/1.1/DTD/svg11.dtd">
<svg version="1.1" id="Layer_1" xmlns="http://www.w3.org/2000/svg" xmlns:xlink="http://www.w3.org/1999/xlink" x="0px" y="0px"
	 width="64px" height="64px" viewBox="0 0 64 64" enable-background="new 0 0 64 64" xml:space="preserve">
<g>
	<g>
		<g>
			<path fill="#020202" d="M30.948,19.312c-0.013-1.351,0.614-2.405,1.22-3.429c0.807-1.354,1.636-2.756,1.058-4.684
				c-0.588-1.768-1.704-2.635-2.691-3.402c-1.327-1.032-2.285-1.778-1.786-4.604l0.043-0.242l-1.433-0.252l-0.043,0.241
				c-0.652,3.692,0.931,4.92,2.326,6.005c0.903,0.701,1.755,1.363,2.199,2.693c0.388,1.296-0.19,2.27-0.923,3.504
				c-0.68,1.146-1.448,2.438-1.43,4.17h-0.35c-6.811,0.019-14.534,0.041-14.534,26.062c0,11.604,9.326,15.929,15.207,15.929
				c5.876,0,15.204-4.325,15.204-15.929C45.014,19.917,37.636,19.345,30.948,19.312z M31.057,40.103v-2.378
				c0.827-0.168,1.446-0.899,1.446-1.757v-9.708c0-0.859-0.619-1.592-1.446-1.758v-2.926c5.496,0.013,10.636,0.246,11.74,15.764
				C41.646,37.917,37.172,39.954,31.057,40.103z M30.649,35.882c0,0.264-0.213,0.479-0.479,0.479h-0.723
				c-0.264,0-0.479-0.216-0.479-0.479v-9.491c0-0.264,0.216-0.479,0.479-0.479h0.723c0.267,0,0.479,0.216,0.479,0.479V35.882z
				 M29.082,24.5c-0.896,0.173-1.567,0.963-1.567,1.891v9.491c0,0.927,0.672,1.719,1.567,1.891v3.142
				c-4.394-0.101-8.693-1.119-12.784-3.03c1.205-16.87,6.802-17.107,12.784-17.12V24.5z"/>
		</g>
	</g>
	<g>
		<g>
			<path fill="#020202" d="M37.266,16.975l-0.238-0.055l-0.317,1.419l0.238,0.053c7.645,1.716,8.278,8.645,8.302,8.939l0.02,0.244
				l1.448-0.112L46.7,27.219C46.692,27.138,45.968,18.927,37.266,16.975z"/>
		</g>
	</g>
	<g>
		<g>
			<path fill="#020202" d="M49.379,24.54c-0.005-0.083-0.733-8.292-9.433-10.246l-0.238-0.053l-0.319,1.419l0.238,0.053
				c7.646,1.716,8.28,8.645,8.304,8.939l0.018,0.244l1.448-0.114L49.379,24.54z"/>
		</g>
	</g>
</g>
</svg>
