<?xml version="1.0" encoding="utf-8"?>
<!-- Generator: Adobe Illustrator 15.0.0, SVG Export Plug-In . SVG Version: 6.00 Build 0)  -->
<!DOCTYPE svg PUBLIC "-//W3C//DTD SVG 1.1//EN" "http://www.w3.org/Graphics/SVG/1.1/DTD/svg11.dtd">
<svg version="1.1" id="Layer_1" xmlns="http://www.w3.org/2000/svg" xmlns:xlink="http://www.w3.org/1999/xlink" x="0px" y="0px"
	 width="64px" height="64px" viewBox="0 0 64 64" enable-background="new 0 0 64 64" xml:space="preserve">
<g>
	<g>
		<path d="M57.482,43.296c1.54-3.455,2.399-7.277,2.399-11.296c0-3.807-0.768-7.437-2.157-10.746
			c1.846-2.006,0.27-6.468-3.727-10.462c-1.819-1.823-3.857-3.229-5.736-3.958c-1.816-0.707-3.346-0.717-4.375-0.049
			C40.278,5.077,36.25,4.118,32,4.118c-4.264,0-8.308,0.966-11.924,2.685c-1.032-0.689-2.571-0.684-4.407,0.03
			c-1.877,0.729-3.917,2.136-5.736,3.958c-4.032,4.029-5.605,8.54-3.68,10.52C4.879,24.605,4.118,28.215,4.118,32
			c0,4.019,0.862,7.841,2.399,11.296L6.31,43.088c-1.964,1.964-0.392,6.501,3.657,10.55c1.821,1.82,3.859,3.228,5.736,3.957
			c0.93,0.36,1.782,0.542,2.535,0.542c0.897,0,1.641-0.265,2.195-0.778c3.527,1.618,7.441,2.523,11.566,2.523
			c4.126,0,8.041-0.905,11.568-2.523c0.552,0.514,1.298,0.778,2.196,0.778c0.747,0,1.604-0.182,2.532-0.542
			c1.877-0.729,3.916-2.137,5.737-3.957c4.05-4.049,5.621-8.586,3.655-10.55L57.482,43.296z M11.081,11.94
			c1.667-1.666,3.505-2.942,5.177-3.592c0.628-0.245,1.201-0.379,1.693-0.416c-4.639,2.718-8.421,6.734-10.853,11.551
			C6.82,17.921,8.21,14.81,11.081,11.94z M16.292,56.081c-1.673-0.652-3.51-1.927-5.177-3.594c-3.027-3.025-4.413-6.328-3.922-7.787
			c2.556,4.975,6.559,9.088,11.457,11.77C18.054,56.574,17.235,56.447,16.292,56.081z M19.363,38.732l0.767,1.033l-9.37,1.857
			l-0.275-0.563c-1.253-2.562-1.891-5.315-1.891-8.18c0-2.864,0.637-5.615,1.891-8.181l0.275-0.561l9.37,1.857l-0.767,1.031
			c-1.274,1.714-1.947,3.738-1.947,5.853C17.417,34.995,18.089,37.02,19.363,38.732z M40.181,53.681
			c-2.563,1.255-5.315,1.893-8.181,1.893s-5.617-0.638-8.179-1.893l-0.561-0.273l1.857-9.373l1.031,0.767
			c1.714,1.275,3.739,1.95,5.852,1.95c2.115,0,4.138-0.675,5.854-1.95l1.031-0.767l1.856,9.373L40.181,53.681z M38.886,20.298
			l-1.032-0.769c-1.715-1.275-3.738-1.948-5.852-1.948c-2.116,0-4.139,0.673-5.852,1.948l-1.032,0.769l-1.857-9.372l0.561-0.276
			c2.563-1.256,5.314-1.892,8.181-1.892c2.864,0,5.616,0.636,8.179,1.892l0.561,0.276L38.886,20.298z M47.674,8.348
			c1.673,0.65,3.511,1.927,5.177,3.592c2.809,2.808,4.205,5.853,4.003,7.444c-2.432-4.768-6.189-8.746-10.791-11.446
			C46.536,7.984,47.079,8.117,47.674,8.348z M44.635,27.028l-0.766-1.031l9.374-1.857l0.272,0.561
			c1.256,2.564,1.893,5.317,1.893,8.181c0,2.861-0.637,5.612-1.892,8.18l-0.273,0.563l-9.374-1.857l0.768-1.033
			c1.274-1.713,1.949-3.737,1.949-5.852C46.586,30.767,45.911,28.742,44.635,27.028z M52.885,52.487
			c-1.665,1.667-3.504,2.941-5.177,3.594c-0.943,0.366-1.762,0.493-2.356,0.389c4.897-2.682,8.9-6.795,11.459-11.77
			C57.299,46.159,55.913,49.462,52.885,52.487z"/>
	</g>
</g>
</svg>
