<?xml version="1.0" encoding="utf-8"?>
<!-- Generator: Adobe Illustrator 15.0.0, SVG Export Plug-In . SVG Version: 6.00 Build 0)  -->
<!DOCTYPE svg PUBLIC "-//W3C//DTD SVG 1.1//EN" "http://www.w3.org/Graphics/SVG/1.1/DTD/svg11.dtd">
<svg version="1.1" id="Layer_1" xmlns="http://www.w3.org/2000/svg" xmlns:xlink="http://www.w3.org/1999/xlink" x="0px" y="0px"
	 width="64px" height="64px" viewBox="0 0 64 64" enable-background="new 0 0 64 64" xml:space="preserve">
<g>
	<g>
		<path fill="#020202" d="M32.003,2.912c-16.042,0-29.092,13.047-29.092,29.086c0,16.041,13.05,29.089,29.092,29.089
			c16.039,0,29.087-13.049,29.087-29.089C61.09,15.959,48.042,2.912,32.003,2.912z M32.003,56.796
			c-13.672,0-24.797-11.125-24.797-24.797c0-13.671,11.125-24.794,24.797-24.794c13.671,0,24.794,11.124,24.794,24.794
			C56.797,45.671,45.674,56.796,32.003,56.796z"/>
	</g>
	<g>
		<path fill="#020202" d="M32,10.458c-1.183,0-2.146,0.963-2.146,2.146v17.249H14.57c-1.184,0-2.146,0.964-2.146,2.149
			c0,1.183,0.963,2.146,2.146,2.146H32c1.184,0,2.146-0.963,2.146-2.146V12.604C34.146,11.42,33.184,10.458,32,10.458z"/>
	</g>
</g>
</svg>
