<?xml version="1.0" encoding="utf-8"?>
<!-- Generator: Adobe Illustrator 15.0.0, SVG Export Plug-In . SVG Version: 6.00 Build 0)  -->
<!DOCTYPE svg PUBLIC "-//W3C//DTD SVG 1.1//EN" "http://www.w3.org/Graphics/SVG/1.1/DTD/svg11.dtd">
<svg version="1.1" id="Layer_1" xmlns="http://www.w3.org/2000/svg" xmlns:xlink="http://www.w3.org/1999/xlink" x="0px" y="0px"
	 width="64px" height="64px" viewBox="0 0 64 64" enable-background="new 0 0 64 64" xml:space="preserve">
<g>
	<path fill="#020202" d="M59.664,3.918h-0.835H5.171H4.335H3.5v56.165h57V3.918H59.664z M14.551,6.64v7.053H7.057V6.64H14.551z
		 M14.551,17.25v7.15H7.057v-7.15H14.551z M14.551,27.955v7.517H7.057v-7.517H14.551z M14.551,39.028v6.636H7.057v-6.636H14.551z
		 M14.551,49.221v7.305H7.057v-7.305H14.551z M56.942,6.64v7.053H18.106V6.64H56.942z M56.942,17.25v7.15H18.106v-7.15H56.942z
		 M56.942,27.955v7.517H18.106v-7.517H56.942z M56.942,39.028v6.636H18.106v-6.636H56.942z M56.942,49.221v7.305H18.106v-7.305
		H56.942z"/>
</g>
</svg>
