<?xml version="1.0" encoding="utf-8"?>
<!-- Generator: Adobe Illustrator 15.0.0, SVG Export Plug-In . SVG Version: 6.00 Build 0)  -->
<!DOCTYPE svg PUBLIC "-//W3C//DTD SVG 1.1//EN" "http://www.w3.org/Graphics/SVG/1.1/DTD/svg11.dtd">
<svg version="1.1" id="Layer_1" xmlns="http://www.w3.org/2000/svg" xmlns:xlink="http://www.w3.org/1999/xlink" x="0px" y="0px"
	 width="64px" height="64px" viewBox="0 0 64 64" enable-background="new 0 0 64 64" xml:space="preserve">
<g>
	<g>
		<path d="M32.391,22.991l8.501,8.504l0.012-0.01l-0.01,0.011l-0.002,0l0.043,0.076l1.4,1.401l16.877-16.877
			c0.803-0.804,0.803-2.115-0.002-2.919l-8.499-8.502c-0.808-0.806-2.118-0.805-2.92,0L30.914,21.551l1.455,1.459L32.391,22.991z
			 M51.444,11.286c0.51-0.515,1.406-0.517,1.922-0.002l3.517,3.515l-1.918,1.922l-3.521-3.514
			C50.917,12.676,50.919,11.815,51.444,11.286z M48.626,14.104c0.503-0.507,1.402-0.513,1.919,0.002l3.519,3.515l-1.925,1.924
			l-3.515-3.517c-0.257-0.257-0.398-0.6-0.398-0.963S48.369,14.36,48.626,14.104z M45.52,17.208
			c0.513-0.517,1.422-0.516,1.932,0.004l3.511,3.51l-1.924,1.921l-3.517-3.514C44.994,18.594,44.995,17.735,45.52,17.208z
			 M40.05,17.776c0.516-0.515,1.414-0.515,1.926,0.005l5.965,5.962l-1.923,1.923l-5.967-5.968
			C39.522,19.169,39.522,18.307,40.05,17.776z M39.11,23.618c0.514-0.511,1.407-0.512,1.921,0.001l3.518,3.515l-1.925,1.925
			l-3.518-3.517c-0.257-0.257-0.398-0.599-0.396-0.962C38.71,24.215,38.853,23.874,39.11,23.618z"/>
	</g>
	<g>
		<path d="M54.019,46.651L40.921,33.554l0.002-0.001L12.803,5.434c-0.92-0.92-2.419-0.92-3.339-0.001l-4.588,4.59
			c-0.92,0.921-0.92,2.418,0,3.337l27.076,27.077l-0.001,0.002l14.141,14.141c0.19,0.188,0.633,0.63,12.073,5.264
			c0.448,0.184,0.963,0.072,1.296-0.276c0.336-0.352,0.422-0.87,0.221-1.309C54.632,47.262,54.187,46.816,54.019,46.651z
			 M11.699,16.845l-5.155-5.152l4.588-4.589l5.152,5.152L11.699,16.845z M48.923,53.419l3.985-3.985
			c0.761,1.526,2.047,4.242,3.372,7.094C53.335,55.315,50.515,54.132,48.923,53.419z"/>
	</g>
	<g>
		<path d="M30.426,41.965l0.018-0.021l0.001,0.001l0.013-0.013l-8.504-8.506l-0.013,0.013l-1.457-1.458L5.733,46.729
			c-0.804,0.804-0.804,2.114,0.001,2.918l8.502,8.501c0.804,0.808,2.113,0.807,2.92,0l14.749-14.747l-1.46-1.457L30.426,41.965z
			 M16.801,54.608l-5.971-5.963c-0.522-0.537-0.521-1.394-0.005-1.918c0.521-0.524,1.424-0.521,1.935,0l5.963,5.963L16.801,54.608z
			 M20.279,51.133l-3.273-3.27c-0.531-0.529-0.532-1.392-0.003-1.924c0.521-0.518,1.411-0.514,1.925,0l2.675,2.675l0.626,0.57
			L20.279,51.133z M23.377,48.034l-3.271-3.272c-0.255-0.254-0.399-0.596-0.399-0.96s0.142-0.707,0.4-0.964
			c0.514-0.515,1.408-0.513,1.922,0l3.271,3.273L23.377,48.034z M26.201,45.211l-3.273-3.271c-0.525-0.532-0.525-1.393-0.003-1.92
			c0.524-0.521,1.413-0.516,1.927-0.003l3.271,3.272L26.201,45.211z"/>
	</g>
</g>
</svg>
