<?xml version="1.0" encoding="utf-8"?>
<!-- Generator: Adobe Illustrator 15.0.0, SVG Export Plug-In . SVG Version: 6.00 Build 0)  -->
<!DOCTYPE svg PUBLIC "-//W3C//DTD SVG 1.1//EN" "http://www.w3.org/Graphics/SVG/1.1/DTD/svg11.dtd">
<svg version="1.1" id="Layer_1" xmlns="http://www.w3.org/2000/svg" xmlns:xlink="http://www.w3.org/1999/xlink" x="0px" y="0px"
	 width="64px" height="64px" viewBox="0 0 64 64" enable-background="new 0 0 64 64" xml:space="preserve">
<g>
	<path fill="#010101" d="M58.666,47.7c0,0-0.716-1.774-0.768-1.876c-0.051-0.098-4.897-9.623-3.598-16.654
		c1.478,0.167,2.167-0.341,2.439-0.774c1.356-2.154-3.197-5.834-6.105-7.667c-2.971-1.872-5.924-3.036-7.703-3.036
		c-1.1,0-1.613,0.449-1.854,0.826c-0.535,0.854-0.19,2.018,1.021,3.465c-0.027,5.196,1.339,11.692,1.403,11.987
		c0.02,0.095,0.539,2.321,0.932,3.402l2.793,7.219l1.814,4.032c-0.184,0.417-0.628,1.2-1.418,1.2c-0.236,0-0.496-0.058-0.783-0.178
		l-8.458-18.804l0.276-0.123c0.092-0.044,0.153-0.123,0.194-0.209l0.689,1.543l1.44-0.642l-1.632-3.659l-1.443,0.645l0.689,1.54
		c-0.093-0.024-0.192-0.035-0.287,0.009l-0.276,0.127l-1.663-3.694l0.29-0.126c0.092-0.044,0.153-0.125,0.195-0.209l0.689,1.54
		l1.443-0.646l-1.636-3.656l-1.44,0.645l0.687,1.543c-0.092-0.026-0.19-0.034-0.287,0.008l-0.287,0.129l-1.61-3.581l0.301-0.133
		c0.092-0.045,0.153-0.123,0.193-0.208l0.689,1.539l1.441-0.642l-1.632-3.655l-1.443,0.645l0.689,1.543
		c-0.092-0.027-0.191-0.037-0.284,0.008l-0.304,0.132l-1.646-3.651l0.312-0.141c0.095-0.04,0.157-0.123,0.198-0.208l0.659,1.471
		l1.44-0.642l-1.633-3.66l-1.443,0.646l0.72,1.614c-0.092-0.026-0.192-0.034-0.287,0.007l-0.311,0.14L26.454,4.339
		c-0.089-0.198-0.257-0.338-0.452-0.416c-0.444-0.341-1.614-1.11-3.112-1.11c-1.746,0-4.227,1.055-6.138,6.087l-0.229,0.611
		c-0.625,1.706-1.789,4.884-3.41,5.91c-1.755,1.098-5.374,2.211-7.941,2.826c-0.236,0.057-0.435,0.21-0.547,0.422
		c-0.115,0.212-0.133,0.464-0.047,0.692l0.106,0.284c0.123,0.335,0.438,0.556,0.792,0.556h0.006
		c1.677-0.017,6.992-0.344,9.375-1.624c1.557-0.84,4.08-3.584,5.424-5.121l19.268,42.817c1.424,3.165,4.107,4.913,7.559,4.913
		c1.755,0,3.622-0.442,5.551-1.306C58.551,57.223,60.848,52.543,58.666,47.7z M47.808,25.002c-3.194-2.053-5.276-4.513-4.646-5.495
		c0.629-0.981,3.733-0.114,6.931,1.939c3.195,2.053,5.276,4.513,4.646,5.495C54.107,27.922,51.005,27.053,47.808,25.002z"/>
</g>
</svg>
