<?xml version="1.0" encoding="utf-8"?>
<!-- Generator: Adobe Illustrator 15.0.0, SVG Export Plug-In . SVG Version: 6.00 Build 0)  -->
<!DOCTYPE svg PUBLIC "-//W3C//DTD SVG 1.1//EN" "http://www.w3.org/Graphics/SVG/1.1/DTD/svg11.dtd">
<svg version="1.1" id="Layer_1" xmlns="http://www.w3.org/2000/svg" xmlns:xlink="http://www.w3.org/1999/xlink" x="0px" y="0px"
	 width="64px" height="64px" viewBox="0 0 64 64" enable-background="new 0 0 64 64" xml:space="preserve">
<g>
	<g>
		<path fill="#020202" d="M4.376,34.796l0.001,12.096l2.38,0.001v-5.649c0-0.328,0.265-0.594,0.595-0.595
			c0.33,0.001,0.596,0.267,0.593,0.594v5.649l2.06-0.002l-0.001-5.646c0.001-0.328,0.267-0.594,0.595-0.594
			c0.328-0.001,0.595,0.266,0.595,0.595v5.647l2.147,0.001l0.001-5.648c-0.001-0.33,0.265-0.596,0.596-0.595
			c0.327,0,0.593,0.266,0.593,0.594v5.646l1.606,0.002l-0.001-8.354c0.001-0.328,0.266-0.593,0.595-0.594
			c0.328,0,0.596,0.266,0.596,0.593v8.356l2.329-0.001l-0.002-5.379c0.001-0.329,0.266-0.595,0.593-0.594
			c0.33,0.001,0.597,0.265,0.596,0.595v5.376l2.061,0.002L22.9,41.513c0-0.327,0.266-0.594,0.596-0.593
			c0.326-0.001,0.593,0.267,0.593,0.594l-0.001,5.379l2.148-0.001l0.001-5.378c0.001-0.33,0.265-0.596,0.592-0.594
			c0.331-0.002,0.597,0.264,0.596,0.593l0.001,5.379h2.596v-8.355c0.001-0.327,0.268-0.592,0.596-0.592
			c0.329-0.001,0.595,0.264,0.595,0.592v8.355h2.352l0.001-5.648c0-0.328,0.267-0.594,0.595-0.595
			c0.329-0.001,0.595,0.266,0.596,0.595l-0.001,5.648h2.057l0.003-5.648c-0.003-0.329,0.263-0.596,0.592-0.594
			c0.33-0.001,0.595,0.265,0.595,0.594v5.649h2.148l-0.001-5.649c0.001-0.329,0.268-0.595,0.595-0.594
			c0.33,0,0.596,0.266,0.596,0.594l-0.001,5.648h1.608l-0.002-8.354c0.001-0.328,0.266-0.593,0.596-0.594
			c0.328,0,0.593,0.265,0.596,0.594l-0.001,8.353l2.327,0.003l0.001-5.378c-0.001-0.329,0.266-0.596,0.595-0.595
			c0.327,0,0.594,0.266,0.592,0.594v5.378h2.058v-5.378c0.001-0.328,0.268-0.594,0.597-0.596c0.327,0.001,0.594,0.269,0.595,0.596
			v5.378l2.147,0.001l0.001-5.379c-0.001-0.331,0.263-0.595,0.594-0.594c0.328-0.001,0.595,0.264,0.593,0.594l0.002,5.379
			l2.597-0.001l0.002-8.354c-0.002-0.329,0.267-0.593,0.593-0.593c0.33-0.001,0.595,0.265,0.594,0.593l0.001,8.354l1.602,0.001
			V34.795L4.376,34.796z"/>
	</g>
	<g>
		<path fill="#020202" d="M31.619,22.313c5.987,0,10.873,4.755,11.109,10.688h5.579c-0.24-8.804-7.458-15.894-16.316-15.894
			s-16.077,7.09-16.319,15.892h4.837C20.745,27.067,25.631,22.313,31.619,22.313z"/>
	</g>
</g>
</svg>
