<?xml version="1.0" encoding="utf-8"?>
<!-- Generator: Adobe Illustrator 15.0.0, SVG Export Plug-In . SVG Version: 6.00 Build 0)  -->
<!DOCTYPE svg PUBLIC "-//W3C//DTD SVG 1.1//EN" "http://www.w3.org/Graphics/SVG/1.1/DTD/svg11.dtd">
<svg version="1.1" id="Layer_1" xmlns="http://www.w3.org/2000/svg" xmlns:xlink="http://www.w3.org/1999/xlink" x="0px" y="0px"
	 width="64px" height="64px" viewBox="0 0 64 64" enable-background="new 0 0 64 64" xml:space="preserve">
<g>
	<g>
		<path d="M59.623,36.104l-6.91-21.209l-19.617-3.768V9.358c0-0.584-0.472-1.058-1.057-1.058c-0.584,0-1.057,0.474-1.057,1.058
			v1.363L11.091,6.9L4.368,30.688l0.5,0.14H4.275c0,3.385,3.613,6.135,8.052,6.135c4.2,0,7.885-2.986,8.037-6.443l0.037-0.012
			l-0.03-0.095c0.001-0.038,0.008-0.076,0.008-0.113h-0.044L13.749,9.565l17.233,3.31v38.449H19.896L16.418,57.1h30.489
			l-2.642-5.775h-11.17V13.281l16.266,3.124l-4.59,20.229h-0.027c0,3.382,3.359,6.136,7.491,6.136c3.989,0,7.489-3.116,7.489-6.665
			H59.623z"/>
	</g>
</g>
</svg>
