<?xml version="1.0" encoding="utf-8"?>
<!-- Generator: Adobe Illustrator 15.0.0, SVG Export Plug-In . SVG Version: 6.00 Build 0)  -->
<!DOCTYPE svg PUBLIC "-//W3C//DTD SVG 1.1//EN" "http://www.w3.org/Graphics/SVG/1.1/DTD/svg11.dtd">
<svg version="1.1" id="Layer_1" xmlns="http://www.w3.org/2000/svg" xmlns:xlink="http://www.w3.org/1999/xlink" x="0px" y="0px"
	 width="64px" height="64px" viewBox="0 0 64 64" enable-background="new 0 0 64 64" xml:space="preserve">
<g>
	<g>
		<path fill="#020202" d="M12.381,1.383l50.236,50.233l-11,11L50.16,61.16l7.594-7.598c0.302-0.298,0.302-0.781,0-1.079
			c-0.298-0.298-0.781-0.301-1.079,0l-7.597,7.594l-2.363-2.36l4.893-4.893c0.298-0.298,0.298-0.781,0-1.079
			c-0.302-0.301-0.781-0.301-1.079,0l-4.893,4.89l-1.953-1.953l4.893-4.89c0.294-0.298,0.294-0.784,0-1.082
			c-0.302-0.298-0.785-0.298-1.086,0L42.6,53.6l-1.87-1.871l4.89-4.889c0.301-0.298,0.301-0.781,0-1.079
			c-0.298-0.302-0.781-0.302-1.079,0l-4.893,4.889l-2.112-2.118l7.594-7.594c0.298-0.301,0.298-0.784,0-1.082
			c-0.301-0.298-0.781-0.298-1.082,0l-7.594,7.597l-1.464-1.463l5.138-5.135c0.298-0.298,0.298-0.781-0.003-1.082
			c-0.295-0.298-0.778-0.298-1.079,0L33.91,44.91l-1.954-1.953l5.135-5.138c0.301-0.298,0.301-0.781,0-1.079
			c-0.298-0.302-0.781-0.302-1.079,0l-5.137,5.134l-1.87-1.87l5.137-5.134c0.298-0.302,0.298-0.785,0-1.083
			c-0.302-0.298-0.784-0.298-1.082,0l-5.137,5.135l-2.139-2.139l7.597-7.597c0.298-0.298,0.296-0.781-0.003-1.079
			s-0.782-0.298-1.08-0.003l-7.597,7.598l-2.36-2.36l4.889-4.893c0.299-0.298,0.299-0.781-0.003-1.079
			c-0.294-0.301-0.778-0.298-1.078,0l-4.891,4.889l-1.955-1.953l4.892-4.889c0.296-0.298,0.296-0.785,0-1.08
			c-0.299-0.301-0.783-0.301-1.081-0.003l-4.889,4.893l-1.872-1.874l4.888-4.889c0.301-0.298,0.298-0.781,0-1.083
			c-0.296-0.298-0.78-0.298-1.079,0l-4.889,4.893l-2.117-2.115l7.597-7.597c0.296-0.298,0.296-0.785-0.001-1.083
			c-0.3-0.298-0.783-0.298-1.083,0l-7.594,7.597l-1.46-1.463l5.134-5.134c0.298-0.298,0.298-0.781,0-1.079
			c-0.3-0.301-0.783-0.301-1.083,0l-5.136,5.134L7.582,18.58l5.134-5.134c0.3-0.301,0.3-0.784,0-1.083
			c-0.298-0.298-0.781-0.298-1.081,0l-5.133,5.134l-1.874-1.87l5.136-5.138c0.3-0.294,0.3-0.778,0-1.079
			c-0.299-0.298-0.783-0.298-1.081,0l-5.138,5.138l-2.162-2.165L12.381,1.383z"/>
	</g>
</g>
</svg>
