<?xml version="1.0" encoding="utf-8"?>
<!-- Generator: Adobe Illustrator 15.0.0, SVG Export Plug-In . SVG Version: 6.00 Build 0)  -->
<!DOCTYPE svg PUBLIC "-//W3C//DTD SVG 1.1//EN" "http://www.w3.org/Graphics/SVG/1.1/DTD/svg11.dtd">
<svg version="1.1" id="Layer_1" xmlns="http://www.w3.org/2000/svg" xmlns:xlink="http://www.w3.org/1999/xlink" x="0px" y="0px"
	 width="64px" height="64px" viewBox="0 0 64 64" enable-background="new 0 0 64 64" xml:space="preserve">
<g>
	<path fill="#231F20" d="M52.274,15.422l-7.621,7.622H28.596l6.973-6.973l-1.662-1.665l-5.353,5.353V3.807h-2.352v15.953
		l-5.352-5.352l-1.665,1.662l6.974,6.974H3.048l7.068,10.407h24.407v1.954H11.442l6.608,9.675h19.844l-2.043,6.641H19.715v0.033
		c-2.181,0.168-3.911,1.977-3.911,4.202c0,2.337,1.9,4.237,4.237,4.237c2.334,0,4.235-1.9,4.235-4.237
		c0-0.84-0.253-1.621-0.677-2.281h7.072c-0.424,0.66-0.678,1.441-0.678,2.281c0,2.337,1.901,4.237,4.238,4.237
		c2.334,0,4.235-1.9,4.235-4.237c0-1.048-0.396-1.997-1.029-2.738l8.974-29.167l6.674-6.673h7.868v-1.956H52.274z M20.041,58.237
		c-1.258,0-2.281-1.022-2.281-2.281c0-1.256,1.023-2.281,2.281-2.281c1.257,0,2.28,1.025,2.28,2.281
		C22.321,57.215,21.298,58.237,20.041,58.237z M34.23,58.237c-1.259,0-2.281-1.022-2.281-2.281c0-1.256,1.022-2.281,2.281-2.281
		c1.257,0,2.281,1.025,2.281,2.281C36.512,57.215,35.487,58.237,34.23,58.237z"/>
</g>
</svg>
