<?xml version="1.0" encoding="utf-8"?>
<!-- Generator: Adobe Illustrator 15.0.0, SVG Export Plug-In . SVG Version: 6.00 Build 0)  -->
<!DOCTYPE svg PUBLIC "-//W3C//DTD SVG 1.1//EN" "http://www.w3.org/Graphics/SVG/1.1/DTD/svg11.dtd">
<svg version="1.1" id="Layer_1" xmlns="http://www.w3.org/2000/svg" xmlns:xlink="http://www.w3.org/1999/xlink" x="0px" y="0px"
	 width="64px" height="64px" viewBox="0 0 64 64" enable-background="new 0 0 64 64" xml:space="preserve">
<g>
	<path fill="#231F20" d="M52.73,11.838l-7.793,7.794H28.476v-8.646l5.472,5.472l1.702-1.699l-8.376-8.376l-8.375,8.375l1.699,1.702
		l5.473-5.473v8.646H2.396l7.227,10.643h24.956v1.998h-23.6l6.757,9.893h20.291l-2.089,6.79h-16.5v0.034
		c-2.23,0.171-3.999,2.021-3.999,4.296c0,2.39,1.943,4.333,4.333,4.333c2.387,0,4.331-1.943,4.331-4.333
		c0-0.858-0.26-1.657-0.693-2.332h7.231c-0.434,0.675-0.693,1.474-0.693,2.332c0,2.39,1.943,4.333,4.333,4.333
		c2.388,0,4.33-1.943,4.33-4.333c0-1.071-0.404-2.042-1.052-2.799l9.176-29.824l6.823-6.824h8.046v-2H52.73z M19.772,55.618
		c-1.287,0-2.333-1.046-2.333-2.333c0-1.284,1.046-2.332,2.333-2.332c1.286,0,2.331,1.048,2.331,2.332
		C22.103,54.572,21.058,55.618,19.772,55.618z M34.28,55.618c-1.286,0-2.332-1.046-2.332-2.333c0-1.284,1.046-2.332,2.332-2.332
		s2.333,1.048,2.333,2.332C36.613,54.572,35.566,55.618,34.28,55.618z"/>
</g>
</svg>
