<?xml version="1.0" encoding="utf-8"?>
<!-- Generator: Adobe Illustrator 15.0.0, SVG Export Plug-In . SVG Version: 6.00 Build 0)  -->
<!DOCTYPE svg PUBLIC "-//W3C//DTD SVG 1.1//EN" "http://www.w3.org/Graphics/SVG/1.1/DTD/svg11.dtd">
<svg version="1.1" id="Layer_1" xmlns="http://www.w3.org/2000/svg" xmlns:xlink="http://www.w3.org/1999/xlink" x="0px" y="0px"
	 width="64px" height="64px" viewBox="0 0 64 64" enable-background="new 0 0 64 64" xml:space="preserve">
<g>
	<g>
		<path fill="#020202" d="M52.425,9.447l-7.678,7.679H2.833l7.121,10.486h15.898l-3.984-3.985l1.681-1.682l4.916,4.916l4.914-4.916
			l1.681,1.682l-3.984,3.985h3.465v1.968h-3.358l3.876,3.875l-1.681,1.682l-4.914-4.916l-4.916,4.916l-1.681-1.682l3.876-3.875
			H11.289l6.658,9.747h19.992l-2.058,6.69H19.624v0.033c-2.197,0.168-3.94,1.991-3.94,4.232c0,2.354,1.915,4.27,4.269,4.27
			c2.352,0,4.267-1.915,4.267-4.27c0-0.846-0.256-1.633-0.683-2.298h7.125c-0.427,0.665-0.683,1.452-0.683,2.298
			c0,2.354,1.915,4.27,4.269,4.27c2.352,0,4.267-1.915,4.267-4.27c0-1.056-0.399-2.012-1.037-2.758l9.04-29.384l6.724-6.723h7.927
			V9.447H52.425z M19.952,52.582c-1.268,0-2.298-1.03-2.298-2.299c0-1.265,1.03-2.298,2.298-2.298c1.267,0,2.297,1.033,2.297,2.298
			C22.249,51.552,21.219,52.582,19.952,52.582z M34.247,52.582c-1.268,0-2.298-1.03-2.298-2.299c0-1.265,1.031-2.298,2.298-2.298
			c1.267,0,2.298,1.033,2.298,2.298C36.545,51.552,35.514,52.582,34.247,52.582z"/>
	</g>
</g>
</svg>
