<?xml version="1.0" encoding="utf-8"?>
<!-- Generator: Adobe Illustrator 16.0.4, SVG Export Plug-In . SVG Version: 6.00 Build 0)  -->
<!DOCTYPE svg PUBLIC "-//W3C//DTD SVG 1.1//EN" "http://www.w3.org/Graphics/SVG/1.1/DTD/svg11.dtd">
<svg version="1.1" id="Layer_1" xmlns="http://www.w3.org/2000/svg" xmlns:xlink="http://www.w3.org/1999/xlink" x="0px" y="0px"
	 width="64px" height="64px" viewBox="0 0 64 64" enable-background="new 0 0 64 64" xml:space="preserve">
<g>
	<path d="M14.248,23.097l-0.088,1.358l4.991,0.323l0.01-0.164l-4.452-4.452C14.474,21.115,14.313,22.094,14.248,23.097z"/>
</g>
<g>
	<path d="M29.124,11.773c1.858-0.632,3.733-0.953,5.574-0.953c3.405,0,6.354,1.133,8.095,3.108c3.068,3.492,2.676,9.693-1.105,17.47
		c-0.717,1.013-1.328,2.073-1.901,3.145l3.708,3.707c0.712-1.465,1.497-2.893,2.441-4.203l0.151-0.261
		c6.168-12.554,3.654-19.522,0.458-23.158C43.863,7.58,39.533,5.83,34.665,5.83c-2.387,0-4.791,0.408-7.151,1.211
		c-3.755,1.279-6.88,3.399-9.16,6.072l3.554,3.554C23.846,14.278,26.556,12.648,29.124,11.773z"/>
</g>
<g>
	<path d="M22.148,53.154c-0.794-0.629-1.042-1.408-1.374-2.445c-0.517-1.613-1.478-4.613-5.871-4.613h-0.001h-1.376l0.041,3.65
		l0.143,1.377l1.376-0.03c0.363-0.003,0.512,0.036,0.511,0.03c0.104,0.136,0.274,0.667,0.406,1.078
		c1.566,5.388,4.219,5.97,5.289,5.97l0.207-0.006l0.517,0.003l0,0c11.371,0,15.378-6.184,18.214-12.484l-3.801-3.802
		C33.714,48.139,31.011,52.91,22.148,53.154z"/>
</g>
<g>
	<path d="M33.482,20.939c0.401,0,0.797,0.016,1.17,0.03c0.357,0.013,0.697,0.025,1.005,0.025c0.622,0,2.518,0,2.721-1.656
		c0.045-0.338-0.012-0.859-0.511-1.425c-1.012-1.142-3.87-2.365-6.519-2.365c-2.086,0-3.719,0.736-4.727,2.13
		c-0.532,0.734-0.865,1.636-1.013,2.69l3.796,3.795c0.021-0.424,0.065-0.868,0.167-1.364C30.107,21.462,31.213,20.939,33.482,20.939
		z"/>
</g>
<g>
	<path d="M28.188,34.996c-0.087-0.051-0.196-0.118-0.328-0.213c-2.226-1.59-4.625-0.805-5.98,1.904
		c-0.969,1.938-1.406,4.84-0.378,6.207c1.524,1.778,3.093,2.15,4.141,2.15c1.634,0,3.297-0.891,4.684-2.505
		c1.09-1.271,1.889-2.839,2.331-4.433l-4.532-4.53C28.2,34.189,28.226,34.684,28.188,34.996z"/>
</g>
<path d="M59.542,57.402l-2.139,2.139L4.458,6.596l2.139-2.139L59.542,57.402z"/>
</svg>
