<?xml version="1.0" encoding="utf-8"?>
<!-- Generator: Adobe Illustrator 15.0.0, SVG Export Plug-In . SVG Version: 6.00 Build 0)  -->
<!DOCTYPE svg PUBLIC "-//W3C//DTD SVG 1.1//EN" "http://www.w3.org/Graphics/SVG/1.1/DTD/svg11.dtd">
<svg version="1.1" id="Layer_1" xmlns="http://www.w3.org/2000/svg" xmlns:xlink="http://www.w3.org/1999/xlink" x="0px" y="0px"
	 width="64px" height="64px" viewBox="0 0 64 64" enable-background="new 0 0 64 64" xml:space="preserve">
<g>
	<path d="M58.21,37.599c0.355-1.745,0.537-3.531,0.537-5.317c0-14.588-11.872-26.457-26.464-26.457
		c-1.373,0-2.759,0.108-4.125,0.321c-2.433-1.449-5.208-2.212-8.053-2.212c-8.708,0-15.793,7.085-15.793,15.795
		c0,2.67,0.682,5.299,1.969,7.631c-0.303,1.608-0.458,3.263-0.458,4.922c0,14.594,11.872,26.464,26.46,26.464
		c1.501,0,3.006-0.129,4.48-0.379c2.199,1.113,4.659,1.7,7.135,1.7c8.708,0,15.79-7.083,15.79-15.791
		C59.688,41.938,59.191,39.695,58.21,37.599z M43.718,43.363c-0.988,1.396-2.473,2.516-4.422,3.323
		c-2.021,0.84-4.471,1.267-7.283,1.267c-3.365,0-6.15-0.576-8.284-1.706c-1.468-0.791-2.676-1.863-3.588-3.182
		c-0.876-1.263-1.32-2.478-1.32-3.616c0-0.451,0.165-0.818,0.521-1.152c0.378-0.357,0.849-0.523,1.481-0.523
		c0.474,0,0.836,0.118,1.132,0.368c0.382,0.324,0.728,0.85,1.031,1.561c0.507,1.164,1.066,2.15,1.659,2.931
		c0.668,0.884,1.597,1.613,2.766,2.166c1.149,0.543,2.637,0.819,4.418,0.819c2.45,0,4.495-0.548,6.075-1.629
		c1.741-1.186,2.627-2.727,2.627-4.58c0-1.477-0.514-2.706-1.524-3.657c-0.872-0.813-2.005-1.445-3.368-1.877
		c-1.228-0.382-2.848-0.783-4.81-1.195c-2.519-0.538-4.652-1.173-6.344-1.89c-1.558-0.662-2.802-1.567-3.697-2.687
		c-0.843-1.059-1.271-2.413-1.271-4.028c0-1.536,0.461-2.914,1.373-4.099c0.938-1.225,2.341-2.188,4.168-2.859
		c1.916-0.711,4.224-1.07,6.861-1.07c2.087,0,3.912,0.237,5.419,0.703c1.472,0.458,2.703,1.065,3.647,1.806
		c0.936,0.728,1.613,1.482,2.019,2.237c0.392,0.731,0.593,1.434,0.593,2.089c0,0.466-0.182,0.869-0.566,1.27
		c-0.372,0.387-0.81,0.568-1.38,0.568c-0.487,0-0.872-0.092-1.053-0.25c-0.228-0.204-0.616-0.64-1.14-1.539
		c-0.747-1.424-1.676-2.562-2.752-3.383c-1.173-0.892-2.897-1.325-5.278-1.325c-2.16,0-3.954,0.459-5.333,1.365
		c-1.558,1.017-2.348,2.318-2.348,3.86c0,0.978,0.3,1.837,0.889,2.551c0.507,0.625,1.205,1.164,2.071,1.602
		c0.767,0.387,1.561,0.693,2.351,0.912c0.701,0.194,1.88,0.486,3.618,0.886c2.019,0.435,3.853,0.915,5.452,1.427
		c1.551,0.499,2.878,1.1,3.935,1.79c0.984,0.642,1.761,1.458,2.305,2.43c0.54,0.96,0.816,2.183,0.816,3.636
		C45.183,40.413,44.688,41.989,43.718,43.363z"/>
</g>
</svg>
