<?xml version="1.0" encoding="utf-8"?>
<!-- Generator: Adobe Illustrator 15.0.0, SVG Export Plug-In . SVG Version: 6.00 Build 0)  -->
<!DOCTYPE svg PUBLIC "-//W3C//DTD SVG 1.1//EN" "http://www.w3.org/Graphics/SVG/1.1/DTD/svg11.dtd">
<svg version="1.1" id="Layer_1" xmlns="http://www.w3.org/2000/svg" xmlns:xlink="http://www.w3.org/1999/xlink" x="0px" y="0px"
	 width="64px" height="64px" viewBox="0 0 64 64" enable-background="new 0 0 64 64" xml:space="preserve">
<g>
	<g>
		<path d="M13.593,32.814c0-2.724-2.215-4.938-4.939-4.938c-2.722,0-4.938,2.214-4.938,4.938c0,2.723,2.215,4.938,4.938,4.938
			C11.378,37.752,13.593,35.537,13.593,32.814z"/>
	</g>
	<g>
		<path d="M55.346,27.877c-2.724,0-4.938,2.214-4.938,4.938c0,2.723,2.215,4.938,4.938,4.938c2.725,0,4.938-2.215,4.938-4.938
			C60.283,30.091,58.07,27.877,55.346,27.877z"/>
	</g>
	<g>
		<path d="M15.695,21.245c1.32,0,2.56-0.515,3.492-1.447c0.932-0.931,1.446-2.17,1.446-3.492c0-1.32-0.514-2.56-1.446-3.491
			c-0.931-0.934-2.17-1.448-3.492-1.448c-1.32,0-2.56,0.515-3.492,1.448c-0.932,0.932-1.445,2.17-1.445,3.489
			c0,1.32,0.513,2.562,1.445,3.494C13.139,20.73,14.378,21.245,15.695,21.245z"/>
	</g>
	<g>
		<path d="M48.713,44.384c-1.319,0-2.561,0.514-3.492,1.445c-0.934,0.933-1.447,2.173-1.447,3.492c0,1.32,0.514,2.561,1.447,3.491
			c0.932,0.934,2.172,1.446,3.492,1.446c1.318,0,2.559-0.513,3.492-1.446c0.932-0.931,1.445-2.171,1.445-3.491
			c0-1.319-0.514-2.56-1.445-3.492C51.271,44.897,50.031,44.384,48.713,44.384z"/>
	</g>
	<g>
		<path d="M48.711,21.245c1.32,0,2.561-0.515,3.494-1.447c0.932-0.934,1.445-2.173,1.445-3.492s-0.514-2.559-1.445-3.491
			c-0.931-0.934-2.171-1.448-3.492-1.448c-1.322,0-2.562,0.515-3.492,1.448c-0.933,0.931-1.444,2.17-1.444,3.491
			c0,1.322,0.512,2.562,1.444,3.492C46.151,20.73,47.393,21.245,48.711,21.245z"/>
	</g>
	<g>
		<path d="M15.695,44.384c-1.318,0-2.56,0.514-3.492,1.445c-0.932,0.936-1.447,2.176-1.447,3.492c0,1.32,0.515,2.561,1.447,3.491
			c0.933,0.934,2.172,1.446,3.492,1.446c1.32,0,2.56-0.513,3.492-1.446c0.932-0.931,1.447-2.171,1.447-3.491
			c0-1.318-0.513-2.558-1.447-3.492C18.255,44.897,17.016,44.384,15.695,44.384z"/>
	</g>
	<g>
		<path d="M32.204,3.715c-2.724,0-4.938,2.217-4.938,4.939c0,2.723,2.213,4.938,4.938,4.938c2.724,0,4.939-2.215,4.939-4.938
			C37.144,5.932,34.928,3.715,32.204,3.715z"/>
	</g>
	<g>
		<path d="M32.204,50.407c-2.724,0-4.938,2.217-4.938,4.94c0,2.721,2.213,4.938,4.938,4.938c2.724,0,4.939-2.217,4.939-4.938
			C37.144,52.624,34.928,50.407,32.204,50.407z"/>
	</g>
</g>
</svg>
