<?xml version="1.0" encoding="utf-8"?>
<!-- Generator: Adobe Illustrator 15.0.0, SVG Export Plug-In . SVG Version: 6.00 Build 0)  -->
<!DOCTYPE svg PUBLIC "-//W3C//DTD SVG 1.1//EN" "http://www.w3.org/Graphics/SVG/1.1/DTD/svg11.dtd">
<svg version="1.1" id="Layer_1" xmlns="http://www.w3.org/2000/svg" xmlns:xlink="http://www.w3.org/1999/xlink" x="0px" y="0px"
	 width="64px" height="64px" viewBox="0 0 64 64" enable-background="new 0 0 64 64" xml:space="preserve">
<g>
	<g>
		<path d="M60.339,17.731c-0.05-0.378-0.309-0.693-0.671-0.814s-0.758-0.027-1.03,0.242l-6.876,6.876l-10.048-1.747l-1.751-10.051
			l6.879-6.877c0.269-0.269,0.362-0.667,0.241-1.028c-0.122-0.36-0.438-0.622-0.815-0.673C41.099,2.952,36.033,4.65,32.364,8.318
			c-4.311,4.31-5.715,10.429-4.248,15.933L5.91,46.46c-3.209,3.207-3.209,8.425-0.003,11.631c3.208,3.209,8.425,3.209,11.633,0
			L39.75,35.882c5.504,1.47,11.621,0.063,15.933-4.246C59.35,27.967,61.048,22.9,60.339,17.731z M54.265,30.219
			c-5.646,5.647-14.836,5.647-20.482,0c-5.647-5.647-5.647-14.836,0-20.484c2.713-2.712,6.299-4.199,10.079-4.228l-5.681,5.682
			c-0.231,0.231-0.334,0.559-0.281,0.879l1.957,11.258c0.075,0.417,0.399,0.742,0.818,0.815L51.934,26.1
			c0.318,0.056,0.646-0.049,0.877-0.279l5.681-5.682C58.463,23.918,56.978,27.505,54.265,30.219z"/>
	</g>
</g>
</svg>
