<?xml version="1.0" encoding="utf-8"?>
<!-- Generator: Adobe Illustrator 15.0.0, SVG Export Plug-In . SVG Version: 6.00 Build 0)  -->
<!DOCTYPE svg PUBLIC "-//W3C//DTD SVG 1.1//EN" "http://www.w3.org/Graphics/SVG/1.1/DTD/svg11.dtd">
<svg version="1.1" id="Layer_1" xmlns="http://www.w3.org/2000/svg" xmlns:xlink="http://www.w3.org/1999/xlink" x="0px" y="0px"
	 width="64px" height="64px" viewBox="0 0 64 64" enable-background="new 0 0 64 64" xml:space="preserve">
<g>
	<g>
		<path d="M55.942,42.169l-4.634-13.696c1.43-1.733,1.877-4.067,1.161-6.19c-0.718-2.119-2.489-3.702-4.679-4.211L43.148,4.347
			c-0.251-0.741-0.641-1.117-1.156-1.117c-0.807,0-1.317,1.008-1.615,1.903C37.01,18.54,21.949,22.805,21.76,22.857
			c-0.643,0.217-1.09,0.56-1.356,1.005c-0.292-0.166-0.637-0.278-1.066-0.278c-0.322,0-0.668,0.062-1.032,0.185l-6.374,2.157
			c-1.916,0.743-5.151,3.288-3.69,7.605l2.256,6.67c0.062,0.193,1.556,4.745,5.599,4.745c0.628,0,1.287-0.116,1.918-0.329
			c0,0,0.073-0.02,0.186-0.02c0.785,0,1.42,0.743,1.805,2.13l4.07,12.026c0.145,0.729,0.774,2.015,2.221,2.015
			c0.28,0,0.577-0.05,0.887-0.149c0.404-0.08,2.842-0.631,3.425-2.448c0.392-1.222-0.151-2.645-1.617-4.235
			c0.566-1.685-0.319-3.107-1.179-4.487c-0.766-1.231-1.556-2.504-1.586-4.146c0.176-0.593,0.857-3.066,0.402-4.416l-0.112-0.337
			c0.145,0.026,0.293,0.044,0.45,0.044c0.458,0,0.813-0.116,0.853-0.13c3.769-1.274,7.462-1.92,10.976-1.92
			c9.522,0,14.782,4.769,14.834,4.816l0.096,0.074c0.193,0.123,0.867,0.526,1.423,0.526c0.465,0,0.706-0.254,0.81-0.405
			C56.263,43.107,56.087,42.529,55.942,42.169z M26.68,50.155c0.963,1.55,1.48,2.482,0.928,3.645l-0.201,0.422l0.329,0.334
			c1.296,1.316,1.85,2.425,1.602,3.205c-0.309,0.975-1.865,1.451-2.436,1.553l-0.101,0.025c-0.186,0.063-0.355,0.095-0.504,0.095
			c-0.714-0.001-0.896-0.865-0.914-0.96l-4.098-12.139c-0.771-2.772-2.413-3.072-3.084-3.072c-0.296,0-0.498,0.053-0.576,0.077
			c-0.533,0.18-1.045,0.27-1.528,0.27c-3.062,0-4.313-3.775-4.329-3.823l-2.26-6.684c-1.413-4.174,2.731-5.86,2.881-5.919
			l6.345-2.146c0.225-0.077,0.427-0.116,0.603-0.116c0.699,0,0.858,0.697,0.882,0.832l5.141,15.559
			c0.268,0.79-0.128,2.687-0.44,3.697l-0.031,0.197C24.889,47.277,25.841,48.807,26.68,50.155z"/>
	</g>
</g>
</svg>
