<?xml version="1.0" encoding="utf-8"?>
<!-- Generator: Adobe Illustrator 15.0.0, SVG Export Plug-In . SVG Version: 6.00 Build 0)  -->
<!DOCTYPE svg PUBLIC "-//W3C//DTD SVG 1.1//EN" "http://www.w3.org/Graphics/SVG/1.1/DTD/svg11.dtd">
<svg version="1.1" id="Layer_1" xmlns="http://www.w3.org/2000/svg" xmlns:xlink="http://www.w3.org/1999/xlink" x="0px" y="0px"
	 width="64px" height="64px" viewBox="0 0 64 64" enable-background="new 0 0 64 64" xml:space="preserve">
<g>
	<g>
		<path d="M59.278,36.957L59.234,9.816c0-1.613-1.032-2.336-2.055-2.336c-1.082,0-2.238,0.835-2.839,1.339L15.728,24.582
			c-1.857,0.002-4.745,0.007-6.856,0.011H4.77v1.434L4.721,38.313l11.182,0.016l6.702,2.94l-2.569,5.695l16.637,7.652l2.701-5.984
			l15.587,6.84c0.495,0.399,1.449,1.048,2.372,1.048c0.548,0,1.044-0.212,1.397-0.599c0.419-0.453,0.597-1.087,0.538-1.765
			L59.278,36.957z M10.315,27.467v7.775H7.646v-7.771c0.375-0.002,0.828-0.002,1.301-0.003H10.315z M35.244,50.796l-11.417-5.252
			l1.407-3.121l11.506,5.054L35.244,50.796z"/>
	</g>
</g>
</svg>
