<?xml version="1.0" encoding="utf-8"?>
<!-- Generator: Adobe Illustrator 15.0.0, SVG Export Plug-In . SVG Version: 6.00 Build 0)  -->
<!DOCTYPE svg PUBLIC "-//W3C//DTD SVG 1.1//EN" "http://www.w3.org/Graphics/SVG/1.1/DTD/svg11.dtd">
<svg version="1.1" id="Layer_1" xmlns="http://www.w3.org/2000/svg" xmlns:xlink="http://www.w3.org/1999/xlink" x="0px" y="0px"
	 width="64px" height="64px" viewBox="0 0 64 64" enable-background="new 0 0 64 64" xml:space="preserve">
<g>
	<g>
		<path d="M49.968,2.872H14.034c-4.549,0-8.25,3.054-8.25,6.808v29.044c0,3.754,3.701,6.806,8.25,6.806h2.758l9.877,15.361
			l0.152,0.237l10.029-15.599h13.117c4.549,0,8.248-3.052,8.248-6.806V9.679C58.216,5.926,54.517,2.872,49.968,2.872z
			 M20.221,29.154c-2.614,0-4.74-2.126-4.74-4.738c0-2.616,2.126-4.741,4.74-4.741c2.612,0,4.738,2.125,4.738,4.741
			C24.959,27.028,22.833,29.154,20.221,29.154z M32.266,29.154c-2.614,0-4.74-2.126-4.74-4.738c0-2.616,2.126-4.741,4.74-4.741
			s4.74,2.125,4.74,4.741C37.006,27.028,34.88,29.154,32.266,29.154z M44.547,29.154c-2.612,0-4.738-2.126-4.738-4.738
			c0-2.616,2.126-4.741,4.738-4.741c2.614,0,4.74,2.125,4.74,4.741C49.287,27.028,47.161,29.154,44.547,29.154z"/>
	</g>
</g>
</svg>
