<?xml version="1.0" encoding="utf-8"?>
<!-- Generator: Adobe Illustrator 15.0.0, SVG Export Plug-In . SVG Version: 6.00 Build 0)  -->
<!DOCTYPE svg PUBLIC "-//W3C//DTD SVG 1.1//EN" "http://www.w3.org/Graphics/SVG/1.1/DTD/svg11.dtd">
<svg version="1.1" id="Layer_1" xmlns="http://www.w3.org/2000/svg" xmlns:xlink="http://www.w3.org/1999/xlink" x="0px" y="0px"
	 width="64px" height="64px" viewBox="0 0 64 64" enable-background="new 0 0 64 64" xml:space="preserve">
<g>
	<g>
		<path d="M13.176,28.561c0-9.95,8.095-18.045,18.045-18.045c8.224,0,15.398,5.724,17.454,13.472l-5.843-4.202l-2.51,3.425
			l11.02,7.661l0.008,0.091l0.031-0.063l1.478,1.027l6.461-12.879l-3.778-1.895l-2.821,5.623
			C50.135,13.28,41.323,6.287,31.221,6.287c-12.28,0-22.271,9.992-22.271,22.274v1.224h4.227V28.561z"/>
	</g>
	<g>
		<path d="M50.826,35.44c0,9.949-8.095,18.045-18.047,18.045c-8.225,0-15.397-5.724-17.452-13.473l5.843,4.201l2.498-3.403
			l-12.264-8.876l-0.699,1.088L4.681,44.957l3.782,1.894l2.809-5.603c2.555,9.607,11.228,16.465,21.507,16.465
			c12.283,0,22.273-9.992,22.273-22.272v-1.225h-4.227V35.44z"/>
	</g>
</g>
</svg>
