<?xml version="1.0" encoding="utf-8"?>
<!-- Generator: Adobe Illustrator 15.0.0, SVG Export Plug-In . SVG Version: 6.00 Build 0)  -->
<!DOCTYPE svg PUBLIC "-//W3C//DTD SVG 1.1//EN" "http://www.w3.org/Graphics/SVG/1.1/DTD/svg11.dtd">
<svg version="1.1" id="Layer_1" xmlns="http://www.w3.org/2000/svg" xmlns:xlink="http://www.w3.org/1999/xlink" x="0px" y="0px"
	 width="64px" height="64px" viewBox="0 0 64 64" enable-background="new 0 0 64 64" xml:space="preserve">
<g>
	<g>
		<path fill="#020202" d="M56.646,13.749H7.354c-1.385,0-2.515,1.171-2.515,2.611v31.279c0,1.441,1.13,2.612,2.515,2.612h49.292
			c1.388,0,2.515-1.171,2.515-2.612V16.36C59.161,14.92,58.034,13.749,56.646,13.749z M9.467,36.85H8.787v-9.699h0.681V36.85z
			 M51.05,48.484H12.315V15.516H51.05V48.484z M55.062,33.243c-0.8,0-1.454-0.652-1.454-1.455c0-0.801,0.654-1.454,1.454-1.454
			c0.801,0,1.454,0.653,1.454,1.454C56.516,32.591,55.862,33.243,55.062,33.243z"/>
	</g>
	<g>
		<path fill="#020202" d="M28.279,39.059h7.474c0.67,0,1.217-0.547,1.217-1.219v-6.833c0-0.671-0.547-1.216-1.217-1.216h-0.027
			v-1.716c0-1.63-1.326-2.957-2.958-2.957h-1.505c-1.63,0-2.956,1.327-2.956,2.957v1.716h-0.027c-0.672,0-1.22,0.545-1.22,1.216
			v6.833C27.059,38.512,27.607,39.059,28.279,39.059z M29.46,28.075c0-0.994,0.808-1.803,1.802-1.803h1.505
			c0.995,0,1.802,0.809,1.802,1.803v1.716H29.46V28.075z M28.215,31.007c0-0.034,0.027-0.063,0.064-0.063h7.474
			c0.034,0,0.063,0.029,0.063,0.063v6.833c0,0.035-0.029,0.064-0.063,0.064h-7.474c-0.037,0-0.064-0.029-0.064-0.064V31.007z"/>
	</g>
</g>
</svg>
