<?xml version="1.0" encoding="utf-8"?>
<!-- Generator: Adobe Illustrator 15.0.0, SVG Export Plug-In . SVG Version: 6.00 Build 0)  -->
<!DOCTYPE svg PUBLIC "-//W3C//DTD SVG 1.1//EN" "http://www.w3.org/Graphics/SVG/1.1/DTD/svg11.dtd">
<svg version="1.1" id="Layer_1" xmlns="http://www.w3.org/2000/svg" xmlns:xlink="http://www.w3.org/1999/xlink" x="0px" y="0px"
	 width="64px" height="64px" viewBox="0 0 64 64" enable-background="new 0 0 64 64" xml:space="preserve">
<g>
	<g>
		<path fill="#020202" d="M58,19.854H12.726c-1.275,0-2.31,1.076-2.31,2.399v28.729c0,1.322,1.035,2.398,2.31,2.398H58
			c1.271,0,2.31-1.076,2.31-2.398V22.253C60.31,20.929,59.271,19.854,58,19.854z M15.1,41.071h-0.625v-8.908H15.1V41.071z
			 M52.859,51.758H17.282V21.476h35.577V51.758z M56.542,37.759c-0.735,0-1.333-0.598-1.333-1.335c0-0.736,0.598-1.336,1.333-1.336
			c0.737,0,1.336,0.6,1.336,1.336C57.878,37.161,57.279,37.759,56.542,37.759z"/>
	</g>
	<g>
		<path fill="#020202" d="M15.749,14.319L13.368,15.7c-0.225,0.129-0.3,0.417-0.171,0.642c0.088,0.151,0.244,0.234,0.408,0.234
			c0.081,0,0.161-0.02,0.234-0.063l3.763-2.183c0.137-0.078,0.225-0.221,0.234-0.378s-0.061-0.309-0.186-0.404l-3.763-2.833
			c-0.21-0.155-0.503-0.115-0.659,0.093s-0.115,0.502,0.093,0.658l2.549,1.921c-3.707-0.303-6.649,0.548-8.737,2.561
			c-3.954,3.807-3.434,10.285-3.409,10.559l0.938-0.083c-0.005-0.063-0.503-6.31,3.128-9.802
			C9.667,14.813,12.348,14.049,15.749,14.319z"/>
	</g>
</g>
</svg>
