<?xml version="1.0" encoding="utf-8"?>
<!-- Generator: Adobe Illustrator 15.0.0, SVG Export Plug-In . SVG Version: 6.00 Build 0)  -->
<!DOCTYPE svg PUBLIC "-//W3C//DTD SVG 1.1//EN" "http://www.w3.org/Graphics/SVG/1.1/DTD/svg11.dtd">
<svg version="1.1" id="Layer_1" xmlns="http://www.w3.org/2000/svg" xmlns:xlink="http://www.w3.org/1999/xlink" x="0px" y="0px"
	 width="64px" height="64px" viewBox="0 0 64 64" enable-background="new 0 0 64 64" xml:space="preserve">
<g>
	<path fill="#020202" d="M2.833,2.833v58.333h58.333V2.833H2.833z M6.474,13.692V6.474h7.668v7.218H6.474z M6.474,24.65v-7.318
		h7.668v7.318H6.474z M6.474,35.979v-7.692h7.668v7.692H6.474z M6.474,46.41v-6.79h7.668v6.79H6.474z M6.474,57.526v-7.476h7.668
		v7.476H6.474z M17.783,13.692V6.474h7.228v7.218H17.783z M17.783,24.65v-7.318h7.228v7.318H17.783z M17.783,35.979v-7.692h7.228
		v7.692H17.783z M17.783,46.41v-6.79h7.228v6.79H17.783z M17.783,57.526v-7.476h7.228v7.476H17.783z M28.652,13.692V6.474h7.297
		v7.218H28.652z M28.652,24.65v-7.318h7.297v7.318H28.652z M28.652,35.979v-7.692h7.297v7.692H28.652z M28.652,46.41v-6.79h7.297
		v6.79H28.652z M39.59,13.692V6.474h7.298v7.218H39.59z M39.59,24.65v-7.318h7.298v7.318H39.59z M39.59,35.979v-7.692h7.298v7.692
		H39.59z M39.59,46.41v-6.79h7.298v6.79H39.59z M50.525,13.692V6.474h7.001v7.218H50.525z M50.525,24.65v-7.318h7.001v7.318H50.525z
		 M50.525,35.979v-7.692h7.001v7.692H50.525z M50.525,46.41v-6.79h7.001v6.79H50.525z M28.652,57.526v-7.476h28.875v7.476H28.652z"
		/>
</g>
</svg>
