<?xml version="1.0" encoding="utf-8"?>
<!-- Generator: Adobe Illustrator 15.0.0, SVG Export Plug-In . SVG Version: 6.00 Build 0)  -->
<!DOCTYPE svg PUBLIC "-//W3C//DTD SVG 1.1//EN" "http://www.w3.org/Graphics/SVG/1.1/DTD/svg11.dtd">
<svg version="1.1" id="Layer_1" xmlns="http://www.w3.org/2000/svg" xmlns:xlink="http://www.w3.org/1999/xlink" x="0px" y="0px"
	 width="64px" height="64px" viewBox="0 0 64 64" enable-background="new 0 0 64 64" xml:space="preserve">
<g>
	<g>
		<path fill="#020202" d="M48.804,2.82H15.199c-1.548,0-2.808,1.212-2.808,2.701v52.957c0,1.489,1.26,2.702,2.808,2.702h33.605
			c1.549,0,2.805-1.213,2.805-2.702V5.521C51.608,4.033,50.353,2.82,48.804,2.82z M26.791,6.8H37.21v0.731H26.791V6.8z
			 M32.227,58.336c-0.86,0-1.563-0.701-1.563-1.563c0-0.859,0.703-1.561,1.563-1.561s1.562,0.701,1.562,1.561
			C33.789,57.635,33.087,58.336,32.227,58.336z M49.709,52.466H14.293V10.852h35.416V52.466z"/>
	</g>
	<g>
		<path fill="#020202" d="M27.892,39.502h8.028c0.72,0,1.309-0.587,1.309-1.309v-7.34c0-0.721-0.589-1.308-1.309-1.308h-0.028
			v-1.842c0-1.751-1.426-3.176-3.179-3.176h-1.616c-1.751,0-3.176,1.425-3.176,3.176v1.842h-0.028c-0.723,0-1.308,0.587-1.308,1.308
			v7.34C26.583,38.915,27.169,39.502,27.892,39.502z M29.16,27.703c0-1.068,0.868-1.937,1.937-1.937h1.616
			c1.069,0,1.937,0.868,1.937,1.937v1.842h-5.49V27.703z M27.823,30.853c0-0.037,0.029-0.068,0.069-0.068h8.028
			c0.037,0,0.068,0.031,0.068,0.068v7.34c0,0.039-0.031,0.068-0.068,0.068h-8.028c-0.04,0-0.069-0.029-0.069-0.068V30.853z"/>
	</g>
</g>
</svg>
