<?xml version="1.0" encoding="utf-8"?>
<!-- Generator: Adobe Illustrator 15.0.0, SVG Export Plug-In . SVG Version: 6.00 Build 0)  -->
<!DOCTYPE svg PUBLIC "-//W3C//DTD SVG 1.1//EN" "http://www.w3.org/Graphics/SVG/1.1/DTD/svg11.dtd">
<svg version="1.1" id="Layer_1" xmlns="http://www.w3.org/2000/svg" xmlns:xlink="http://www.w3.org/1999/xlink" x="0px" y="0px"
	 width="64px" height="64px" viewBox="0 0 64 64" enable-background="new 0 0 64 64" xml:space="preserve">
<g>
	<path fill="#020202" d="M48.81,2.806H15.191c-1.548,0-2.809,1.213-2.809,2.703v52.982c0,1.49,1.26,2.702,2.809,2.702H48.81
		c1.548,0,2.808-1.212,2.808-2.702V5.509C51.617,4.02,50.357,2.806,48.81,2.806z M27.301,5.95h9.398v0.66h-9.398V5.95z
		 M32.226,58.35c-0.861,0-1.562-0.701-1.562-1.564c0-0.86,0.701-1.561,1.562-1.561c0.863,0,1.563,0.7,1.563,1.561
		C33.789,57.648,33.089,58.35,32.226,58.35z M49.716,52.477H14.284V10.843h35.432V52.477z"/>
</g>
</svg>
