<?xml version="1.0" encoding="utf-8"?>
<!-- Generator: Adobe Illustrator 15.0.0, SVG Export Plug-In . SVG Version: 6.00 Build 0)  -->
<!DOCTYPE svg PUBLIC "-//W3C//DTD SVG 1.1//EN" "http://www.w3.org/Graphics/SVG/1.1/DTD/svg11.dtd">
<svg version="1.1" id="Layer_1" xmlns="http://www.w3.org/2000/svg" xmlns:xlink="http://www.w3.org/1999/xlink" x="0px" y="0px"
	 width="64px" height="64px" viewBox="0 0 64 64" enable-background="new 0 0 64 64" xml:space="preserve">
<g>
	<path fill="#020202" d="M48.88,2.686H15.12c-1.555,0-2.817,1.218-2.817,2.713V58.6c0,1.497,1.262,2.715,2.817,2.715h33.76
		c1.553,0,2.818-1.218,2.818-2.715V5.398C51.698,3.904,50.433,2.686,48.88,2.686z M26.767,6.41h10.467v0.734H26.767V6.41z
		 M31.771,58.458c-0.864,0-1.569-0.704-1.569-1.571c0-0.863,0.706-1.567,1.569-1.567c0.867,0,1.572,0.704,1.572,1.567
		C33.343,57.754,32.637,58.458,31.771,58.458z M49.79,52.561H14.21V10.754h35.58V52.561z"/>
</g>
</svg>
