<?xml version="1.0" encoding="utf-8"?>
<!-- Generator: Adobe Illustrator 15.0.0, SVG Export Plug-In . SVG Version: 6.00 Build 0)  -->
<!DOCTYPE svg PUBLIC "-//W3C//DTD SVG 1.1//EN" "http://www.w3.org/Graphics/SVG/1.1/DTD/svg11.dtd">
<svg version="1.1" id="Layer_1" xmlns="http://www.w3.org/2000/svg" xmlns:xlink="http://www.w3.org/1999/xlink" x="0px" y="0px"
	 width="64px" height="64px" viewBox="0 0 64 64" enable-background="new 0 0 64 64" xml:space="preserve">
<g>
	<path fill="#231F20" d="M57.533,7.339L38.804,2.961L2.97,38.795l22.24,22.244l35.82-35.816L57.533,7.339z M38.648,32.391
		c-0.155-0.544-0.548-1.33-1.365-2.146c-1.524-1.524-3.187-1.075-4.572,0.311c-0.842,0.838-1.369,1.563-1.878,2.306l2.815,2.812
		l-1.235,1.23l-2.656-2.656c-0.683,0.803-1.386,1.581-2.267,2.111c-1.054,0.626-2.228,0.859-3.455,0.761l-0.042,0.039l5.824,5.824
		l-1.425,1.425l-8.109-8.108l0.976-0.977c1.974,0.644,4.184,0.272,5.648-1.191c0.467-0.471,0.838-0.881,1.27-1.468l-2.012-2.012
		l1.23-1.23l1.818,1.817c0.488-0.683,1.131-1.563,1.896-2.323c2.306-2.306,5.389-2.228,7.561-0.06
		c1.015,1.019,1.485,1.956,1.641,2.62L38.648,32.391z M49.431,17.938c-1.241,1.238-3.242,1.238-4.48,0
		c-1.234-1.238-1.234-3.243,0-4.48c1.238-1.234,3.239-1.238,4.48,0C50.669,14.695,50.669,16.7,49.431,17.938z"/>
</g>
</svg>
