<?xml version="1.0" encoding="utf-8"?>
<!-- Generator: Adobe Illustrator 15.0.0, SVG Export Plug-In . SVG Version: 6.00 Build 0)  -->
<!DOCTYPE svg PUBLIC "-//W3C//DTD SVG 1.1//EN" "http://www.w3.org/Graphics/SVG/1.1/DTD/svg11.dtd">
<svg version="1.1" id="Layer_1" xmlns="http://www.w3.org/2000/svg" xmlns:xlink="http://www.w3.org/1999/xlink" x="0px" y="0px"
	 width="64px" height="64px" viewBox="0 0 64 64" enable-background="new 0 0 64 64" xml:space="preserve">
<g>
	<path fill="#231F20" d="M57.242,7.619L38.727,3.291L3.3,38.718l21.989,21.991L60.7,25.299L57.242,7.619z M41.331,30.208
		l-2.054,0.927c-0.204-0.745-0.61-2.192-2.058-3.636c-1.737-1.741-3.288-1.209-4.215-0.287c-1.148,1.154-1.047,2.43,0.086,5.234
		c1.374,3.276,1.395,5.601-0.615,7.611c-1.804,1.808-4.72,2.238-7.409,0.273l-2.349,2.349l-1.423-1.423l2.259-2.258
		c-1.285-1.336-2.209-3.077-2.437-4.43l2.056-0.973c0.267,1.312,0.993,2.938,2.258,4.206c1.603,1.602,3.472,1.615,4.758,0.325
		c1.241-1.241,1.272-2.744,0.278-5.094c-1.396-3.209-1.76-5.692,0.205-7.657c1.877-1.877,4.629-1.968,7.024-0.252l2.262-2.258
		l1.423,1.423l-2.195,2.192C40.475,27.859,41.038,29.149,41.331,30.208z M49.232,18.098c-1.227,1.224-3.206,1.224-4.428,0
		c-1.222-1.224-1.222-3.206,0-4.43c1.222-1.22,3.201-1.224,4.428,0C50.456,14.892,50.456,16.874,49.232,18.098z"/>
</g>
</svg>
