<?xml version="1.0" encoding="utf-8"?>
<!-- Generator: Adobe Illustrator 15.0.0, SVG Export Plug-In . SVG Version: 6.00 Build 0)  -->
<!DOCTYPE svg PUBLIC "-//W3C//DTD SVG 1.1//EN" "http://www.w3.org/Graphics/SVG/1.1/DTD/svg11.dtd">
<svg version="1.1" id="Layer_1" xmlns="http://www.w3.org/2000/svg" xmlns:xlink="http://www.w3.org/1999/xlink" x="0px" y="0px"
	 width="64px" height="64px" viewBox="0 0 64 64" enable-background="new 0 0 64 64" xml:space="preserve">
<g>
	<path fill="#231F20" d="M57.824,7.057L38.882,2.629L2.638,38.873l22.499,22.498l36.226-36.226L57.824,7.057z M39.472,33.411
		c-0.229-0.858-0.815-1.985-1.756-2.926c-1.127-1.127-2.465-1.67-3.902-1.649c-1.234,0.018-2.59,0.54-3.91,1.438l5.831,5.83
		l-1.045,1.044l-6.016-6.016c-0.314,0.229-0.608,0.522-0.919,0.833c-0.125,0.129-0.229,0.233-0.354,0.358l6.059,6.055l-1.044,1.049
		l-5.916-5.913c-1.041,1.377-1.542,2.676-1.584,3.885c-0.064,1.609,0.604,3.029,1.734,4.156c1.105,1.108,2.461,1.67,3.237,1.859
		l-0.984,1.692c-1.083-0.211-2.611-0.897-3.967-2.257c-1.691-1.692-2.571-3.867-2.386-6.103c0.086-1.667,0.776-3.401,2.089-5.093
		l-1.294-1.295l1.048-1.044l1.191,1.191c0.104-0.104,0.208-0.211,0.315-0.315c0.311-0.311,0.644-0.604,0.958-0.876l-1.23-1.234
		l1.044-1.044l1.377,1.377c1.713-1.209,3.53-1.813,5.243-1.817c2.149-0.061,4.156,0.69,5.849,2.382
		c1.252,1.255,1.859,2.572,2.132,3.469L39.472,33.411z M49.63,17.777c-1.252,1.252-3.279,1.252-4.531,0s-1.252-3.28,0-4.532
		c1.252-1.249,3.279-1.252,4.531,0C50.882,14.497,50.882,16.525,49.63,17.777z"/>
</g>
</svg>
