<?xml version="1.0" encoding="utf-8"?>
<!-- Generator: Adobe Illustrator 15.0.0, SVG Export Plug-In . SVG Version: 6.00 Build 0)  -->
<!DOCTYPE svg PUBLIC "-//W3C//DTD SVG 1.1//EN" "http://www.w3.org/Graphics/SVG/1.1/DTD/svg11.dtd">
<svg version="1.1" id="Layer_1" xmlns="http://www.w3.org/2000/svg" xmlns:xlink="http://www.w3.org/1999/xlink" x="0px" y="0px"
	 width="64px" height="64px" viewBox="0 0 64 64" enable-background="new 0 0 64 64" xml:space="preserve">
<g>
	<g>
		<path fill="#020202" d="M32.002,4.245c2.838,0,5.146,2.309,5.146,5.148v2.566H26.854V9.394
			C26.854,6.554,29.162,4.245,32.002,4.245z M32.002,59.755c-7.526,0-13.649-6.124-13.649-13.649c0-5.335,3.149-10.21,8.018-12.421
			l0.482-0.217V13.602h10.295v3.769h-6.057v1.64h6.057v2.872h-6.057v1.64h6.057v3.144h-6.057v1.642h6.057v5.16l0.479,0.217
			c4.872,2.211,8.019,7.086,8.019,12.421C45.646,53.631,39.525,59.755,32.002,59.755z"/>
	</g>
</g>
</svg>
