<?xml version="1.0" encoding="utf-8"?>
<!-- Generator: Adobe Illustrator 15.0.0, SVG Export Plug-In . SVG Version: 6.00 Build 0)  -->
<!DOCTYPE svg PUBLIC "-//W3C//DTD SVG 1.1//EN" "http://www.w3.org/Graphics/SVG/1.1/DTD/svg11.dtd">
<svg version="1.1" id="Layer_1" xmlns="http://www.w3.org/2000/svg" xmlns:xlink="http://www.w3.org/1999/xlink" x="0px" y="0px"
	 width="64px" height="64px" viewBox="0 0 64 64" enable-background="new 0 0 64 64" xml:space="preserve">
<g>
	<g>
		<path d="M31.999,2.81c-13.866,0-25.146,10.238-25.146,22.822c0,7.488,4.044,14.493,10.823,18.76
			c0.258,7.721-2.366,14.465-2.392,14.53l-0.889,2.269L32.69,48.439c13.493-0.336,24.457-10.554,24.457-22.808
			C57.147,13.048,45.864,2.81,31.999,2.81z M19.779,30.544c-2.65,0-4.806-2.156-4.806-4.806c0-2.65,2.156-4.806,4.806-4.806
			c2.651,0,4.808,2.156,4.808,4.806C24.587,28.388,22.431,30.544,19.779,30.544z M31.999,30.544c-2.65,0-4.806-2.156-4.806-4.806
			c0-2.65,2.156-4.806,4.806-4.806c2.652,0,4.808,2.156,4.808,4.806C36.807,28.388,34.65,30.544,31.999,30.544z M44.455,30.544
			c-2.65,0-4.807-2.156-4.807-4.806c0-2.65,2.156-4.806,4.807-4.806c2.652,0,4.809,2.156,4.809,4.806
			C49.264,28.388,47.107,30.544,44.455,30.544z"/>
	</g>
</g>
</svg>
