<?xml version="1.0" encoding="utf-8"?>
<!-- Generator: Adobe Illustrator 15.0.0, SVG Export Plug-In . SVG Version: 6.00 Build 0)  -->
<!DOCTYPE svg PUBLIC "-//W3C//DTD SVG 1.1//EN" "http://www.w3.org/Graphics/SVG/1.1/DTD/svg11.dtd">
<svg version="1.1" id="Layer_1" xmlns="http://www.w3.org/2000/svg" xmlns:xlink="http://www.w3.org/1999/xlink" x="0px" y="0px"
	 width="64px" height="64px" viewBox="0 0 64 64" enable-background="new 0 0 64 64" xml:space="preserve">
<g>
	<g>
		<path d="M59.398,43.652v-0.106l-0.029-0.075c-0.054-0.24-0.133-0.446-0.242-0.617l-3.484-8.902
			c-0.199-0.756-0.841-1.521-1.828-1.521c-0.322,0-0.651,0.085-0.937,0.233l-6.866,3.172c-0.354,0.151-1.087,0.467-1.341,1.216
			c-0.106,0.321-0.158,0.839,0.175,1.415l1.79,3.659l-5.583,0.004v-3.159c0-1.307-0.868-1.653-1.379-1.653
			c-0.683,0-1.266,0.508-1.54,0.8l-9.02,9.277C29,47.493,28.431,48.021,28.4,48.831c-0.014,0.356,0.076,0.894,0.583,1.401
			c0.892,0.892,9.377,9.104,9.377,9.104c0.216,0.22,0.799,0.73,1.495,0.73c0.151,0,1.472-0.051,1.472-1.854v-2.837h13.784
			c0.144,0,0.521-0.027,0.888-0.276c0.268-0.184,0.724-0.619,0.721-1.411c0.048-0.374,0.658-2.323,1.146-3.889
			c0.9-2.875,1.346-4.363,1.512-5.176l0.021-0.004V44.5c0.035-0.203,0.058-0.371,0.058-0.491
			C59.456,43.872,59.415,43.772,59.398,43.652z M49.562,41.99c-0.172-0.015-0.583-0.203-0.778-0.361l-1.88-3.84l6.719-3.119
			l2.923,7.32H49.562z"/>
	</g>
	<g>
		<path d="M22.532,18.053l6.167,4.383c0.405,0.305,0.857,0.586,1.417,0.586c0.35,0,1.005-0.122,1.447-0.887l2.269-3.347l2.704,4.719
			l-2.743,1.571c-0.913,0.52-0.964,1.188-0.916,1.542c0.134,0.954,1.193,1.31,1.629,1.415l12.529,3.215
			c0.079,0.027,0.359,0.119,0.717,0.119c0.881,0,1.574-0.541,1.814-1.417c0.329-1.216,3.244-12.656,3.244-12.656
			c0.093-0.339,0.257-1.197-0.22-1.819c-0.463-0.612-1.296-0.737-2.236-0.197l-2.462,1.411L41.06,4.765
			c-0.199-0.384-0.689-0.832-1.396-0.832c-0.315,0-0.634,0.093-0.881,0.237c-0.347,0.142-2.325,0.58-3.917,0.931
			c-3.934,0.869-5.33,1.21-5.844,1.507C28.5,6.905,28.244,7.25,28.109,7.562l-5.824,7.451c-0.124,0.118-0.727,0.758-0.645,1.643
			C21.682,17.053,21.874,17.621,22.532,18.053z M47.751,29.22l-0.004,1.074l-0.082-1.051C47.696,29.229,47.727,29.22,47.751,29.22z
			 M28.74,10.129l3.54,6.173c0.076,0.165,0.106,0.61,0.069,0.844l-2.397,3.544L23.915,16.4L28.74,10.129z"/>
	</g>
	<g>
		<path d="M23.002,24.045c-0.247-0.897-1.29-1.768-2.51-1.331c-1.184,0.424-12.234,4.591-12.234,4.591
			c-0.322,0.113-1.379,0.566-1.43,1.567c-0.024,0.463,0.161,1.115,1.183,1.597l2.565,1.212L4.711,44.115
			c-0.072,0.136-0.285,0.63-0.082,1.221c0.106,0.31,0.36,0.736,0.902,0.984c0.315,0.203,1.811,1.58,3.015,2.686
			c2.74,2.521,4.002,3.653,4.572,3.924c0.343,0.161,0.662,0.24,0.971,0.24c0.135,0,0.254-0.034,0.374-0.062l9.229,0.658l0.401,0.034
			c0.573,0,1.08-0.199,1.43-0.563c0.25-0.257,0.542-0.72,0.514-1.42l0.065-7.559c0.014-0.401,0.041-1.146-0.483-1.689
			c-0.22-0.227-0.686-0.54-1.403-0.49l-3.929,0.055l2.382-5.047l2.857,1.352c0.312,0.146,0.597,0.216,0.864,0.216
			c0.459,0,0.864-0.207,1.115-0.572c0.436-0.639,0.209-1.487,0.038-1.921L23.002,24.045z M24.093,51.661v1.066l-0.12-0.975
			C24.01,51.712,24.052,51.678,24.093,51.661z M23.956,44.229l-0.065,7.408l-7.836-0.508l2.97-6.293
			c0.093-0.158,0.436-0.439,0.652-0.546L23.956,44.229z"/>
	</g>
</g>
</svg>
