<?xml version="1.0" encoding="utf-8"?>
<!-- Generator: Adobe Illustrator 15.0.0, SVG Export Plug-In . SVG Version: 6.00 Build 0)  -->
<!DOCTYPE svg PUBLIC "-//W3C//DTD SVG 1.1//EN" "http://www.w3.org/Graphics/SVG/1.1/DTD/svg11.dtd">
<svg version="1.1" id="Layer_1" xmlns="http://www.w3.org/2000/svg" xmlns:xlink="http://www.w3.org/1999/xlink" x="0px" y="0px"
	 width="64px" height="64px" viewBox="0 0 64 64" enable-background="new 0 0 64 64" xml:space="preserve">
<g>
	<g>
		<path fill="#020202" d="M32,3.9h-2.534v13.362h5.067V9.107C46.143,10.371,55.03,20.15,55.03,32c0,12.7-10.332,23.032-23.03,23.032
			S8.97,44.7,8.97,32c0-5.198,1.689-10.103,4.883-14.183l0.893-1.138l-3.992-3.124l-0.891,1.138C5.962,19.674,3.9,25.659,3.9,32
			c0,15.494,12.605,28.1,28.1,28.1c15.494,0,28.1-12.605,28.1-28.1C60.1,16.505,47.494,3.9,32,3.9z"/>
	</g>
	<g>
		<path fill="#020202" d="M27.961,36.305c0.918,1.1,2.208,1.776,3.629,1.904c0.164,0.015,0.328,0.023,0.489,0.023
			c2.742,0,5.084-2.143,5.331-4.874c0.129-1.423-0.305-2.813-1.222-3.915c-0.918-1.102-2.207-1.779-3.632-1.909
			c-0.468-0.041-0.943-0.016-1.448,0.083L15.631,14.501L27,31.209c-0.143,0.416-0.23,0.804-0.264,1.182
			C26.607,33.814,27.042,35.204,27.961,36.305z"/>
	</g>
</g>
</svg>
