<?xml version="1.0" encoding="utf-8"?>
<!-- Generator: Adobe Illustrator 15.0.0, SVG Export Plug-In . SVG Version: 6.00 Build 0)  -->
<!DOCTYPE svg PUBLIC "-//W3C//DTD SVG 1.1//EN" "http://www.w3.org/Graphics/SVG/1.1/DTD/svg11.dtd">
<svg version="1.1" id="Layer_1" xmlns="http://www.w3.org/2000/svg" xmlns:xlink="http://www.w3.org/1999/xlink" x="0px" y="0px"
	 width="64px" height="64px" viewBox="0 0 64 64" enable-background="new 0 0 64 64" xml:space="preserve">
<g>
	<path d="M36.214,25.521l-0.054-1.038c-0.01-0.182-0.02-0.37-0.029-0.562c4.351-0.519,9.387-1.311,12.032-4.289
		c1.497-1.682,2.06-4.102,1.587-6.813c-0.664-3.829-3.295-7.681-6.445-9.396c-3.271-1.58-6.203-1.284-8.169,0.771
		c-3.015,3.156-3.314,9.864-3.109,16.251c-0.409,0.058-0.8,0.121-1.187,0.19c-8.919,1.914-13.979,4.849-15.922,9.24
		c-1.556,3.509-0.921,7.738,1.87,12.539c3.181,5.86,9.047,9.931,15.228,10.677c-1.238,4.353-3.136,4.547-8.863,4.547h-1.395v3.945
		h1.395c6.699,0,10.978-0.423,12.942-8.502c5.849-0.793,12.347-5.312,12.569-15.803c0.086-3.45-1.073-6.385-3.354-8.484
		C43.097,26.755,39.792,25.568,36.214,25.521z M37.989,6.92c0.384-0.401,0.802-0.58,1.354-0.58c0.607,0,1.37,0.213,2.155,0.59
		c2.03,1.107,3.906,3.929,4.364,6.565c0.262,1.5,0.033,2.748-0.647,3.513c-1.66,1.87-5.793,2.536-9.253,2.959
		C35.776,12.911,36.457,8.523,37.989,6.92z M32.205,24.407l0.035,0.656c0.015,0.3,0.03,0.591,0.044,0.872
		c-3.823,0.834-6.838,2.879-8.178,5.588c-0.904,1.831-1.495,4.821,0.833,8.662l0.724,1.189l3.367-2.045l-0.72-1.194
		c-1.137-1.878-1.356-3.468-0.667-4.863c0.721-1.456,2.481-2.664,4.743-3.302c0.023,1.326,0.071,2.885,0.122,4.612l0.004,0.128
		c0.142,4.726,0.315,10.5,0.094,14.484c-4.976-0.537-9.74-3.85-12.379-8.71c-2.143-3.689-2.715-6.722-1.703-9.013
		c1.351-3.049,5.765-5.395,13.084-6.964C31.799,24.472,31.997,24.439,32.205,24.407z M36.566,48.998
		c0.199-4.151,0.029-9.781-0.109-14.407c-0.057-1.87-0.111-3.659-0.131-5.124c2.546,0.064,4.833,0.869,6.31,2.23
		c1.439,1.323,2.142,3.168,2.083,5.492C44.533,45.896,39.47,48.323,36.566,48.998z"/>
</g>
</svg>
