<?xml version="1.0" encoding="utf-8"?>
<!-- Generator: Adobe Illustrator 15.0.0, SVG Export Plug-In . SVG Version: 6.00 Build 0)  -->
<!DOCTYPE svg PUBLIC "-//W3C//DTD SVG 1.1//EN" "http://www.w3.org/Graphics/SVG/1.1/DTD/svg11.dtd">
<svg version="1.1" id="Layer_1" xmlns="http://www.w3.org/2000/svg" xmlns:xlink="http://www.w3.org/1999/xlink" x="0px" y="0px"
	 width="64px" height="64px" viewBox="0 0 64 64" enable-background="new 0 0 64 64" xml:space="preserve">
<g>
	<g>
		<path d="M57.339,20.113c-1.757-1.755-4.1-2.722-6.588-2.723c-2.494,0.001-4.833,0.966-6.589,2.723L30.42,33.86l-0.089-0.091
			l-5.413-5.415l0.089-0.089l6.045-6.005c1.143-0.683,5.658-2.308,8.958-2.308c0.908,0,1.649,0.132,2.139,0.378l0.135,0.069
			l0.323,0.022c0.387-0.001,0.644-0.15,0.788-0.274c0.232-0.203,0.362-0.497,0.362-0.827c0-2.55-12.104-13.847-13.937-13.847
			c-0.31,0-0.587,0.138-0.761,0.376c-0.136,0.185-0.264,0.507-0.11,0.996c0.806,2.534-0.764,10.067-1.63,11.264l-0.203,0.371
			l-6.478,6.478l-2.048-2.048c-0.046-0.046-0.102-0.077-0.167-0.113l-0.193-0.111l0.856-0.858l-1.028-1.025l-2.88,2.879l1.028,1.028
			l0.854-0.854l0.105,0.184c0.038,0.066,0.073,0.128,0.121,0.179l2.047,2.046l-2.338,2.339l-2.05-2.051
			c-0.048-0.049-0.113-0.083-0.18-0.12l-0.179-0.099l0.855-0.859l-1.025-1.028l-2.882,2.88l1.027,1.028l0.858-0.859l0.098,0.179
			c0.038,0.068,0.073,0.135,0.125,0.183l2.048,2.049l-2.401,2.403L11.24,30.26c-0.056-0.056-0.123-0.092-0.202-0.133l-0.149-0.08
			l0.105-0.128l0.685-0.68l-1.028-1.028l-2.88,2.882l1.028,1.024l0.918-0.919l0.08,0.15c0.047,0.093,0.084,0.163,0.138,0.212
			l2.051,2.053L11.897,33.7l-4.755,4.756c-0.077,0.078-0.146,0.156-0.215,0.244c-0.099,0.082-0.181,0.152-0.269,0.233
			c-1.752,1.755-2.72,4.097-2.72,6.587c0.001,2.493,0.969,4.831,2.728,6.587c1.755,1.759,4.094,2.726,6.588,2.726
			c2.49,0,4.83-0.967,6.587-2.726c0.074-0.075,0.146-0.157,0.211-0.238l0.037-0.035c0.078-0.064,0.156-0.128,0.23-0.202l8.015-8.016
			l0.088,0.091l5.42,5.414l-0.091,0.088l-1.901,1.898l-0.066-0.014c-0.054-0.012-0.109-0.025-0.159-0.041
			c-0.387-0.1-0.819-0.211-1.221-0.211c-0.421,0.002-0.756,0.124-0.999,0.367l-0.598,0.599c-1.184,1.19-0.188,3.644,0.75,4.582
			l0.85,0.845c0.626,0.627,1.93,1.292,3.11,1.292c0.767,0,1.225-0.296,1.472-0.543l0.597-0.596c0.575-0.577,0.343-1.481,0.157-2.21
			c-0.016-0.059-0.027-0.11-0.042-0.159l-0.017-0.069l0.052-0.053l20.931-20.934c0.101-0.101,0.193-0.213,0.283-0.347l0.032-0.03
			c0.142-0.099,0.255-0.193,0.357-0.295C60.971,29.66,60.971,23.747,57.339,20.113z M17.601,48.915
			c-0.049,0.048-0.09,0.104-0.132,0.162l-0.081,0.117l-0.117,0.078c-0.051,0.034-0.098,0.067-0.147,0.114
			c-1.031,1.034-2.408,1.606-3.871,1.606s-2.838-0.569-3.871-1.601c-1.034-1.033-1.602-2.408-1.602-3.869
			c0-1.466,0.568-2.842,1.601-3.875c0.044-0.045,0.078-0.089,0.127-0.158l0.081-0.111l0.113-0.078
			c0.054-0.039,0.107-0.079,0.157-0.129l4.114-4.113l7.743,7.74L17.601,48.915z M23.745,42.765l-7.736-7.742l5.918-5.918l7.743,7.74
			L23.745,42.765z M54.617,30.574c-0.057,0.062-0.109,0.132-0.161,0.224l-0.103,0.181l-0.182,0.105
			c-0.095,0.055-0.167,0.109-0.22,0.161L36.826,48.369l-7.742-7.74l17.798-17.798c1.029-1.033,2.403-1.602,3.866-1.602
			c1.467,0,2.839,0.569,3.872,1.602c1.035,1.034,1.604,2.409,1.604,3.873S55.655,29.541,54.617,30.574z"/>
	</g>
</g>
</svg>
