<?xml version="1.0" encoding="utf-8"?>
<!-- Generator: Adobe Illustrator 15.0.0, SVG Export Plug-In . SVG Version: 6.00 Build 0)  -->
<!DOCTYPE svg PUBLIC "-//W3C//DTD SVG 1.1//EN" "http://www.w3.org/Graphics/SVG/1.1/DTD/svg11.dtd">
<svg version="1.1" id="Layer_1" xmlns="http://www.w3.org/2000/svg" xmlns:xlink="http://www.w3.org/1999/xlink" x="0px" y="0px"
	 width="64px" height="64px" viewBox="0 0 64 64" enable-background="new 0 0 64 64" xml:space="preserve">
<g>
	<g>
		<path fill="#010101" d="M59.49,20.442C58.633,17.239,45.39,4.246,42.936,3.589c-0.602-0.16-0.968,0.121-1.094,0.25
			c-0.214,0.213-0.423,0.596-0.227,1.221c0.686,2.162-0.588,9.454-1.608,13.829l-0.022,0.083L30.23,28.73l-1.039-1.033l1.063-1.069
			l-1.174-1.172l-2.973,2.984l1.179,1.169l1.066-1.071l1.039,1.033l-2.798,2.798l-1.021-1.021l1.066-1.074l-1.172-1.172
			l-2.969,2.981l1.175,1.173l1.061-1.068l1.021,1.018l-2.704,2.707l-1.023-1.021l1.06-1.064l-1.17-1.174l-2.97,2.981l1.179,1.174
			l1.063-1.073l1.023,1.018l-2.765,2.765l-1.015-1.009l1.005-1.016l-1.175-1.167l-2.969,2.981l1.175,1.173l1.125-1.129l1.012,1.004
			L6.4,52.563l-0.136-0.009c-0.499-0.039-0.983,0.136-1.331,0.488c-0.654,0.66-0.65,1.728,0.005,2.385l3.241,3.242
			c0.66,0.66,1.733,0.66,2.396-0.003c0.489-0.487,0.625-1.248,0.345-1.886l-0.083-0.183l3.259-3.259l0.169,0.419
			c0.531,1.358,1.328,2.579,2.371,3.624c3.952,3.947,10.461,4.11,14.614,0.405l0.5-0.466L46.582,42.49
			c4.15-4.149,4.15-10.908,0-15.061c-0.992-0.993-2.151-1.764-3.438-2.297l-0.413-0.169l1.671-1.668l0.078-0.021
			c4.144-1.091,11.099-2.316,13.278-1.212c0.104,0.053,0.211,0.081,0.328,0.093c0.469,0.039,0.844-0.08,1.121-0.355
			C59.396,21.608,59.687,21.18,59.49,20.442z M41.681,40.027l-12.6,12.6c-2.026,2.027-5.325,2.024-7.351,0
			c-2.026-2.027-2.026-5.322,0-7.353L34.33,32.677c2.025-2.029,5.321-2.029,7.351,0C43.706,34.702,43.706,38,41.681,40.027z"/>
	</g>
</g>
</svg>
