<?xml version="1.0" encoding="utf-8"?>
<!-- Generator: Adobe Illustrator 15.0.0, SVG Export Plug-In . SVG Version: 6.00 Build 0)  -->
<!DOCTYPE svg PUBLIC "-//W3C//DTD SVG 1.1//EN" "http://www.w3.org/Graphics/SVG/1.1/DTD/svg11.dtd">
<svg version="1.1" id="Layer_1" xmlns="http://www.w3.org/2000/svg" xmlns:xlink="http://www.w3.org/1999/xlink" x="0px" y="0px"
	 width="64px" height="64px" viewBox="0 0 64 64" enable-background="new 0 0 64 64" xml:space="preserve">
<g>
	<g>
		<path fill="#010101" d="M59.168,20.578c-0.849-3.165-13.935-16.005-16.36-16.654c-0.595-0.162-0.954,0.121-1.081,0.247
			c-0.212,0.21-0.418,0.588-0.224,1.209c0.677,2.133-0.581,9.339-1.59,13.663l-0.022,0.082l-9.64,9.645l-1.026-1.021l1.051-1.058
			l-1.161-1.154l-2.938,2.947l1.165,1.158l1.054-1.058l1.026,1.018l-2.763,2.764l-1.013-1.009l1.055-1.06l-1.158-1.158l-2.934,2.947
			l1.164,1.157l1.046-1.056l1.008,1.006l-2.672,2.675l-1.011-1.009l1.047-1.052l-1.158-1.16l-2.934,2.947l1.165,1.159l1.051-1.061
			l1.011,1.006l-2.734,2.732l-1.002-0.995l0.997-1.003l-1.164-1.157l-2.932,2.947l1.161,1.159l1.108-1.115l1.003,0.992L6.702,52.326
			l-0.137-0.014c-0.49-0.038-0.972,0.135-1.315,0.482c-0.647,0.652-0.643,1.711,0.005,2.36l3.203,3.201
			c0.652,0.652,1.716,0.652,2.368,0c0.484-0.485,0.621-1.233,0.341-1.863l-0.08-0.184l3.221-3.221l0.165,0.416
			c0.525,1.344,1.313,2.55,2.343,3.58c3.906,3.9,10.339,4.062,14.443,0.4l0.493-0.461l14.66-14.655
			c4.102-4.104,4.102-10.783,0-14.885c-0.984-0.981-2.127-1.743-3.397-2.271l-0.409-0.165l1.652-1.654l0.076-0.02
			c4.095-1.079,10.969-2.288,13.128-1.197c0.097,0.048,0.202,0.082,0.322,0.091c0.46,0.04,0.834-0.079,1.105-0.35
			C59.079,21.73,59.362,21.307,59.168,20.578z M41.567,39.935L29.115,52.384c-2.002,2.007-5.263,2.001-7.265,0
			c-2.002-2-2.002-5.26,0-7.263l12.453-12.452c2.005-2.001,5.26-2.001,7.265,0C43.569,34.673,43.569,37.929,41.567,39.935z"/>
	</g>
	<g>
		<path fill="#010101" d="M35.044,38.809l-7.052,7.052c-0.746,0.746-0.746,1.96,0,2.703c0.542,0.545,1.339,0.688,2.017,0.436
			l8.17-8.171c0.255-0.68,0.112-1.475-0.434-2.02C37.002,38.065,35.786,38.065,35.044,38.809z"/>
	</g>
</g>
</svg>
