<?xml version="1.0" encoding="utf-8"?>
<!-- Generator: Adobe Illustrator 15.0.0, SVG Export Plug-In . SVG Version: 6.00 Build 0)  -->
<!DOCTYPE svg PUBLIC "-//W3C//DTD SVG 1.1//EN" "http://www.w3.org/Graphics/SVG/1.1/DTD/svg11.dtd">
<svg version="1.1" id="Layer_1" xmlns="http://www.w3.org/2000/svg" xmlns:xlink="http://www.w3.org/1999/xlink" x="0px" y="0px"
	 width="64px" height="64px" viewBox="0 0 64 64" enable-background="new 0 0 64 64" xml:space="preserve">
<g>
	<g>
		<path d="M33.146,7.364V6.097c0-0.527-0.427-0.956-0.954-0.956c-0.527,0-0.956,0.429-0.956,0.956v1.259
			C16.138,7.719,3.979,18.766,3.979,32.302v0.765h2.25l0.075-0.68c0.348-3.118,3.766-5.562,7.778-5.562
			c4.015,0,7.431,2.443,7.779,5.562l0.075,0.68h1.807l0.075-0.68c0.336-3.023,3.563-5.406,7.417-5.548v27.243
			c0,1.792-1.457,3.248-3.248,3.248c-1.789,0-3.247-1.456-3.247-3.248h-1.53c0,2.634,2.143,4.777,4.776,4.777
			c2.634,0,4.777-2.144,4.777-4.777v-27.18c3.49,0.419,6.296,2.674,6.609,5.485l0.075,0.68h1.807l0.075-0.68
			c0.347-3.118,3.765-5.562,7.778-5.562c4.015,0,7.431,2.443,7.777,5.562l0.077,0.68h3.057v-0.765
			C60.021,18.88,48.066,7.903,33.146,7.364z"/>
	</g>
</g>
</svg>
