<?xml version="1.0" encoding="utf-8"?>
<!-- Generator: Adobe Illustrator 16.0.4, SVG Export Plug-In . SVG Version: 6.00 Build 0)  -->
<!DOCTYPE svg PUBLIC "-//W3C//DTD SVG 1.1//EN" "http://www.w3.org/Graphics/SVG/1.1/DTD/svg11.dtd">
<svg version="1.1" id="Layer_1" xmlns="http://www.w3.org/2000/svg" xmlns:xlink="http://www.w3.org/1999/xlink" x="0px" y="0px"
	 width="64px" height="64px" viewBox="0 0 64 64" enable-background="new 0 0 64 64" xml:space="preserve">
<path d="M44.234,18.573L56.711,6.096l1.18,1.18L45.414,19.752L44.234,18.573z M47.979,6.847l1.737,1.737l-1.182,1.182l-1.737-1.737
	L47.979,6.847z M49.651,5.174l1.739,1.737l-1.18,1.181l-1.739-1.737L49.651,5.174z M51.258,3.568l1.737,1.74l-1.183,1.18
	l-1.736-1.74L51.258,3.568z M55.963,17.124l-1.736-1.737l1.182-1.181l1.736,1.737L55.963,17.124z M57.639,15.449L55.9,13.712
	l1.18-1.181l1.738,1.737L57.639,15.449z M59.242,13.846l-1.737-1.737l1.181-1.18l1.736,1.737L59.242,13.846z M61.604,7.497
	l-5.088-5.085L39.52,19.409c-2.517-1.823-5.039-2.746-7.5-2.746c-2.662,0-5.087,1.074-7.208,3.194
	c-2.443,2.446-4.215,6.008-4.563,9.152c-0.875-0.189-1.8-0.282-2.753-0.282c-4.162,0-8.801,1.843-11.544,4.583
	c-5.531,5.531-4.485,15.578,2.33,22.396c3.739,3.735,8.597,5.882,13.325,5.882c3.557,0,6.779-1.263,9.071-3.552
	c2.968-2.97,5.447-8.947,4.304-14.298c3.143-0.352,6.705-2.12,9.149-4.563c4.084-4.086,4.253-9.426,0.472-14.675L61.604,7.497z
	 M19.362,55.564c-0.436,0.438-1.016,0.679-1.636,0.679c-0.618,0-1.2-0.241-1.636-0.679l-7.67-7.67
	c-0.436-0.438-0.678-1.018-0.678-1.638c0-0.616,0.242-1.2,0.678-1.636c0.87-0.872,2.4-0.872,3.272,0l7.669,7.672
	c0.439,0.438,0.678,1.02,0.678,1.639C20.04,54.549,19.798,55.129,19.362,55.564z M31.279,35.459l0.025,0.378
	c0.068,0.986-0.29,1.949-0.983,2.646c-0.643,0.644-1.5,0.996-2.41,0.996c-0.91,0-1.765-0.354-2.408-0.996
	c-0.643-0.644-0.996-1.498-0.996-2.407c0-0.913,0.353-1.769,0.996-2.41c0.641-0.642,1.498-0.994,2.408-0.994
	c0.093,0,0.187,0.003,0.28,0.011l0.383,0.029L56.514,4.772l2.727,2.725L31.279,35.459z M10.513,45.805
	c-0.124-0.125-0.285-0.189-0.457-0.189c-0.174,0-0.335,0.064-0.456,0.189c-0.124,0.12-0.189,0.281-0.189,0.452
	c0,0.173,0.065,0.336,0.189,0.457l7.669,7.672c0.247,0.244,0.67,0.244,0.913,0c0.124-0.12,0.189-0.282,0.189-0.454
	c0-0.174-0.065-0.334-0.189-0.459L10.513,45.805z"/>
</svg>
