<?xml version="1.0" encoding="utf-8"?>
<!-- Generator: Adobe Illustrator 15.0.0, SVG Export Plug-In . SVG Version: 6.00 Build 0)  -->
<!DOCTYPE svg PUBLIC "-//W3C//DTD SVG 1.1//EN" "http://www.w3.org/Graphics/SVG/1.1/DTD/svg11.dtd">
<svg version="1.1" id="Layer_1" xmlns="http://www.w3.org/2000/svg" xmlns:xlink="http://www.w3.org/1999/xlink" x="0px" y="0px"
	 width="64px" height="64px" viewBox="0 0 64 64" enable-background="new 0 0 64 64" xml:space="preserve">
<g>
	<g>
		<path d="M2.833,14.146v35.707h58.334V14.146H2.833z M17.928,37.955l-1.342-9.619l3.257,2.046l-5.482-4.338h5.269l0.533,5.658
			c0.067,0.672,0.121,1.332,0.172,2.011c0.274-0.65,0.593-1.361,0.962-2.145l2.61-5.524h3.465l-6.145,11.911H17.928z M26.636,37.955
			l2.263-11.911H32l-2.26,11.911H26.636z M34.98,38.124c-1.415,0-2.694-0.325-3.42-0.87l-0.213-0.162l1.048-2.585l0.351,0.21
			c0.704,0.421,1.603,0.667,2.467,0.667c0.66,0,1.435-0.256,1.435-0.97c0-0.373-0.217-0.701-1.326-1.274
			c-1.176-0.635-2.519-1.581-2.519-3.286c0-2.349,1.964-3.991,4.775-3.991c1.15,0,2.071,0.201,2.811,0.609l0.262,0.144l-0.991,2.655
			l-0.354-0.194c-0.138-0.077-0.887-0.456-1.858-0.456c-0.998,0-1.422,0.434-1.422,0.835c0,0.43,0.549,0.771,1.457,1.278
			c1.615,0.848,2.403,1.918,2.403,3.267C39.886,36.467,37.916,38.124,34.98,38.124z M47.13,37.955l-0.232-2.909h-2.687l-1.333,2.909
			h-3.324l5.798-11.911h3.604l1.396,11.911H47.13z"/>
	</g>
	<g>
		<path d="M46.492,29.707c-0.124,0.319-0.251,0.622-0.376,0.89l-0.886,1.925h1.508l-0.186-2.037
			C46.537,30.255,46.515,29.99,46.492,29.707z"/>
	</g>
</g>
</svg>
