<?xml version="1.0" encoding="utf-8"?>
<!-- Generator: Adobe Illustrator 15.0.0, SVG Export Plug-In . SVG Version: 6.00 Build 0)  -->
<!DOCTYPE svg PUBLIC "-//W3C//DTD SVG 1.1//EN" "http://www.w3.org/Graphics/SVG/1.1/DTD/svg11.dtd">
<svg version="1.1" id="Layer_1" xmlns="http://www.w3.org/2000/svg" xmlns:xlink="http://www.w3.org/1999/xlink" x="0px" y="0px"
	 width="64px" height="64px" viewBox="0 0 64 64" enable-background="new 0 0 64 64" xml:space="preserve">
<g>
	<path fill="#010101" d="M55.833,9.315H40.472c0.129-0.363,0.212-0.748,0.212-1.152V5.933c0-1.908-1.549-3.457-3.457-3.457h-10.8
		c-1.907,0-3.457,1.549-3.457,3.457v2.229c0,0.405,0.084,0.789,0.214,1.152H8.165c-0.637,0-1.151,0.515-1.151,1.151
		c0,0.637,0.514,1.151,1.151,1.151h4.906c-0.142,0.359-0.226,0.745-0.226,1.153v45.584c0,1.747,1.422,3.169,3.17,3.169h31.972
		c1.746,0,3.167-1.422,3.167-3.169V12.771c0-0.408-0.084-0.794-0.225-1.153h4.904c0.637,0,1.154-0.514,1.154-1.151
		C56.987,9.83,56.47,9.315,55.833,9.315z M22.926,51.607c0,0.479-0.387,0.864-0.864,0.864s-0.864-0.386-0.864-0.864V19.515
		c0-0.476,0.387-0.864,0.864-0.864s0.864,0.389,0.864,0.864V51.607z M32.863,51.607c0,0.479-0.387,0.864-0.864,0.864
		s-0.864-0.386-0.864-0.864V19.515c0-0.476,0.387-0.864,0.864-0.864s0.864,0.389,0.864,0.864V51.607z M38.381,8.163
		c0,0.635-0.517,1.152-1.154,1.152h-10.8c-0.636,0-1.151-0.517-1.151-1.152V5.933c0-0.637,0.516-1.153,1.151-1.153h10.8
		c0.638,0,1.154,0.516,1.154,1.153V8.163z M42.944,51.607c0,0.479-0.386,0.864-0.864,0.864c-0.476,0-0.864-0.386-0.864-0.864V19.515
		c0-0.476,0.389-0.864,0.864-0.864c0.479,0,0.864,0.389,0.864,0.864V51.607z"/>
</g>
</svg>
