<?xml version="1.0" encoding="utf-8"?>
<!-- Generator: Adobe Illustrator 15.0.0, SVG Export Plug-In . SVG Version: 6.00 Build 0)  -->
<!DOCTYPE svg PUBLIC "-//W3C//DTD SVG 1.1//EN" "http://www.w3.org/Graphics/SVG/1.1/DTD/svg11.dtd">
<svg version="1.1" id="Layer_1" xmlns="http://www.w3.org/2000/svg" xmlns:xlink="http://www.w3.org/1999/xlink" x="0px" y="0px"
	 width="64px" height="64px" viewBox="0 0 64 64" enable-background="new 0 0 64 64" xml:space="preserve">
<g>
	<g>
		<path fill="#020202" d="M45.851,47.773c6.26-4.384,10.362-11.642,10.362-19.847C56.213,14.576,45.354,3.715,32,3.715
			c-13.351,0-24.213,10.861-24.213,24.211c0,8.286,4.182,15.606,10.542,19.973c-3.23,1.318-4.988,3.079-4.988,5.062
			c0,4.756,9.741,7.324,18.908,7.324c9.164,0,18.904-2.568,18.904-7.324C51.153,50.907,49.286,49.103,45.851,47.773z M31.942,11.232
			c1.13,0,2.043,0.915,2.043,2.044c0,1.128-0.913,2.044-2.043,2.044c-1.126,0-2.042-0.916-2.042-2.044
			C29.9,12.147,30.816,11.232,31.942,11.232z M32,17.542c5.729,0,10.387,4.659,10.387,10.385S37.729,38.314,32,38.314
			c-5.727,0-10.386-4.66-10.386-10.387S26.273,17.542,32,17.542z M32.249,58.242c-10.447,0-16.862-3.077-16.862-5.281
			c0-1.274,1.983-2.674,5.183-3.697c3.407,1.835,7.299,2.877,11.431,2.877c4.206,0,8.16-1.08,11.608-2.973
			c3.351,1.021,5.502,2.486,5.502,3.793C49.11,55.165,42.695,58.242,32.249,58.242z"/>
	</g>
	<g>
		<path fill="#020202" d="M32,34.839c3.811,0,6.912-3.101,6.912-6.911c0-3.81-3.102-6.911-6.912-6.911
			c-3.81,0-6.909,3.101-6.909,6.911C25.091,31.738,28.19,34.839,32,34.839z"/>
	</g>
</g>
</svg>
