<?xml version="1.0" encoding="utf-8"?>
<!-- Generator: Adobe Illustrator 15.0.0, SVG Export Plug-In . SVG Version: 6.00 Build 0)  -->
<!DOCTYPE svg PUBLIC "-//W3C//DTD SVG 1.1//EN" "http://www.w3.org/Graphics/SVG/1.1/DTD/svg11.dtd">
<svg version="1.1" id="Layer_1" xmlns="http://www.w3.org/2000/svg" xmlns:xlink="http://www.w3.org/1999/xlink" x="0px" y="0px"
	 width="64px" height="64px" viewBox="0 0 64 64" enable-background="new 0 0 64 64" xml:space="preserve">
<g>
	<g>
		<path fill="#020202" d="M37.344,34.938c-1.75,0-3.001,1.481-3.001,3.82c0,1.981,1.018,3.633,2.981,3.633
			c1.146,0,2.17-0.711,2.548-1.879c0.105-0.313,0.144-0.669,0.144-0.982v-1.814c0-0.313-0.019-0.585-0.103-0.813
			C39.577,35.814,38.704,34.938,37.344,34.938z"/>
	</g>
	<g>
		<path fill="#020202" d="M52.652,16.781H39.68v-3.619c0-4.237-3.446-7.683-7.68-7.683c-4.237,0-7.683,3.446-7.683,7.683v3.619
			H11.348l-7.072,41.74h55.449L52.652,16.781z M27.146,13.162c0-2.678,2.179-4.854,4.854-4.854c2.675,0,4.852,2.176,4.852,4.854
			v2.925h-9.706V13.162z M29.847,43.827l-4.611-6.905l-1.357,1.545v5.36h-1.817V29.763h1.817v6.781h0.064
			c0.375-0.544,0.749-1.043,1.104-1.501l4.301-5.28H31.6l-5.094,5.968l5.491,8.096H29.847z M41.855,36.483v5.862
			c0,2.339-0.479,3.734-1.439,4.633c-1.005,0.896-2.423,1.21-3.696,1.21c-1.213,0-2.547-0.291-3.359-0.832l0.457-1.421
			c0.669,0.438,1.712,0.813,2.967,0.813c1.875,0,3.254-0.979,3.254-3.545v-1.107h-0.041c-0.545,0.938-1.648,1.689-3.213,1.689
			c-2.506,0-4.301-2.128-4.301-4.925c0-3.424,2.233-5.341,4.569-5.341c1.754,0,2.691,0.896,3.152,1.729h0.041l0.064-1.521h1.625
			C41.875,34.438,41.855,35.271,41.855,36.483z"/>
	</g>
</g>
</svg>
