<?xml version="1.0" encoding="utf-8"?>
<!-- Generator: Adobe Illustrator 15.0.0, SVG Export Plug-In . SVG Version: 6.00 Build 0)  -->
<!DOCTYPE svg PUBLIC "-//W3C//DTD SVG 1.1//EN" "http://www.w3.org/Graphics/SVG/1.1/DTD/svg11.dtd">
<svg version="1.1" id="Layer_1" xmlns="http://www.w3.org/2000/svg" xmlns:xlink="http://www.w3.org/1999/xlink" x="0px" y="0px"
	 width="64px" height="64px" viewBox="0 0 64 64" enable-background="new 0 0 64 64" xml:space="preserve">
<g>
	<g>
		<path fill="#020202" d="M33.41,45.998c11.281-0.738,20.122-10.164,20.122-21.459c0-11.874-9.663-21.533-21.532-21.533
			c-11.873,0-21.533,9.659-21.533,21.533c0,11.295,8.838,20.721,20.119,21.459l0.331,0.019v7.554H18.32
			c-0.596,0-1.083,0.487-1.083,1.087c0,0.597,0.487,1.084,1.083,1.084h27.266c0.596,0,1.083-0.487,1.083-1.084
			c0-0.6-0.487-1.087-1.083-1.087H33.083v-7.554L33.41,45.998z M32,27.821c-1.814,0-3.283-1.473-3.283-3.283
			c0-1.811,1.469-3.283,3.283-3.283c0.342,0,0.691,0.062,1.068,0.193l0.168,0.058l8.081-5.678l-6.245,7.598l0.054,0.178
			c0.105,0.342,0.157,0.647,0.157,0.935C35.283,26.349,33.811,27.821,32,27.821z"/>
	</g>
	<g>
		<path fill="#020202" d="M45.586,58.824H18.32c-0.596,0-1.083,0.486-1.083,1.087c0,0.596,0.487,1.083,1.083,1.083h27.266
			c0.596,0,1.083-0.487,1.083-1.083C46.669,59.311,46.182,58.824,45.586,58.824z"/>
	</g>
</g>
</svg>
