<?xml version="1.0" encoding="utf-8"?>
<!-- Generator: Adobe Illustrator 15.0.0, SVG Export Plug-In . SVG Version: 6.00 Build 0)  -->
<!DOCTYPE svg PUBLIC "-//W3C//DTD SVG 1.1//EN" "http://www.w3.org/Graphics/SVG/1.1/DTD/svg11.dtd">
<svg version="1.1" id="Layer_1" xmlns="http://www.w3.org/2000/svg" xmlns:xlink="http://www.w3.org/1999/xlink" x="0px" y="0px"
	 width="64px" height="64px" viewBox="0 0 64 64" enable-background="new 0 0 64 64" xml:space="preserve">
<g>
	<g>
		<g>
			<path d="M50.198,33.465c-4.938-4.843-11.474-7.509-18.411-7.509c-7.028,0-13.628,2.729-18.583,7.686
				c-0.253,0.252-0.392,0.59-0.392,0.95s0.14,0.698,0.395,0.95l5.17,5.171c0.509,0.508,1.393,0.508,1.899-0.002
				c3.07-3.069,7.159-4.76,11.514-4.76c4.353,0,8.443,1.69,11.515,4.762c0.253,0.253,0.591,0.393,0.948,0.393
				c0.36,0,0.698-0.14,0.95-0.395l5.191-5.188c0.523-0.526,0.526-1.379,0.002-1.9L50.198,33.465z"/>
		</g>
	</g>
	<g>
		<g>
			<path d="M59.563,24.452l-0.204-0.157c-7.326-7.233-17.044-11.216-27.371-11.216c-10.419,0-20.205,4.047-27.551,11.394
				c-0.524,0.524-0.522,1.378,0.002,1.904l5.32,5.32c0.51,0.508,1.392,0.507,1.9-0.001c5.42-5.421,12.639-8.405,20.329-8.405
				c7.688,0,14.908,2.985,20.331,8.407c0.253,0.253,0.591,0.393,0.948,0.393c0.36,0,0.698-0.14,0.95-0.393l5.341-5.341
				c0.255-0.254,0.396-0.595,0.396-0.958C59.955,25.04,59.815,24.703,59.563,24.452z"/>
		</g>
	</g>
	<g>
		<g>
			<path d="M31.67,39.81c-2.697,0-5.286,0.892-7.692,2.647l-0.728,0.532l8.471,7.932l8.722-7.805l-0.678-0.551
				C39.628,42.452,36.321,39.81,31.67,39.81z"/>
		</g>
	</g>
</g>
</svg>
