<?xml version="1.0" encoding="utf-8"?>
<!-- Generator: Adobe Illustrator 15.0.0, SVG Export Plug-In . SVG Version: 6.00 Build 0)  -->
<!DOCTYPE svg PUBLIC "-//W3C//DTD SVG 1.1//EN" "http://www.w3.org/Graphics/SVG/1.1/DTD/svg11.dtd">
<svg version="1.1" id="Layer_1" xmlns="http://www.w3.org/2000/svg" xmlns:xlink="http://www.w3.org/1999/xlink" x="0px" y="0px"
	 width="64px" height="64px" viewBox="0 0 64 64" enable-background="new 0 0 64 64" xml:space="preserve">
<g>
	<g>
		<path d="M21.844,21.499H4v37.111h37.11V43.364V32.851V21.499H23.268H21.844z M24.729,30.385v7.497h7.494
			c1.198,0,2.171,0.974,2.171,2.172c0,1.197-0.974,2.172-2.171,2.172h-7.494v7.495c0,1.198-0.975,2.172-2.173,2.172
			s-2.173-0.974-2.173-2.172v-7.495h-7.493c-1.198,0-2.172-0.975-2.172-2.172c0-1.198,0.974-2.172,2.172-2.172h7.493v-7.497
			c0-1.197,0.975-2.171,2.173-2.171S24.729,29.188,24.729,30.385z"/>
	</g>
	<g>
		<polygon points="25.737,5.391 25.737,19.211 43.579,19.211 43.579,39.653 60,39.653 60,5.391 		"/>
	</g>
</g>
</svg>
