<?xml version="1.0" encoding="utf-8"?>
<!-- Generator: Adobe Illustrator 15.0.0, SVG Export Plug-In . SVG Version: 6.00 Build 0)  -->
<!DOCTYPE svg PUBLIC "-//W3C//DTD SVG 1.1//EN" "http://www.w3.org/Graphics/SVG/1.1/DTD/svg11.dtd">
<svg version="1.1" id="Layer_1" xmlns="http://www.w3.org/2000/svg" xmlns:xlink="http://www.w3.org/1999/xlink" x="0px" y="0px"
	 width="64px" height="64px" viewBox="0 0 64 64" enable-background="new 0 0 64 64" xml:space="preserve">
<g>
	<g>
		<path d="M59.329,53.932L38.549,33.15c2.055-3.095,3.16-6.722,3.16-10.52c0-5.094-1.983-9.884-5.589-13.488
			c-3.602-3.603-8.391-5.587-13.486-5.587c-5.097,0-9.888,1.984-13.491,5.587c-3.602,3.604-5.585,8.394-5.585,13.488
			c0,5.095,1.983,9.885,5.586,13.488c3.604,3.602,8.394,5.587,13.487,5.587c3.799,0,7.427-1.105,10.52-3.159l20.776,20.776
			c0.721,0.722,1.679,1.12,2.701,1.12c1.02,0,1.977-0.396,2.701-1.117C60.813,57.837,60.813,55.418,59.329,53.932z M31.396,31.396
			c-2.339,2.34-5.451,3.63-8.764,3.63c-3.309,0-6.421-1.29-8.762-3.63c-2.342-2.342-3.631-5.454-3.631-8.765s1.289-6.423,3.63-8.763
			c2.342-2.342,5.455-3.631,8.766-3.631c3.311,0,6.422,1.289,8.763,3.631c2.34,2.339,3.629,5.451,3.629,8.763
			C35.026,25.941,33.737,29.054,31.396,31.396z"/>
	</g>
	<g>
		<path d="M28.829,21.845h-12.41c-0.465,0-0.841,0.376-0.841,0.841c0,0.465,0.376,0.842,0.841,0.842h12.41
			c0.467,0,0.842-0.377,0.842-0.842C29.671,22.221,29.296,21.845,28.829,21.845z"/>
	</g>
</g>
</svg>
