<?xml version="1.0" encoding="utf-8"?>
<!-- Generator: Adobe Illustrator 15.0.0, SVG Export Plug-In . SVG Version: 6.00 Build 0)  -->
<!DOCTYPE svg PUBLIC "-//W3C//DTD SVG 1.1//EN" "http://www.w3.org/Graphics/SVG/1.1/DTD/svg11.dtd">
<svg version="1.1" id="Layer_1" xmlns="http://www.w3.org/2000/svg" xmlns:xlink="http://www.w3.org/1999/xlink" x="0px" y="0px"
	 width="64px" height="64px" viewBox="0 0 64 64" enable-background="new 0 0 64 64" xml:space="preserve">
<g>
	<path d="M58.928,53.61L38.452,33.134c2.025-3.049,3.114-6.624,3.114-10.366c0-5.019-1.956-9.739-5.507-13.29
		c-3.549-3.55-8.268-5.505-13.288-5.505c-5.022,0-9.743,1.955-13.293,5.505c-3.549,3.551-5.504,8.271-5.504,13.29
		c0,5.021,1.955,9.74,5.504,13.291c3.551,3.549,8.271,5.505,13.292,5.505c3.742,0,7.318-1.089,10.366-3.112l20.472,20.472
		c0.709,0.711,1.654,1.104,2.66,1.104c1.003,0,1.949-0.39,2.663-1.101C60.393,57.458,60.393,55.075,58.928,53.61z M22.771,10.556
		c3.261,0,6.327,1.27,8.634,3.578c2.308,2.305,3.577,5.371,3.577,8.635c0,3.262-1.27,6.329-3.577,8.636
		c-2.307,2.306-5.373,3.577-8.635,3.577s-6.329-1.271-8.636-3.577c-2.307-2.308-3.578-5.374-3.578-8.636s1.271-6.329,3.577-8.635
		C16.441,11.826,19.509,10.556,22.771,10.556z"/>
</g>
</svg>
